<svg xmlns="http://www.w3.org/2000/svg" xmlns:xlink="http://www.w3.org/1999/xlink" width="500" zoomAndPan="magnify" viewBox="0 0 375 149.999998" height="200" preserveAspectRatio="xMidYMid meet" version="1.0"><defs><g/><clipPath id="6905031192"><path d="M 38.914062 25.019531 L 89.226562 25.019531 L 89.226562 92.542969 L 38.914062 92.542969 Z M 38.914062 25.019531 " clip-rule="nonzero"/></clipPath><clipPath id="3009e0a078"><path d="M 135.871094 19.164062 L 178 19.164062 L 178 58 L 135.871094 58 Z M 135.871094 19.164062 " clip-rule="nonzero"/></clipPath><clipPath id="bee0e542ec"><path d="M 203 19.164062 L 244.972656 19.164062 L 244.972656 58 L 203 58 Z M 203 19.164062 " clip-rule="nonzero"/></clipPath><clipPath id="d856e9a447"><path d="M 162 58 L 219 58 L 219 115.074219 L 162 115.074219 Z M 162 58 " clip-rule="nonzero"/></clipPath><clipPath id="4b759d4390"><path d="M 335 39 L 367.75 39 L 367.75 72 L 335 72 Z M 335 39 " clip-rule="nonzero"/></clipPath><clipPath id="20b55cc11d"><path d="M 312 98 L 338 98 L 338 123.863281 L 312 123.863281 Z M 312 98 " clip-rule="nonzero"/></clipPath><clipPath id="573380811b"><path d="M 328 25.019531 L 341 25.019531 L 341 41 L 328 41 Z M 328 25.019531 " clip-rule="nonzero"/></clipPath></defs><rect x="-37.5" width="450" fill="#ffffff" y="-15" height="179.999997" fill-opacity="1"/><rect x="-37.5" width="450" fill="#f7fcff" y="-15" height="179.999997" fill-opacity="1"/><path fill="#0097b2" d="M 64.632812 40.414062 C 68.84375 40.414062 72.269531 43.859375 72.269531 48.089844 L 72.269531 51.339844 L 74.554688 51.339844 L 74.554688 48.089844 C 74.554688 42.589844 70.105469 38.117188 64.632812 38.117188 C 59.160156 38.117188 54.707031 42.589844 54.707031 48.089844 L 54.707031 51.339844 L 56.992188 51.339844 L 56.992188 48.089844 C 56.992188 43.859375 60.421875 40.414062 64.632812 40.414062 " fill-opacity="1" fill-rule="nonzero"/><path fill="#0097b2" d="M 57.679688 52.714844 L 54.632812 52.714844 C 53.65625 52.714844 52.859375 53.515625 52.859375 54.496094 L 52.859375 67.996094 C 52.859375 68.976562 53.65625 69.777344 54.632812 69.777344 L 74.628906 69.777344 C 75.609375 69.777344 76.402344 68.976562 76.402344 67.996094 L 76.402344 54.496094 C 76.402344 53.515625 75.609375 52.714844 74.628906 52.714844 Z M 67.539062 66.433594 C 67.566406 66.632812 67.503906 66.832031 67.375 66.980469 C 67.246094 67.132812 67.058594 67.21875 66.859375 67.21875 L 62.402344 67.21875 C 62.207031 67.21875 62.015625 67.132812 61.886719 66.980469 C 61.757812 66.832031 61.699219 66.632812 61.726562 66.433594 L 62.363281 61.792969 C 61.496094 61.105469 60.988281 60.0625 60.988281 58.933594 C 60.988281 56.914062 62.621094 55.273438 64.632812 55.273438 C 66.640625 55.273438 68.273438 56.914062 68.273438 58.933594 C 68.273438 60.0625 67.769531 61.105469 66.898438 61.792969 L 67.539062 66.433594 " fill-opacity="1" fill-rule="nonzero"/><g clip-path="url(#6905031192)"><path fill="#0097b2" d="M 88.1875 33.300781 C 82.722656 32.613281 69.527344 30.46875 64.992188 25.441406 C 64.75 25.167969 64.421875 25.019531 64.070312 25.019531 C 63.71875 25.019531 63.390625 25.167969 63.148438 25.441406 C 58.613281 30.46875 45.417969 32.613281 39.953125 33.300781 C 39.363281 33.375 38.917969 33.882812 38.917969 34.484375 L 38.917969 45.335938 C 38.917969 71.25 57.613281 87.761719 63.339844 92.207031 C 63.769531 92.539062 64.371094 92.542969 64.800781 92.207031 C 70.53125 87.761719 89.222656 71.25 89.222656 45.335938 L 89.222656 34.484375 C 89.222656 33.882812 88.777344 33.375 88.1875 33.300781 Z M 87.128906 47.132812 C 87.128906 70.15625 70.5625 84.800781 65.484375 88.738281 C 65.066406 89.0625 64.570312 89.222656 64.070312 89.222656 C 63.570312 89.222656 63.074219 89.0625 62.65625 88.738281 C 57.578125 84.800781 41.011719 70.15625 41.011719 47.132812 L 41.011719 37.734375 C 41.011719 36.566406 41.878906 35.578125 43.027344 35.433594 C 46.609375 34.984375 58.582031 33.1875 62.324219 29.039062 C 62.773438 28.539062 63.410156 28.253906 64.070312 28.253906 C 64.730469 28.253906 65.367188 28.539062 65.816406 29.039062 C 69.558594 33.1875 81.535156 34.984375 85.113281 35.433594 C 86.261719 35.578125 87.128906 36.566406 87.128906 37.734375 L 87.128906 47.132812 " fill-opacity="1" fill-rule="nonzero"/></g><g fill="#0097b2" fill-opacity="1"><g transform="translate(8.110036, 107.505146)"><g><path d="M 5.828125 -5.359375 C 5.828125 -4.585938 5.566406 -3.992188 5.046875 -3.578125 C 4.523438 -3.171875 3.78125 -2.96875 2.8125 -2.96875 L 1.921875 -2.96875 L 1.921875 0 L 1.046875 0 L 1.046875 -7.5625 L 3 -7.5625 C 4.882812 -7.5625 5.828125 -6.828125 5.828125 -5.359375 Z M 1.921875 -3.734375 L 2.703125 -3.734375 C 3.484375 -3.734375 4.046875 -3.859375 4.390625 -4.109375 C 4.742188 -4.359375 4.921875 -4.757812 4.921875 -5.3125 C 4.921875 -5.8125 4.753906 -6.179688 4.421875 -6.421875 C 4.097656 -6.671875 3.59375 -6.796875 2.90625 -6.796875 L 1.921875 -6.796875 Z M 1.921875 -3.734375 "/></g></g><g transform="translate(14.486863, 107.505146)"><g><path d="M 3.3125 0.109375 C 2.46875 0.109375 1.800781 -0.144531 1.3125 -0.65625 C 0.832031 -1.164062 0.59375 -1.875 0.59375 -2.78125 C 0.59375 -3.695312 0.816406 -4.421875 1.265625 -4.953125 C 1.710938 -5.492188 2.316406 -5.765625 3.078125 -5.765625 C 3.796875 -5.765625 4.359375 -5.53125 4.765625 -5.0625 C 5.179688 -4.601562 5.390625 -3.988281 5.390625 -3.21875 L 5.390625 -2.671875 L 1.484375 -2.671875 C 1.503906 -2.015625 1.671875 -1.507812 1.984375 -1.15625 C 2.304688 -0.8125 2.757812 -0.640625 3.34375 -0.640625 C 3.945312 -0.640625 4.546875 -0.769531 5.140625 -1.03125 L 5.140625 -0.265625 C 4.835938 -0.128906 4.550781 -0.0351562 4.28125 0.015625 C 4.007812 0.078125 3.6875 0.109375 3.3125 0.109375 Z M 3.078125 -5.046875 C 2.617188 -5.046875 2.253906 -4.894531 1.984375 -4.59375 C 1.710938 -4.300781 1.550781 -3.894531 1.5 -3.375 L 4.46875 -3.375 C 4.46875 -3.914062 4.347656 -4.328125 4.109375 -4.609375 C 3.867188 -4.898438 3.523438 -5.046875 3.078125 -5.046875 Z M 3.078125 -5.046875 "/></g></g><g transform="translate(20.429258, 107.505146)"><g><path d="M 3.5 -5.765625 C 3.75 -5.765625 3.972656 -5.742188 4.171875 -5.703125 L 4.0625 -4.921875 C 3.820312 -4.960938 3.613281 -4.984375 3.4375 -4.984375 C 2.976562 -4.984375 2.582031 -4.796875 2.25 -4.421875 C 1.925781 -4.054688 1.765625 -3.597656 1.765625 -3.046875 L 1.765625 0 L 0.90625 0 L 0.90625 -5.671875 L 1.625 -5.671875 L 1.71875 -4.625 L 1.765625 -4.625 C 1.972656 -4.988281 2.222656 -5.269531 2.515625 -5.46875 C 2.816406 -5.664062 3.144531 -5.765625 3.5 -5.765625 Z M 3.5 -5.765625 "/></g></g><g transform="translate(24.752881, 107.505146)"><g><path d="M 4.5625 -1.546875 C 4.5625 -1.015625 4.363281 -0.601562 3.96875 -0.3125 C 3.582031 -0.03125 3.035156 0.109375 2.328125 0.109375 C 1.566406 0.109375 0.976562 -0.0078125 0.5625 -0.25 L 0.5625 -1.046875 C 0.832031 -0.910156 1.125 -0.800781 1.4375 -0.71875 C 1.75 -0.644531 2.050781 -0.609375 2.34375 -0.609375 C 2.789062 -0.609375 3.132812 -0.675781 3.375 -0.8125 C 3.613281 -0.957031 3.734375 -1.175781 3.734375 -1.46875 C 3.734375 -1.695312 3.640625 -1.890625 3.453125 -2.046875 C 3.265625 -2.203125 2.890625 -2.382812 2.328125 -2.59375 C 1.804688 -2.789062 1.429688 -2.960938 1.203125 -3.109375 C 0.984375 -3.253906 0.816406 -3.421875 0.703125 -3.609375 C 0.597656 -3.796875 0.546875 -4.019531 0.546875 -4.28125 C 0.546875 -4.738281 0.734375 -5.097656 1.109375 -5.359375 C 1.484375 -5.628906 2 -5.765625 2.65625 -5.765625 C 3.269531 -5.765625 3.867188 -5.644531 4.453125 -5.40625 L 4.140625 -4.703125 C 3.578125 -4.929688 3.0625 -5.046875 2.59375 -5.046875 C 2.1875 -5.046875 1.878906 -4.984375 1.671875 -4.859375 C 1.460938 -4.734375 1.359375 -4.554688 1.359375 -4.328125 C 1.359375 -4.179688 1.394531 -4.050781 1.46875 -3.9375 C 1.550781 -3.832031 1.675781 -3.734375 1.84375 -3.640625 C 2.019531 -3.546875 2.351562 -3.40625 2.84375 -3.21875 C 3.519531 -2.976562 3.972656 -2.734375 4.203125 -2.484375 C 4.441406 -2.234375 4.5625 -1.921875 4.5625 -1.546875 Z M 4.5625 -1.546875 "/></g></g><g transform="translate(29.805727, 107.505146)"><g><path d="M 5.796875 -2.84375 C 5.796875 -1.914062 5.5625 -1.191406 5.09375 -0.671875 C 4.632812 -0.148438 3.992188 0.109375 3.171875 0.109375 C 2.671875 0.109375 2.222656 -0.0078125 1.828125 -0.25 C 1.429688 -0.488281 1.125 -0.828125 0.90625 -1.265625 C 0.695312 -1.710938 0.59375 -2.238281 0.59375 -2.84375 C 0.59375 -3.757812 0.820312 -4.472656 1.28125 -4.984375 C 1.75 -5.503906 2.394531 -5.765625 3.21875 -5.765625 C 4.007812 -5.765625 4.632812 -5.5 5.09375 -4.96875 C 5.5625 -4.445312 5.796875 -3.738281 5.796875 -2.84375 Z M 1.484375 -2.84375 C 1.484375 -2.113281 1.628906 -1.554688 1.921875 -1.171875 C 2.210938 -0.796875 2.640625 -0.609375 3.203125 -0.609375 C 3.765625 -0.609375 4.191406 -0.796875 4.484375 -1.171875 C 4.773438 -1.554688 4.921875 -2.113281 4.921875 -2.84375 C 4.921875 -3.5625 4.773438 -4.109375 4.484375 -4.484375 C 4.191406 -4.859375 3.757812 -5.046875 3.1875 -5.046875 C 2.625 -5.046875 2.195312 -4.859375 1.90625 -4.484375 C 1.625 -4.117188 1.484375 -3.570312 1.484375 -2.84375 Z M 1.484375 -2.84375 "/></g></g><g transform="translate(36.203241, 107.505146)"><g><path d="M 4.796875 0 L 4.796875 -3.671875 C 4.796875 -4.128906 4.6875 -4.472656 4.46875 -4.703125 C 4.257812 -4.929688 3.929688 -5.046875 3.484375 -5.046875 C 2.890625 -5.046875 2.453125 -4.882812 2.171875 -4.5625 C 1.898438 -4.238281 1.765625 -3.707031 1.765625 -2.96875 L 1.765625 0 L 0.90625 0 L 0.90625 -5.671875 L 1.609375 -5.671875 L 1.75 -4.890625 L 1.796875 -4.890625 C 1.960938 -5.171875 2.203125 -5.382812 2.515625 -5.53125 C 2.835938 -5.6875 3.195312 -5.765625 3.59375 -5.765625 C 4.269531 -5.765625 4.78125 -5.597656 5.125 -5.265625 C 5.476562 -4.941406 5.65625 -4.421875 5.65625 -3.703125 L 5.65625 0 Z M 4.796875 0 "/></g></g><g transform="translate(42.70419, 107.505146)"><g><path d="M 4.390625 0 L 4.21875 -0.8125 L 4.1875 -0.8125 C 3.90625 -0.457031 3.625 -0.210938 3.34375 -0.078125 C 3.0625 0.046875 2.707031 0.109375 2.28125 0.109375 C 1.71875 0.109375 1.273438 -0.0351562 0.953125 -0.328125 C 0.640625 -0.617188 0.484375 -1.03125 0.484375 -1.5625 C 0.484375 -2.707031 1.398438 -3.3125 3.234375 -3.375 L 4.1875 -3.40625 L 4.1875 -3.75 C 4.1875 -4.195312 4.09375 -4.523438 3.90625 -4.734375 C 3.71875 -4.941406 3.410156 -5.046875 2.984375 -5.046875 C 2.515625 -5.046875 1.984375 -4.90625 1.390625 -4.625 L 1.125 -5.28125 C 1.40625 -5.425781 1.710938 -5.539062 2.046875 -5.625 C 2.378906 -5.71875 2.710938 -5.765625 3.046875 -5.765625 C 3.722656 -5.765625 4.222656 -5.613281 4.546875 -5.3125 C 4.867188 -5.007812 5.03125 -4.53125 5.03125 -3.875 L 5.03125 0 Z M 2.453125 -0.609375 C 2.992188 -0.609375 3.414062 -0.753906 3.71875 -1.046875 C 4.019531 -1.335938 4.171875 -1.75 4.171875 -2.28125 L 4.171875 -2.78125 L 3.3125 -2.75 C 2.632812 -2.726562 2.144531 -2.625 1.84375 -2.4375 C 1.539062 -2.25 1.390625 -1.957031 1.390625 -1.5625 C 1.390625 -1.25 1.484375 -1.007812 1.671875 -0.84375 C 1.859375 -0.6875 2.117188 -0.609375 2.453125 -0.609375 Z M 2.453125 -0.609375 "/></g></g><g transform="translate(48.594868, 107.505146)"><g><path d="M 1.765625 0 L 0.90625 0 L 0.90625 -8.046875 L 1.765625 -8.046875 Z M 1.765625 0 "/></g></g><g transform="translate(51.273859, 107.505146)"><g/></g><g transform="translate(54.025255, 107.505146)"><g><path d="M 5.796875 0 L 4.859375 -2.40625 L 1.828125 -2.40625 L 0.890625 0 L 0 0 L 2.984375 -7.59375 L 3.734375 -7.59375 L 6.703125 0 Z M 4.578125 -3.203125 L 3.703125 -5.546875 C 3.585938 -5.835938 3.46875 -6.195312 3.34375 -6.625 C 3.269531 -6.300781 3.160156 -5.941406 3.015625 -5.546875 L 2.125 -3.203125 Z M 4.578125 -3.203125 "/></g></g><g transform="translate(60.727905, 107.505146)"><g><path d="M 3.171875 0.109375 C 2.347656 0.109375 1.710938 -0.140625 1.265625 -0.640625 C 0.816406 -1.148438 0.59375 -1.867188 0.59375 -2.796875 C 0.59375 -3.742188 0.820312 -4.472656 1.28125 -4.984375 C 1.738281 -5.503906 2.390625 -5.765625 3.234375 -5.765625 C 3.503906 -5.765625 3.773438 -5.734375 4.046875 -5.671875 C 4.316406 -5.617188 4.53125 -5.554688 4.6875 -5.484375 L 4.421875 -4.75 C 4.234375 -4.820312 4.023438 -4.882812 3.796875 -4.9375 C 3.578125 -4.988281 3.382812 -5.015625 3.21875 -5.015625 C 2.0625 -5.015625 1.484375 -4.28125 1.484375 -2.8125 C 1.484375 -2.113281 1.625 -1.578125 1.90625 -1.203125 C 2.1875 -0.828125 2.601562 -0.640625 3.15625 -0.640625 C 3.625 -0.640625 4.109375 -0.742188 4.609375 -0.953125 L 4.609375 -0.1875 C 4.234375 0.0078125 3.753906 0.109375 3.171875 0.109375 Z M 3.171875 0.109375 "/></g></g><g transform="translate(65.770408, 107.505146)"><g><path d="M 3.171875 0.109375 C 2.347656 0.109375 1.710938 -0.140625 1.265625 -0.640625 C 0.816406 -1.148438 0.59375 -1.867188 0.59375 -2.796875 C 0.59375 -3.742188 0.820312 -4.472656 1.28125 -4.984375 C 1.738281 -5.503906 2.390625 -5.765625 3.234375 -5.765625 C 3.503906 -5.765625 3.773438 -5.734375 4.046875 -5.671875 C 4.316406 -5.617188 4.53125 -5.554688 4.6875 -5.484375 L 4.421875 -4.75 C 4.234375 -4.820312 4.023438 -4.882812 3.796875 -4.9375 C 3.578125 -4.988281 3.382812 -5.015625 3.21875 -5.015625 C 2.0625 -5.015625 1.484375 -4.28125 1.484375 -2.8125 C 1.484375 -2.113281 1.625 -1.578125 1.90625 -1.203125 C 2.1875 -0.828125 2.601562 -0.640625 3.15625 -0.640625 C 3.625 -0.640625 4.109375 -0.742188 4.609375 -0.953125 L 4.609375 -0.1875 C 4.234375 0.0078125 3.753906 0.109375 3.171875 0.109375 Z M 3.171875 0.109375 "/></g></g><g transform="translate(70.81291, 107.505146)"><g><path d="M 3.3125 0.109375 C 2.46875 0.109375 1.800781 -0.144531 1.3125 -0.65625 C 0.832031 -1.164062 0.59375 -1.875 0.59375 -2.78125 C 0.59375 -3.695312 0.816406 -4.421875 1.265625 -4.953125 C 1.710938 -5.492188 2.316406 -5.765625 3.078125 -5.765625 C 3.796875 -5.765625 4.359375 -5.53125 4.765625 -5.0625 C 5.179688 -4.601562 5.390625 -3.988281 5.390625 -3.21875 L 5.390625 -2.671875 L 1.484375 -2.671875 C 1.503906 -2.015625 1.671875 -1.507812 1.984375 -1.15625 C 2.304688 -0.8125 2.757812 -0.640625 3.34375 -0.640625 C 3.945312 -0.640625 4.546875 -0.769531 5.140625 -1.03125 L 5.140625 -0.265625 C 4.835938 -0.128906 4.550781 -0.0351562 4.28125 0.015625 C 4.007812 0.078125 3.6875 0.109375 3.3125 0.109375 Z M 3.078125 -5.046875 C 2.617188 -5.046875 2.253906 -4.894531 1.984375 -4.59375 C 1.710938 -4.300781 1.550781 -3.894531 1.5 -3.375 L 4.46875 -3.375 C 4.46875 -3.914062 4.347656 -4.328125 4.109375 -4.609375 C 3.867188 -4.898438 3.523438 -5.046875 3.078125 -5.046875 Z M 3.078125 -5.046875 "/></g></g><g transform="translate(76.755306, 107.505146)"><g><path d="M 4.5625 -1.546875 C 4.5625 -1.015625 4.363281 -0.601562 3.96875 -0.3125 C 3.582031 -0.03125 3.035156 0.109375 2.328125 0.109375 C 1.566406 0.109375 0.976562 -0.0078125 0.5625 -0.25 L 0.5625 -1.046875 C 0.832031 -0.910156 1.125 -0.800781 1.4375 -0.71875 C 1.75 -0.644531 2.050781 -0.609375 2.34375 -0.609375 C 2.789062 -0.609375 3.132812 -0.675781 3.375 -0.8125 C 3.613281 -0.957031 3.734375 -1.175781 3.734375 -1.46875 C 3.734375 -1.695312 3.640625 -1.890625 3.453125 -2.046875 C 3.265625 -2.203125 2.890625 -2.382812 2.328125 -2.59375 C 1.804688 -2.789062 1.429688 -2.960938 1.203125 -3.109375 C 0.984375 -3.253906 0.816406 -3.421875 0.703125 -3.609375 C 0.597656 -3.796875 0.546875 -4.019531 0.546875 -4.28125 C 0.546875 -4.738281 0.734375 -5.097656 1.109375 -5.359375 C 1.484375 -5.628906 2 -5.765625 2.65625 -5.765625 C 3.269531 -5.765625 3.867188 -5.644531 4.453125 -5.40625 L 4.140625 -4.703125 C 3.578125 -4.929688 3.0625 -5.046875 2.59375 -5.046875 C 2.1875 -5.046875 1.878906 -4.984375 1.671875 -4.859375 C 1.460938 -4.734375 1.359375 -4.554688 1.359375 -4.328125 C 1.359375 -4.179688 1.394531 -4.050781 1.46875 -3.9375 C 1.550781 -3.832031 1.675781 -3.734375 1.84375 -3.640625 C 2.019531 -3.546875 2.351562 -3.40625 2.84375 -3.21875 C 3.519531 -2.976562 3.972656 -2.734375 4.203125 -2.484375 C 4.441406 -2.234375 4.5625 -1.921875 4.5625 -1.546875 Z M 4.5625 -1.546875 "/></g></g><g transform="translate(81.808152, 107.505146)"><g><path d="M 4.5625 -1.546875 C 4.5625 -1.015625 4.363281 -0.601562 3.96875 -0.3125 C 3.582031 -0.03125 3.035156 0.109375 2.328125 0.109375 C 1.566406 0.109375 0.976562 -0.0078125 0.5625 -0.25 L 0.5625 -1.046875 C 0.832031 -0.910156 1.125 -0.800781 1.4375 -0.71875 C 1.75 -0.644531 2.050781 -0.609375 2.34375 -0.609375 C 2.789062 -0.609375 3.132812 -0.675781 3.375 -0.8125 C 3.613281 -0.957031 3.734375 -1.175781 3.734375 -1.46875 C 3.734375 -1.695312 3.640625 -1.890625 3.453125 -2.046875 C 3.265625 -2.203125 2.890625 -2.382812 2.328125 -2.59375 C 1.804688 -2.789062 1.429688 -2.960938 1.203125 -3.109375 C 0.984375 -3.253906 0.816406 -3.421875 0.703125 -3.609375 C 0.597656 -3.796875 0.546875 -4.019531 0.546875 -4.28125 C 0.546875 -4.738281 0.734375 -5.097656 1.109375 -5.359375 C 1.484375 -5.628906 2 -5.765625 2.65625 -5.765625 C 3.269531 -5.765625 3.867188 -5.644531 4.453125 -5.40625 L 4.140625 -4.703125 C 3.578125 -4.929688 3.0625 -5.046875 2.59375 -5.046875 C 2.1875 -5.046875 1.878906 -4.984375 1.671875 -4.859375 C 1.460938 -4.734375 1.359375 -4.554688 1.359375 -4.328125 C 1.359375 -4.179688 1.394531 -4.050781 1.46875 -3.9375 C 1.550781 -3.832031 1.675781 -3.734375 1.84375 -3.640625 C 2.019531 -3.546875 2.351562 -3.40625 2.84375 -3.21875 C 3.519531 -2.976562 3.972656 -2.734375 4.203125 -2.484375 C 4.441406 -2.234375 4.5625 -1.921875 4.5625 -1.546875 Z M 4.5625 -1.546875 "/></g></g><g transform="translate(86.860998, 107.505146)"><g/></g><g transform="translate(89.612395, 107.505146)"><g><path d="M 3.375 0 L 2.484375 0 L 2.484375 -6.78125 L 0.09375 -6.78125 L 0.09375 -7.5625 L 5.765625 -7.5625 L 5.765625 -6.78125 L 3.375 -6.78125 Z M 3.375 0 "/></g></g><g transform="translate(95.472041, 107.505146)"><g><path d="M 5.796875 -2.84375 C 5.796875 -1.914062 5.5625 -1.191406 5.09375 -0.671875 C 4.632812 -0.148438 3.992188 0.109375 3.171875 0.109375 C 2.671875 0.109375 2.222656 -0.0078125 1.828125 -0.25 C 1.429688 -0.488281 1.125 -0.828125 0.90625 -1.265625 C 0.695312 -1.710938 0.59375 -2.238281 0.59375 -2.84375 C 0.59375 -3.757812 0.820312 -4.472656 1.28125 -4.984375 C 1.75 -5.503906 2.394531 -5.765625 3.21875 -5.765625 C 4.007812 -5.765625 4.632812 -5.5 5.09375 -4.96875 C 5.5625 -4.445312 5.796875 -3.738281 5.796875 -2.84375 Z M 1.484375 -2.84375 C 1.484375 -2.113281 1.628906 -1.554688 1.921875 -1.171875 C 2.210938 -0.796875 2.640625 -0.609375 3.203125 -0.609375 C 3.765625 -0.609375 4.191406 -0.796875 4.484375 -1.171875 C 4.773438 -1.554688 4.921875 -2.113281 4.921875 -2.84375 C 4.921875 -3.5625 4.773438 -4.109375 4.484375 -4.484375 C 4.191406 -4.859375 3.757812 -5.046875 3.1875 -5.046875 C 2.625 -5.046875 2.195312 -4.859375 1.90625 -4.484375 C 1.625 -4.117188 1.484375 -3.570312 1.484375 -2.84375 Z M 1.484375 -2.84375 "/></g></g><g transform="translate(101.869555, 107.505146)"><g><path d="M 1.765625 -2.90625 C 1.910156 -3.113281 2.132812 -3.390625 2.4375 -3.734375 L 4.265625 -5.671875 L 5.28125 -5.671875 L 2.984375 -3.25 L 5.453125 0 L 4.40625 0 L 2.40625 -2.671875 L 1.765625 -2.125 L 1.765625 0 L 0.90625 0 L 0.90625 -8.046875 L 1.765625 -8.046875 L 1.765625 -3.78125 C 1.765625 -3.59375 1.75 -3.300781 1.71875 -2.90625 Z M 1.765625 -2.90625 "/></g></g><g transform="translate(107.429237, 107.505146)"><g><path d="M 3.3125 0.109375 C 2.46875 0.109375 1.800781 -0.144531 1.3125 -0.65625 C 0.832031 -1.164062 0.59375 -1.875 0.59375 -2.78125 C 0.59375 -3.695312 0.816406 -4.421875 1.265625 -4.953125 C 1.710938 -5.492188 2.316406 -5.765625 3.078125 -5.765625 C 3.796875 -5.765625 4.359375 -5.53125 4.765625 -5.0625 C 5.179688 -4.601562 5.390625 -3.988281 5.390625 -3.21875 L 5.390625 -2.671875 L 1.484375 -2.671875 C 1.503906 -2.015625 1.671875 -1.507812 1.984375 -1.15625 C 2.304688 -0.8125 2.757812 -0.640625 3.34375 -0.640625 C 3.945312 -0.640625 4.546875 -0.769531 5.140625 -1.03125 L 5.140625 -0.265625 C 4.835938 -0.128906 4.550781 -0.0351562 4.28125 0.015625 C 4.007812 0.078125 3.6875 0.109375 3.3125 0.109375 Z M 3.078125 -5.046875 C 2.617188 -5.046875 2.253906 -4.894531 1.984375 -4.59375 C 1.710938 -4.300781 1.550781 -3.894531 1.5 -3.375 L 4.46875 -3.375 C 4.46875 -3.914062 4.347656 -4.328125 4.109375 -4.609375 C 3.867188 -4.898438 3.523438 -5.046875 3.078125 -5.046875 Z M 3.078125 -5.046875 "/></g></g><g transform="translate(113.371633, 107.505146)"><g><path d="M 4.796875 0 L 4.796875 -3.671875 C 4.796875 -4.128906 4.6875 -4.472656 4.46875 -4.703125 C 4.257812 -4.929688 3.929688 -5.046875 3.484375 -5.046875 C 2.890625 -5.046875 2.453125 -4.882812 2.171875 -4.5625 C 1.898438 -4.238281 1.765625 -3.707031 1.765625 -2.96875 L 1.765625 0 L 0.90625 0 L 0.90625 -5.671875 L 1.609375 -5.671875 L 1.75 -4.890625 L 1.796875 -4.890625 C 1.960938 -5.171875 2.203125 -5.382812 2.515625 -5.53125 C 2.835938 -5.6875 3.195312 -5.765625 3.59375 -5.765625 C 4.269531 -5.765625 4.78125 -5.597656 5.125 -5.265625 C 5.476562 -4.941406 5.65625 -4.421875 5.65625 -3.703125 L 5.65625 0 Z M 4.796875 0 "/></g></g></g><g fill="#0097b2" fill-opacity="1"><g transform="translate(51.387639, 122.068928)"><g><path d="M 0.421875 -2.90625 C 0.421875 -3.8125 0.550781 -4.660156 0.8125 -5.453125 C 1.082031 -6.253906 1.472656 -6.957031 1.984375 -7.5625 L 2.8125 -7.5625 C 2.320312 -6.894531 1.953125 -6.160156 1.703125 -5.359375 C 1.453125 -4.566406 1.328125 -3.75 1.328125 -2.90625 C 1.328125 -2.082031 1.453125 -1.273438 1.703125 -0.484375 C 1.960938 0.304688 2.332031 1.023438 2.8125 1.671875 L 1.984375 1.671875 C 1.472656 1.085938 1.082031 0.40625 0.8125 -0.375 C 0.550781 -1.15625 0.421875 -2 0.421875 -2.90625 Z M 0.421875 -2.90625 "/></g></g><g transform="translate(54.521748, 122.068928)"><g><path d="M 5.828125 -5.359375 C 5.828125 -4.585938 5.566406 -3.992188 5.046875 -3.578125 C 4.523438 -3.171875 3.78125 -2.96875 2.8125 -2.96875 L 1.921875 -2.96875 L 1.921875 0 L 1.046875 0 L 1.046875 -7.5625 L 3 -7.5625 C 4.882812 -7.5625 5.828125 -6.828125 5.828125 -5.359375 Z M 1.921875 -3.734375 L 2.703125 -3.734375 C 3.484375 -3.734375 4.046875 -3.859375 4.390625 -4.109375 C 4.742188 -4.359375 4.921875 -4.757812 4.921875 -5.3125 C 4.921875 -5.8125 4.753906 -6.179688 4.421875 -6.421875 C 4.097656 -6.671875 3.59375 -6.796875 2.90625 -6.796875 L 1.921875 -6.796875 Z M 1.921875 -3.734375 "/></g></g><g transform="translate(60.898574, 122.068928)"><g><path d="M 5.796875 0 L 4.859375 -2.40625 L 1.828125 -2.40625 L 0.890625 0 L 0 0 L 2.984375 -7.59375 L 3.734375 -7.59375 L 6.703125 0 Z M 4.578125 -3.203125 L 3.703125 -5.546875 C 3.585938 -5.835938 3.46875 -6.195312 3.34375 -6.625 C 3.269531 -6.300781 3.160156 -5.941406 3.015625 -5.546875 L 2.125 -3.203125 Z M 4.578125 -3.203125 "/></g></g><g transform="translate(67.601224, 122.068928)"><g><path d="M 3.375 0 L 2.484375 0 L 2.484375 -6.78125 L 0.09375 -6.78125 L 0.09375 -7.5625 L 5.765625 -7.5625 L 5.765625 -6.78125 L 3.375 -6.78125 Z M 3.375 0 "/></g></g><g transform="translate(73.460871, 122.068928)"><g><path d="M 2.703125 -2.90625 C 2.703125 -2 2.566406 -1.148438 2.296875 -0.359375 C 2.035156 0.421875 1.65625 1.097656 1.15625 1.671875 L 0.328125 1.671875 C 0.804688 1.023438 1.171875 0.304688 1.421875 -0.484375 C 1.679688 -1.273438 1.8125 -2.082031 1.8125 -2.90625 C 1.8125 -3.75 1.6875 -4.566406 1.4375 -5.359375 C 1.1875 -6.160156 0.8125 -6.894531 0.3125 -7.5625 L 1.15625 -7.5625 C 1.65625 -6.957031 2.035156 -6.253906 2.296875 -5.453125 C 2.566406 -4.660156 2.703125 -3.8125 2.703125 -2.90625 Z M 2.703125 -2.90625 "/></g></g></g><g clip-path="url(#3009e0a078)"><path fill="#004aad" d="M 163.214844 24.742188 C 162.777344 24.742188 162.421875 25.097656 162.421875 25.535156 C 162.421875 25.972656 162.777344 26.328125 163.214844 26.328125 C 163.652344 26.328125 164.007812 25.972656 164.007812 25.535156 C 164.007812 25.097656 163.652344 24.742188 163.214844 24.742188 Z M 163.214844 27.609375 C 162.070312 27.609375 161.136719 26.679688 161.136719 25.535156 C 161.136719 24.390625 162.070312 23.460938 163.214844 23.460938 C 164.363281 23.460938 165.292969 24.390625 165.292969 25.535156 C 165.292969 26.679688 164.363281 27.609375 163.214844 27.609375 Z M 167.808594 24.742188 C 167.371094 24.742188 167.015625 25.097656 167.015625 25.535156 C 167.015625 25.972656 167.371094 26.328125 167.808594 26.328125 C 168.246094 26.328125 168.601562 25.972656 168.601562 25.535156 C 168.601562 25.097656 168.246094 24.742188 167.808594 24.742188 Z M 167.808594 27.609375 C 166.664062 27.609375 165.730469 26.679688 165.730469 25.535156 C 165.730469 24.390625 166.664062 23.460938 167.808594 23.460938 C 168.957031 23.460938 169.886719 24.390625 169.886719 25.535156 C 169.886719 26.679688 168.957031 27.609375 167.808594 27.609375 Z M 172.402344 24.742188 C 171.964844 24.742188 171.609375 25.097656 171.609375 25.535156 C 171.609375 25.972656 171.964844 26.328125 172.402344 26.328125 C 172.839844 26.328125 173.195312 25.972656 173.195312 25.535156 C 173.195312 25.097656 172.839844 24.742188 172.402344 24.742188 Z M 172.402344 27.609375 C 171.257812 27.609375 170.324219 26.679688 170.324219 25.535156 C 170.324219 24.390625 171.257812 23.460938 172.402344 23.460938 C 173.546875 23.460938 174.480469 24.390625 174.480469 25.535156 C 174.480469 26.679688 173.546875 27.609375 172.402344 27.609375 Z M 142.253906 23.3125 C 141.027344 23.3125 140.027344 24.308594 140.027344 25.535156 C 140.027344 26.761719 141.027344 27.761719 142.253906 27.761719 C 143.484375 27.761719 144.484375 26.761719 144.484375 25.535156 C 144.484375 24.308594 143.484375 23.3125 142.253906 23.3125 Z M 142.253906 29.042969 C 140.316406 29.042969 138.742188 27.46875 138.742188 25.535156 C 138.742188 23.601562 140.316406 22.027344 142.253906 22.027344 C 144.191406 22.027344 145.769531 23.601562 145.769531 25.535156 C 145.769531 27.46875 144.191406 29.042969 142.253906 29.042969 Z M 163.214844 37.351562 C 162.777344 37.351562 162.421875 37.707031 162.421875 38.144531 C 162.421875 38.582031 162.777344 38.9375 163.214844 38.9375 C 163.652344 38.9375 164.007812 38.582031 164.007812 38.144531 C 164.007812 37.707031 163.652344 37.351562 163.214844 37.351562 Z M 163.214844 40.21875 C 162.070312 40.21875 161.136719 39.289062 161.136719 38.144531 C 161.136719 37 162.070312 36.070312 163.214844 36.070312 C 164.363281 36.070312 165.292969 37 165.292969 38.144531 C 165.292969 39.289062 164.363281 40.21875 163.214844 40.21875 Z M 167.808594 37.351562 C 167.371094 37.351562 167.015625 37.707031 167.015625 38.144531 C 167.015625 38.582031 167.371094 38.9375 167.808594 38.9375 C 168.246094 38.9375 168.601562 38.582031 168.601562 38.144531 C 168.601562 37.707031 168.246094 37.351562 167.808594 37.351562 Z M 167.808594 40.21875 C 166.664062 40.21875 165.730469 39.289062 165.730469 38.144531 C 165.730469 37 166.664062 36.070312 167.808594 36.070312 C 168.957031 36.070312 169.886719 37 169.886719 38.144531 C 169.886719 39.289062 168.957031 40.21875 167.808594 40.21875 Z M 172.402344 37.351562 C 171.964844 37.351562 171.609375 37.707031 171.609375 38.144531 C 171.609375 38.582031 171.964844 38.9375 172.402344 38.9375 C 172.839844 38.9375 173.195312 38.582031 173.195312 38.144531 C 173.195312 37.707031 172.839844 37.351562 172.402344 37.351562 Z M 172.402344 40.21875 C 171.257812 40.21875 170.324219 39.289062 170.324219 38.144531 C 170.324219 37 171.257812 36.070312 172.402344 36.070312 C 173.546875 36.070312 174.480469 37 174.480469 38.144531 C 174.480469 39.289062 173.546875 40.21875 172.402344 40.21875 Z M 142.253906 35.917969 C 141.027344 35.917969 140.027344 36.917969 140.027344 38.144531 C 140.027344 39.371094 141.027344 40.367188 142.253906 40.367188 C 143.484375 40.367188 144.484375 39.371094 144.484375 38.144531 C 144.484375 36.917969 143.484375 35.917969 142.253906 35.917969 Z M 142.253906 41.652344 C 140.316406 41.652344 138.742188 40.078125 138.742188 38.144531 C 138.742188 36.210938 140.316406 34.636719 142.253906 34.636719 C 144.191406 34.636719 145.769531 36.210938 145.769531 38.144531 C 145.769531 40.078125 144.191406 41.652344 142.253906 41.652344 Z M 163.214844 49.960938 C 162.777344 49.960938 162.421875 50.316406 162.421875 50.753906 C 162.421875 51.191406 162.777344 51.546875 163.214844 51.546875 C 163.652344 51.546875 164.007812 51.191406 164.007812 50.753906 C 164.007812 50.316406 163.652344 49.960938 163.214844 49.960938 Z M 163.214844 52.828125 C 162.070312 52.828125 161.136719 51.898438 161.136719 50.753906 C 161.136719 49.609375 162.070312 48.679688 163.214844 48.679688 C 164.363281 48.679688 165.292969 49.609375 165.292969 50.753906 C 165.292969 51.898438 164.363281 52.828125 163.214844 52.828125 Z M 167.808594 49.960938 C 167.371094 49.960938 167.015625 50.316406 167.015625 50.753906 C 167.015625 51.191406 167.371094 51.546875 167.808594 51.546875 C 168.246094 51.546875 168.601562 51.191406 168.601562 50.753906 C 168.601562 50.316406 168.246094 49.960938 167.808594 49.960938 Z M 167.808594 52.828125 C 166.664062 52.828125 165.730469 51.898438 165.730469 50.753906 C 165.730469 49.609375 166.664062 48.679688 167.808594 48.679688 C 168.957031 48.679688 169.886719 49.609375 169.886719 50.753906 C 169.886719 51.898438 168.957031 52.828125 167.808594 52.828125 Z M 172.402344 49.960938 C 171.964844 49.960938 171.609375 50.316406 171.609375 50.753906 C 171.609375 51.191406 171.964844 51.546875 172.402344 51.546875 C 172.839844 51.546875 173.195312 51.191406 173.195312 50.753906 C 173.195312 50.316406 172.839844 49.960938 172.402344 49.960938 Z M 172.402344 52.828125 C 171.257812 52.828125 170.324219 51.898438 170.324219 50.753906 C 170.324219 49.609375 171.257812 48.679688 172.402344 48.679688 C 173.546875 48.679688 174.480469 49.609375 174.480469 50.753906 C 174.480469 51.898438 173.546875 52.828125 172.402344 52.828125 Z M 142.253906 48.53125 C 141.027344 48.53125 140.027344 49.527344 140.027344 50.753906 C 140.027344 51.980469 141.027344 52.976562 142.253906 52.976562 C 143.484375 52.976562 144.484375 51.980469 144.484375 50.753906 C 144.484375 49.527344 143.484375 48.53125 142.253906 48.53125 Z M 142.253906 54.261719 C 140.316406 54.261719 138.742188 52.6875 138.742188 50.753906 C 138.742188 48.820312 140.316406 47.246094 142.253906 47.246094 C 144.191406 47.246094 145.769531 48.820312 145.769531 50.753906 C 145.769531 52.6875 144.191406 54.261719 142.253906 54.261719 Z M 138.238281 45.664062 C 137.640625 45.664062 137.15625 46.148438 137.15625 46.742188 L 137.15625 54.765625 C 137.15625 55.359375 137.640625 55.84375 138.238281 55.84375 L 174.988281 55.84375 C 175.582031 55.84375 176.066406 55.359375 176.066406 54.765625 L 176.066406 46.742188 C 176.066406 46.148438 175.582031 45.664062 174.988281 45.664062 L 157.117188 45.664062 L 157.117188 43.234375 L 174.988281 43.234375 C 175.582031 43.234375 176.066406 42.75 176.066406 42.15625 L 176.066406 34.132812 C 176.066406 33.539062 175.582031 33.054688 174.988281 33.054688 L 157.117188 33.054688 L 157.117188 30.625 L 174.988281 30.625 C 175.582031 30.625 176.066406 30.144531 176.066406 29.546875 L 176.066406 21.523438 C 176.066406 20.929688 175.582031 20.445312 174.988281 20.445312 L 138.238281 20.445312 C 137.640625 20.445312 137.15625 20.929688 137.15625 21.523438 L 137.15625 29.546875 C 137.15625 30.144531 137.640625 30.625 138.238281 30.625 L 156.105469 30.625 L 156.105469 33.054688 L 138.238281 33.054688 C 137.640625 33.054688 137.15625 33.539062 137.15625 34.132812 L 137.15625 42.15625 C 137.15625 42.75 137.640625 43.234375 138.238281 43.234375 L 156.105469 43.234375 L 156.105469 45.664062 Z M 174.988281 57.128906 L 138.238281 57.128906 C 136.933594 57.128906 135.871094 56.066406 135.871094 54.765625 L 135.871094 46.742188 C 135.871094 45.632812 136.640625 44.703125 137.671875 44.449219 C 136.640625 44.195312 135.871094 43.265625 135.871094 42.15625 L 135.871094 34.132812 C 135.871094 33.023438 136.636719 32.09375 137.671875 31.839844 C 136.636719 31.585938 135.871094 30.65625 135.871094 29.546875 L 135.871094 21.523438 C 135.871094 20.222656 136.933594 19.164062 138.238281 19.164062 L 174.988281 19.164062 C 176.289062 19.164062 177.351562 20.222656 177.351562 21.523438 L 177.351562 29.546875 C 177.351562 30.65625 176.585938 31.585938 175.554688 31.839844 C 176.585938 32.09375 177.351562 33.023438 177.351562 34.132812 L 177.351562 42.15625 C 177.351562 43.265625 176.582031 44.195312 175.550781 44.449219 C 176.582031 44.703125 177.351562 45.632812 177.351562 46.742188 L 177.351562 54.765625 C 177.351562 56.066406 176.289062 57.128906 174.988281 57.128906 " fill-opacity="1" fill-rule="nonzero"/></g><g clip-path="url(#bee0e542ec)"><path fill="#004aad" d="M 230.832031 24.742188 C 230.394531 24.742188 230.039062 25.097656 230.039062 25.535156 C 230.039062 25.972656 230.394531 26.328125 230.832031 26.328125 C 231.269531 26.328125 231.625 25.972656 231.625 25.535156 C 231.625 25.097656 231.269531 24.742188 230.832031 24.742188 Z M 230.832031 27.609375 C 229.6875 27.609375 228.753906 26.679688 228.753906 25.535156 C 228.753906 24.390625 229.6875 23.460938 230.832031 23.460938 C 231.976562 23.460938 232.910156 24.390625 232.910156 25.535156 C 232.910156 26.679688 231.976562 27.609375 230.832031 27.609375 Z M 235.425781 24.742188 C 234.988281 24.742188 234.632812 25.097656 234.632812 25.535156 C 234.632812 25.972656 234.988281 26.328125 235.425781 26.328125 C 235.863281 26.328125 236.21875 25.972656 236.21875 25.535156 C 236.21875 25.097656 235.863281 24.742188 235.425781 24.742188 Z M 235.425781 27.609375 C 234.28125 27.609375 233.347656 26.679688 233.347656 25.535156 C 233.347656 24.390625 234.28125 23.460938 235.425781 23.460938 C 236.570312 23.460938 237.503906 24.390625 237.503906 25.535156 C 237.503906 26.679688 236.570312 27.609375 235.425781 27.609375 Z M 240.019531 24.742188 C 239.582031 24.742188 239.226562 25.097656 239.226562 25.535156 C 239.226562 25.972656 239.582031 26.328125 240.019531 26.328125 C 240.457031 26.328125 240.8125 25.972656 240.8125 25.535156 C 240.8125 25.097656 240.457031 24.742188 240.019531 24.742188 Z M 240.019531 27.609375 C 238.875 27.609375 237.941406 26.679688 237.941406 25.535156 C 237.941406 24.390625 238.875 23.460938 240.019531 23.460938 C 241.164062 23.460938 242.097656 24.390625 242.097656 25.535156 C 242.097656 26.679688 241.164062 27.609375 240.019531 27.609375 Z M 209.871094 23.3125 C 208.644531 23.3125 207.644531 24.308594 207.644531 25.535156 C 207.644531 26.761719 208.644531 27.761719 209.871094 27.761719 C 211.101562 27.761719 212.101562 26.761719 212.101562 25.535156 C 212.101562 24.308594 211.101562 23.3125 209.871094 23.3125 Z M 209.871094 29.042969 C 207.933594 29.042969 206.359375 27.46875 206.359375 25.535156 C 206.359375 23.601562 207.933594 22.027344 209.871094 22.027344 C 211.808594 22.027344 213.386719 23.601562 213.386719 25.535156 C 213.386719 27.46875 211.808594 29.042969 209.871094 29.042969 Z M 230.832031 37.351562 C 230.394531 37.351562 230.039062 37.707031 230.039062 38.144531 C 230.039062 38.582031 230.394531 38.9375 230.832031 38.9375 C 231.269531 38.9375 231.625 38.582031 231.625 38.144531 C 231.625 37.707031 231.269531 37.351562 230.832031 37.351562 Z M 230.832031 40.21875 C 229.6875 40.21875 228.753906 39.289062 228.753906 38.144531 C 228.753906 37 229.6875 36.070312 230.832031 36.070312 C 231.976562 36.070312 232.910156 37 232.910156 38.144531 C 232.910156 39.289062 231.976562 40.21875 230.832031 40.21875 Z M 235.425781 37.351562 C 234.988281 37.351562 234.632812 37.707031 234.632812 38.144531 C 234.632812 38.582031 234.988281 38.9375 235.425781 38.9375 C 235.863281 38.9375 236.21875 38.582031 236.21875 38.144531 C 236.21875 37.707031 235.863281 37.351562 235.425781 37.351562 Z M 235.425781 40.21875 C 234.28125 40.21875 233.347656 39.289062 233.347656 38.144531 C 233.347656 37 234.28125 36.070312 235.425781 36.070312 C 236.570312 36.070312 237.503906 37 237.503906 38.144531 C 237.503906 39.289062 236.570312 40.21875 235.425781 40.21875 Z M 240.019531 37.351562 C 239.582031 37.351562 239.226562 37.707031 239.226562 38.144531 C 239.226562 38.582031 239.582031 38.9375 240.019531 38.9375 C 240.457031 38.9375 240.8125 38.582031 240.8125 38.144531 C 240.8125 37.707031 240.457031 37.351562 240.019531 37.351562 Z M 240.019531 40.21875 C 238.875 40.21875 237.941406 39.289062 237.941406 38.144531 C 237.941406 37 238.875 36.070312 240.019531 36.070312 C 241.164062 36.070312 242.097656 37 242.097656 38.144531 C 242.097656 39.289062 241.164062 40.21875 240.019531 40.21875 Z M 209.871094 35.917969 C 208.644531 35.917969 207.644531 36.917969 207.644531 38.144531 C 207.644531 39.371094 208.644531 40.371094 209.871094 40.371094 C 211.101562 40.371094 212.101562 39.371094 212.101562 38.144531 C 212.101562 36.917969 211.101562 35.917969 209.871094 35.917969 Z M 209.871094 41.652344 C 207.933594 41.652344 206.359375 40.078125 206.359375 38.144531 C 206.359375 36.210938 207.933594 34.636719 209.871094 34.636719 C 211.808594 34.636719 213.386719 36.210938 213.386719 38.144531 C 213.386719 40.078125 211.808594 41.652344 209.871094 41.652344 Z M 230.832031 49.964844 C 230.394531 49.964844 230.039062 50.316406 230.039062 50.753906 C 230.039062 51.191406 230.394531 51.546875 230.832031 51.546875 C 231.269531 51.546875 231.625 51.191406 231.625 50.753906 C 231.625 50.316406 231.269531 49.964844 230.832031 49.964844 Z M 230.832031 52.828125 C 229.6875 52.828125 228.753906 51.898438 228.753906 50.753906 C 228.753906 49.613281 229.6875 48.679688 230.832031 48.679688 C 231.976562 48.679688 232.910156 49.613281 232.910156 50.753906 C 232.910156 51.898438 231.976562 52.828125 230.832031 52.828125 Z M 235.425781 49.964844 C 234.988281 49.964844 234.632812 50.316406 234.632812 50.753906 C 234.632812 51.191406 234.988281 51.546875 235.425781 51.546875 C 235.863281 51.546875 236.21875 51.191406 236.21875 50.753906 C 236.21875 50.316406 235.863281 49.964844 235.425781 49.964844 Z M 235.425781 52.828125 C 234.28125 52.828125 233.347656 51.898438 233.347656 50.753906 C 233.347656 49.613281 234.28125 48.679688 235.425781 48.679688 C 236.570312 48.679688 237.503906 49.613281 237.503906 50.753906 C 237.503906 51.898438 236.570312 52.828125 235.425781 52.828125 Z M 240.019531 49.964844 C 239.582031 49.964844 239.226562 50.316406 239.226562 50.753906 C 239.226562 51.191406 239.582031 51.546875 240.019531 51.546875 C 240.457031 51.546875 240.8125 51.191406 240.8125 50.753906 C 240.8125 50.316406 240.457031 49.964844 240.019531 49.964844 Z M 240.019531 52.828125 C 238.875 52.828125 237.941406 51.898438 237.941406 50.753906 C 237.941406 49.613281 238.875 48.679688 240.019531 48.679688 C 241.164062 48.679688 242.097656 49.613281 242.097656 50.753906 C 242.097656 51.898438 241.164062 52.828125 240.019531 52.828125 Z M 209.871094 48.53125 C 208.644531 48.53125 207.644531 49.527344 207.644531 50.753906 C 207.644531 51.980469 208.644531 52.976562 209.871094 52.976562 C 211.101562 52.976562 212.101562 51.980469 212.101562 50.753906 C 212.101562 49.527344 211.101562 48.53125 209.871094 48.53125 Z M 209.871094 54.261719 C 207.933594 54.261719 206.359375 52.6875 206.359375 50.753906 C 206.359375 48.820312 207.933594 47.246094 209.871094 47.246094 C 211.808594 47.246094 213.386719 48.820312 213.386719 50.753906 C 213.386719 52.6875 211.808594 54.261719 209.871094 54.261719 Z M 205.851562 45.664062 C 205.257812 45.664062 204.773438 46.148438 204.773438 46.742188 L 204.773438 54.765625 C 204.773438 55.359375 205.257812 55.84375 205.851562 55.84375 L 242.601562 55.84375 C 243.199219 55.84375 243.683594 55.359375 243.683594 54.765625 L 243.683594 46.742188 C 243.683594 46.148438 243.199219 45.664062 242.601562 45.664062 L 224.734375 45.664062 L 224.734375 43.234375 L 242.601562 43.234375 C 243.199219 43.234375 243.683594 42.75 243.683594 42.15625 L 243.683594 34.132812 C 243.683594 33.539062 243.199219 33.054688 242.601562 33.054688 L 224.734375 33.054688 L 224.734375 30.625 L 242.601562 30.625 C 243.199219 30.625 243.683594 30.144531 243.683594 29.546875 L 243.683594 21.523438 C 243.683594 20.929688 243.199219 20.445312 242.601562 20.445312 L 205.851562 20.445312 C 205.257812 20.445312 204.773438 20.929688 204.773438 21.523438 L 204.773438 29.546875 C 204.773438 30.144531 205.257812 30.625 205.851562 30.625 L 223.722656 30.625 L 223.722656 33.054688 L 205.851562 33.054688 C 205.257812 33.054688 204.773438 33.539062 204.773438 34.132812 L 204.773438 42.15625 C 204.773438 42.75 205.257812 43.234375 205.851562 43.234375 L 223.722656 43.234375 L 223.722656 45.664062 Z M 242.601562 57.128906 L 205.851562 57.128906 C 204.546875 57.128906 203.488281 56.066406 203.488281 54.765625 L 203.488281 46.742188 C 203.488281 45.632812 204.257812 44.703125 205.289062 44.449219 C 204.257812 44.195312 203.488281 43.265625 203.488281 42.15625 L 203.488281 34.132812 C 203.488281 33.023438 204.253906 32.09375 205.289062 31.839844 C 204.253906 31.585938 203.488281 30.65625 203.488281 29.546875 L 203.488281 21.523438 C 203.488281 20.222656 204.546875 19.164062 205.851562 19.164062 L 242.601562 19.164062 C 243.90625 19.164062 244.96875 20.222656 244.96875 21.523438 L 244.96875 29.546875 C 244.96875 30.65625 244.203125 31.585938 243.167969 31.839844 C 244.203125 32.09375 244.96875 33.023438 244.96875 34.132812 L 244.96875 42.15625 C 244.96875 43.265625 244.199219 44.195312 243.167969 44.449219 C 244.199219 44.703125 244.96875 45.632812 244.96875 46.742188 L 244.96875 54.765625 C 244.96875 56.066406 243.90625 57.128906 242.601562 57.128906 " fill-opacity="1" fill-rule="nonzero"/></g><g clip-path="url(#d856e9a447)"><path fill="#004aad" d="M 198.859375 63.796875 C 200.378906 65.765625 201.6875 68.269531 202.714844 71.171875 C 204.511719 70.667969 206.160156 70.066406 207.636719 69.378906 C 205.128906 66.910156 202.136719 65.007812 198.859375 63.796875 Z M 201.882812 72.722656 L 201.695312 72.152344 C 200.378906 68.21875 198.546875 65.03125 196.394531 62.941406 L 194.628906 61.226562 L 197.007812 61.863281 C 201.652344 63.105469 205.863281 65.617188 209.183594 69.121094 L 209.773438 69.746094 L 209.011719 70.132812 C 207.109375 71.105469 204.910156 71.921875 202.46875 72.570312 Z M 172.921875 69.378906 C 174.398438 70.066406 176.050781 70.667969 177.84375 71.171875 C 178.871094 68.269531 180.183594 65.765625 181.699219 63.796875 C 178.421875 65.007812 175.429688 66.910156 172.921875 69.378906 Z M 178.675781 72.722656 L 178.09375 72.570312 C 175.652344 71.921875 173.449219 71.105469 171.546875 70.132812 L 170.785156 69.746094 L 171.375 69.125 C 174.695312 65.617188 178.90625 63.105469 183.550781 61.863281 L 185.929688 61.226562 L 184.167969 62.941406 C 182.015625 65.03125 180.183594 68.21875 178.867188 72.152344 Z M 181.242188 71.972656 C 183.605469 72.425781 186.066406 72.695312 188.578125 72.78125 L 188.578125 62.558594 C 185.761719 63.542969 183.085938 66.964844 181.242188 71.972656 Z M 189.863281 74.09375 L 189.207031 74.082031 C 186.132812 74.015625 183.121094 73.679688 180.257812 73.082031 L 179.546875 72.933594 L 179.78125 72.25 C 181.96875 65.867188 185.367188 61.804688 189.101562 61.09375 L 189.863281 60.949219 Z M 191.980469 62.558594 L 191.980469 72.78125 C 194.492188 72.695312 196.953125 72.425781 199.316406 71.972656 C 197.472656 66.964844 194.796875 63.542969 191.980469 62.558594 Z M 190.695312 74.09375 L 190.695312 60.949219 L 191.457031 61.09375 C 195.191406 61.804688 198.589844 65.867188 200.777344 72.25 L 201.011719 72.933594 L 200.300781 73.082031 C 197.441406 73.679688 194.429688 74.015625 191.351562 74.082031 Z M 165.589844 85.269531 L 175.382812 85.269531 C 175.496094 81.46875 175.992188 77.84375 176.855469 74.472656 C 174.542969 73.828125 172.433594 73.015625 170.570312 72.058594 C 167.628906 75.917969 165.917969 80.460938 165.589844 85.269531 Z M 176.640625 86.550781 L 164.242188 86.550781 L 164.269531 85.882812 C 164.496094 80.378906 166.441406 75.179688 169.890625 70.84375 L 170.222656 70.425781 L 170.699219 70.679688 C 172.753906 71.785156 175.140625 72.703125 177.800781 73.398438 L 178.429688 73.5625 L 178.257812 74.1875 C 177.269531 77.816406 176.730469 81.765625 176.652344 85.921875 Z M 178.785156 85.269531 L 188.578125 85.269531 L 188.578125 76.175781 C 185.683594 76.089844 182.875 75.785156 180.210938 75.265625 C 179.394531 78.386719 178.90625 81.820312 178.785156 85.269531 Z M 189.863281 86.550781 L 177.46875 86.550781 L 177.484375 85.898438 C 177.566406 81.910156 178.136719 77.914062 179.128906 74.34375 L 179.292969 73.765625 L 179.882812 73.890625 C 182.832031 74.507812 185.980469 74.851562 189.234375 74.910156 L 189.863281 74.921875 Z M 191.980469 85.269531 L 201.773438 85.269531 C 201.65625 81.816406 201.164062 78.382812 200.347656 75.265625 C 197.683594 75.785156 194.875 76.089844 191.980469 76.175781 Z M 203.089844 86.550781 L 190.695312 86.550781 L 190.695312 74.921875 L 191.328125 74.910156 C 194.578125 74.851562 197.726562 74.507812 200.679688 73.890625 L 201.265625 73.765625 L 201.429688 74.34375 C 202.421875 77.910156 202.992188 81.902344 203.074219 85.898438 Z M 205.179688 85.269531 L 214.96875 85.269531 C 214.640625 80.460938 212.929688 75.917969 209.992188 72.058594 C 208.121094 73.019531 206.011719 73.828125 203.703125 74.472656 C 204.570312 77.84375 205.0625 81.46875 205.179688 85.269531 Z M 216.316406 86.550781 L 203.921875 86.550781 L 203.910156 85.921875 C 203.832031 81.761719 203.289062 77.816406 202.300781 74.1875 L 202.132812 73.5625 L 202.757812 73.398438 C 205.414062 72.703125 207.804688 71.785156 209.863281 70.679688 L 210.339844 70.425781 L 210.671875 70.84375 C 214.117188 75.179688 216.0625 80.378906 216.289062 85.882812 Z M 191.980469 97.753906 C 194.882812 97.839844 197.691406 98.148438 200.347656 98.667969 C 201.164062 95.550781 201.65625 92.117188 201.773438 88.664062 L 191.980469 88.664062 Z M 201.265625 100.167969 L 200.679688 100.042969 C 197.734375 99.425781 194.589844 99.082031 191.328125 99.023438 L 190.695312 99.011719 L 190.695312 87.378906 L 203.089844 87.378906 L 203.074219 88.035156 C 202.992188 92.027344 202.421875 96.023438 201.429688 99.589844 Z M 178.785156 88.664062 C 178.90625 92.113281 179.394531 95.546875 180.210938 98.667969 C 182.871094 98.148438 185.679688 97.839844 188.578125 97.753906 L 188.578125 88.664062 Z M 179.289062 100.167969 L 179.128906 99.585938 C 178.136719 96.015625 177.566406 92.023438 177.484375 88.035156 L 177.46875 87.378906 L 189.863281 87.378906 L 189.863281 99.011719 L 189.234375 99.023438 C 185.972656 99.082031 182.828125 99.425781 179.878906 100.042969 Z M 165.589844 88.664062 C 165.917969 93.46875 167.628906 98.011719 170.566406 101.871094 C 172.429688 100.914062 174.542969 100.105469 176.855469 99.460938 C 175.988281 96.085938 175.496094 92.460938 175.382812 88.664062 Z M 170.222656 103.507812 L 169.886719 103.085938 C 166.441406 98.753906 164.496094 93.550781 164.269531 88.046875 L 164.242188 87.378906 L 176.640625 87.378906 L 176.652344 88.007812 C 176.730469 92.167969 177.269531 96.113281 178.257812 99.742188 L 178.429688 100.367188 L 177.800781 100.53125 C 175.136719 101.230469 172.746094 102.148438 170.695312 103.253906 Z M 203.703125 99.460938 C 206.015625 100.109375 208.125 100.917969 209.992188 101.871094 C 212.929688 98.015625 214.640625 93.46875 214.96875 88.664062 L 205.179688 88.664062 C 205.0625 92.464844 204.570312 96.089844 203.703125 99.460938 Z M 210.339844 103.507812 L 209.863281 103.253906 C 207.8125 102.148438 205.417969 101.230469 202.757812 100.53125 L 202.132812 100.367188 L 202.300781 99.742188 C 203.289062 96.117188 203.832031 92.167969 203.910156 88.007812 L 203.921875 87.378906 L 216.316406 87.378906 L 216.289062 88.046875 C 216.0625 93.550781 214.117188 98.753906 210.671875 103.085938 Z M 202.714844 102.761719 C 201.6875 105.664062 200.378906 108.167969 198.859375 110.136719 C 202.136719 108.925781 205.125 107.023438 207.636719 104.554688 C 206.160156 103.867188 204.511719 103.265625 202.714844 102.761719 Z M 194.632812 112.707031 L 196.394531 110.992188 C 198.546875 108.898438 200.378906 105.710938 201.695312 101.78125 L 201.882812 101.207031 L 202.46875 101.363281 C 204.910156 102.011719 207.109375 102.828125 209.011719 103.800781 L 209.773438 104.1875 L 209.183594 104.8125 C 205.859375 108.320312 201.648438 110.828125 197.007812 112.070312 Z M 172.921875 104.554688 C 175.433594 107.023438 178.421875 108.925781 181.699219 110.136719 C 180.183594 108.167969 178.871094 105.664062 177.84375 102.757812 C 176.046875 103.265625 174.398438 103.867188 172.921875 104.554688 Z M 185.929688 112.707031 L 183.550781 112.070312 C 178.910156 110.828125 174.699219 108.316406 171.375 104.808594 L 170.785156 104.1875 L 171.546875 103.796875 C 173.445312 102.832031 175.648438 102.011719 178.09375 101.363281 L 178.675781 101.207031 L 178.867188 101.78125 C 180.179688 105.710938 182.015625 108.898438 184.167969 110.992188 Z M 191.980469 101.152344 L 191.980469 111.371094 C 194.796875 110.390625 197.472656 106.964844 199.316406 101.960938 C 196.957031 101.507812 194.496094 101.234375 191.980469 101.152344 Z M 190.695312 112.980469 L 190.695312 99.839844 L 191.351562 99.851562 C 194.433594 99.914062 197.441406 100.25 200.300781 100.847656 L 201.011719 101 L 200.777344 101.683594 C 198.589844 108.0625 195.191406 112.128906 191.457031 112.835938 Z M 181.242188 101.960938 C 183.085938 106.964844 185.761719 110.390625 188.578125 111.371094 L 188.578125 101.152344 C 186.066406 101.234375 183.605469 101.507812 181.242188 101.960938 Z M 189.863281 112.980469 L 189.101562 112.835938 C 185.367188 112.128906 181.96875 108.0625 179.78125 101.683594 L 179.546875 100.996094 L 180.257812 100.847656 C 183.117188 100.25 186.128906 99.914062 189.207031 99.851562 L 189.863281 99.839844 Z M 190.277344 60.148438 C 175.464844 60.148438 163.410156 72.179688 163.410156 86.964844 C 163.410156 101.753906 175.464844 113.785156 190.277344 113.785156 C 197.808594 113.785156 205.042969 110.589844 210.132812 105.015625 C 214.660156 100.058594 217.148438 93.652344 217.148438 86.964844 C 217.148438 72.179688 205.09375 60.148438 190.277344 60.148438 Z M 190.277344 115.066406 C 174.753906 115.066406 162.125 102.460938 162.125 86.964844 C 162.125 71.472656 174.753906 58.867188 190.277344 58.867188 C 205.804688 58.867188 218.433594 71.472656 218.433594 86.964844 C 218.433594 93.96875 215.824219 100.6875 211.085938 105.875 C 205.75 111.71875 198.167969 115.066406 190.277344 115.066406 " fill-opacity="1" fill-rule="nonzero"/></g><path fill="#004aad" d="M 219.601562 94.386719 C 219.234375 94.386719 218.9375 94.683594 218.9375 95.046875 C 218.9375 95.410156 219.234375 95.710938 219.601562 95.710938 C 219.96875 95.710938 220.265625 95.410156 220.265625 95.046875 C 220.265625 94.683594 219.96875 94.386719 219.601562 94.386719 Z M 219.601562 96.992188 C 218.527344 96.992188 217.652344 96.117188 217.652344 95.046875 C 217.652344 93.972656 218.527344 93.101562 219.601562 93.101562 C 220.675781 93.101562 221.546875 93.972656 221.546875 95.046875 C 221.546875 96.117188 220.675781 96.992188 219.601562 96.992188 " fill-opacity="1" fill-rule="nonzero"/><path fill="#004aad" d="M 224.054688 94.386719 C 223.6875 94.386719 223.390625 94.683594 223.390625 95.046875 C 223.390625 95.410156 223.6875 95.710938 224.054688 95.710938 C 224.417969 95.710938 224.71875 95.410156 224.71875 95.046875 C 224.71875 94.683594 224.417969 94.386719 224.054688 94.386719 Z M 224.054688 96.992188 C 222.980469 96.992188 222.105469 96.117188 222.105469 95.046875 C 222.105469 93.972656 222.980469 93.101562 224.054688 93.101562 C 225.125 93.101562 226 93.972656 226 95.046875 C 226 96.117188 225.125 96.992188 224.054688 96.992188 " fill-opacity="1" fill-rule="nonzero"/><path fill="#004aad" d="M 224.054688 72.164062 C 223.6875 72.164062 223.390625 72.460938 223.390625 72.824219 C 223.390625 73.191406 223.6875 73.488281 224.054688 73.488281 C 224.417969 73.488281 224.71875 73.191406 224.71875 72.824219 C 224.71875 72.460938 224.417969 72.164062 224.054688 72.164062 Z M 224.054688 74.769531 C 222.980469 74.769531 222.105469 73.894531 222.105469 72.824219 C 222.105469 71.753906 222.980469 70.878906 224.054688 70.878906 C 225.125 70.878906 226 71.753906 226 72.824219 C 226 73.894531 225.125 74.769531 224.054688 74.769531 " fill-opacity="1" fill-rule="nonzero"/><path fill="#004aad" d="M 224.054688 76.605469 C 223.6875 76.605469 223.390625 76.902344 223.390625 77.269531 C 223.390625 77.632812 223.6875 77.929688 224.054688 77.929688 C 224.417969 77.929688 224.71875 77.632812 224.71875 77.269531 C 224.71875 76.902344 224.417969 76.605469 224.054688 76.605469 Z M 224.054688 79.210938 C 222.980469 79.210938 222.105469 78.339844 222.105469 77.269531 C 222.105469 76.195312 222.980469 75.324219 224.054688 75.324219 C 225.125 75.324219 226 76.195312 226 77.269531 C 226 78.339844 225.125 79.210938 224.054688 79.210938 " fill-opacity="1" fill-rule="nonzero"/><path fill="#004aad" d="M 224.054688 81.050781 C 223.6875 81.050781 223.390625 81.347656 223.390625 81.710938 C 223.390625 82.078125 223.6875 82.375 224.054688 82.375 C 224.417969 82.375 224.71875 82.078125 224.71875 81.710938 C 224.71875 81.347656 224.417969 81.050781 224.054688 81.050781 Z M 224.054688 83.65625 C 222.980469 83.65625 222.105469 82.785156 222.105469 81.710938 C 222.105469 80.640625 222.980469 79.769531 224.054688 79.769531 C 225.125 79.769531 226 80.640625 226 81.710938 C 226 82.785156 225.125 83.65625 224.054688 83.65625 " fill-opacity="1" fill-rule="nonzero"/><path fill="#004aad" d="M 224.054688 85.496094 C 223.6875 85.496094 223.390625 85.792969 223.390625 86.15625 C 223.390625 86.523438 223.6875 86.820312 224.054688 86.820312 C 224.417969 86.820312 224.71875 86.523438 224.71875 86.15625 C 224.71875 85.792969 224.417969 85.496094 224.054688 85.496094 Z M 224.054688 88.101562 C 222.980469 88.101562 222.105469 87.230469 222.105469 86.15625 C 222.105469 85.085938 222.980469 84.210938 224.054688 84.210938 C 225.125 84.210938 226 85.085938 226 86.15625 C 226 87.230469 225.125 88.101562 224.054688 88.101562 " fill-opacity="1" fill-rule="nonzero"/><path fill="#004aad" d="M 224.054688 58.828125 C 223.6875 58.828125 223.390625 59.128906 223.390625 59.492188 C 223.390625 59.855469 223.6875 60.152344 224.054688 60.152344 C 224.417969 60.152344 224.71875 59.855469 224.71875 59.492188 C 224.71875 59.128906 224.417969 58.828125 224.054688 58.828125 Z M 224.054688 61.4375 C 222.980469 61.4375 222.105469 60.5625 222.105469 59.492188 C 222.105469 58.417969 222.980469 57.546875 224.054688 57.546875 C 225.125 57.546875 226 58.417969 226 59.492188 C 226 60.5625 225.125 61.4375 224.054688 61.4375 " fill-opacity="1" fill-rule="nonzero"/><path fill="#004aad" d="M 224.054688 63.273438 C 223.6875 63.273438 223.390625 63.570312 223.390625 63.9375 C 223.390625 64.300781 223.6875 64.597656 224.054688 64.597656 C 224.417969 64.597656 224.71875 64.300781 224.71875 63.9375 C 224.71875 63.570312 224.417969 63.273438 224.054688 63.273438 Z M 224.054688 65.878906 C 222.980469 65.878906 222.105469 65.007812 222.105469 63.9375 C 222.105469 62.863281 222.980469 61.992188 224.054688 61.992188 C 225.125 61.992188 226 62.863281 226 63.9375 C 226 65.007812 225.125 65.878906 224.054688 65.878906 " fill-opacity="1" fill-rule="nonzero"/><path fill="#004aad" d="M 224.054688 67.714844 C 223.6875 67.714844 223.390625 68.015625 223.390625 68.378906 C 223.390625 68.746094 223.6875 69.042969 224.054688 69.042969 C 224.417969 69.042969 224.71875 68.746094 224.71875 68.378906 C 224.71875 68.015625 224.417969 67.714844 224.054688 67.714844 Z M 224.054688 70.324219 C 222.980469 70.324219 222.105469 69.453125 222.105469 68.378906 C 222.105469 67.308594 222.980469 66.433594 224.054688 66.433594 C 225.125 66.433594 226 67.308594 226 68.378906 C 226 69.453125 225.125 70.324219 224.054688 70.324219 " fill-opacity="1" fill-rule="nonzero"/><path fill="#004aad" d="M 224.054688 89.9375 C 223.6875 89.9375 223.390625 90.234375 223.390625 90.601562 C 223.390625 90.964844 223.6875 91.261719 224.054688 91.261719 C 224.417969 91.261719 224.71875 90.964844 224.71875 90.601562 C 224.71875 90.234375 224.417969 89.9375 224.054688 89.9375 Z M 224.054688 92.542969 C 222.980469 92.542969 222.105469 91.671875 222.105469 90.601562 C 222.105469 89.53125 222.980469 88.65625 224.054688 88.65625 C 225.125 88.65625 226 89.53125 226 90.601562 C 226 91.671875 225.125 92.542969 224.054688 92.542969 " fill-opacity="1" fill-rule="nonzero"/><path fill="#004aad" d="M 160.296875 94.386719 C 159.933594 94.386719 159.636719 94.683594 159.636719 95.046875 C 159.636719 95.410156 159.933594 95.710938 160.296875 95.710938 C 160.664062 95.710938 160.960938 95.410156 160.960938 95.046875 C 160.960938 94.683594 160.664062 94.386719 160.296875 94.386719 Z M 160.296875 96.992188 C 159.222656 96.992188 158.351562 96.117188 158.351562 95.046875 C 158.351562 93.972656 159.222656 93.101562 160.296875 93.101562 C 161.371094 93.101562 162.246094 93.972656 162.246094 95.046875 C 162.246094 96.117188 161.371094 96.992188 160.296875 96.992188 " fill-opacity="1" fill-rule="nonzero"/><path fill="#004aad" d="M 155.84375 94.386719 C 155.480469 94.386719 155.183594 94.683594 155.183594 95.046875 C 155.183594 95.410156 155.480469 95.710938 155.84375 95.710938 C 156.210938 95.710938 156.511719 95.410156 156.511719 95.046875 C 156.511719 94.683594 156.210938 94.386719 155.84375 94.386719 Z M 155.84375 96.992188 C 154.773438 96.992188 153.898438 96.117188 153.898438 95.046875 C 153.898438 93.972656 154.773438 93.101562 155.84375 93.101562 C 156.921875 93.101562 157.792969 93.972656 157.792969 95.046875 C 157.792969 96.117188 156.921875 96.992188 155.84375 96.992188 " fill-opacity="1" fill-rule="nonzero"/><path fill="#004aad" d="M 155.84375 72.160156 C 155.480469 72.160156 155.183594 72.460938 155.183594 72.824219 C 155.183594 73.1875 155.480469 73.488281 155.84375 73.488281 C 156.210938 73.488281 156.511719 73.1875 156.511719 72.824219 C 156.511719 72.460938 156.210938 72.160156 155.84375 72.160156 Z M 155.84375 74.769531 C 154.773438 74.769531 153.898438 73.894531 153.898438 72.824219 C 153.898438 71.75 154.773438 70.878906 155.84375 70.878906 C 156.921875 70.878906 157.792969 71.75 157.792969 72.824219 C 157.792969 73.894531 156.921875 74.769531 155.84375 74.769531 " fill-opacity="1" fill-rule="nonzero"/><path fill="#004aad" d="M 155.84375 76.605469 C 155.480469 76.605469 155.183594 76.902344 155.183594 77.269531 C 155.183594 77.632812 155.480469 77.929688 155.84375 77.929688 C 156.210938 77.929688 156.511719 77.632812 156.511719 77.269531 C 156.511719 76.902344 156.210938 76.605469 155.84375 76.605469 Z M 155.84375 79.210938 C 154.773438 79.210938 153.898438 78.339844 153.898438 77.269531 C 153.898438 76.195312 154.773438 75.324219 155.84375 75.324219 C 156.921875 75.324219 157.792969 76.195312 157.792969 77.269531 C 157.792969 78.339844 156.921875 79.210938 155.84375 79.210938 " fill-opacity="1" fill-rule="nonzero"/><path fill="#004aad" d="M 155.84375 81.050781 C 155.480469 81.050781 155.183594 81.347656 155.183594 81.710938 C 155.183594 82.078125 155.480469 82.375 155.84375 82.375 C 156.210938 82.375 156.511719 82.078125 156.511719 81.710938 C 156.511719 81.347656 156.210938 81.050781 155.84375 81.050781 Z M 155.84375 83.65625 C 154.773438 83.65625 153.898438 82.785156 153.898438 81.710938 C 153.898438 80.640625 154.773438 79.769531 155.84375 79.769531 C 156.921875 79.769531 157.792969 80.640625 157.792969 81.710938 C 157.792969 82.785156 156.921875 83.65625 155.84375 83.65625 " fill-opacity="1" fill-rule="nonzero"/><path fill="#004aad" d="M 155.84375 85.496094 C 155.480469 85.496094 155.183594 85.792969 155.183594 86.15625 C 155.183594 86.523438 155.480469 86.820312 155.84375 86.820312 C 156.210938 86.820312 156.511719 86.523438 156.511719 86.15625 C 156.511719 85.792969 156.210938 85.496094 155.84375 85.496094 Z M 155.84375 88.101562 C 154.773438 88.101562 153.898438 87.230469 153.898438 86.15625 C 153.898438 85.085938 154.773438 84.210938 155.84375 84.210938 C 156.921875 84.210938 157.792969 85.085938 157.792969 86.15625 C 157.792969 87.230469 156.921875 88.101562 155.84375 88.101562 " fill-opacity="1" fill-rule="nonzero"/><path fill="#004aad" d="M 155.84375 58.828125 C 155.480469 58.828125 155.183594 59.125 155.183594 59.492188 C 155.183594 59.855469 155.480469 60.152344 155.84375 60.152344 C 156.210938 60.152344 156.511719 59.855469 156.511719 59.492188 C 156.511719 59.125 156.210938 58.828125 155.84375 58.828125 Z M 155.84375 61.433594 C 154.773438 61.433594 153.898438 60.5625 153.898438 59.492188 C 153.898438 58.417969 154.773438 57.546875 155.84375 57.546875 C 156.921875 57.546875 157.792969 58.417969 157.792969 59.492188 C 157.792969 60.5625 156.921875 61.433594 155.84375 61.433594 " fill-opacity="1" fill-rule="nonzero"/><path fill="#004aad" d="M 155.84375 63.273438 C 155.480469 63.273438 155.183594 63.570312 155.183594 63.9375 C 155.183594 64.300781 155.480469 64.597656 155.84375 64.597656 C 156.210938 64.597656 156.511719 64.300781 156.511719 63.9375 C 156.511719 63.570312 156.210938 63.273438 155.84375 63.273438 Z M 155.84375 65.878906 C 154.773438 65.878906 153.898438 65.007812 153.898438 63.9375 C 153.898438 62.863281 154.773438 61.992188 155.84375 61.992188 C 156.921875 61.992188 157.792969 62.863281 157.792969 63.9375 C 157.792969 65.007812 156.921875 65.878906 155.84375 65.878906 " fill-opacity="1" fill-rule="nonzero"/><path fill="#004aad" d="M 155.84375 67.714844 C 155.480469 67.714844 155.183594 68.015625 155.183594 68.378906 C 155.183594 68.746094 155.480469 69.042969 155.84375 69.042969 C 156.210938 69.042969 156.511719 68.746094 156.511719 68.378906 C 156.511719 68.015625 156.210938 67.714844 155.84375 67.714844 Z M 155.84375 70.324219 C 154.773438 70.324219 153.898438 69.453125 153.898438 68.378906 C 153.898438 67.308594 154.773438 66.433594 155.84375 66.433594 C 156.921875 66.433594 157.792969 67.308594 157.792969 68.378906 C 157.792969 69.453125 156.921875 70.324219 155.84375 70.324219 " fill-opacity="1" fill-rule="nonzero"/><path fill="#004aad" d="M 155.84375 89.9375 C 155.480469 89.9375 155.183594 90.234375 155.183594 90.601562 C 155.183594 90.964844 155.480469 91.261719 155.84375 91.261719 C 156.210938 91.261719 156.511719 90.964844 156.511719 90.601562 C 156.511719 90.234375 156.210938 89.9375 155.84375 89.9375 Z M 155.84375 92.542969 C 154.773438 92.542969 153.898438 91.671875 153.898438 90.601562 C 153.898438 89.53125 154.773438 88.65625 155.84375 88.65625 C 156.921875 88.65625 157.792969 89.53125 157.792969 90.601562 C 157.792969 91.671875 156.921875 92.542969 155.84375 92.542969 " fill-opacity="1" fill-rule="nonzero"/><g fill="#004aad" fill-opacity="1"><g transform="translate(158.653742, 128.199718)"><g><path d="M 5.25 0 L 4.390625 -2.171875 L 1.65625 -2.171875 L 0.8125 0 L 0 0 L 2.703125 -6.875 L 3.375 -6.875 L 6.078125 0 Z M 4.140625 -2.890625 L 3.34375 -5.015625 C 3.238281 -5.285156 3.132812 -5.613281 3.03125 -6 C 2.957031 -5.707031 2.859375 -5.378906 2.734375 -5.015625 L 1.9375 -2.890625 Z M 4.140625 -2.890625 "/></g></g><g transform="translate(164.723094, 128.199718)"><g><path d="M 4.109375 0 L 0.390625 0 L 0.390625 -0.53125 L 3.1875 -4.53125 L 0.5625 -4.53125 L 0.5625 -5.140625 L 4.03125 -5.140625 L 4.03125 -4.53125 L 1.28125 -0.609375 L 4.109375 -0.609375 Z M 4.109375 0 "/></g></g><g transform="translate(169.209544, 128.199718)"><g><path d="M 1.5625 -5.140625 L 1.5625 -1.796875 C 1.5625 -1.378906 1.65625 -1.066406 1.84375 -0.859375 C 2.03125 -0.660156 2.328125 -0.5625 2.734375 -0.5625 C 3.273438 -0.5625 3.664062 -0.707031 3.90625 -1 C 4.15625 -1.289062 4.28125 -1.769531 4.28125 -2.4375 L 4.28125 -5.140625 L 5.0625 -5.140625 L 5.0625 0 L 4.421875 0 L 4.3125 -0.6875 L 4.265625 -0.6875 C 4.109375 -0.4375 3.890625 -0.242188 3.609375 -0.109375 C 3.328125 0.0234375 3.003906 0.09375 2.640625 0.09375 C 2.015625 0.09375 1.546875 -0.0507812 1.234375 -0.34375 C 0.921875 -0.644531 0.765625 -1.125 0.765625 -1.78125 L 0.765625 -5.140625 Z M 1.5625 -5.140625 "/></g></g><g transform="translate(175.096253, 128.199718)"><g><path d="M 3.171875 -5.234375 C 3.398438 -5.234375 3.601562 -5.210938 3.78125 -5.171875 L 3.671875 -4.453125 C 3.460938 -4.492188 3.273438 -4.515625 3.109375 -4.515625 C 2.691406 -4.515625 2.335938 -4.347656 2.046875 -4.015625 C 1.753906 -3.679688 1.609375 -3.257812 1.609375 -2.75 L 1.609375 0 L 0.828125 0 L 0.828125 -5.140625 L 1.46875 -5.140625 L 1.5625 -4.1875 L 1.59375 -4.1875 C 1.78125 -4.519531 2.007812 -4.773438 2.28125 -4.953125 C 2.550781 -5.140625 2.847656 -5.234375 3.171875 -5.234375 Z M 3.171875 -5.234375 "/></g></g><g transform="translate(179.01136, 128.199718)"><g><path d="M 3 0.09375 C 2.238281 0.09375 1.632812 -0.132812 1.1875 -0.59375 C 0.75 -1.0625 0.53125 -1.707031 0.53125 -2.53125 C 0.53125 -3.351562 0.734375 -4.007812 1.140625 -4.5 C 1.554688 -4.988281 2.109375 -5.234375 2.796875 -5.234375 C 3.429688 -5.234375 3.9375 -5.019531 4.3125 -4.59375 C 4.6875 -4.164062 4.875 -3.609375 4.875 -2.921875 L 4.875 -2.421875 L 1.34375 -2.421875 C 1.363281 -1.816406 1.515625 -1.359375 1.796875 -1.046875 C 2.085938 -0.734375 2.492188 -0.578125 3.015625 -0.578125 C 3.566406 -0.578125 4.113281 -0.695312 4.65625 -0.9375 L 4.65625 -0.234375 C 4.382812 -0.117188 4.125 -0.0351562 3.875 0.015625 C 3.632812 0.0664062 3.34375 0.09375 3 0.09375 Z M 2.78125 -4.578125 C 2.375 -4.578125 2.046875 -4.441406 1.796875 -4.171875 C 1.546875 -3.898438 1.398438 -3.53125 1.359375 -3.0625 L 4.046875 -3.0625 C 4.046875 -3.550781 3.9375 -3.925781 3.71875 -4.1875 C 3.5 -4.445312 3.1875 -4.578125 2.78125 -4.578125 Z M 2.78125 -4.578125 "/></g></g><g transform="translate(184.392291, 128.199718)"><g/></g><g transform="translate(186.883722, 128.199718)"><g><path d="M 6.40625 -3.484375 C 6.40625 -2.359375 6.097656 -1.492188 5.484375 -0.890625 C 4.867188 -0.296875 3.988281 0 2.84375 0 L 0.9375 0 L 0.9375 -6.84375 L 3.046875 -6.84375 C 4.109375 -6.84375 4.929688 -6.546875 5.515625 -5.953125 C 6.109375 -5.367188 6.40625 -4.546875 6.40625 -3.484375 Z M 5.5625 -3.46875 C 5.5625 -4.351562 5.335938 -5.019531 4.890625 -5.46875 C 4.441406 -5.925781 3.773438 -6.15625 2.890625 -6.15625 L 1.734375 -6.15625 L 1.734375 -0.6875 L 2.703125 -0.6875 C 3.648438 -0.6875 4.363281 -0.921875 4.84375 -1.390625 C 5.320312 -1.859375 5.5625 -2.550781 5.5625 -3.46875 Z M 5.5625 -3.46875 "/></g></g><g transform="translate(193.875653, 128.199718)"><g><path d="M 3 0.09375 C 2.238281 0.09375 1.632812 -0.132812 1.1875 -0.59375 C 0.75 -1.0625 0.53125 -1.707031 0.53125 -2.53125 C 0.53125 -3.351562 0.734375 -4.007812 1.140625 -4.5 C 1.554688 -4.988281 2.109375 -5.234375 2.796875 -5.234375 C 3.429688 -5.234375 3.9375 -5.019531 4.3125 -4.59375 C 4.6875 -4.164062 4.875 -3.609375 4.875 -2.921875 L 4.875 -2.421875 L 1.34375 -2.421875 C 1.363281 -1.816406 1.515625 -1.359375 1.796875 -1.046875 C 2.085938 -0.734375 2.492188 -0.578125 3.015625 -0.578125 C 3.566406 -0.578125 4.113281 -0.695312 4.65625 -0.9375 L 4.65625 -0.234375 C 4.382812 -0.117188 4.125 -0.0351562 3.875 0.015625 C 3.632812 0.0664062 3.34375 0.09375 3 0.09375 Z M 2.78125 -4.578125 C 2.375 -4.578125 2.046875 -4.441406 1.796875 -4.171875 C 1.546875 -3.898438 1.398438 -3.53125 1.359375 -3.0625 L 4.046875 -3.0625 C 4.046875 -3.550781 3.9375 -3.925781 3.71875 -4.1875 C 3.5 -4.445312 3.1875 -4.578125 2.78125 -4.578125 Z M 2.78125 -4.578125 "/></g></g><g transform="translate(199.256583, 128.199718)"><g><path d="M 1.953125 0 L 0 -5.140625 L 0.828125 -5.140625 L 1.9375 -2.09375 C 2.1875 -1.375 2.332031 -0.910156 2.375 -0.703125 L 2.421875 -0.703125 C 2.453125 -0.867188 2.554688 -1.210938 2.734375 -1.734375 C 2.921875 -2.253906 3.332031 -3.390625 3.96875 -5.140625 L 4.8125 -5.140625 L 2.859375 0 Z M 1.953125 0 "/></g></g><g transform="translate(204.061487, 128.199718)"><g><path d="M 6.890625 -3.4375 C 6.890625 -2.34375 6.609375 -1.476562 6.046875 -0.84375 C 5.492188 -0.21875 4.726562 0.09375 3.75 0.09375 C 2.738281 0.09375 1.957031 -0.210938 1.40625 -0.828125 C 0.851562 -1.441406 0.578125 -2.3125 0.578125 -3.4375 C 0.578125 -4.550781 0.851562 -5.414062 1.40625 -6.03125 C 1.957031 -6.644531 2.738281 -6.953125 3.75 -6.953125 C 4.738281 -6.953125 5.507812 -6.640625 6.0625 -6.015625 C 6.613281 -5.390625 6.890625 -4.53125 6.890625 -3.4375 Z M 1.421875 -3.4375 C 1.421875 -2.507812 1.617188 -1.804688 2.015625 -1.328125 C 2.410156 -0.847656 2.988281 -0.609375 3.75 -0.609375 C 4.5 -0.609375 5.066406 -0.84375 5.453125 -1.3125 C 5.847656 -1.789062 6.046875 -2.5 6.046875 -3.4375 C 6.046875 -4.351562 5.851562 -5.050781 5.46875 -5.53125 C 5.082031 -6.007812 4.507812 -6.25 3.75 -6.25 C 2.988281 -6.25 2.410156 -6.007812 2.015625 -5.53125 C 1.617188 -5.050781 1.421875 -4.351562 1.421875 -3.4375 Z M 1.421875 -3.4375 "/></g></g><g transform="translate(211.531099, 128.199718)"><g><path d="M 3.21875 0.09375 C 2.882812 0.09375 2.578125 0.03125 2.296875 -0.09375 C 2.023438 -0.21875 1.796875 -0.40625 1.609375 -0.65625 L 1.546875 -0.65625 C 1.585938 -0.351562 1.609375 -0.0703125 1.609375 0.1875 L 1.609375 2.3125 L 0.828125 2.3125 L 0.828125 -5.140625 L 1.453125 -5.140625 L 1.5625 -4.4375 L 1.609375 -4.4375 C 1.804688 -4.71875 2.035156 -4.921875 2.296875 -5.046875 C 2.566406 -5.171875 2.875 -5.234375 3.21875 -5.234375 C 3.894531 -5.234375 4.414062 -5 4.78125 -4.53125 C 5.15625 -4.0625 5.34375 -3.410156 5.34375 -2.578125 C 5.34375 -1.734375 5.15625 -1.078125 4.78125 -0.609375 C 4.40625 -0.140625 3.882812 0.09375 3.21875 0.09375 Z M 3.09375 -4.5625 C 2.570312 -4.5625 2.191406 -4.414062 1.953125 -4.125 C 1.722656 -3.84375 1.609375 -3.382812 1.609375 -2.75 L 1.609375 -2.578125 C 1.609375 -1.847656 1.726562 -1.328125 1.96875 -1.015625 C 2.207031 -0.710938 2.59375 -0.5625 3.125 -0.5625 C 3.5625 -0.5625 3.90625 -0.738281 4.15625 -1.09375 C 4.414062 -1.457031 4.546875 -1.953125 4.546875 -2.578125 C 4.546875 -3.222656 4.414062 -3.710938 4.15625 -4.046875 C 3.90625 -4.390625 3.550781 -4.5625 3.09375 -4.5625 Z M 3.09375 -4.5625 "/></g></g><g transform="translate(217.408442, 128.199718)"><g><path d="M 4.140625 -1.40625 C 4.140625 -0.925781 3.957031 -0.554688 3.59375 -0.296875 C 3.238281 -0.0351562 2.742188 0.09375 2.109375 0.09375 C 1.421875 0.09375 0.890625 -0.015625 0.515625 -0.234375 L 0.515625 -0.953125 C 0.753906 -0.828125 1.015625 -0.726562 1.296875 -0.65625 C 1.585938 -0.582031 1.863281 -0.546875 2.125 -0.546875 C 2.53125 -0.546875 2.84375 -0.609375 3.0625 -0.734375 C 3.28125 -0.867188 3.390625 -1.066406 3.390625 -1.328125 C 3.390625 -1.535156 3.300781 -1.707031 3.125 -1.84375 C 2.945312 -1.988281 2.609375 -2.160156 2.109375 -2.359375 C 1.628906 -2.535156 1.289062 -2.6875 1.09375 -2.8125 C 0.894531 -2.945312 0.742188 -3.097656 0.640625 -3.265625 C 0.546875 -3.429688 0.5 -3.632812 0.5 -3.875 C 0.5 -4.289062 0.664062 -4.617188 1 -4.859375 C 1.34375 -5.109375 1.8125 -5.234375 2.40625 -5.234375 C 2.957031 -5.234375 3.5 -5.117188 4.03125 -4.890625 L 3.75 -4.265625 C 3.238281 -4.472656 2.773438 -4.578125 2.359375 -4.578125 C 1.984375 -4.578125 1.703125 -4.519531 1.515625 -4.40625 C 1.328125 -4.289062 1.234375 -4.128906 1.234375 -3.921875 C 1.234375 -3.785156 1.269531 -3.664062 1.34375 -3.5625 C 1.414062 -3.46875 1.53125 -3.378906 1.6875 -3.296875 C 1.84375 -3.210938 2.140625 -3.085938 2.578125 -2.921875 C 3.191406 -2.691406 3.601562 -2.460938 3.8125 -2.234375 C 4.03125 -2.015625 4.140625 -1.738281 4.140625 -1.40625 Z M 4.140625 -1.40625 "/></g></g></g><g fill="#ff914d" fill-opacity="1"><g transform="translate(291.172426, 137.391338)"><g><path d="M 7.140625 0 L 6.328125 0 L 4.890625 -4.734375 C 4.828125 -4.941406 4.753906 -5.203125 4.671875 -5.515625 C 4.585938 -5.835938 4.546875 -6.03125 4.546875 -6.09375 C 4.472656 -5.664062 4.359375 -5.203125 4.203125 -4.703125 L 2.828125 0 L 2.015625 0 L 0.125 -7.0625 L 1 -7.0625 L 2.109375 -2.703125 C 2.265625 -2.085938 2.378906 -1.53125 2.453125 -1.03125 C 2.535156 -1.625 2.664062 -2.203125 2.84375 -2.765625 L 4.109375 -7.0625 L 4.96875 -7.0625 L 6.296875 -2.734375 C 6.453125 -2.234375 6.582031 -1.664062 6.6875 -1.03125 C 6.75 -1.488281 6.867188 -2.046875 7.046875 -2.703125 L 8.15625 -7.0625 L 9.015625 -7.0625 Z M 7.140625 0 "/></g></g><g transform="translate(300.323327, 137.391338)"><g><path d="M 5.421875 -2.65625 C 5.421875 -1.789062 5.203125 -1.113281 4.765625 -0.625 C 4.328125 -0.144531 3.726562 0.09375 2.96875 0.09375 C 2.488281 0.09375 2.066406 -0.015625 1.703125 -0.234375 C 1.335938 -0.453125 1.054688 -0.769531 0.859375 -1.1875 C 0.660156 -1.601562 0.5625 -2.09375 0.5625 -2.65625 C 0.5625 -3.519531 0.773438 -4.191406 1.203125 -4.671875 C 1.628906 -5.148438 2.226562 -5.390625 3 -5.390625 C 3.738281 -5.390625 4.328125 -5.140625 4.765625 -4.640625 C 5.203125 -4.148438 5.421875 -3.488281 5.421875 -2.65625 Z M 1.390625 -2.65625 C 1.390625 -1.976562 1.523438 -1.460938 1.796875 -1.109375 C 2.066406 -0.753906 2.460938 -0.578125 2.984375 -0.578125 C 3.503906 -0.578125 3.898438 -0.75 4.171875 -1.09375 C 4.453125 -1.445312 4.59375 -1.96875 4.59375 -2.65625 C 4.59375 -3.320312 4.453125 -3.828125 4.171875 -4.171875 C 3.898438 -4.523438 3.5 -4.703125 2.96875 -4.703125 C 2.445312 -4.703125 2.050781 -4.53125 1.78125 -4.1875 C 1.519531 -3.84375 1.390625 -3.332031 1.390625 -2.65625 Z M 1.390625 -2.65625 "/></g></g><g transform="translate(306.293614, 137.391338)"><g><path d="M 3.265625 -5.390625 C 3.503906 -5.390625 3.710938 -5.367188 3.890625 -5.328125 L 3.78125 -4.59375 C 3.5625 -4.632812 3.367188 -4.65625 3.203125 -4.65625 C 2.773438 -4.65625 2.410156 -4.484375 2.109375 -4.140625 C 1.804688 -3.796875 1.65625 -3.363281 1.65625 -2.84375 L 1.65625 0 L 0.84375 0 L 0.84375 -5.296875 L 1.515625 -5.296875 L 1.609375 -4.3125 L 1.640625 -4.3125 C 1.835938 -4.65625 2.070312 -4.921875 2.34375 -5.109375 C 2.625 -5.296875 2.929688 -5.390625 3.265625 -5.390625 Z M 3.265625 -5.390625 "/></g></g><g transform="translate(310.328506, 137.391338)"><g><path d="M 1.640625 -2.703125 C 1.773438 -2.898438 1.988281 -3.160156 2.28125 -3.484375 L 3.984375 -5.296875 L 4.9375 -5.296875 L 2.796875 -3.03125 L 5.078125 0 L 4.109375 0 L 2.25 -2.5 L 1.640625 -1.984375 L 1.640625 0 L 0.84375 0 L 0.84375 -7.515625 L 1.640625 -7.515625 L 1.640625 -3.53125 C 1.640625 -3.351562 1.628906 -3.078125 1.609375 -2.703125 Z M 1.640625 -2.703125 "/></g></g><g transform="translate(315.516912, 137.391338)"><g/></g><g transform="translate(318.08457, 137.391338)"><g><path d="M 0.96875 0 L 0.96875 -7.0625 L 1.796875 -7.0625 L 1.796875 0 Z M 0.96875 0 "/></g></g><g transform="translate(320.840459, 137.391338)"><g><path d="M 2.5625 -0.5625 C 2.695312 -0.5625 2.832031 -0.570312 2.96875 -0.59375 C 3.101562 -0.613281 3.207031 -0.632812 3.28125 -0.65625 L 3.28125 -0.046875 C 3.195312 -0.00390625 3.066406 0.0234375 2.890625 0.046875 C 2.722656 0.078125 2.570312 0.09375 2.4375 0.09375 C 1.414062 0.09375 0.90625 -0.441406 0.90625 -1.515625 L 0.90625 -4.671875 L 0.15625 -4.671875 L 0.15625 -5.0625 L 0.90625 -5.390625 L 1.25 -6.515625 L 1.703125 -6.515625 L 1.703125 -5.296875 L 3.25 -5.296875 L 3.25 -4.671875 L 1.703125 -4.671875 L 1.703125 -1.5625 C 1.703125 -1.238281 1.773438 -0.988281 1.921875 -0.8125 C 2.078125 -0.644531 2.289062 -0.5625 2.5625 -0.5625 Z M 2.5625 -0.5625 "/></g></g><g transform="translate(324.329964, 137.391338)"><g><path d="M 3.09375 0.09375 C 2.300781 0.09375 1.679688 -0.140625 1.234375 -0.609375 C 0.785156 -1.085938 0.5625 -1.753906 0.5625 -2.609375 C 0.5625 -3.460938 0.769531 -4.140625 1.1875 -4.640625 C 1.601562 -5.140625 2.164062 -5.390625 2.875 -5.390625 C 3.539062 -5.390625 4.066406 -5.171875 4.453125 -4.734375 C 4.835938 -4.296875 5.03125 -3.722656 5.03125 -3.015625 L 5.03125 -2.5 L 1.390625 -2.5 C 1.398438 -1.875 1.550781 -1.398438 1.84375 -1.078125 C 2.144531 -0.765625 2.566406 -0.609375 3.109375 -0.609375 C 3.679688 -0.609375 4.25 -0.726562 4.8125 -0.96875 L 4.8125 -0.25 C 4.519531 -0.125 4.25 -0.0351562 4 0.015625 C 3.75 0.0664062 3.445312 0.09375 3.09375 0.09375 Z M 2.875 -4.71875 C 2.445312 -4.71875 2.101562 -4.578125 1.84375 -4.296875 C 1.59375 -4.023438 1.445312 -3.644531 1.40625 -3.15625 L 4.171875 -3.15625 C 4.171875 -3.65625 4.054688 -4.039062 3.828125 -4.3125 C 3.609375 -4.582031 3.289062 -4.71875 2.875 -4.71875 Z M 2.875 -4.71875 "/></g></g><g transform="translate(329.875526, 137.391338)"><g><path d="M 7.59375 0 L 7.59375 -3.4375 C 7.59375 -3.863281 7.503906 -4.179688 7.328125 -4.390625 C 7.148438 -4.597656 6.867188 -4.703125 6.484375 -4.703125 C 5.984375 -4.703125 5.613281 -4.554688 5.375 -4.265625 C 5.132812 -3.984375 5.015625 -3.546875 5.015625 -2.953125 L 5.015625 0 L 4.21875 0 L 4.21875 -3.4375 C 4.21875 -3.863281 4.128906 -4.179688 3.953125 -4.390625 C 3.773438 -4.597656 3.492188 -4.703125 3.109375 -4.703125 C 2.609375 -4.703125 2.238281 -4.550781 2 -4.25 C 1.769531 -3.957031 1.65625 -3.46875 1.65625 -2.78125 L 1.65625 0 L 0.84375 0 L 0.84375 -5.296875 L 1.5 -5.296875 L 1.625 -4.5625 L 1.671875 -4.5625 C 1.816406 -4.820312 2.023438 -5.023438 2.296875 -5.171875 C 2.578125 -5.316406 2.890625 -5.390625 3.234375 -5.390625 C 4.066406 -5.390625 4.609375 -5.085938 4.859375 -4.484375 L 4.890625 -4.484375 C 5.054688 -4.765625 5.285156 -4.984375 5.578125 -5.140625 C 5.878906 -5.304688 6.222656 -5.390625 6.609375 -5.390625 C 7.203125 -5.390625 7.644531 -5.234375 7.9375 -4.921875 C 8.238281 -4.617188 8.390625 -4.128906 8.390625 -3.453125 L 8.390625 0 Z M 7.59375 0 "/></g></g><g transform="translate(339.069865, 137.391338)"><g><path d="M 1.5 -7.0625 L 1.5625 -6.953125 C 1.476562 -6.628906 1.359375 -6.253906 1.203125 -5.828125 C 1.046875 -5.398438 0.878906 -5.003906 0.703125 -4.640625 L 0.125 -4.640625 C 0.34375 -5.554688 0.503906 -6.363281 0.609375 -7.0625 Z M 1.5 -7.0625 "/></g></g><g transform="translate(340.749461, 137.391338)"><g><path d="M 4.265625 -1.4375 C 4.265625 -0.945312 4.078125 -0.566406 3.703125 -0.296875 C 3.335938 -0.0351562 2.828125 0.09375 2.171875 0.09375 C 1.460938 0.09375 0.914062 -0.015625 0.53125 -0.234375 L 0.53125 -0.984375 C 0.78125 -0.847656 1.050781 -0.742188 1.34375 -0.671875 C 1.632812 -0.597656 1.914062 -0.5625 2.1875 -0.5625 C 2.601562 -0.5625 2.921875 -0.628906 3.140625 -0.765625 C 3.367188 -0.898438 3.484375 -1.101562 3.484375 -1.375 C 3.484375 -1.582031 3.394531 -1.757812 3.21875 -1.90625 C 3.039062 -2.050781 2.691406 -2.222656 2.171875 -2.421875 C 1.679688 -2.609375 1.332031 -2.769531 1.125 -2.90625 C 0.914062 -3.039062 0.757812 -3.191406 0.65625 -3.359375 C 0.5625 -3.535156 0.515625 -3.75 0.515625 -4 C 0.515625 -4.425781 0.6875 -4.765625 1.03125 -5.015625 C 1.382812 -5.265625 1.867188 -5.390625 2.484375 -5.390625 C 3.054688 -5.390625 3.613281 -5.273438 4.15625 -5.046875 L 3.875 -4.390625 C 3.34375 -4.609375 2.859375 -4.71875 2.421875 -4.71875 C 2.046875 -4.71875 1.757812 -4.65625 1.5625 -4.53125 C 1.375 -4.414062 1.28125 -4.253906 1.28125 -4.046875 C 1.28125 -3.898438 1.316406 -3.773438 1.390625 -3.671875 C 1.460938 -3.578125 1.578125 -3.484375 1.734375 -3.390625 C 1.890625 -3.304688 2.195312 -3.179688 2.65625 -3.015625 C 3.289062 -2.785156 3.71875 -2.550781 3.9375 -2.3125 C 4.15625 -2.082031 4.265625 -1.789062 4.265625 -1.4375 Z M 4.265625 -1.4375 "/></g></g></g><g clip-path="url(#4b759d4390)"><path fill="#ff914d" d="M 351.832031 42.6875 C 344.8125 42.6875 339.097656 48.398438 339.097656 55.421875 C 339.097656 62.441406 344.8125 68.152344 351.832031 68.152344 C 358.851562 68.152344 364.566406 62.441406 364.566406 55.421875 C 364.566406 48.398438 358.851562 42.6875 351.832031 42.6875 Z M 351.832031 71.335938 C 343.058594 71.335938 335.914062 64.199219 335.914062 55.421875 C 335.914062 46.640625 343.058594 39.503906 351.832031 39.503906 C 360.613281 39.503906 367.75 46.640625 367.75 55.421875 C 367.75 64.199219 360.613281 71.335938 351.832031 71.335938 " fill-opacity="1" fill-rule="nonzero"/></g><path fill="#ff914d" d="M 358.199219 57.011719 L 351.832031 57.011719 C 350.957031 57.011719 350.242188 56.296875 350.242188 55.421875 L 350.242188 47.460938 C 350.242188 46.585938 350.957031 45.871094 351.832031 45.871094 C 352.714844 45.871094 353.425781 46.585938 353.425781 47.460938 L 353.425781 53.828125 L 358.199219 53.828125 C 359.082031 53.828125 359.792969 54.542969 359.792969 55.421875 C 359.792969 56.296875 359.082031 57.011719 358.199219 57.011719 " fill-opacity="1" fill-rule="nonzero"/><path fill="#ff914d" d="M 326.363281 115.90625 C 325.960938 115.90625 325.550781 115.75 325.238281 115.4375 L 318.871094 109.070312 C 318.25 108.449219 318.25 107.441406 318.871094 106.820312 C 319.496094 106.199219 320.5 106.199219 321.125 106.820312 L 326.363281 112.0625 L 336.382812 102.046875 C 337.003906 101.425781 338.011719 101.425781 338.632812 102.046875 C 339.253906 102.667969 339.253906 103.675781 338.632812 104.296875 L 327.492188 115.4375 C 327.179688 115.75 326.777344 115.90625 326.363281 115.90625 " fill-opacity="1" fill-rule="nonzero"/><g clip-path="url(#20b55cc11d)"><path fill="#ff914d" d="M 332.730469 123.863281 L 316.816406 123.863281 C 314.183594 123.863281 312.039062 121.726562 312.039062 119.089844 L 312.039062 103.171875 C 312.039062 100.535156 314.183594 98.394531 316.816406 98.394531 L 331.140625 98.394531 C 332.023438 98.394531 332.730469 99.109375 332.730469 99.988281 C 332.730469 100.863281 332.023438 101.578125 331.140625 101.578125 L 316.816406 101.578125 C 315.9375 101.578125 315.222656 102.292969 315.222656 103.171875 L 315.222656 119.089844 C 315.222656 119.964844 315.9375 120.679688 316.816406 120.679688 L 332.730469 120.679688 C 333.609375 120.679688 334.324219 119.964844 334.324219 119.089844 L 334.324219 114.3125 C 334.324219 113.4375 335.039062 112.722656 335.914062 112.722656 C 336.796875 112.722656 337.507812 113.4375 337.507812 114.3125 L 337.507812 119.089844 C 337.507812 121.726562 335.367188 123.863281 332.730469 123.863281 " fill-opacity="1" fill-rule="nonzero"/></g><path fill="#ff914d" d="M 274.496094 51.949219 L 280.207031 51.949219 L 280.207031 46.242188 Z M 300.898438 85.375 L 270.65625 85.375 C 269.777344 85.375 269.0625 84.660156 269.0625 83.785156 L 269.0625 59.910156 C 269.0625 59.03125 269.777344 58.316406 270.65625 58.316406 C 271.539062 58.316406 272.246094 59.03125 272.246094 59.910156 L 272.246094 82.191406 L 299.304688 82.191406 L 299.304688 43.992188 L 283.390625 43.992188 L 283.390625 53.542969 C 283.390625 54.417969 282.679688 55.132812 281.796875 55.132812 L 270.65625 55.132812 C 270.015625 55.132812 269.429688 54.75 269.1875 54.152344 C 268.9375 53.554688 269.074219 52.871094 269.53125 52.417969 L 280.671875 41.273438 C 280.691406 41.257812 280.710938 41.242188 280.722656 41.226562 C 280.722656 41.226562 280.722656 41.226562 280.726562 41.226562 C 281.007812 40.964844 281.386719 40.808594 281.796875 40.808594 L 300.898438 40.808594 C 301.78125 40.808594 302.488281 41.523438 302.488281 42.398438 L 302.488281 83.785156 C 302.488281 84.660156 301.78125 85.375 300.898438 85.375 " fill-opacity="1" fill-rule="nonzero"/><path fill="#ff914d" d="M 278.613281 64.683594 L 277.023438 64.683594 C 276.144531 64.683594 275.429688 63.96875 275.429688 63.09375 C 275.429688 62.214844 276.144531 61.5 277.023438 61.5 L 278.613281 61.5 C 279.496094 61.5 280.207031 62.214844 280.207031 63.09375 C 280.207031 63.96875 279.496094 64.683594 278.613281 64.683594 " fill-opacity="1" fill-rule="nonzero"/><path fill="#ff914d" d="M 294.53125 64.683594 L 284.980469 64.683594 C 284.105469 64.683594 283.390625 63.96875 283.390625 63.09375 C 283.390625 62.214844 284.105469 61.5 284.980469 61.5 L 294.53125 61.5 C 295.414062 61.5 296.121094 62.214844 296.121094 63.09375 C 296.121094 63.96875 295.414062 64.683594 294.53125 64.683594 " fill-opacity="1" fill-rule="nonzero"/><path fill="#ff914d" d="M 278.613281 74.234375 L 277.023438 74.234375 C 276.144531 74.234375 275.429688 73.519531 275.429688 72.644531 C 275.429688 71.765625 276.144531 71.050781 277.023438 71.050781 L 278.613281 71.050781 C 279.496094 71.050781 280.207031 71.765625 280.207031 72.644531 C 280.207031 73.519531 279.496094 74.234375 278.613281 74.234375 " fill-opacity="1" fill-rule="nonzero"/><path fill="#ff914d" d="M 294.53125 74.234375 L 284.980469 74.234375 C 284.105469 74.234375 283.390625 73.519531 283.390625 72.644531 C 283.390625 71.765625 284.105469 71.050781 284.980469 71.050781 L 294.53125 71.050781 C 295.414062 71.050781 296.121094 71.765625 296.121094 72.644531 C 296.121094 73.519531 295.414062 74.234375 294.53125 74.234375 " fill-opacity="1" fill-rule="nonzero"/><path fill="#ff914d" d="M 338.84375 36.429688 C 338.589844 36.429688 338.328125 36.371094 338.085938 36.238281 C 332.097656 32.980469 325.296875 31.257812 318.40625 31.257812 C 311.933594 31.257812 305.746094 32.707031 300.015625 35.566406 C 299.226562 35.957031 298.273438 35.636719 297.882812 34.851562 C 297.492188 34.0625 297.808594 33.105469 298.597656 32.714844 C 304.769531 29.636719 311.4375 28.074219 318.40625 28.074219 C 325.824219 28.074219 333.15625 29.929688 339.609375 33.441406 C 340.378906 33.863281 340.660156 34.828125 340.242188 35.597656 C 339.949219 36.132812 339.410156 36.429688 338.84375 36.429688 " fill-opacity="1" fill-rule="nonzero"/><path fill="#ff914d" d="M 349.617188 103.78125 C 349.226562 103.78125 348.835938 103.632812 348.523438 103.339844 C 347.890625 102.734375 347.859375 101.730469 348.460938 101.09375 C 354.339844 94.882812 358.101562 87.171875 359.347656 78.773438 C 359.480469 77.910156 360.289062 77.3125 361.152344 77.4375 C 362.023438 77.5625 362.625 78.375 362.496094 79.246094 C 361.152344 88.285156 357.097656 96.597656 350.777344 103.28125 C 350.464844 103.613281 350.042969 103.78125 349.617188 103.78125 " fill-opacity="1" fill-rule="nonzero"/><path fill="#ff914d" d="M 304.082031 114.761719 C 303.90625 114.761719 303.726562 114.730469 303.550781 114.667969 C 293.972656 111.292969 285.765625 104.644531 280.441406 95.964844 C 279.980469 95.21875 280.21875 94.238281 280.964844 93.777344 C 281.714844 93.316406 282.691406 93.550781 283.152344 94.296875 C 288.09375 102.363281 295.71875 108.53125 304.609375 111.664062 C 305.4375 111.957031 305.878906 112.871094 305.585938 113.699219 C 305.347656 114.351562 304.734375 114.761719 304.082031 114.761719 " fill-opacity="1" fill-rule="nonzero"/><path fill="#ff914d" d="M 281.796875 106.070312 C 280.921875 106.070312 280.207031 105.355469 280.207031 104.476562 L 280.207031 94.925781 C 280.207031 94.460938 280.410156 94.011719 280.769531 93.707031 C 281.125 93.410156 281.597656 93.277344 282.058594 93.359375 L 291.609375 94.953125 C 292.480469 95.09375 293.0625 95.914062 292.921875 96.78125 C 292.769531 97.648438 291.949219 98.226562 291.085938 98.085938 L 283.390625 96.804688 L 283.390625 104.476562 C 283.390625 105.355469 282.679688 106.070312 281.796875 106.070312 " fill-opacity="1" fill-rule="nonzero"/><path fill="#ff914d" d="M 349.40625 103.832031 C 349.085938 103.832031 348.765625 103.730469 348.5 103.542969 C 348.113281 103.28125 347.867188 102.855469 347.820312 102.394531 L 346.890625 92.757812 C 346.800781 91.878906 347.441406 91.101562 348.320312 91.015625 C 349.203125 90.929688 349.972656 91.574219 350.054688 92.445312 L 350.804688 100.21875 L 358.21875 98.226562 C 359.070312 98.003906 359.941406 98.507812 360.171875 99.355469 C 360.394531 100.207031 359.890625 101.074219 359.042969 101.304688 L 349.816406 103.773438 C 349.679688 103.8125 349.542969 103.832031 349.40625 103.832031 " fill-opacity="1" fill-rule="nonzero"/><g clip-path="url(#573380811b)"><path fill="#ff914d" d="M 329.902344 40.03125 C 329.257812 40.03125 328.652344 39.632812 328.410156 38.992188 C 328.105469 38.171875 328.523438 37.253906 329.34375 36.949219 L 336.675781 34.199219 L 332.9375 27.546875 C 332.5 26.78125 332.777344 25.8125 333.546875 25.382812 C 334.3125 24.953125 335.28125 25.222656 335.710938 25.992188 L 340.355469 34.261719 C 340.585938 34.664062 340.621094 35.152344 340.464844 35.585938 C 340.304688 36.019531 339.964844 36.371094 339.527344 36.53125 L 330.460938 39.925781 C 330.277344 39.992188 330.089844 40.03125 329.902344 40.03125 " fill-opacity="1" fill-rule="nonzero"/></g></svg>