<svg xmlns="http://www.w3.org/2000/svg" xmlns:xlink="http://www.w3.org/1999/xlink" width="500" zoomAndPan="magnify" viewBox="0 0 375 374.999991" height="500" preserveAspectRatio="xMidYMid meet" version="1.0"><defs><clipPath id="a510a5a0d4"><path d="M 220 323 L 275 323 L 275 348.386719 L 220 348.386719 Z M 220 323 " clip-rule="nonzero"/></clipPath><clipPath id="e75ef437b5"><path d="M 216 32 L 348.9375 32 L 348.9375 211 L 216 211 Z M 216 32 " clip-rule="nonzero"/></clipPath><clipPath id="1f41a91f88"><path d="M 26.4375 116 L 48 116 L 48 209 L 26.4375 209 Z M 26.4375 116 " clip-rule="nonzero"/></clipPath><clipPath id="6e8602bd35"><path d="M 100 26.636719 L 122 26.636719 L 122 62 L 100 62 Z M 100 26.636719 " clip-rule="nonzero"/></clipPath><clipPath id="84f6e68475"><path d="M 147 26.636719 L 169 26.636719 L 169 62 L 147 62 Z M 147 26.636719 " clip-rule="nonzero"/></clipPath></defs><g clip-path="url(#a510a5a0d4)"><path fill="#004aad" d="M 222.570312 348.292969 C 221.800781 348.292969 221.109375 347.761719 220.9375 346.984375 C 220.734375 346.082031 221.304688 345.1875 222.207031 344.988281 C 228.09375 343.675781 233.96875 342.003906 239.660156 340.023438 C 240.535156 339.71875 241.488281 340.179688 241.792969 341.050781 C 242.097656 341.925781 241.636719 342.878906 240.761719 343.183594 C 234.949219 345.207031 228.949219 346.914062 222.933594 348.253906 C 222.8125 348.28125 222.6875 348.292969 222.570312 348.292969 Z M 257.15625 336.253906 C 256.535156 336.253906 255.9375 335.90625 255.648438 335.308594 C 255.246094 334.480469 255.59375 333.480469 256.425781 333.074219 C 261.847656 330.453125 267.183594 327.480469 272.277344 324.246094 C 273.058594 323.75 274.09375 323.980469 274.589844 324.757812 C 275.085938 325.539062 274.855469 326.570312 274.074219 327.066406 C 268.871094 330.371094 263.425781 333.40625 257.886719 336.085938 C 257.648438 336.199219 257.402344 336.253906 257.15625 336.253906 Z M 257.15625 336.253906 " fill-opacity="1" fill-rule="nonzero"/></g><g clip-path="url(#e75ef437b5)"><path fill="#004aad" d="M 346.234375 210.835938 C 346.171875 210.835938 346.109375 210.832031 346.042969 210.828125 C 345.125 210.722656 344.464844 209.894531 344.570312 208.976562 C 345.238281 203.0625 345.578125 197.027344 345.578125 191.035156 L 345.578125 190.867188 C 345.578125 189.941406 346.328125 189.195312 347.253906 189.195312 C 348.179688 189.195312 348.925781 189.941406 348.925781 190.867188 L 348.925781 191.035156 C 348.925781 197.152344 348.582031 203.316406 347.894531 209.351562 C 347.800781 210.207031 347.074219 210.835938 346.234375 210.835938 Z M 346.195312 174.25 C 345.355469 174.25 344.628906 173.621094 344.53125 172.769531 C 343.839844 166.773438 342.792969 160.765625 341.417969 154.910156 C 341.207031 154.011719 341.765625 153.109375 342.667969 152.898438 C 343.566406 152.6875 344.46875 153.246094 344.679688 154.148438 C 346.082031 160.128906 347.152344 166.265625 347.859375 172.386719 C 347.964844 173.304688 347.304688 174.132812 346.386719 174.238281 C 346.320312 174.246094 346.257812 174.25 346.195312 174.25 Z M 337.839844 138.636719 C 337.152344 138.636719 336.507812 138.210938 336.261719 137.527344 C 334.21875 131.871094 331.824219 126.265625 329.136719 120.871094 C 328.726562 120.046875 329.0625 119.042969 329.890625 118.628906 C 330.71875 118.21875 331.722656 118.554688 332.132812 119.382812 C 334.878906 124.890625 337.328125 130.613281 339.414062 136.394531 C 339.726562 137.265625 339.277344 138.222656 338.40625 138.535156 C 338.21875 138.601562 338.027344 138.636719 337.839844 138.636719 Z M 321.539062 105.898438 C 320.992188 105.898438 320.457031 105.632812 320.136719 105.140625 C 316.847656 100.09375 313.230469 95.179688 309.386719 90.535156 C 308.796875 89.824219 308.894531 88.769531 309.609375 88.183594 C 310.320312 87.59375 311.375 87.691406 311.964844 88.40625 C 315.894531 93.144531 319.585938 98.164062 322.941406 103.316406 C 323.445312 104.089844 323.226562 105.125 322.453125 105.628906 C 322.167969 105.8125 321.851562 105.898438 321.539062 105.898438 Z M 298.195312 77.71875 C 297.777344 77.71875 297.359375 77.5625 297.035156 77.253906 C 292.683594 73.078125 288.042969 69.109375 283.246094 65.460938 C 282.507812 64.902344 282.367188 63.851562 282.925781 63.117188 C 283.488281 62.382812 284.539062 62.242188 285.273438 62.800781 C 290.171875 66.527344 294.910156 70.578125 299.355469 74.839844 C 300.019531 75.480469 300.042969 76.539062 299.402344 77.207031 C 299.074219 77.546875 298.632812 77.71875 298.195312 77.71875 Z M 269.046875 55.554688 C 268.757812 55.554688 268.460938 55.480469 268.195312 55.320312 C 263.003906 52.242188 257.578125 49.433594 252.078125 46.972656 C 251.234375 46.597656 250.855469 45.609375 251.230469 44.765625 C 251.609375 43.921875 252.597656 43.542969 253.445312 43.921875 C 259.0625 46.433594 264.601562 49.300781 269.90625 52.445312 C 270.699219 52.917969 270.960938 53.945312 270.488281 54.738281 C 270.175781 55.265625 269.621094 55.554688 269.046875 55.554688 Z M 235.605469 40.617188 C 235.4375 40.617188 235.269531 40.59375 235.101562 40.539062 C 229.347656 38.734375 223.421875 37.242188 217.488281 36.109375 C 216.582031 35.9375 215.988281 35.0625 216.160156 34.152344 C 216.332031 33.246094 217.210938 32.652344 218.117188 32.824219 C 224.175781 33.980469 230.226562 35.503906 236.105469 37.347656 C 236.988281 37.625 237.476562 38.566406 237.199219 39.445312 C 236.976562 40.160156 236.316406 40.617188 235.605469 40.617188 Z M 235.605469 40.617188 " fill-opacity="1" fill-rule="nonzero"/></g><g clip-path="url(#1f41a91f88)"><path fill="#004aad" d="M 28.882812 208.542969 C 28.03125 208.542969 27.304688 207.898438 27.21875 207.035156 C 26.695312 201.753906 26.433594 196.371094 26.433594 191.035156 C 26.433594 190.207031 26.4375 189.363281 26.453125 188.53125 C 26.464844 187.617188 27.210938 186.882812 28.125 186.882812 C 28.132812 186.882812 28.140625 186.882812 28.152344 186.882812 C 29.074219 186.898438 29.8125 187.660156 29.800781 188.582031 C 29.785156 189.398438 29.78125 190.222656 29.78125 191.035156 C 29.78125 196.261719 30.039062 201.535156 30.550781 206.707031 C 30.640625 207.625 29.96875 208.445312 29.046875 208.535156 C 28.992188 208.542969 28.9375 208.542969 28.882812 208.542969 Z M 29.449219 171.949219 C 29.378906 171.949219 29.304688 171.945312 29.230469 171.933594 C 28.316406 171.816406 27.667969 170.976562 27.789062 170.058594 C 28.582031 163.949219 29.742188 157.828125 31.234375 151.863281 C 31.457031 150.96875 32.367188 150.421875 33.265625 150.644531 C 34.160156 150.871094 34.707031 151.777344 34.484375 152.671875 C 33.023438 158.511719 31.886719 164.507812 31.109375 170.492188 C 30.996094 171.335938 30.277344 171.949219 29.449219 171.949219 Z M 38.328125 136.449219 C 38.132812 136.449219 37.933594 136.414062 37.738281 136.339844 C 36.875 136.015625 36.4375 135.050781 36.761719 134.183594 C 38.9375 128.429688 41.472656 122.738281 44.300781 117.265625 C 44.722656 116.445312 45.734375 116.121094 46.554688 116.546875 C 47.378906 116.96875 47.699219 117.980469 47.273438 118.800781 C 44.507812 124.15625 42.023438 129.730469 39.894531 135.367188 C 39.644531 136.035156 39.007812 136.449219 38.328125 136.449219 Z M 38.328125 136.449219 " fill-opacity="1" fill-rule="nonzero"/></g><path fill="#c2ffea" d="M 304.839844 191.035156 C 304.839844 192.953125 304.792969 194.867188 304.699219 196.777344 C 304.605469 198.691406 304.464844 200.601562 304.277344 202.507812 C 304.089844 204.414062 303.855469 206.316406 303.574219 208.210938 C 303.292969 210.105469 302.964844 211.992188 302.589844 213.871094 C 302.214844 215.746094 301.796875 217.617188 301.332031 219.472656 C 300.863281 221.332031 300.351562 223.179688 299.796875 225.011719 C 299.238281 226.84375 298.636719 228.660156 297.992188 230.464844 C 297.347656 232.269531 296.65625 234.054688 295.921875 235.824219 C 295.1875 237.59375 294.414062 239.34375 293.59375 241.078125 C 292.773438 242.808594 291.910156 244.519531 291.007812 246.207031 C 290.101562 247.898438 289.160156 249.5625 288.171875 251.207031 C 287.1875 252.847656 286.160156 254.464844 285.097656 256.058594 C 284.03125 257.652344 282.925781 259.21875 281.785156 260.753906 C 280.644531 262.292969 279.464844 263.804688 278.246094 265.285156 C 277.03125 266.765625 275.777344 268.214844 274.492188 269.632812 C 273.203125 271.054688 271.882812 272.441406 270.527344 273.792969 C 269.167969 275.148438 267.78125 276.46875 266.359375 277.753906 C 264.941406 279.042969 263.488281 280.292969 262.007812 281.507812 C 260.523438 282.722656 259.011719 283.902344 257.472656 285.042969 C 255.933594 286.183594 254.367188 287.285156 252.769531 288.351562 C 251.175781 289.414062 249.558594 290.4375 247.914062 291.421875 C 246.269531 292.40625 244.601562 293.351562 242.910156 294.253906 C 241.21875 295.15625 239.507812 296.019531 237.773438 296.835938 C 236.039062 297.65625 234.289062 298.433594 232.515625 299.164062 C 230.746094 299.898438 228.957031 300.585938 227.152344 301.234375 C 225.34375 301.878906 223.523438 302.480469 221.691406 303.035156 C 219.855469 303.589844 218.007812 304.101562 216.148438 304.566406 C 214.289062 305.03125 212.417969 305.453125 210.535156 305.824219 C 208.65625 306.199219 206.769531 306.527344 204.871094 306.808594 C 202.972656 307.089844 201.070312 307.324219 199.164062 307.511719 C 197.253906 307.699219 195.34375 307.839844 193.429688 307.933594 C 191.515625 308.027344 189.597656 308.074219 187.679688 308.074219 C 185.761719 308.074219 183.847656 308.027344 181.929688 307.933594 C 180.015625 307.839844 178.105469 307.699219 176.195312 307.511719 C 174.289062 307.324219 172.386719 307.089844 170.488281 306.808594 C 168.59375 306.527344 166.703125 306.199219 164.824219 305.824219 C 162.941406 305.453125 161.070312 305.03125 159.210938 304.566406 C 157.351562 304.101562 155.503906 303.589844 153.667969 303.035156 C 151.835938 302.480469 150.015625 301.878906 148.210938 301.234375 C 146.402344 300.585938 144.617188 299.898438 142.84375 299.164062 C 141.074219 298.433594 139.320312 297.65625 137.585938 296.835938 C 135.855469 296.019531 134.140625 295.15625 132.449219 294.253906 C 130.757812 293.351562 129.089844 292.40625 127.445312 291.421875 C 125.800781 290.4375 124.183594 289.414062 122.589844 288.351562 C 120.996094 287.285156 119.425781 286.183594 117.886719 285.042969 C 116.347656 283.902344 114.835938 282.722656 113.355469 281.507812 C 111.871094 280.292969 110.421875 279.042969 109 277.753906 C 107.578125 276.46875 106.191406 275.148438 104.835938 273.792969 C 103.480469 272.441406 102.15625 271.054688 100.871094 269.632812 C 99.582031 268.214844 98.328125 266.765625 97.113281 265.285156 C 95.898438 263.804688 94.71875 262.292969 93.574219 260.753906 C 92.433594 259.21875 91.328125 257.652344 90.265625 256.058594 C 89.199219 254.464844 88.171875 252.847656 87.1875 251.207031 C 86.203125 249.5625 85.257812 247.898438 84.351562 246.207031 C 83.449219 244.519531 82.585938 242.808594 81.765625 241.078125 C 80.949219 239.34375 80.171875 237.59375 79.4375 235.824219 C 78.703125 234.054688 78.011719 232.269531 77.367188 230.464844 C 76.722656 228.660156 76.121094 226.84375 75.5625 225.011719 C 75.007812 223.179688 74.496094 221.332031 74.03125 219.472656 C 73.5625 217.617188 73.144531 215.746094 72.769531 213.871094 C 72.394531 211.992188 72.066406 210.105469 71.785156 208.210938 C 71.503906 206.316406 71.269531 204.414062 71.082031 202.507812 C 70.894531 200.601562 70.753906 198.691406 70.660156 196.777344 C 70.566406 194.867188 70.519531 192.953125 70.519531 191.035156 C 70.519531 189.121094 70.566406 187.207031 70.660156 185.292969 C 70.753906 183.378906 70.894531 181.472656 71.082031 179.566406 C 71.269531 177.660156 71.503906 175.757812 71.785156 173.863281 C 72.066406 171.96875 72.394531 170.082031 72.769531 168.203125 C 73.144531 166.324219 73.5625 164.457031 74.03125 162.597656 C 74.496094 160.742188 75.007812 158.894531 75.5625 157.0625 C 76.121094 155.230469 76.722656 153.410156 77.367188 151.609375 C 78.011719 149.804688 78.703125 148.019531 79.4375 146.246094 C 80.171875 144.476562 80.949219 142.726562 81.765625 140.996094 C 82.585938 139.265625 83.449219 137.554688 84.351562 135.863281 C 85.257812 134.175781 86.203125 132.511719 87.1875 130.867188 C 88.171875 129.222656 89.199219 127.605469 90.265625 126.015625 C 91.328125 124.421875 92.433594 122.855469 93.574219 121.316406 C 94.71875 119.777344 95.898438 118.269531 97.113281 116.789062 C 98.328125 115.308594 99.582031 113.859375 100.871094 112.4375 C 102.15625 111.019531 103.480469 109.632812 104.835938 108.277344 C 106.191406 106.921875 107.578125 105.601562 109 104.316406 C 110.421875 103.03125 111.871094 101.78125 113.355469 100.566406 C 114.835938 99.351562 116.347656 98.171875 117.886719 97.03125 C 119.425781 95.890625 120.996094 94.789062 122.589844 93.722656 C 124.183594 92.660156 125.800781 91.632812 127.445312 90.648438 C 129.089844 89.664062 130.757812 88.722656 132.449219 87.816406 C 134.140625 86.914062 135.855469 86.054688 137.585938 85.234375 C 139.320312 84.417969 141.074219 83.640625 142.84375 82.90625 C 144.617188 82.175781 146.402344 81.484375 148.210938 80.839844 C 150.015625 80.195312 151.835938 79.59375 153.667969 79.039062 C 155.503906 78.480469 157.351562 77.972656 159.210938 77.507812 C 161.070312 77.039062 162.941406 76.621094 164.824219 76.246094 C 166.703125 75.875 168.59375 75.546875 170.488281 75.265625 C 172.386719 74.984375 174.289062 74.75 176.195312 74.5625 C 178.105469 74.375 180.015625 74.234375 181.929688 74.140625 C 183.847656 74.046875 185.761719 74 187.679688 74 C 189.597656 74 191.515625 74.046875 193.429688 74.140625 C 195.34375 74.234375 197.253906 74.375 199.164062 74.5625 C 201.070312 74.75 202.972656 74.984375 204.871094 75.265625 C 206.769531 75.546875 208.65625 75.875 210.535156 76.246094 C 212.417969 76.621094 214.289062 77.039062 216.148438 77.507812 C 218.007812 77.972656 219.855469 78.480469 221.691406 79.039062 C 223.523438 79.59375 225.34375 80.195312 227.152344 80.839844 C 228.957031 81.484375 230.746094 82.175781 232.515625 82.90625 C 234.289062 83.640625 236.039062 84.417969 237.773438 85.234375 C 239.507812 86.054688 241.21875 86.914062 242.910156 87.816406 C 244.601562 88.722656 246.269531 89.664062 247.914062 90.648438 C 249.558594 91.632812 251.175781 92.660156 252.769531 93.722656 C 254.367188 94.789062 255.933594 95.890625 257.472656 97.03125 C 259.011719 98.171875 260.523438 99.351562 262.007812 100.566406 C 263.488281 101.78125 264.941406 103.03125 266.359375 104.316406 C 267.78125 105.601562 269.167969 106.921875 270.527344 108.277344 C 271.882812 109.632812 273.203125 111.019531 274.492188 112.4375 C 275.777344 113.859375 277.03125 115.308594 278.246094 116.789062 C 279.464844 118.269531 280.644531 119.777344 281.785156 121.316406 C 282.925781 122.855469 284.03125 124.421875 285.097656 126.015625 C 286.160156 127.605469 287.1875 129.222656 288.171875 130.867188 C 289.160156 132.511719 290.101562 134.175781 291.007812 135.863281 C 291.910156 137.554688 292.773438 139.265625 293.59375 140.996094 C 294.414062 142.726562 295.1875 144.476562 295.921875 146.246094 C 296.65625 148.019531 297.347656 149.804688 297.992188 151.609375 C 298.636719 153.410156 299.238281 155.230469 299.796875 157.0625 C 300.351562 158.894531 300.863281 160.742188 301.332031 162.597656 C 301.796875 164.457031 302.214844 166.324219 302.589844 168.203125 C 302.964844 170.082031 303.292969 171.96875 303.574219 173.863281 C 303.855469 175.757812 304.089844 177.660156 304.277344 179.566406 C 304.464844 181.472656 304.605469 183.378906 304.699219 185.292969 C 304.792969 187.207031 304.839844 189.121094 304.839844 191.035156 Z M 304.839844 191.035156 " fill-opacity="1" fill-rule="nonzero"/><path fill="#ffffff" d="M 185.847656 168.394531 L 83.175781 168.394531 C 77.234375 168.394531 72.417969 163.582031 72.417969 157.648438 L 72.417969 73.929688 L 196.605469 73.929688 L 196.605469 157.648438 C 196.601562 163.582031 191.789062 168.394531 185.847656 168.394531 Z M 185.847656 168.394531 " fill-opacity="1" fill-rule="nonzero"/><path fill="#004aad" d="M 185.847656 170.066406 L 83.175781 170.066406 C 76.320312 170.066406 70.742188 164.496094 70.742188 157.648438 L 70.742188 73.929688 C 70.742188 73.007812 71.492188 72.257812 72.417969 72.257812 L 196.601562 72.257812 C 197.527344 72.257812 198.277344 73.007812 198.277344 73.929688 L 198.277344 157.648438 C 198.277344 164.496094 192.699219 170.066406 185.847656 170.066406 Z M 74.09375 75.601562 L 74.09375 157.648438 C 74.09375 162.652344 78.167969 166.722656 83.175781 166.722656 L 185.847656 166.722656 C 190.855469 166.722656 194.929688 162.652344 194.929688 157.648438 L 194.929688 75.601562 Z M 74.09375 75.601562 " fill-opacity="1" fill-rule="nonzero"/><path fill="#ffee8e" d="M 196.601562 73.929688 L 72.417969 73.929688 L 72.417969 56.859375 C 72.417969 50.574219 77.519531 45.476562 83.8125 45.476562 L 185.210938 45.476562 C 191.503906 45.476562 196.601562 50.574219 196.601562 56.859375 Z M 196.601562 73.929688 " fill-opacity="1" fill-rule="nonzero"/><path fill="#004aad" d="M 196.601562 75.601562 L 72.417969 75.601562 C 71.492188 75.601562 70.742188 74.855469 70.742188 73.929688 L 70.742188 56.859375 C 70.742188 49.660156 76.605469 43.804688 83.8125 43.804688 L 185.210938 43.804688 C 192.414062 43.804688 198.277344 49.660156 198.277344 56.859375 L 198.277344 73.929688 C 198.277344 74.855469 197.527344 75.601562 196.601562 75.601562 Z M 74.09375 72.257812 L 194.929688 72.257812 L 194.929688 56.859375 C 194.929688 51.503906 190.570312 47.148438 185.210938 47.148438 L 83.8125 47.148438 C 78.453125 47.148438 74.09375 51.503906 74.09375 56.859375 Z M 74.09375 72.257812 " fill-opacity="1" fill-rule="nonzero"/><g clip-path="url(#6e8602bd35)"><path fill="#004aad" d="M 113.433594 61.945312 L 110.015625 61.945312 C 104.695312 61.945312 100.367188 57.621094 100.367188 52.304688 L 100.367188 36.371094 C 100.367188 31.058594 104.695312 26.734375 110.015625 26.734375 L 112.292969 26.734375 C 117.613281 26.734375 121.941406 31.058594 121.941406 36.371094 L 121.941406 45.476562 C 121.941406 46.402344 121.195312 47.148438 120.269531 47.148438 C 119.34375 47.148438 118.59375 46.402344 118.59375 45.476562 L 118.59375 36.371094 C 118.59375 32.902344 115.769531 30.078125 112.292969 30.078125 L 110.015625 30.078125 C 106.539062 30.078125 103.714844 32.902344 103.714844 36.371094 L 103.714844 52.304688 C 103.714844 55.777344 106.539062 58.601562 110.015625 58.601562 L 113.433594 58.601562 C 114.359375 58.601562 115.105469 59.347656 115.105469 60.273438 C 115.105469 61.195312 114.359375 61.945312 113.433594 61.945312 Z M 113.433594 61.945312 " fill-opacity="1" fill-rule="nonzero"/></g><path fill="#004aad" d="M 113.433594 66.496094 C 112.507812 66.496094 111.757812 65.75 111.757812 64.824219 L 111.757812 54.582031 C 111.757812 53.660156 112.507812 52.910156 113.433594 52.910156 C 114.359375 52.910156 115.105469 53.660156 115.105469 54.582031 L 115.105469 64.824219 C 115.105469 65.75 114.359375 66.496094 113.433594 66.496094 Z M 113.433594 66.496094 " fill-opacity="1" fill-rule="nonzero"/><g clip-path="url(#84f6e68475)"><path fill="#004aad" d="M 160.144531 61.945312 L 156.726562 61.945312 C 151.40625 61.945312 147.078125 57.621094 147.078125 52.304688 L 147.078125 36.371094 C 147.078125 31.058594 151.40625 26.734375 156.726562 26.734375 L 159.007812 26.734375 C 164.328125 26.734375 168.65625 31.058594 168.65625 36.371094 L 168.65625 45.476562 C 168.65625 46.402344 167.90625 47.148438 166.980469 47.148438 C 166.054688 47.148438 165.308594 46.402344 165.308594 45.476562 L 165.308594 36.371094 C 165.308594 32.902344 162.480469 30.078125 159.007812 30.078125 L 156.726562 30.078125 C 153.253906 30.078125 150.425781 32.902344 150.425781 36.371094 L 150.425781 52.304688 C 150.425781 55.777344 153.253906 58.601562 156.726562 58.601562 L 160.144531 58.601562 C 161.070312 58.601562 161.820312 59.347656 161.820312 60.273438 C 161.820312 61.195312 161.070312 61.945312 160.144531 61.945312 Z M 160.144531 61.945312 " fill-opacity="1" fill-rule="nonzero"/></g><path fill="#004aad" d="M 160.144531 66.496094 C 159.21875 66.496094 158.472656 65.75 158.472656 64.824219 L 158.472656 54.582031 C 158.472656 53.660156 159.21875 52.910156 160.144531 52.910156 C 161.070312 52.910156 161.820312 53.660156 161.820312 54.582031 L 161.820312 64.824219 C 161.820312 65.75 161.070312 66.496094 160.144531 66.496094 Z M 160.144531 66.496094 " fill-opacity="1" fill-rule="nonzero"/><path fill="#ffffff" d="M 106.5625 112.632812 L 89.472656 112.632812 C 87.582031 112.632812 86.054688 111.105469 86.054688 109.21875 L 86.054688 92.148438 C 86.054688 90.261719 87.582031 88.734375 89.472656 88.734375 L 106.5625 88.734375 C 108.449219 88.734375 109.980469 90.261719 109.980469 92.148438 L 109.980469 109.21875 C 109.980469 111.105469 108.449219 112.632812 106.5625 112.632812 Z M 106.5625 112.632812 " fill-opacity="1" fill-rule="nonzero"/><path fill="#004aad" d="M 106.5625 114.304688 L 89.472656 114.304688 C 86.664062 114.304688 84.378906 112.023438 84.378906 109.21875 L 84.378906 92.148438 C 84.378906 89.34375 86.664062 87.0625 89.472656 87.0625 L 106.5625 87.0625 C 109.367188 87.0625 111.652344 89.34375 111.652344 92.148438 L 111.652344 109.21875 C 111.652344 112.023438 109.367188 114.304688 106.5625 114.304688 Z M 89.472656 90.40625 C 88.507812 90.40625 87.726562 91.1875 87.726562 92.148438 L 87.726562 109.21875 C 87.726562 110.179688 88.507812 110.960938 89.472656 110.960938 L 106.5625 110.960938 C 107.523438 110.960938 108.304688 110.179688 108.304688 109.21875 L 108.304688 92.148438 C 108.304688 91.1875 107.523438 90.40625 106.5625 90.40625 Z M 89.472656 90.40625 " fill-opacity="1" fill-rule="nonzero"/><path fill="#ffee8e" d="M 107.699219 152.46875 L 90.609375 152.46875 C 88.722656 152.46875 87.191406 150.941406 87.191406 149.054688 L 87.191406 131.980469 C 87.191406 130.097656 88.722656 128.566406 90.609375 128.566406 L 107.699219 128.566406 C 109.585938 128.566406 111.117188 130.097656 111.117188 131.980469 L 111.117188 149.054688 C 111.117188 150.941406 109.585938 152.46875 107.699219 152.46875 Z M 107.699219 152.46875 " fill-opacity="1" fill-rule="nonzero"/><path fill="#004aad" d="M 107.699219 154.140625 L 90.609375 154.140625 C 87.800781 154.140625 85.519531 151.859375 85.519531 149.054688 L 85.519531 131.980469 C 85.519531 129.175781 87.800781 126.894531 90.609375 126.894531 L 107.699219 126.894531 C 110.507812 126.894531 112.792969 129.175781 112.792969 131.980469 L 112.792969 149.054688 C 112.792969 151.859375 110.507812 154.140625 107.699219 154.140625 Z M 90.609375 130.238281 C 89.648438 130.238281 88.867188 131.023438 88.867188 131.980469 L 88.867188 149.054688 C 88.867188 150.015625 89.648438 150.796875 90.609375 150.796875 L 107.699219 150.796875 C 108.660156 150.796875 109.445312 150.015625 109.445312 149.054688 L 109.445312 131.980469 C 109.445312 131.023438 108.660156 130.238281 107.699219 130.238281 Z M 90.609375 130.238281 " fill-opacity="1" fill-rule="nonzero"/><path fill="#ffffff" d="M 143.019531 152.46875 L 125.929688 152.46875 C 124.042969 152.46875 122.511719 150.941406 122.511719 149.054688 L 122.511719 131.980469 C 122.511719 130.097656 124.042969 128.566406 125.929688 128.566406 L 143.019531 128.566406 C 144.90625 128.566406 146.4375 130.097656 146.4375 131.980469 L 146.4375 149.054688 C 146.4375 150.941406 144.90625 152.46875 143.019531 152.46875 Z M 143.019531 152.46875 " fill-opacity="1" fill-rule="nonzero"/><path fill="#004aad" d="M 143.019531 154.140625 L 125.929688 154.140625 C 123.121094 154.140625 120.835938 151.859375 120.835938 149.054688 L 120.835938 131.980469 C 120.835938 129.175781 123.121094 126.894531 125.929688 126.894531 L 143.019531 126.894531 C 145.828125 126.894531 148.109375 129.175781 148.109375 131.980469 L 148.109375 149.054688 C 148.109375 151.859375 145.828125 154.140625 143.019531 154.140625 Z M 125.929688 130.238281 C 124.96875 130.238281 124.183594 131.023438 124.183594 131.980469 L 124.183594 149.054688 C 124.183594 150.015625 124.96875 150.796875 125.929688 150.796875 L 143.019531 150.796875 C 143.980469 150.796875 144.761719 150.015625 144.761719 149.054688 L 144.761719 131.980469 C 144.761719 131.023438 143.980469 130.238281 143.019531 130.238281 Z M 125.929688 130.238281 " fill-opacity="1" fill-rule="nonzero"/><path fill="#38b6ff" d="M 143.019531 112.632812 L 125.929688 112.632812 C 124.042969 112.632812 122.511719 111.105469 122.511719 109.21875 L 122.511719 92.148438 C 122.511719 90.261719 124.042969 88.734375 125.929688 88.734375 L 143.019531 88.734375 C 144.90625 88.734375 146.4375 90.261719 146.4375 92.148438 L 146.4375 109.21875 C 146.4375 111.105469 144.90625 112.632812 143.019531 112.632812 Z M 143.019531 112.632812 " fill-opacity="1" fill-rule="nonzero"/><path fill="#004aad" d="M 143.019531 114.304688 L 125.929688 114.304688 C 123.121094 114.304688 120.835938 112.023438 120.835938 109.21875 L 120.835938 92.148438 C 120.835938 89.34375 123.121094 87.0625 125.929688 87.0625 L 143.019531 87.0625 C 145.828125 87.0625 148.109375 89.34375 148.109375 92.148438 L 148.109375 109.21875 C 148.109375 112.023438 145.828125 114.304688 143.019531 114.304688 Z M 125.929688 90.40625 C 124.96875 90.40625 124.183594 91.1875 124.183594 92.148438 L 124.183594 109.21875 C 124.183594 110.179688 124.96875 110.960938 125.929688 110.960938 L 143.019531 110.960938 C 143.980469 110.960938 144.761719 110.179688 144.761719 109.21875 L 144.761719 92.148438 C 144.761719 91.1875 143.980469 90.40625 143.019531 90.40625 Z M 125.929688 90.40625 " fill-opacity="1" fill-rule="nonzero"/><path fill="#ffffff" d="M 179.53125 152.46875 L 162.441406 152.46875 C 160.550781 152.46875 159.023438 150.941406 159.023438 149.054688 L 159.023438 131.980469 C 159.023438 130.097656 160.550781 128.566406 162.441406 128.566406 L 179.53125 128.566406 C 181.417969 128.566406 182.949219 130.097656 182.949219 131.980469 L 182.949219 149.054688 C 182.949219 150.941406 181.417969 152.46875 179.53125 152.46875 Z M 179.53125 152.46875 " fill-opacity="1" fill-rule="nonzero"/><path fill="#004aad" d="M 179.53125 154.140625 L 162.441406 154.140625 C 159.632812 154.140625 157.347656 151.859375 157.347656 149.054688 L 157.347656 131.980469 C 157.347656 129.175781 159.632812 126.894531 162.441406 126.894531 L 179.53125 126.894531 C 182.335938 126.894531 184.621094 129.175781 184.621094 131.980469 L 184.621094 149.054688 C 184.621094 151.859375 182.335938 154.140625 179.53125 154.140625 Z M 162.441406 130.238281 C 161.476562 130.238281 160.695312 131.023438 160.695312 131.980469 L 160.695312 149.054688 C 160.695312 150.015625 161.480469 150.796875 162.441406 150.796875 L 179.53125 150.796875 C 180.492188 150.796875 181.273438 150.015625 181.273438 149.054688 L 181.273438 131.980469 C 181.273438 131.023438 180.492188 130.238281 179.53125 130.238281 Z M 162.441406 130.238281 " fill-opacity="1" fill-rule="nonzero"/><path fill="#ffffff" d="M 179.53125 112.632812 L 162.441406 112.632812 C 160.550781 112.632812 159.023438 111.105469 159.023438 109.21875 L 159.023438 92.148438 C 159.023438 90.261719 160.550781 88.734375 162.441406 88.734375 L 179.53125 88.734375 C 181.417969 88.734375 182.949219 90.261719 182.949219 92.148438 L 182.949219 109.21875 C 182.949219 111.105469 181.417969 112.632812 179.53125 112.632812 Z M 179.53125 112.632812 " fill-opacity="1" fill-rule="nonzero"/><path fill="#004aad" d="M 179.53125 114.304688 L 162.441406 114.304688 C 159.632812 114.304688 157.347656 112.023438 157.347656 109.21875 L 157.347656 92.148438 C 157.347656 89.34375 159.632812 87.0625 162.441406 87.0625 L 179.53125 87.0625 C 182.335938 87.0625 184.621094 89.34375 184.621094 92.148438 L 184.621094 109.21875 C 184.621094 112.023438 182.335938 114.304688 179.53125 114.304688 Z M 162.441406 90.40625 C 161.476562 90.40625 160.695312 91.1875 160.695312 92.148438 L 160.695312 109.21875 C 160.695312 110.179688 161.480469 110.960938 162.441406 110.960938 L 179.53125 110.960938 C 180.492188 110.960938 181.273438 110.179688 181.273438 109.21875 L 181.273438 92.148438 C 181.273438 91.1875 180.492188 90.40625 179.53125 90.40625 Z M 162.441406 90.40625 " fill-opacity="1" fill-rule="nonzero"/><path fill="#38b6ff" d="M 217.804688 145.703125 C 217.804688 146.886719 217.746094 148.066406 217.628906 149.242188 C 217.515625 150.417969 217.339844 151.589844 217.109375 152.75 C 216.878906 153.910156 216.589844 155.054688 216.246094 156.1875 C 215.902344 157.320312 215.503906 158.429688 215.050781 159.523438 C 214.597656 160.617188 214.09375 161.683594 213.535156 162.730469 C 212.976562 163.773438 212.367188 164.785156 211.710938 165.769531 C 211.054688 166.753906 210.347656 167.703125 209.597656 168.617188 C 208.847656 169.53125 208.050781 170.40625 207.214844 171.242188 C 206.375 172.078125 205.5 172.871094 204.585938 173.621094 C 203.667969 174.375 202.71875 175.078125 201.734375 175.734375 C 200.75 176.390625 199.734375 177 198.691406 177.558594 C 197.648438 178.113281 196.578125 178.621094 195.484375 179.074219 C 194.390625 179.523438 193.277344 179.921875 192.144531 180.265625 C 191.007812 180.609375 189.863281 180.898438 188.699219 181.128906 C 187.539062 181.359375 186.371094 181.53125 185.191406 181.648438 C 184.011719 181.765625 182.832031 181.820312 181.648438 181.820312 C 180.460938 181.820312 179.28125 181.765625 178.101562 181.648438 C 176.925781 181.53125 175.753906 181.359375 174.59375 181.128906 C 173.429688 180.898438 172.285156 180.609375 171.152344 180.265625 C 170.015625 179.921875 168.902344 179.523438 167.808594 179.074219 C 166.714844 178.621094 165.644531 178.113281 164.601562 177.558594 C 163.558594 177 162.542969 176.390625 161.558594 175.734375 C 160.574219 175.078125 159.625 174.375 158.707031 173.621094 C 157.792969 172.871094 156.917969 172.078125 156.078125 171.242188 C 155.242188 170.40625 154.449219 169.53125 153.695312 168.617188 C 152.945312 167.703125 152.242188 166.753906 151.582031 165.769531 C 150.925781 164.785156 150.316406 163.773438 149.757812 162.730469 C 149.199219 161.683594 148.695312 160.617188 148.242188 159.523438 C 147.789062 158.429688 147.390625 157.320312 147.046875 156.1875 C 146.703125 155.054688 146.414062 153.910156 146.183594 152.75 C 145.953125 151.589844 145.777344 150.417969 145.664062 149.242188 C 145.546875 148.066406 145.488281 146.886719 145.488281 145.703125 C 145.488281 144.519531 145.546875 143.339844 145.664062 142.160156 C 145.777344 140.984375 145.953125 139.816406 146.183594 138.65625 C 146.414062 137.496094 146.703125 136.347656 147.046875 135.21875 C 147.390625 134.085938 147.789062 132.972656 148.242188 131.878906 C 148.695312 130.785156 149.199219 129.71875 149.757812 128.675781 C 150.316406 127.632812 150.925781 126.617188 151.582031 125.636719 C 152.242188 124.652344 152.945312 123.703125 153.695312 122.789062 C 154.449219 121.875 155.242188 121 156.078125 120.160156 C 156.917969 119.324219 157.792969 118.53125 158.707031 117.78125 C 159.625 117.03125 160.574219 116.328125 161.558594 115.667969 C 162.542969 115.011719 163.558594 114.40625 164.601562 113.847656 C 165.644531 113.289062 166.714844 112.785156 167.808594 112.332031 C 168.902344 111.878906 170.015625 111.480469 171.152344 111.136719 C 172.285156 110.792969 173.429688 110.507812 174.59375 110.277344 C 175.753906 110.046875 176.925781 109.871094 178.101562 109.757812 C 179.28125 109.640625 180.460938 109.582031 181.648438 109.582031 C 182.832031 109.582031 184.011719 109.640625 185.191406 109.757812 C 186.371094 109.871094 187.539062 110.046875 188.699219 110.277344 C 189.863281 110.507812 191.007812 110.792969 192.144531 111.136719 C 193.277344 111.480469 194.390625 111.878906 195.484375 112.332031 C 196.578125 112.785156 197.648438 113.289062 198.691406 113.847656 C 199.734375 114.40625 200.75 115.011719 201.734375 115.667969 C 202.71875 116.328125 203.667969 117.03125 204.585938 117.78125 C 205.5 118.53125 206.375 119.324219 207.214844 120.160156 C 208.050781 121 208.847656 121.875 209.597656 122.789062 C 210.347656 123.703125 211.054688 124.652344 211.710938 125.636719 C 212.367188 126.617188 212.976562 127.632812 213.535156 128.675781 C 214.09375 129.71875 214.597656 130.785156 215.050781 131.878906 C 215.503906 132.972656 215.902344 134.085938 216.246094 135.21875 C 216.589844 136.347656 216.878906 137.496094 217.109375 138.65625 C 217.339844 139.816406 217.515625 140.984375 217.628906 142.160156 C 217.746094 143.339844 217.804688 144.519531 217.804688 145.703125 Z M 217.804688 145.703125 " fill-opacity="1" fill-rule="nonzero"/><path fill="#004aad" d="M 181.648438 183.496094 C 171.542969 183.496094 162.039062 179.5625 154.894531 172.425781 C 147.75 165.289062 143.816406 155.796875 143.816406 145.703125 C 143.816406 135.609375 147.75 126.117188 154.894531 118.980469 C 162.039062 111.839844 171.542969 107.910156 181.648438 107.910156 C 191.75 107.910156 201.253906 111.839844 208.398438 118.980469 C 215.542969 126.117188 219.476562 135.609375 219.476562 145.703125 C 219.476562 155.796875 215.542969 165.289062 208.398438 172.425781 C 201.253906 179.5625 191.75 183.496094 181.648438 183.496094 Z M 181.648438 111.253906 C 162.632812 111.253906 147.164062 126.707031 147.164062 145.703125 C 147.164062 164.695312 162.632812 180.148438 181.648438 180.148438 C 200.660156 180.148438 216.128906 164.695312 216.128906 145.703125 C 216.128906 126.707031 200.660156 111.253906 181.648438 111.253906 Z M 181.648438 111.253906 " fill-opacity="1" fill-rule="nonzero"/><path fill="#ffffff" d="M 181.699219 163.097656 C 179.550781 163.097656 177.488281 162.242188 175.96875 160.726562 L 161.96875 146.742188 C 158.804688 143.578125 158.804688 138.449219 161.96875 135.289062 C 165.136719 132.125 170.269531 132.125 173.4375 135.289062 L 181.699219 143.542969 L 203.964844 121.304688 C 207.128906 118.140625 212.261719 118.140625 215.429688 121.304688 C 218.597656 124.46875 218.597656 129.597656 215.429688 132.757812 L 187.433594 160.726562 C 185.914062 162.242188 183.851562 163.097656 181.699219 163.097656 Z M 181.699219 163.097656 " fill-opacity="1" fill-rule="nonzero"/><path fill="#004aad" d="M 181.699219 164.769531 C 179.085938 164.769531 176.632812 163.753906 174.785156 161.90625 L 160.785156 147.925781 C 158.9375 146.078125 157.921875 143.625 157.921875 141.015625 C 157.921875 138.40625 158.9375 135.949219 160.785156 134.105469 C 164.601562 130.296875 170.808594 130.296875 174.621094 134.105469 L 181.699219 141.179688 L 202.78125 120.121094 C 206.59375 116.3125 212.800781 116.3125 216.613281 120.121094 C 218.460938 121.96875 219.480469 124.421875 219.480469 127.03125 C 219.480469 129.640625 218.460938 132.09375 216.613281 133.941406 L 188.617188 161.90625 C 186.769531 163.753906 184.3125 164.769531 181.699219 164.769531 Z M 167.703125 134.59375 C 166.054688 134.59375 164.410156 135.21875 163.152344 136.472656 C 161.9375 137.683594 161.269531 139.296875 161.269531 141.015625 C 161.269531 142.730469 161.9375 144.34375 163.152344 145.558594 L 177.152344 159.542969 C 178.367188 160.757812 179.980469 161.425781 181.699219 161.425781 C 183.417969 161.425781 185.035156 160.757812 186.25 159.542969 L 214.246094 131.578125 C 215.460938 130.363281 216.128906 128.75 216.128906 127.03125 C 216.128906 125.316406 215.460938 123.703125 214.246094 122.488281 C 211.738281 119.984375 207.65625 119.984375 205.148438 122.488281 L 182.882812 144.726562 C 182.570312 145.039062 182.144531 145.214844 181.699219 145.214844 C 181.257812 145.214844 180.832031 145.039062 180.515625 144.726562 L 172.253906 136.472656 C 171 135.21875 169.351562 134.59375 167.703125 134.59375 Z M 167.703125 134.59375 " fill-opacity="1" fill-rule="nonzero"/><path fill="#38b6ff" d="M 104.035156 189.125 L 121.214844 189.125 L 121.214844 206.871094 L 104.035156 206.871094 Z M 104.035156 189.125 " fill-opacity="1" fill-rule="nonzero"/><path fill="#004aad" d="M 121.214844 208.542969 C 120.289062 208.542969 119.539062 207.796875 119.539062 206.871094 L 119.539062 190.796875 L 105.707031 190.796875 L 105.707031 206.871094 C 105.707031 207.796875 104.957031 208.542969 104.035156 208.542969 C 103.109375 208.542969 102.359375 207.796875 102.359375 206.871094 L 102.359375 189.125 C 102.359375 188.199219 103.109375 187.453125 104.035156 187.453125 L 121.214844 187.453125 C 122.136719 187.453125 122.886719 188.199219 122.886719 189.125 L 122.886719 206.871094 C 122.886719 207.796875 122.136719 208.542969 121.214844 208.542969 Z M 121.214844 208.542969 " fill-opacity="1" fill-rule="nonzero"/><path fill="#ffffff" d="M 56.789062 298.371094 C 67.316406 318.441406 88.371094 332.136719 112.625 332.136719 C 147.414062 332.136719 175.617188 303.964844 175.617188 269.210938 C 175.617188 234.457031 147.414062 206.285156 112.625 206.285156 C 88.144531 206.285156 66.925781 220.234375 56.5 240.609375 Z M 56.789062 298.371094 " fill-opacity="1" fill-rule="nonzero"/><path fill="#004aad" d="M 112.625 333.808594 C 100.597656 333.808594 88.859375 330.488281 78.679688 324.203125 C 68.78125 318.09375 60.699219 309.429688 55.308594 299.148438 C 54.878906 298.328125 55.195312 297.320312 56.015625 296.890625 C 56.832031 296.460938 57.84375 296.777344 58.273438 297.597656 C 68.90625 317.871094 89.734375 330.464844 112.625 330.464844 C 146.433594 330.464844 173.941406 302.984375 173.941406 269.210938 C 173.941406 235.4375 146.433594 207.957031 112.625 207.957031 C 89.472656 207.957031 68.539062 220.761719 57.992188 241.371094 C 57.570312 242.191406 56.5625 242.519531 55.738281 242.097656 C 54.914062 241.675781 54.589844 240.667969 55.011719 239.847656 C 60.351562 229.410156 68.441406 220.609375 78.40625 214.386719 C 88.652344 207.992188 100.484375 204.613281 112.625 204.613281 C 121.351562 204.613281 129.820312 206.320312 137.796875 209.691406 C 145.496094 212.945312 152.410156 217.601562 158.351562 223.535156 C 164.289062 229.464844 168.949219 236.375 172.207031 244.066406 C 175.582031 252.03125 177.289062 260.492188 177.289062 269.210938 C 177.289062 277.929688 175.582031 286.390625 172.207031 294.355469 C 168.949219 302.046875 164.289062 308.957031 158.351562 314.886719 C 152.410156 320.820312 145.496094 325.476562 137.796875 328.730469 C 129.820312 332.101562 121.351562 333.808594 112.625 333.808594 Z M 112.625 333.808594 " fill-opacity="1" fill-rule="nonzero"/><path fill="#004aad" d="M 112.625 220.65625 C 111.699219 220.65625 110.949219 219.910156 110.949219 218.984375 L 110.949219 206.285156 C 110.949219 205.363281 111.699219 204.613281 112.625 204.613281 C 113.546875 204.613281 114.296875 205.363281 114.296875 206.285156 L 114.296875 218.984375 C 114.296875 219.910156 113.546875 220.65625 112.625 220.65625 Z M 112.625 220.65625 " fill-opacity="1" fill-rule="nonzero"/><path fill="#004aad" d="M 128.371094 190.796875 L 96.875 190.796875 C 95.953125 190.796875 95.203125 190.046875 95.203125 189.125 C 95.203125 188.199219 95.953125 187.453125 96.875 187.453125 L 128.371094 187.453125 C 129.296875 187.453125 130.046875 188.199219 130.046875 189.125 C 130.046875 190.046875 129.296875 190.796875 128.371094 190.796875 Z M 128.371094 190.796875 " fill-opacity="1" fill-rule="nonzero"/><path fill="#ffee8e" d="M 121.214844 270.640625 C 121.214844 271.203125 121.160156 271.761719 121.046875 272.316406 C 120.9375 272.867188 120.777344 273.402344 120.558594 273.925781 C 120.34375 274.445312 120.078125 274.9375 119.765625 275.40625 C 119.453125 275.875 119.097656 276.308594 118.699219 276.707031 C 118.300781 277.105469 117.867188 277.460938 117.394531 277.773438 C 116.925781 278.089844 116.433594 278.351562 115.910156 278.566406 C 115.390625 278.785156 114.851562 278.945312 114.300781 279.054688 C 113.746094 279.167969 113.1875 279.222656 112.625 279.222656 C 112.058594 279.222656 111.5 279.167969 110.949219 279.054688 C 110.394531 278.945312 109.859375 278.785156 109.335938 278.566406 C 108.816406 278.351562 108.320312 278.089844 107.851562 277.773438 C 107.382812 277.460938 106.949219 277.105469 106.550781 276.707031 C 106.152344 276.308594 105.796875 275.875 105.480469 275.40625 C 105.167969 274.9375 104.902344 274.445312 104.6875 273.925781 C 104.472656 273.402344 104.308594 272.867188 104.199219 272.316406 C 104.089844 271.761719 104.035156 271.203125 104.035156 270.640625 C 104.035156 270.078125 104.089844 269.519531 104.199219 268.964844 C 104.308594 268.414062 104.472656 267.878906 104.6875 267.355469 C 104.902344 266.835938 105.167969 266.34375 105.480469 265.875 C 105.796875 265.40625 106.152344 264.972656 106.550781 264.574219 C 106.949219 264.175781 107.382812 263.820312 107.851562 263.507812 C 108.320312 263.191406 108.816406 262.929688 109.335938 262.714844 C 109.859375 262.496094 110.394531 262.335938 110.949219 262.226562 C 111.5 262.113281 112.058594 262.058594 112.625 262.058594 C 113.1875 262.058594 113.746094 262.113281 114.300781 262.226562 C 114.851562 262.335938 115.390625 262.496094 115.910156 262.714844 C 116.433594 262.929688 116.925781 263.191406 117.394531 263.507812 C 117.867188 263.820312 118.300781 264.175781 118.699219 264.574219 C 119.097656 264.972656 119.453125 265.40625 119.765625 265.875 C 120.078125 266.34375 120.34375 266.835938 120.558594 267.355469 C 120.777344 267.878906 120.9375 268.414062 121.046875 268.964844 C 121.160156 269.519531 121.214844 270.078125 121.214844 270.640625 Z M 121.214844 270.640625 " fill-opacity="1" fill-rule="nonzero"/><path fill="#004aad" d="M 112.625 280.894531 C 106.964844 280.894531 102.359375 276.292969 102.359375 270.640625 C 102.359375 264.988281 106.964844 260.386719 112.625 260.386719 C 118.285156 260.386719 122.886719 264.988281 122.886719 270.640625 C 122.886719 276.292969 118.285156 280.894531 112.625 280.894531 Z M 112.625 263.734375 C 108.8125 263.734375 105.707031 266.832031 105.707031 270.640625 C 105.707031 274.449219 108.8125 277.550781 112.625 277.550781 C 116.4375 277.550781 119.539062 274.449219 119.539062 270.640625 C 119.539062 266.832031 116.4375 263.734375 112.625 263.734375 Z M 112.625 263.734375 " fill-opacity="1" fill-rule="nonzero"/><path fill="#004aad" d="M 144.121094 237.992188 C 143.691406 237.992188 143.261719 237.828125 142.9375 237.5 C 142.28125 236.847656 142.28125 235.789062 142.9375 235.136719 L 155.246094 222.835938 C 155.902344 222.183594 156.960938 222.183594 157.617188 222.835938 C 158.269531 223.488281 158.269531 224.546875 157.617188 225.203125 L 145.304688 237.5 C 144.976562 237.828125 144.546875 237.992188 144.121094 237.992188 Z M 144.121094 237.992188 " fill-opacity="1" fill-rule="nonzero"/><path fill="#004aad" d="M 144.121094 237.992188 C 143.691406 237.992188 143.261719 237.828125 142.9375 237.5 C 142.28125 236.847656 142.28125 235.789062 142.9375 235.136719 L 155.246094 222.835938 C 155.902344 222.183594 156.960938 222.183594 157.617188 222.835938 C 158.269531 223.488281 158.269531 224.546875 157.617188 225.203125 L 145.304688 237.5 C 144.976562 237.828125 144.546875 237.992188 144.121094 237.992188 Z M 144.121094 237.992188 " fill-opacity="1" fill-rule="nonzero"/><path fill="#004aad" d="M 81.128906 237.992188 C 80.699219 237.992188 80.269531 237.828125 79.945312 237.5 L 67.617188 225.1875 C 66.964844 224.535156 66.964844 223.476562 67.617188 222.824219 C 68.273438 222.167969 69.332031 222.167969 69.984375 222.824219 L 82.3125 235.136719 C 82.964844 235.789062 82.964844 236.847656 82.3125 237.5 C 81.984375 237.828125 81.554688 237.992188 81.128906 237.992188 Z M 81.128906 237.992188 " fill-opacity="1" fill-rule="nonzero"/><path fill="#004aad" d="M 175.617188 270.882812 L 158.4375 270.882812 C 157.511719 270.882812 156.761719 270.132812 156.761719 269.210938 C 156.761719 268.285156 157.511719 267.539062 158.4375 267.539062 L 175.617188 267.539062 C 176.539062 267.539062 177.289062 268.285156 177.289062 269.210938 C 177.289062 270.132812 176.539062 270.882812 175.617188 270.882812 Z M 175.617188 270.882812 " fill-opacity="1" fill-rule="nonzero"/><path fill="#004aad" d="M 112.625 333.808594 C 111.703125 333.808594 110.953125 333.0625 110.949219 332.140625 L 110.921875 320.699219 C 110.917969 319.777344 111.664062 319.023438 112.589844 319.023438 C 112.59375 319.023438 112.59375 319.023438 112.59375 319.023438 C 113.515625 319.023438 114.265625 319.769531 114.269531 320.691406 L 114.296875 332.132812 C 114.300781 333.054688 113.554688 333.804688 112.628906 333.808594 C 112.628906 333.808594 112.625 333.808594 112.625 333.808594 Z M 112.625 333.808594 " fill-opacity="1" fill-rule="nonzero"/><path fill="#004aad" d="M 114.828125 264.019531 C 114.664062 264.019531 114.5 263.996094 114.335938 263.945312 C 113.449219 263.675781 112.957031 262.738281 113.226562 261.855469 L 125.015625 223.664062 C 125.289062 222.78125 126.226562 222.289062 127.109375 222.558594 C 127.992188 222.832031 128.488281 223.769531 128.214844 224.652344 L 116.425781 262.839844 C 116.207031 263.558594 115.542969 264.019531 114.828125 264.019531 Z M 114.828125 264.019531 " fill-opacity="1" fill-rule="nonzero"/><path fill="#004aad" d="M 81.128906 270.882812 L 41.042969 270.882812 C 40.117188 270.882812 39.367188 270.132812 39.367188 269.210938 C 39.367188 268.285156 40.117188 267.539062 41.042969 267.539062 L 81.128906 267.539062 C 82.054688 267.539062 82.800781 268.285156 82.800781 269.210938 C 82.800781 270.132812 82.054688 270.882812 81.128906 270.882812 Z M 81.128906 270.882812 " fill-opacity="1" fill-rule="nonzero"/><path fill="#004aad" d="M 81.128906 253.722656 L 33.882812 253.722656 C 32.960938 253.722656 32.210938 252.972656 32.210938 252.050781 C 32.210938 251.125 32.960938 250.378906 33.882812 250.378906 L 81.128906 250.378906 C 82.054688 250.378906 82.800781 251.125 82.800781 252.050781 C 82.800781 252.972656 82.054688 253.722656 81.128906 253.722656 Z M 81.128906 253.722656 " fill-opacity="1" fill-rule="nonzero"/><path fill="#004aad" d="M 81.128906 288.042969 L 49.632812 288.042969 C 48.707031 288.042969 47.957031 287.296875 47.957031 286.371094 C 47.957031 285.449219 48.707031 284.699219 49.632812 284.699219 L 81.128906 284.699219 C 82.054688 284.699219 82.800781 285.449219 82.800781 286.371094 C 82.800781 287.296875 82.054688 288.042969 81.128906 288.042969 Z M 81.128906 288.042969 " fill-opacity="1" fill-rule="nonzero"/><path fill="#ffee8e" d="M 192.945312 231.175781 C 192.269531 229.835938 191.46875 228.601562 190.589844 227.453125 L 193.761719 220.390625 C 192.214844 218.808594 190.492188 217.355469 188.5625 216.097656 C 186.632812 214.835938 184.609375 213.839844 182.539062 213.058594 L 177.332031 218.792969 C 174.496094 218.097656 171.53125 217.925781 168.578125 218.308594 L 164.039062 212.027344 C 161.890625 212.574219 159.773438 213.339844 157.714844 214.378906 C 155.65625 215.417969 153.78125 216.671875 152.070312 218.070312 L 154.4375 225.449219 C 152.378906 227.597656 150.757812 230.082031 149.636719 232.777344 L 141.925781 233.5625 C 141.328125 235.691406 140.929688 237.910156 140.804688 240.210938 C 140.675781 242.507812 140.820312 244.757812 141.179688 246.941406 L 148.753906 248.578125 C 149.160156 249.964844 149.679688 251.339844 150.355469 252.675781 C 151.035156 254.015625 151.832031 255.25 152.710938 256.398438 L 149.539062 263.460938 C 151.085938 265.042969 152.808594 266.496094 154.738281 267.753906 C 156.667969 269.015625 158.691406 270.011719 160.761719 270.792969 L 165.972656 265.058594 C 168.804688 265.753906 171.769531 265.925781 174.722656 265.539062 L 179.265625 271.824219 C 181.410156 271.277344 183.53125 270.507812 185.589844 269.472656 C 187.644531 268.433594 189.519531 267.179688 191.234375 265.78125 L 188.863281 258.402344 C 190.921875 256.253906 192.542969 253.765625 193.664062 251.074219 L 201.378906 250.289062 C 201.976562 248.160156 202.371094 245.941406 202.5 243.640625 C 202.628906 241.339844 202.480469 239.09375 202.121094 236.910156 L 194.550781 235.273438 C 194.144531 233.886719 193.621094 232.511719 192.945312 231.175781 Z M 192.945312 231.175781 " fill-opacity="1" fill-rule="nonzero"/><path fill="#004aad" d="M 179.265625 273.496094 C 178.734375 273.496094 178.226562 273.246094 177.90625 272.800781 L 173.9375 267.308594 C 171.457031 267.535156 168.980469 267.398438 166.554688 266.902344 L 162 271.917969 C 161.539062 272.425781 160.8125 272.601562 160.171875 272.359375 C 157.902344 271.503906 155.765625 270.425781 153.824219 269.15625 C 151.878906 267.882812 150.035156 266.363281 148.339844 264.628906 C 147.859375 264.136719 147.730469 263.402344 148.011719 262.777344 L 150.785156 256.601562 C 150.046875 255.566406 149.402344 254.5 148.863281 253.433594 C 148.320312 252.363281 147.847656 251.210938 147.445312 250.003906 L 140.824219 248.574219 C 140.152344 248.429688 139.636719 247.886719 139.527344 247.210938 C 139.136719 244.820312 139.003906 242.433594 139.132812 240.117188 C 139.261719 237.800781 139.65625 235.441406 140.3125 233.113281 C 140.5 232.449219 141.070312 231.96875 141.753906 231.898438 L 148.496094 231.210938 C 149.539062 228.964844 150.894531 226.894531 152.546875 225.035156 L 150.472656 218.582031 C 150.265625 217.929688 150.476562 217.210938 151.007812 216.777344 C 152.882812 215.242188 154.886719 213.933594 156.957031 212.886719 C 159.03125 211.84375 161.273438 211.007812 163.621094 210.40625 C 164.289062 210.238281 164.992188 210.492188 165.394531 211.050781 L 169.363281 216.542969 C 171.84375 216.316406 174.320312 216.453125 176.746094 216.949219 L 181.300781 211.933594 C 181.761719 211.425781 182.488281 211.25 183.132812 211.492188 C 185.398438 212.347656 187.535156 213.425781 189.480469 214.695312 C 191.421875 215.964844 193.265625 217.488281 194.960938 219.222656 C 195.441406 219.714844 195.570312 220.449219 195.289062 221.074219 L 192.519531 227.25 C 193.253906 228.285156 193.898438 229.351562 194.4375 230.417969 C 194.980469 231.488281 195.457031 232.640625 195.855469 233.847656 L 202.476562 235.277344 C 203.148438 235.421875 203.664062 235.964844 203.773438 236.640625 C 204.167969 239.03125 204.300781 241.417969 204.171875 243.734375 C 204.042969 246.050781 203.644531 248.410156 202.988281 250.738281 C 202.800781 251.402344 202.230469 251.882812 201.546875 251.949219 L 194.804688 252.640625 C 193.765625 254.886719 192.40625 256.957031 190.753906 258.816406 L 192.828125 265.269531 C 193.039062 265.921875 192.824219 266.640625 192.292969 267.074219 C 190.417969 268.609375 188.414062 269.917969 186.34375 270.964844 C 184.269531 272.011719 182.027344 272.84375 179.679688 273.441406 C 179.542969 273.480469 179.402344 273.496094 179.265625 273.496094 Z M 174.722656 263.867188 C 175.257812 263.867188 175.761719 264.125 176.082031 264.5625 L 179.941406 269.902344 C 181.65625 269.398438 183.300781 268.753906 184.832031 267.976562 C 186.367188 267.203125 187.859375 266.265625 189.285156 265.1875 L 187.269531 258.914062 C 187.082031 258.328125 187.230469 257.6875 187.65625 257.246094 C 189.566406 255.253906 191.066406 252.960938 192.117188 250.433594 C 192.355469 249.867188 192.882812 249.472656 193.492188 249.410156 L 200.050781 248.742188 C 200.472656 247.003906 200.730469 245.261719 200.828125 243.546875 C 200.921875 241.835938 200.859375 240.074219 200.632812 238.300781 L 194.195312 236.910156 C 193.59375 236.78125 193.113281 236.332031 192.941406 235.742188 C 192.539062 234.359375 192.050781 233.113281 191.453125 231.929688 C 190.851562 230.746094 190.136719 229.613281 189.261719 228.46875 C 188.886719 227.980469 188.8125 227.328125 189.0625 226.769531 L 191.761719 220.765625 C 190.464844 219.53125 189.085938 218.433594 187.644531 217.496094 C 186.207031 216.554688 184.648438 215.734375 183 215.039062 L 178.570312 219.917969 C 178.15625 220.371094 177.527344 220.566406 176.929688 220.417969 C 174.269531 219.765625 171.53125 219.613281 168.792969 219.96875 C 168.183594 220.046875 167.582031 219.789062 167.222656 219.289062 L 163.359375 213.949219 C 161.644531 214.453125 160.003906 215.097656 158.46875 215.875 C 156.9375 216.648438 155.441406 217.585938 154.015625 218.664062 L 156.03125 224.9375 C 156.21875 225.523438 156.074219 226.164062 155.648438 226.605469 C 153.738281 228.597656 152.234375 230.890625 151.183594 233.417969 C 150.949219 233.984375 150.421875 234.378906 149.808594 234.441406 L 143.25 235.109375 C 142.832031 236.847656 142.570312 238.589844 142.472656 240.304688 C 142.378906 242.015625 142.445312 243.777344 142.667969 245.550781 L 149.105469 246.941406 C 149.707031 247.070312 150.1875 247.519531 150.359375 248.109375 C 150.765625 249.492188 151.253906 250.738281 151.851562 251.921875 C 152.449219 253.105469 153.167969 254.238281 154.042969 255.382812 C 154.414062 255.871094 154.488281 256.523438 154.238281 257.082031 L 151.542969 263.085938 C 152.835938 264.320312 154.21875 265.414062 155.65625 266.355469 C 157.09375 267.296875 158.652344 268.117188 160.300781 268.8125 L 164.730469 263.933594 C 165.144531 263.480469 165.773438 263.285156 166.371094 263.433594 C 169.03125 264.085938 171.769531 264.238281 174.507812 263.882812 C 174.578125 263.875 174.652344 263.867188 174.722656 263.867188 Z M 174.722656 263.867188 " fill-opacity="1" fill-rule="nonzero"/><path fill="#ffffff" d="M 184.386719 241.070312 C 184.386719 241.960938 184.300781 242.839844 184.128906 243.714844 C 183.953125 244.585938 183.695312 245.433594 183.355469 246.253906 C 183.015625 247.078125 182.597656 247.855469 182.101562 248.597656 C 181.609375 249.335938 181.046875 250.019531 180.414062 250.648438 C 179.785156 251.277344 179.101562 251.839844 178.359375 252.335938 C 177.621094 252.828125 176.839844 253.246094 176.015625 253.585938 C 175.195312 253.925781 174.34375 254.183594 173.472656 254.355469 C 172.597656 254.53125 171.71875 254.617188 170.828125 254.617188 C 169.9375 254.617188 169.054688 254.53125 168.179688 254.355469 C 167.308594 254.183594 166.460938 253.925781 165.636719 253.585938 C 164.8125 253.246094 164.03125 252.828125 163.292969 252.335938 C 162.550781 251.839844 161.867188 251.277344 161.238281 250.648438 C 160.609375 250.019531 160.046875 249.335938 159.550781 248.597656 C 159.054688 247.855469 158.636719 247.078125 158.296875 246.253906 C 157.957031 245.433594 157.699219 244.585938 157.527344 243.714844 C 157.351562 242.839844 157.265625 241.960938 157.265625 241.070312 C 157.265625 240.179688 157.351562 239.300781 157.527344 238.425781 C 157.699219 237.554688 157.957031 236.707031 158.296875 235.886719 C 158.636719 235.066406 159.054688 234.285156 159.550781 233.542969 C 160.046875 232.804688 160.609375 232.121094 161.238281 231.492188 C 161.867188 230.863281 162.550781 230.300781 163.292969 229.804688 C 164.03125 229.3125 164.8125 228.894531 165.636719 228.554688 C 166.460938 228.214844 167.308594 227.957031 168.179688 227.785156 C 169.054688 227.609375 169.9375 227.523438 170.828125 227.523438 C 171.71875 227.523438 172.597656 227.609375 173.472656 227.785156 C 174.34375 227.957031 175.195312 228.214844 176.015625 228.554688 C 176.839844 228.894531 177.621094 229.3125 178.359375 229.804688 C 179.101562 230.300781 179.785156 230.863281 180.414062 231.492188 C 181.046875 232.121094 181.609375 232.804688 182.101562 233.542969 C 182.597656 234.285156 183.015625 235.066406 183.355469 235.886719 C 183.695312 236.707031 183.953125 237.554688 184.128906 238.425781 C 184.300781 239.300781 184.386719 240.179688 184.386719 241.070312 Z M 184.386719 241.070312 " fill-opacity="1" fill-rule="nonzero"/><path fill="#004aad" d="M 170.851562 256.304688 C 169.25 256.304688 167.644531 256.050781 166.078125 255.539062 C 162.214844 254.269531 159.074219 251.570312 157.238281 247.945312 C 153.449219 240.453125 156.464844 231.28125 163.960938 227.496094 C 171.460938 223.710938 180.644531 226.722656 184.433594 234.214844 C 188.222656 241.703125 185.203125 250.875 177.707031 254.660156 C 175.542969 255.753906 173.203125 256.304688 170.851562 256.304688 Z M 170.816406 229.203125 C 169.015625 229.203125 167.1875 229.613281 165.472656 230.480469 C 159.621094 233.433594 157.269531 240.589844 160.226562 246.433594 C 161.65625 249.265625 164.109375 251.371094 167.125 252.359375 C 170.140625 253.351562 173.363281 253.105469 176.195312 251.675781 C 182.046875 248.722656 184.402344 241.566406 181.445312 235.722656 C 179.355469 231.589844 175.160156 229.203125 170.816406 229.203125 Z M 170.816406 229.203125 " fill-opacity="1" fill-rule="nonzero"/><path fill="#38b6ff" d="M 198.410156 302.941406 C 198.550781 300.96875 198.488281 299.03125 198.273438 297.136719 L 206.652344 291.292969 C 205.976562 288.457031 205.011719 285.648438 203.683594 282.914062 C 202.355469 280.183594 200.746094 277.683594 198.933594 275.398438 L 189.148438 278.363281 C 186.414062 275.65625 183.175781 273.453125 179.574219 271.886719 L 178.699219 261.707031 C 175.902344 260.871094 172.984375 260.304688 169.949219 260.085938 C 166.917969 259.867188 163.949219 260.011719 161.058594 260.4375 L 158.734375 270.390625 C 154.945312 271.425781 151.425781 273.140625 148.332031 275.425781 L 139.074219 271.09375 C 136.953125 273.097656 135 275.339844 133.292969 277.855469 C 131.585938 280.367188 130.230469 283.011719 129.152344 285.722656 L 136.609375 292.703125 C 136.125 294.546875 135.785156 296.453125 135.640625 298.425781 C 135.5 300.398438 135.566406 302.335938 135.78125 304.230469 L 127.398438 310.070312 C 128.074219 312.910156 129.039062 315.71875 130.367188 318.449219 C 131.695312 321.183594 133.304688 323.679688 135.121094 325.96875 L 144.90625 323.003906 C 147.640625 325.710938 150.875 327.910156 154.476562 329.476562 L 155.351562 339.660156 C 158.148438 340.492188 161.070312 341.0625 164.101562 341.28125 C 167.132812 341.5 170.105469 341.351562 172.992188 340.929688 L 175.316406 330.976562 C 179.105469 329.941406 182.625 328.226562 185.71875 325.9375 L 194.980469 330.269531 C 197.101562 328.269531 199.054688 326.027344 200.757812 323.511719 C 202.464844 321 203.824219 318.355469 204.898438 315.644531 L 197.441406 308.664062 C 197.925781 306.816406 198.269531 304.910156 198.410156 302.941406 Z M 198.410156 302.941406 " fill-opacity="1" fill-rule="nonzero"/><path fill="#004aad" d="M 166.898438 343.050781 C 165.917969 343.050781 164.945312 343.019531 163.980469 342.949219 C 160.964844 342.730469 157.898438 342.164062 154.871094 341.261719 C 154.214844 341.066406 153.742188 340.488281 153.683594 339.804688 L 152.894531 330.597656 C 149.78125 329.132812 146.949219 327.21875 144.453125 324.890625 L 135.605469 327.566406 C 134.945312 327.765625 134.234375 327.542969 133.804688 327.003906 C 131.84375 324.53125 130.183594 321.898438 128.863281 319.179688 C 127.539062 316.460938 126.5 313.527344 125.769531 310.460938 C 125.609375 309.789062 125.875 309.09375 126.441406 308.699219 L 134.015625 303.417969 C 133.867188 301.667969 133.851562 299.953125 133.972656 298.304688 C 134.089844 296.660156 134.351562 294.964844 134.75 293.253906 L 128.007812 286.941406 C 127.507812 286.472656 127.34375 285.742188 127.597656 285.105469 C 128.761719 282.171875 130.210938 279.417969 131.90625 276.914062 C 133.601562 274.414062 135.628906 272.046875 137.921875 269.878906 C 138.421875 269.40625 139.160156 269.289062 139.78125 269.582031 L 148.152344 273.496094 C 150.960938 271.550781 154.039062 270.0625 157.328125 269.054688 L 159.429688 260.058594 C 159.585938 259.390625 160.136719 258.882812 160.816406 258.785156 C 163.941406 258.324219 167.054688 258.199219 170.070312 258.417969 C 173.085938 258.632812 176.152344 259.203125 179.179688 260.105469 C 179.835938 260.300781 180.308594 260.878906 180.367188 261.5625 L 181.160156 270.769531 C 184.269531 272.234375 187.101562 274.148438 189.601562 276.476562 L 198.445312 273.796875 C 199.105469 273.601562 199.816406 273.824219 200.246094 274.359375 C 202.207031 276.835938 203.871094 279.46875 205.191406 282.183594 C 206.511719 284.902344 207.550781 287.835938 208.28125 290.90625 C 208.441406 291.574219 208.175781 292.273438 207.613281 292.664062 L 200.035156 297.945312 C 200.183594 299.699219 200.199219 301.414062 200.078125 303.058594 C 199.960938 304.707031 199.699219 306.402344 199.300781 308.113281 L 206.042969 314.425781 C 206.546875 314.894531 206.707031 315.621094 206.457031 316.261719 C 205.289062 319.195312 203.839844 321.949219 202.144531 324.449219 C 200.449219 326.953125 198.425781 329.320312 196.128906 331.488281 C 195.628906 331.957031 194.890625 332.078125 194.269531 331.785156 L 185.898438 327.867188 C 183.089844 329.816406 180.011719 331.304688 176.726562 332.308594 L 174.621094 341.308594 C 174.464844 341.976562 173.917969 342.484375 173.234375 342.582031 C 171.109375 342.894531 168.988281 343.050781 166.898438 343.050781 Z M 156.921875 338.367188 C 159.355469 339.019531 161.808594 339.4375 164.222656 339.613281 C 166.632812 339.785156 169.121094 339.722656 171.625 339.421875 L 173.6875 330.597656 C 173.828125 330 174.28125 329.527344 174.875 329.363281 C 178.453125 328.386719 181.765625 326.78125 184.722656 324.59375 C 185.21875 324.230469 185.871094 324.164062 186.429688 324.425781 L 194.640625 328.265625 C 196.425781 326.488281 198.015625 324.578125 199.375 322.574219 C 200.730469 320.574219 201.917969 318.390625 202.910156 316.074219 L 196.296875 309.882812 C 195.847656 309.464844 195.667969 308.835938 195.824219 308.242188 C 196.3125 306.371094 196.613281 304.597656 196.742188 302.820312 C 196.867188 301.042969 196.824219 299.246094 196.609375 297.324219 C 196.539062 296.714844 196.8125 296.117188 197.316406 295.765625 L 204.746094 290.582031 C 204.097656 288.148438 203.234375 285.820312 202.179688 283.644531 C 201.121094 281.46875 199.824219 279.351562 198.3125 277.335938 L 189.632812 279.960938 C 189.042969 280.140625 188.40625 279.980469 187.96875 279.550781 C 185.355469 276.960938 182.308594 274.902344 178.90625 273.421875 C 178.34375 273.175781 177.960938 272.644531 177.90625 272.03125 L 177.132812 263 C 174.695312 262.347656 172.246094 261.925781 169.832031 261.753906 C 167.417969 261.582031 164.933594 261.644531 162.425781 261.941406 L 160.363281 270.769531 C 160.226562 271.367188 159.769531 271.839844 159.175781 272.003906 C 155.597656 272.980469 152.285156 274.585938 149.328125 276.773438 C 148.835938 277.136719 148.179688 277.203125 147.621094 276.941406 L 139.410156 273.101562 C 137.625 274.878906 136.035156 276.789062 134.679688 278.792969 C 133.320312 280.792969 132.132812 282.976562 131.140625 285.292969 L 137.753906 291.480469 C 138.203125 291.902344 138.382812 292.53125 138.230469 293.125 C 137.738281 294.996094 137.441406 296.769531 137.3125 298.546875 C 137.183594 300.324219 137.226562 302.121094 137.441406 304.042969 C 137.511719 304.652344 137.242188 305.25 136.738281 305.601562 L 129.304688 310.78125 C 129.957031 313.214844 130.816406 315.546875 131.875 317.722656 C 132.929688 319.894531 134.226562 322.015625 135.738281 324.03125 L 144.417969 321.402344 C 145.007812 321.226562 145.644531 321.382812 146.082031 321.816406 C 148.695312 324.402344 151.746094 326.464844 155.144531 327.945312 C 155.707031 328.191406 156.09375 328.722656 156.144531 329.335938 Z M 156.921875 338.367188 " fill-opacity="1" fill-rule="nonzero"/><path fill="#ffffff" d="M 178.574219 289.136719 C 178.953125 289.515625 179.3125 289.910156 179.652344 290.324219 C 179.992188 290.738281 180.308594 291.164062 180.605469 291.609375 C 180.902344 292.054688 181.179688 292.511719 181.429688 292.984375 C 181.683594 293.457031 181.910156 293.9375 182.117188 294.433594 C 182.320312 294.925781 182.5 295.429688 182.65625 295.941406 C 182.8125 296.453125 182.941406 296.972656 183.046875 297.496094 C 183.152344 298.019531 183.230469 298.546875 183.28125 299.082031 C 183.335938 299.613281 183.359375 300.144531 183.359375 300.679688 C 183.359375 301.214844 183.335938 301.75 183.28125 302.28125 C 183.230469 302.8125 183.152344 303.339844 183.046875 303.867188 C 182.941406 304.390625 182.8125 304.910156 182.65625 305.421875 C 182.5 305.933594 182.320312 306.433594 182.117188 306.929688 C 181.910156 307.421875 181.683594 307.90625 181.429688 308.378906 C 181.179688 308.847656 180.902344 309.308594 180.605469 309.75 C 180.308594 310.195312 179.992188 310.625 179.652344 311.039062 C 179.3125 311.453125 178.953125 311.847656 178.574219 312.226562 C 178.195312 312.605469 177.800781 312.960938 177.386719 313.300781 C 176.972656 313.640625 176.542969 313.960938 176.097656 314.257812 C 175.652344 314.554688 175.195312 314.828125 174.722656 315.078125 C 174.25 315.332031 173.765625 315.558594 173.273438 315.765625 C 172.777344 315.96875 172.273438 316.148438 171.761719 316.304688 C 171.25 316.460938 170.730469 316.589844 170.207031 316.695312 C 169.679688 316.796875 169.152344 316.875 168.621094 316.929688 C 168.085938 316.980469 167.550781 317.007812 167.015625 317.007812 C 166.480469 317.007812 165.949219 316.980469 165.414062 316.929688 C 164.882812 316.878906 164.355469 316.796875 163.828125 316.695312 C 163.304688 316.589844 162.785156 316.460938 162.273438 316.304688 C 161.761719 316.148438 161.257812 315.96875 160.761719 315.765625 C 160.269531 315.5625 159.785156 315.332031 159.3125 315.082031 C 158.839844 314.828125 158.382812 314.554688 157.9375 314.257812 C 157.492188 313.960938 157.0625 313.640625 156.648438 313.300781 C 156.234375 312.964844 155.839844 312.605469 155.460938 312.226562 C 155.082031 311.847656 154.722656 311.453125 154.382812 311.039062 C 154.042969 310.625 153.726562 310.195312 153.429688 309.753906 C 153.128906 309.308594 152.855469 308.847656 152.601562 308.378906 C 152.351562 307.90625 152.121094 307.421875 151.917969 306.929688 C 151.710938 306.433594 151.53125 305.933594 151.378906 305.421875 C 151.222656 304.910156 151.089844 304.390625 150.988281 303.867188 C 150.882812 303.34375 150.804688 302.8125 150.75 302.28125 C 150.699219 301.75 150.671875 301.214844 150.671875 300.679688 C 150.671875 300.148438 150.699219 299.613281 150.75 299.082031 C 150.804688 298.550781 150.882812 298.019531 150.988281 297.496094 C 151.089844 296.972656 151.222656 296.453125 151.375 295.941406 C 151.53125 295.429688 151.710938 294.925781 151.917969 294.433594 C 152.121094 293.941406 152.351562 293.457031 152.601562 292.984375 C 152.855469 292.515625 153.128906 292.054688 153.425781 291.609375 C 153.726562 291.167969 154.042969 290.738281 154.382812 290.324219 C 154.722656 289.910156 155.082031 289.515625 155.460938 289.136719 C 155.839844 288.757812 156.234375 288.398438 156.648438 288.0625 C 157.0625 287.722656 157.492188 287.402344 157.9375 287.105469 C 158.382812 286.808594 158.839844 286.535156 159.3125 286.28125 C 159.785156 286.03125 160.269531 285.800781 160.761719 285.597656 C 161.257812 285.394531 161.761719 285.214844 162.273438 285.058594 C 162.785156 284.902344 163.304688 284.773438 163.828125 284.667969 C 164.351562 284.5625 164.882812 284.484375 165.414062 284.433594 C 165.949219 284.382812 166.480469 284.355469 167.015625 284.355469 C 167.550781 284.355469 168.085938 284.382812 168.617188 284.433594 C 169.152344 284.484375 169.679688 284.5625 170.207031 284.667969 C 170.730469 284.773438 171.25 284.902344 171.761719 285.058594 C 172.273438 285.214844 172.777344 285.394531 173.269531 285.597656 C 173.765625 285.800781 174.25 286.03125 174.722656 286.28125 C 175.191406 286.535156 175.652344 286.808594 176.097656 287.105469 C 176.542969 287.402344 176.972656 287.722656 177.386719 288.058594 C 177.800781 288.398438 178.195312 288.757812 178.574219 289.136719 Z M 178.574219 289.136719 " fill-opacity="1" fill-rule="nonzero"/><path fill="#004aad" d="M 167.054688 318.683594 C 166.613281 318.683594 166.175781 318.667969 165.730469 318.636719 C 160.933594 318.289062 156.554688 316.097656 153.402344 312.464844 C 150.253906 308.828125 148.707031 304.1875 149.054688 299.390625 C 149.769531 289.492188 158.410156 282.015625 168.320312 282.730469 C 173.121094 283.074219 177.5 285.265625 180.648438 288.902344 C 183.796875 292.539062 185.34375 297.179688 184.996094 301.976562 C 184.652344 306.769531 182.457031 311.144531 178.820312 314.292969 C 175.515625 317.148438 171.378906 318.683594 167.054688 318.683594 Z M 167.003906 286.027344 C 163.480469 286.027344 160.113281 287.277344 157.425781 289.605469 C 154.460938 292.164062 152.675781 295.726562 152.394531 299.632812 C 152.113281 303.535156 153.371094 307.316406 155.933594 310.273438 C 158.5 313.234375 162.0625 315.019531 165.972656 315.300781 C 169.882812 315.582031 173.664062 314.324219 176.628906 311.761719 C 179.589844 309.199219 181.375 305.640625 181.65625 301.734375 C 181.9375 297.832031 180.683594 294.050781 178.117188 291.089844 C 175.550781 288.132812 171.988281 286.347656 168.078125 286.066406 C 167.71875 286.039062 167.359375 286.027344 167.003906 286.027344 Z M 167.003906 286.027344 " fill-opacity="1" fill-rule="nonzero"/><path fill="#ffee8e" d="M 290.785156 245.113281 L 290.785156 274.957031 L 290.785156 267.378906 L 295.832031 267.378906 C 300.441406 267.378906 304.214844 271.144531 304.214844 275.75 C 304.214844 277.089844 303.886719 278.355469 303.320312 279.484375 C 308.867188 279.933594 313.269531 284.597656 313.269531 290.253906 C 313.269531 296.199219 308.398438 301.066406 302.445312 301.066406 L 253.101562 301.066406 C 247.148438 301.066406 242.277344 296.199219 242.277344 290.253906 C 242.277344 284.597656 246.679688 279.933594 252.226562 279.484375 C 251.660156 278.355469 251.332031 277.089844 251.332031 275.75 C 251.332031 271.148438 255.101562 267.378906 259.710938 267.378906 L 264.761719 267.378906 L 264.761719 274.957031 L 264.761719 245.113281 Z M 290.785156 245.113281 " fill-opacity="1" fill-rule="nonzero"/><path fill="#004aad" d="M 302.445312 302.738281 L 253.101562 302.738281 C 246.207031 302.738281 240.601562 297.136719 240.601562 290.25 C 240.601562 284.53125 244.570312 279.589844 249.957031 278.179688 C 249.757812 277.386719 249.65625 276.574219 249.65625 275.75 C 249.65625 270.210938 254.167969 265.707031 259.710938 265.707031 L 263.085938 265.707031 L 263.085938 245.113281 C 263.085938 244.1875 263.835938 243.441406 264.761719 243.441406 C 265.683594 243.441406 266.433594 244.1875 266.433594 245.113281 L 266.433594 274.957031 C 266.433594 275.882812 265.683594 276.628906 264.761719 276.628906 C 263.835938 276.628906 263.085938 275.882812 263.085938 274.957031 L 263.085938 269.050781 L 259.710938 269.050781 C 256.011719 269.050781 253.003906 272.058594 253.003906 275.75 C 253.003906 276.785156 253.246094 277.789062 253.722656 278.730469 C 253.972656 279.226562 253.957031 279.816406 253.683594 280.300781 C 253.414062 280.785156 252.917969 281.105469 252.359375 281.148438 C 247.644531 281.53125 243.949219 285.53125 243.949219 290.253906 C 243.949219 295.292969 248.054688 299.394531 253.101562 299.394531 L 302.445312 299.394531 C 307.488281 299.394531 311.59375 295.292969 311.59375 290.253906 C 311.59375 285.53125 307.898438 281.53125 303.183594 281.148438 C 302.628906 281.105469 302.132812 280.785156 301.859375 280.300781 C 301.585938 279.816406 301.574219 279.226562 301.824219 278.730469 C 302.296875 277.789062 302.539062 276.785156 302.539062 275.75 C 302.539062 272.058594 299.53125 269.050781 295.832031 269.050781 L 292.457031 269.050781 L 292.457031 274.957031 C 292.457031 275.882812 291.707031 276.628906 290.785156 276.628906 C 289.859375 276.628906 289.109375 275.882812 289.109375 274.957031 L 289.109375 267.378906 C 289.109375 267.367188 289.109375 267.359375 289.109375 267.347656 L 289.109375 245.113281 C 289.109375 244.191406 289.859375 243.441406 290.785156 243.441406 C 291.707031 243.441406 292.457031 244.191406 292.457031 245.113281 L 292.457031 265.707031 L 295.832031 265.707031 C 301.378906 265.707031 305.886719 270.210938 305.886719 275.75 C 305.886719 276.574219 305.785156 277.386719 305.585938 278.179688 C 310.976562 279.589844 314.941406 284.53125 314.941406 290.253906 C 314.941406 297.136719 309.335938 302.738281 302.445312 302.738281 Z M 302.445312 302.738281 " fill-opacity="1" fill-rule="nonzero"/><path fill="#38b6ff" d="M 319.523438 206.390625 C 326.089844 212.949219 329.777344 221.84375 329.777344 231.117188 L 329.777344 250.582031 C 329.777344 256.039062 323.171875 258.773438 319.308594 254.914062 L 305.492188 241.113281 Z M 319.523438 206.390625 " fill-opacity="1" fill-rule="nonzero"/><path fill="#004aad" d="M 323.59375 258.398438 C 321.585938 258.398438 319.636719 257.605469 318.125 256.09375 L 304.308594 242.296875 C 303.65625 241.644531 303.65625 240.582031 304.308594 239.929688 C 304.964844 239.277344 306.023438 239.277344 306.675781 239.929688 L 320.492188 253.730469 C 322.042969 255.28125 324.019531 255.246094 325.351562 254.695312 C 326.679688 254.144531 328.101562 252.773438 328.101562 250.582031 L 328.101562 231.117188 C 328.101562 222.222656 324.636719 213.859375 318.339844 207.570312 L 320.707031 205.207031 C 324.132812 208.628906 326.804688 212.625 328.660156 217.09375 C 330.511719 221.5625 331.453125 226.28125 331.453125 231.117188 L 331.453125 250.582031 C 331.453125 253.796875 329.605469 256.554688 326.632812 257.785156 C 325.636719 258.199219 324.605469 258.398438 323.59375 258.398438 Z M 323.59375 258.398438 " fill-opacity="1" fill-rule="nonzero"/><path fill="#38b6ff" d="M 236.019531 206.390625 C 229.457031 212.949219 225.765625 221.84375 225.765625 231.117188 L 225.765625 250.582031 C 225.765625 256.039062 232.375 258.773438 236.238281 254.914062 L 250.050781 241.113281 Z M 236.019531 206.390625 " fill-opacity="1" fill-rule="nonzero"/><path fill="#004aad" d="M 231.949219 258.398438 C 230.9375 258.398438 229.910156 258.199219 228.914062 257.785156 C 225.941406 256.554688 224.09375 253.796875 224.09375 250.582031 L 224.09375 231.117188 C 224.09375 226.28125 225.03125 221.5625 226.886719 217.09375 C 228.738281 212.625 231.414062 208.628906 234.835938 205.207031 C 235.492188 204.554688 236.550781 204.554688 237.203125 205.207031 C 237.859375 205.859375 237.859375 206.917969 237.203125 207.570312 C 230.910156 213.859375 227.441406 222.222656 227.441406 231.117188 L 227.441406 250.582031 C 227.441406 252.773438 228.863281 254.144531 230.195312 254.695312 C 231.523438 255.246094 233.5 255.28125 235.054688 253.730469 L 248.867188 239.929688 C 249.519531 239.277344 250.582031 239.277344 251.234375 239.929688 C 251.890625 240.582031 251.890625 241.644531 251.234375 242.296875 L 237.421875 256.09375 C 235.90625 257.605469 233.960938 258.398438 231.949219 258.398438 Z M 231.949219 258.398438 " fill-opacity="1" fill-rule="nonzero"/><path fill="#ffffff" d="M 256.585938 244.917969 C 254.058594 244.917969 251.699219 243.628906 250.351562 241.492188 C 239.59375 224.410156 233.363281 204.195312 233.363281 182.523438 C 233.363281 151.101562 246.445312 122.734375 267.460938 102.550781 C 273.210938 97.027344 282.257812 97.027344 288.007812 102.550781 C 309.023438 122.734375 322.105469 151.101562 322.105469 182.523438 C 322.105469 204.195312 315.875 224.410156 305.117188 241.492188 C 303.769531 243.628906 301.410156 244.917969 298.882812 244.917969 Z M 256.585938 244.917969 " fill-opacity="1" fill-rule="nonzero"/><path fill="#004aad" d="M 298.882812 246.59375 L 256.585938 246.59375 C 253.457031 246.59375 250.597656 245.019531 248.9375 242.382812 C 237.652344 224.464844 231.6875 203.765625 231.6875 182.523438 C 231.6875 166.929688 234.820312 151.835938 240.996094 137.652344 C 246.960938 123.957031 255.472656 111.742188 266.300781 101.34375 C 272.710938 95.1875 282.757812 95.1875 289.167969 101.34375 C 299.996094 111.742188 308.507812 123.957031 314.472656 137.652344 C 320.648438 151.835938 323.777344 166.929688 323.777344 182.523438 C 323.777344 203.765625 317.816406 224.464844 306.53125 242.382812 C 304.871094 245.019531 302.011719 246.59375 298.882812 246.59375 Z M 277.734375 100.074219 C 274.453125 100.074219 271.175781 101.300781 268.621094 103.753906 C 246.964844 124.554688 235.039062 152.527344 235.039062 182.523438 C 235.039062 203.136719 240.824219 223.21875 251.769531 240.601562 C 252.8125 242.257812 254.613281 243.246094 256.585938 243.246094 L 298.882812 243.246094 C 300.855469 243.246094 302.65625 242.257812 303.699219 240.601562 C 314.644531 223.21875 320.429688 203.136719 320.429688 182.523438 C 320.429688 152.527344 308.503906 124.554688 286.847656 103.753906 C 284.292969 101.300781 281.011719 100.074219 277.734375 100.074219 Z M 277.734375 100.074219 " fill-opacity="1" fill-rule="nonzero"/><path fill="#004aad" d="M 298.882812 116.308594 L 256.585938 116.308594 C 255.660156 116.308594 254.910156 115.558594 254.910156 114.636719 C 254.910156 113.710938 255.660156 112.964844 256.585938 112.964844 L 298.882812 112.964844 C 299.808594 112.964844 300.558594 113.710938 300.558594 114.636719 C 300.558594 115.558594 299.808594 116.308594 298.882812 116.308594 Z M 298.882812 116.308594 " fill-opacity="1" fill-rule="nonzero"/><path fill="#38b6ff" d="M 305.492188 175.9375 C 305.492188 176.84375 305.449219 177.75 305.359375 178.65625 C 305.269531 179.558594 305.136719 180.457031 304.960938 181.347656 C 304.78125 182.238281 304.5625 183.117188 304.296875 183.984375 C 304.035156 184.855469 303.726562 185.710938 303.378906 186.546875 C 303.03125 187.386719 302.644531 188.207031 302.214844 189.007812 C 301.785156 189.808594 301.320312 190.585938 300.816406 191.34375 C 300.308594 192.097656 299.769531 192.824219 299.191406 193.527344 C 298.617188 194.230469 298.003906 194.902344 297.363281 195.542969 C 296.71875 196.1875 296.046875 196.796875 295.34375 197.371094 C 294.640625 197.949219 293.914062 198.488281 293.15625 198.992188 C 292.402344 199.496094 291.621094 199.964844 290.820312 200.390625 C 290.019531 200.820312 289.195312 201.207031 288.355469 201.554688 C 287.515625 201.902344 286.664062 202.207031 285.792969 202.472656 C 284.921875 202.734375 284.042969 202.957031 283.148438 203.132812 C 282.257812 203.3125 281.359375 203.445312 280.453125 203.53125 C 279.550781 203.621094 278.644531 203.667969 277.734375 203.667969 C 276.824219 203.667969 275.917969 203.621094 275.011719 203.53125 C 274.109375 203.445312 273.210938 203.3125 272.320312 203.132812 C 271.425781 202.957031 270.546875 202.734375 269.675781 202.472656 C 268.804688 202.207031 267.949219 201.902344 267.109375 201.554688 C 266.269531 201.207031 265.449219 200.820312 264.648438 200.390625 C 263.847656 199.964844 263.066406 199.496094 262.3125 198.992188 C 261.554688 198.488281 260.828125 197.949219 260.125 197.371094 C 259.421875 196.796875 258.75 196.1875 258.105469 195.542969 C 257.460938 194.902344 256.851562 194.230469 256.277344 193.527344 C 255.699219 192.824219 255.160156 192.097656 254.652344 191.34375 C 254.148438 190.585938 253.679688 189.808594 253.253906 189.007812 C 252.824219 188.207031 252.4375 187.386719 252.089844 186.546875 C 251.738281 185.710938 251.433594 184.855469 251.171875 183.984375 C 250.90625 183.117188 250.6875 182.238281 250.507812 181.347656 C 250.332031 180.457031 250.199219 179.558594 250.109375 178.65625 C 250.019531 177.75 249.976562 176.84375 249.976562 175.9375 C 249.976562 175.027344 250.019531 174.121094 250.109375 173.21875 C 250.199219 172.316406 250.332031 171.417969 250.507812 170.527344 C 250.6875 169.636719 250.90625 168.757812 251.171875 167.886719 C 251.433594 167.019531 251.738281 166.164062 252.089844 165.324219 C 252.4375 164.484375 252.824219 163.664062 253.253906 162.863281 C 253.679688 162.0625 254.148438 161.285156 254.652344 160.53125 C 255.15625 159.773438 255.699219 159.046875 256.277344 158.34375 C 256.851562 157.644531 257.460938 156.96875 258.105469 156.328125 C 258.75 155.6875 259.421875 155.078125 260.125 154.5 C 260.828125 153.925781 261.554688 153.382812 262.3125 152.878906 C 263.066406 152.375 263.847656 151.910156 264.648438 151.480469 C 265.449219 151.050781 266.269531 150.664062 267.109375 150.316406 C 267.949219 149.96875 268.804688 149.664062 269.675781 149.402344 C 270.546875 149.136719 271.425781 148.917969 272.320312 148.738281 C 273.210938 148.5625 274.109375 148.429688 275.011719 148.339844 C 275.917969 148.25 276.824219 148.207031 277.734375 148.207031 C 278.644531 148.207031 279.550781 148.25 280.453125 148.339844 C 281.359375 148.429688 282.257812 148.5625 283.148438 148.738281 C 284.042969 148.917969 284.921875 149.136719 285.792969 149.402344 C 286.664062 149.664062 287.515625 149.96875 288.355469 150.316406 C 289.195312 150.664062 290.019531 151.050781 290.820312 151.480469 C 291.621094 151.910156 292.402344 152.375 293.15625 152.878906 C 293.914062 153.382812 294.640625 153.925781 295.34375 154.5 C 296.046875 155.078125 296.71875 155.6875 297.363281 156.328125 C 298.003906 156.96875 298.617188 157.644531 299.191406 158.34375 C 299.769531 159.046875 300.308594 159.773438 300.816406 160.53125 C 301.320312 161.285156 301.785156 162.0625 302.214844 162.863281 C 302.644531 163.664062 303.03125 164.484375 303.378906 165.324219 C 303.726562 166.164062 304.035156 167.019531 304.296875 167.886719 C 304.5625 168.757812 304.78125 169.636719 304.960938 170.527344 C 305.136719 171.417969 305.269531 172.316406 305.359375 173.21875 C 305.449219 174.121094 305.492188 175.027344 305.492188 175.9375 Z M 305.492188 175.9375 " fill-opacity="1" fill-rule="nonzero"/><path fill="#004aad" d="M 277.734375 205.339844 C 261.503906 205.339844 248.300781 192.148438 248.300781 175.9375 C 248.300781 159.722656 261.503906 146.535156 277.734375 146.535156 C 293.964844 146.535156 307.167969 159.722656 307.167969 175.9375 C 307.167969 192.148438 293.964844 205.339844 277.734375 205.339844 Z M 277.734375 149.878906 C 263.351562 149.878906 251.648438 161.566406 251.648438 175.9375 C 251.648438 190.304688 263.351562 201.996094 277.734375 201.996094 C 292.117188 201.996094 303.820312 190.304688 303.820312 175.9375 C 303.820312 161.566406 292.117188 149.878906 277.734375 149.878906 Z M 277.734375 149.878906 " fill-opacity="1" fill-rule="nonzero"/><path fill="#004aad" d="M 278.007812 177.730469 C 277.082031 177.730469 276.332031 176.984375 276.332031 176.058594 L 276.332031 154.410156 C 276.332031 153.488281 277.082031 152.738281 278.007812 152.738281 C 278.933594 152.738281 279.683594 153.488281 279.683594 154.410156 L 279.683594 176.058594 C 279.683594 176.984375 278.933594 177.730469 278.007812 177.730469 Z M 278.007812 177.730469 " fill-opacity="1" fill-rule="nonzero"/><path fill="#004aad" d="M 288.84375 177.730469 L 278.007812 177.730469 C 277.082031 177.730469 276.332031 176.984375 276.332031 176.058594 C 276.332031 175.136719 277.082031 174.386719 278.007812 174.386719 L 288.84375 174.386719 C 289.769531 174.386719 290.519531 175.136719 290.519531 176.058594 C 290.519531 176.984375 289.769531 177.730469 288.84375 177.730469 Z M 288.84375 177.730469 " fill-opacity="1" fill-rule="nonzero"/></svg>