<svg xmlns="http://www.w3.org/2000/svg" xmlns:xlink="http://www.w3.org/1999/xlink" width="500" zoomAndPan="magnify" viewBox="0 0 375 374.999991" height="500" preserveAspectRatio="xMidYMid meet" version="1.0"><defs><clipPath id="5597efd9cb"><path d="M 1 20 L 374 20 L 374 355.171875 L 1 355.171875 Z M 1 20 " clip-rule="nonzero"/></clipPath><clipPath id="c659d2797d"><path d="M 34 118.085938 L 173 118.085938 L 173 257 L 34 257 Z M 34 118.085938 " clip-rule="nonzero"/></clipPath><clipPath id="8ca0a733b3"><path d="M 66 134 L 141 134 L 141 242 L 66 242 Z M 66 134 " clip-rule="nonzero"/></clipPath><clipPath id="10d1d51a55"><path d="M 126.25 241.070312 L 70.769531 241.070312 C 68.363281 241.070312 66.601562 239.125 66.832031 236.722656 L 76.304688 138.441406 C 76.535156 136.039062 78.671875 134.09375 81.078125 134.09375 L 136.558594 134.09375 C 138.964844 134.09375 140.730469 136.039062 140.496094 138.441406 L 131.027344 236.722656 C 130.796875 239.125 128.65625 241.070312 126.25 241.070312 Z M 126.25 241.070312 " clip-rule="nonzero"/></clipPath><linearGradient x1="1902.117675" gradientTransform="matrix(0.0396182, 0, 0, 0.0395229, 25.228975, 118.084957)" y1="233.825503" x2="2493.217539" gradientUnits="userSpaceOnUse" y2="3196.000526" id="f1bfa3181b"><stop stop-opacity="1" stop-color="rgb(95.503235%, 97.055054%, 100%)" offset="0"/><stop stop-opacity="1" stop-color="rgb(95.352173%, 96.955872%, 100%)" offset="0.015625"/><stop stop-opacity="1" stop-color="rgb(95.051575%, 96.759033%, 100%)" offset="0.03125"/><stop stop-opacity="1" stop-color="rgb(94.749451%, 96.562195%, 100%)" offset="0.046875"/><stop stop-opacity="1" stop-color="rgb(94.447327%, 96.363831%, 100%)" offset="0.0625"/><stop stop-opacity="1" stop-color="rgb(94.146729%, 96.166992%, 100%)" offset="0.078125"/><stop stop-opacity="1" stop-color="rgb(93.844604%, 95.968628%, 100%)" offset="0.09375"/><stop stop-opacity="1" stop-color="rgb(93.54248%, 95.77179%, 100%)" offset="0.109375"/><stop stop-opacity="1" stop-color="rgb(93.241882%, 95.574951%, 100%)" offset="0.121219"/><stop stop-opacity="1" stop-color="rgb(93.09082%, 95.475769%, 100%)" offset="0.125"/><stop stop-opacity="1" stop-color="rgb(92.939758%, 95.376587%, 100%)" offset="0.140625"/><stop stop-opacity="1" stop-color="rgb(92.63916%, 95.179749%, 100%)" offset="0.15625"/><stop stop-opacity="1" stop-color="rgb(92.337036%, 94.981384%, 100%)" offset="0.171875"/><stop stop-opacity="1" stop-color="rgb(92.034912%, 94.784546%, 100%)" offset="0.1875"/><stop stop-opacity="1" stop-color="rgb(91.734314%, 94.587708%, 100%)" offset="0.203125"/><stop stop-opacity="1" stop-color="rgb(91.43219%, 94.389343%, 100%)" offset="0.21875"/><stop stop-opacity="1" stop-color="rgb(91.130066%, 94.192505%, 100%)" offset="0.234375"/><stop stop-opacity="1" stop-color="rgb(90.829468%, 93.994141%, 100%)" offset="0.25"/><stop stop-opacity="1" stop-color="rgb(90.527344%, 93.797302%, 100%)" offset="0.265625"/><stop stop-opacity="1" stop-color="rgb(90.226746%, 93.600464%, 100%)" offset="0.28125"/><stop stop-opacity="1" stop-color="rgb(89.924622%, 93.4021%, 100%)" offset="0.296875"/><stop stop-opacity="1" stop-color="rgb(89.622498%, 93.205261%, 100%)" offset="0.3125"/><stop stop-opacity="1" stop-color="rgb(89.321899%, 93.006897%, 100%)" offset="0.328125"/><stop stop-opacity="1" stop-color="rgb(89.019775%, 92.810059%, 100%)" offset="0.34375"/><stop stop-opacity="1" stop-color="rgb(88.717651%, 92.61322%, 100%)" offset="0.359375"/><stop stop-opacity="1" stop-color="rgb(88.417053%, 92.414856%, 100%)" offset="0.375"/><stop stop-opacity="1" stop-color="rgb(88.114929%, 92.218018%, 100%)" offset="0.390625"/><stop stop-opacity="1" stop-color="rgb(87.814331%, 92.019653%, 100%)" offset="0.40625"/><stop stop-opacity="1" stop-color="rgb(87.512207%, 91.822815%, 100%)" offset="0.421875"/><stop stop-opacity="1" stop-color="rgb(87.210083%, 91.625977%, 100%)" offset="0.4375"/><stop stop-opacity="1" stop-color="rgb(86.909485%, 91.427612%, 100%)" offset="0.453125"/><stop stop-opacity="1" stop-color="rgb(86.607361%, 91.230774%, 100%)" offset="0.46875"/><stop stop-opacity="1" stop-color="rgb(86.305237%, 91.03241%, 100%)" offset="0.484375"/><stop stop-opacity="1" stop-color="rgb(86.004639%, 90.835571%, 100%)" offset="0.5"/><stop stop-opacity="1" stop-color="rgb(85.702515%, 90.638733%, 100%)" offset="0.515625"/><stop stop-opacity="1" stop-color="rgb(85.401917%, 90.440369%, 100%)" offset="0.53125"/><stop stop-opacity="1" stop-color="rgb(85.099792%, 90.24353%, 100%)" offset="0.546875"/><stop stop-opacity="1" stop-color="rgb(84.797668%, 90.045166%, 100%)" offset="0.5625"/><stop stop-opacity="1" stop-color="rgb(84.49707%, 89.848328%, 100%)" offset="0.578125"/><stop stop-opacity="1" stop-color="rgb(84.194946%, 89.651489%, 100%)" offset="0.59375"/><stop stop-opacity="1" stop-color="rgb(83.892822%, 89.453125%, 100%)" offset="0.609375"/><stop stop-opacity="1" stop-color="rgb(83.592224%, 89.256287%, 100%)" offset="0.625"/><stop stop-opacity="1" stop-color="rgb(83.2901%, 89.057922%, 100%)" offset="0.640625"/><stop stop-opacity="1" stop-color="rgb(82.989502%, 88.861084%, 100%)" offset="0.65625"/><stop stop-opacity="1" stop-color="rgb(82.687378%, 88.664246%, 100%)" offset="0.671875"/><stop stop-opacity="1" stop-color="rgb(82.385254%, 88.465881%, 100%)" offset="0.6875"/><stop stop-opacity="1" stop-color="rgb(82.084656%, 88.269043%, 100%)" offset="0.703125"/><stop stop-opacity="1" stop-color="rgb(81.782532%, 88.070679%, 100%)" offset="0.71875"/><stop stop-opacity="1" stop-color="rgb(81.480408%, 87.87384%, 100%)" offset="0.734375"/><stop stop-opacity="1" stop-color="rgb(81.17981%, 87.677002%, 100%)" offset="0.75"/><stop stop-opacity="1" stop-color="rgb(80.877686%, 87.478638%, 100%)" offset="0.765625"/><stop stop-opacity="1" stop-color="rgb(80.577087%, 87.281799%, 100%)" offset="0.78125"/><stop stop-opacity="1" stop-color="rgb(80.274963%, 87.083435%, 100%)" offset="0.796875"/><stop stop-opacity="1" stop-color="rgb(79.972839%, 86.886597%, 100%)" offset="0.8125"/><stop stop-opacity="1" stop-color="rgb(79.672241%, 86.689758%, 100%)" offset="0.828125"/><stop stop-opacity="1" stop-color="rgb(79.370117%, 86.491394%, 100%)" offset="0.84375"/><stop stop-opacity="1" stop-color="rgb(79.067993%, 86.294556%, 100%)" offset="0.859375"/><stop stop-opacity="1" stop-color="rgb(78.767395%, 86.096191%, 100%)" offset="0.875"/><stop stop-opacity="1" stop-color="rgb(78.465271%, 85.899353%, 100%)" offset="0.878781"/><stop stop-opacity="1" stop-color="rgb(78.315735%, 85.801697%, 100%)" offset="0.890625"/><stop stop-opacity="1" stop-color="rgb(78.164673%, 85.702515%, 100%)" offset="0.90625"/><stop stop-opacity="1" stop-color="rgb(77.862549%, 85.50415%, 100%)" offset="0.921875"/><stop stop-opacity="1" stop-color="rgb(77.560425%, 85.307312%, 100%)" offset="0.9375"/><stop stop-opacity="1" stop-color="rgb(77.259827%, 85.110474%, 100%)" offset="0.953125"/><stop stop-opacity="1" stop-color="rgb(76.957703%, 84.912109%, 100%)" offset="0.96875"/><stop stop-opacity="1" stop-color="rgb(76.655579%, 84.715271%, 100%)" offset="0.984375"/><stop stop-opacity="1" stop-color="rgb(76.35498%, 84.516907%, 100%)" offset="1"/></linearGradient><clipPath id="ebd02d6f20"><path d="M 72 143 L 134 143 L 134 180 L 72 180 Z M 72 143 " clip-rule="nonzero"/></clipPath><clipPath id="702094f4f3"><path d="M 128.207031 179.386719 L 73.878906 179.339844 C 73.660156 179.34375 73.4375 179.304688 73.234375 179.21875 C 73.027344 179.132812 72.84375 179.003906 72.695312 178.839844 C 72.542969 178.679688 72.429688 178.488281 72.359375 178.277344 C 72.289062 178.066406 72.261719 177.84375 72.285156 177.625 L 75.214844 145.179688 C 75.269531 144.710938 75.492188 144.277344 75.839844 143.960938 C 76.191406 143.648438 76.648438 143.472656 77.117188 143.464844 L 131.445312 143.515625 C 131.667969 143.507812 131.890625 143.550781 132.09375 143.636719 C 132.296875 143.722656 132.484375 143.851562 132.632812 144.011719 C 132.785156 144.175781 132.898438 144.367188 132.96875 144.578125 C 133.039062 144.789062 133.066406 145.011719 133.042969 145.230469 L 130.113281 177.675781 C 130.058594 178.144531 129.835938 178.574219 129.484375 178.890625 C 129.136719 179.207031 128.679688 179.382812 128.207031 179.386719 Z M 128.207031 179.386719 " clip-rule="nonzero"/></clipPath><linearGradient x1="1913.48171" gradientTransform="matrix(0.0396182, 0, 0, 0.0395229, 25.228975, 118.084957)" y1="595.536735" x2="1977.934077" gradientUnits="userSpaceOnUse" y2="1598.850464" id="17805b2eed"><stop stop-opacity="1" stop-color="rgb(100%, 100%, 100%)" offset="0"/><stop stop-opacity="1" stop-color="rgb(100%, 100%, 100%)" offset="0.03125"/><stop stop-opacity="1" stop-color="rgb(99.972534%, 99.981689%, 100%)" offset="0.046875"/><stop stop-opacity="1" stop-color="rgb(99.77417%, 99.85199%, 100%)" offset="0.0625"/><stop stop-opacity="1" stop-color="rgb(99.435425%, 99.629211%, 100%)" offset="0.078125"/><stop stop-opacity="1" stop-color="rgb(99.09668%, 99.407959%, 100%)" offset="0.09375"/><stop stop-opacity="1" stop-color="rgb(98.757935%, 99.185181%, 100%)" offset="0.0978576"/><stop stop-opacity="1" stop-color="rgb(98.588562%, 99.075317%, 100%)" offset="0.109375"/><stop stop-opacity="1" stop-color="rgb(98.417664%, 98.963928%, 100%)" offset="0.125"/><stop stop-opacity="1" stop-color="rgb(98.078918%, 98.74115%, 100%)" offset="0.140625"/><stop stop-opacity="1" stop-color="rgb(97.740173%, 98.519897%, 100%)" offset="0.15625"/><stop stop-opacity="1" stop-color="rgb(97.401428%, 98.297119%, 100%)" offset="0.171875"/><stop stop-opacity="1" stop-color="rgb(97.061157%, 98.075867%, 100%)" offset="0.1875"/><stop stop-opacity="1" stop-color="rgb(96.722412%, 97.853088%, 100%)" offset="0.203125"/><stop stop-opacity="1" stop-color="rgb(96.383667%, 97.631836%, 100%)" offset="0.21875"/><stop stop-opacity="1" stop-color="rgb(96.044922%, 97.409058%, 100%)" offset="0.234375"/><stop stop-opacity="1" stop-color="rgb(95.704651%, 97.187805%, 100%)" offset="0.25"/><stop stop-opacity="1" stop-color="rgb(95.365906%, 96.965027%, 100%)" offset="0.265625"/><stop stop-opacity="1" stop-color="rgb(95.027161%, 96.743774%, 100%)" offset="0.28125"/><stop stop-opacity="1" stop-color="rgb(94.688416%, 96.520996%, 100%)" offset="0.296875"/><stop stop-opacity="1" stop-color="rgb(94.34967%, 96.299744%, 100%)" offset="0.3125"/><stop stop-opacity="1" stop-color="rgb(94.009399%, 96.076965%, 100%)" offset="0.328125"/><stop stop-opacity="1" stop-color="rgb(93.670654%, 95.855713%, 100%)" offset="0.34375"/><stop stop-opacity="1" stop-color="rgb(93.331909%, 95.632935%, 100%)" offset="0.359375"/><stop stop-opacity="1" stop-color="rgb(92.993164%, 95.411682%, 100%)" offset="0.375"/><stop stop-opacity="1" stop-color="rgb(92.652893%, 95.188904%, 100%)" offset="0.390625"/><stop stop-opacity="1" stop-color="rgb(92.314148%, 94.967651%, 100%)" offset="0.40625"/><stop stop-opacity="1" stop-color="rgb(91.975403%, 94.744873%, 100%)" offset="0.421875"/><stop stop-opacity="1" stop-color="rgb(91.636658%, 94.523621%, 100%)" offset="0.4375"/><stop stop-opacity="1" stop-color="rgb(91.296387%, 94.300842%, 100%)" offset="0.453125"/><stop stop-opacity="1" stop-color="rgb(90.957642%, 94.07959%, 100%)" offset="0.46875"/><stop stop-opacity="1" stop-color="rgb(90.618896%, 93.856812%, 100%)" offset="0.484375"/><stop stop-opacity="1" stop-color="rgb(90.280151%, 93.635559%, 100%)" offset="0.5"/><stop stop-opacity="1" stop-color="rgb(89.93988%, 93.412781%, 100%)" offset="0.515625"/><stop stop-opacity="1" stop-color="rgb(89.601135%, 93.191528%, 100%)" offset="0.53125"/><stop stop-opacity="1" stop-color="rgb(89.26239%, 92.96875%, 100%)" offset="0.546875"/><stop stop-opacity="1" stop-color="rgb(88.923645%, 92.747498%, 100%)" offset="0.5625"/><stop stop-opacity="1" stop-color="rgb(88.583374%, 92.524719%, 100%)" offset="0.578125"/><stop stop-opacity="1" stop-color="rgb(88.244629%, 92.303467%, 100%)" offset="0.59375"/><stop stop-opacity="1" stop-color="rgb(87.905884%, 92.080688%, 100%)" offset="0.609375"/><stop stop-opacity="1" stop-color="rgb(87.567139%, 91.859436%, 100%)" offset="0.625"/><stop stop-opacity="1" stop-color="rgb(87.228394%, 91.636658%, 100%)" offset="0.640625"/><stop stop-opacity="1" stop-color="rgb(86.888123%, 91.413879%, 100%)" offset="0.65625"/><stop stop-opacity="1" stop-color="rgb(86.549377%, 91.192627%, 100%)" offset="0.671875"/><stop stop-opacity="1" stop-color="rgb(86.210632%, 90.969849%, 100%)" offset="0.6875"/><stop stop-opacity="1" stop-color="rgb(85.871887%, 90.748596%, 100%)" offset="0.703125"/><stop stop-opacity="1" stop-color="rgb(85.531616%, 90.525818%, 100%)" offset="0.71875"/><stop stop-opacity="1" stop-color="rgb(85.192871%, 90.304565%, 100%)" offset="0.734375"/><stop stop-opacity="1" stop-color="rgb(84.854126%, 90.081787%, 100%)" offset="0.75"/><stop stop-opacity="1" stop-color="rgb(84.515381%, 89.860535%, 100%)" offset="0.765625"/><stop stop-opacity="1" stop-color="rgb(84.17511%, 89.637756%, 100%)" offset="0.78125"/><stop stop-opacity="1" stop-color="rgb(83.836365%, 89.416504%, 100%)" offset="0.796875"/><stop stop-opacity="1" stop-color="rgb(83.49762%, 89.193726%, 100%)" offset="0.8125"/><stop stop-opacity="1" stop-color="rgb(83.158875%, 88.972473%, 100%)" offset="0.828125"/><stop stop-opacity="1" stop-color="rgb(82.818604%, 88.749695%, 100%)" offset="0.84375"/><stop stop-opacity="1" stop-color="rgb(82.479858%, 88.528442%, 100%)" offset="0.859375"/><stop stop-opacity="1" stop-color="rgb(82.141113%, 88.305664%, 100%)" offset="0.875"/><stop stop-opacity="1" stop-color="rgb(81.802368%, 88.084412%, 100%)" offset="0.890625"/><stop stop-opacity="1" stop-color="rgb(81.462097%, 87.861633%, 100%)" offset="0.902142"/><stop stop-opacity="1" stop-color="rgb(81.292725%, 87.75177%, 100%)" offset="0.90625"/><stop stop-opacity="1" stop-color="rgb(81.123352%, 87.640381%, 100%)" offset="0.921875"/><stop stop-opacity="1" stop-color="rgb(80.784607%, 87.417603%, 100%)" offset="0.9375"/><stop stop-opacity="1" stop-color="rgb(80.445862%, 87.19635%, 100%)" offset="0.953125"/><stop stop-opacity="1" stop-color="rgb(80.107117%, 86.973572%, 100%)" offset="0.96875"/><stop stop-opacity="1" stop-color="rgb(79.766846%, 86.752319%, 100%)" offset="0.984375"/><stop stop-opacity="1" stop-color="rgb(79.428101%, 86.529541%, 100%)" offset="1"/></linearGradient><clipPath id="2d15388e39"><path d="M 102 182 L 131 182 L 131 215 L 102 215 Z M 102 182 " clip-rule="nonzero"/></clipPath><clipPath id="87f76b2543"><path d="M 126.5 214.347656 L 103.535156 214.347656 C 103.367188 214.351562 103.199219 214.316406 103.042969 214.25 C 102.886719 214.183594 102.746094 214.082031 102.632812 213.957031 C 102.519531 213.832031 102.4375 213.683594 102.382812 213.523438 C 102.332031 213.363281 102.316406 213.191406 102.335938 213.023438 L 105.125 184.089844 C 105.164062 183.730469 105.335938 183.398438 105.601562 183.15625 C 105.871094 182.914062 106.21875 182.773438 106.578125 182.765625 L 129.542969 182.765625 C 129.710938 182.765625 129.878906 182.796875 130.035156 182.863281 C 130.191406 182.929688 130.328125 183.03125 130.441406 183.15625 C 130.554688 183.28125 130.640625 183.429688 130.691406 183.589844 C 130.742188 183.75 130.757812 183.921875 130.738281 184.089844 L 127.949219 213.023438 C 127.910156 213.382812 127.742188 213.714844 127.472656 213.957031 C 127.207031 214.203125 126.859375 214.339844 126.5 214.347656 Z M 126.5 214.347656 " clip-rule="nonzero"/></clipPath><linearGradient x1="2282.193316" gradientTransform="matrix(0.0396182, 0, 0, 0.0395229, 25.228975, 118.084957)" y1="1595.862958" x2="2387.640884" gradientUnits="userSpaceOnUse" y2="2469.01759" id="0f804e6346"><stop stop-opacity="1" stop-color="rgb(100%, 100%, 100%)" offset="0"/><stop stop-opacity="1" stop-color="rgb(100%, 100%, 100%)" offset="0.03125"/><stop stop-opacity="1" stop-color="rgb(99.972534%, 99.981689%, 100%)" offset="0.046875"/><stop stop-opacity="1" stop-color="rgb(99.777222%, 99.853516%, 100%)" offset="0.0625"/><stop stop-opacity="1" stop-color="rgb(99.436951%, 99.630737%, 100%)" offset="0.078125"/><stop stop-opacity="1" stop-color="rgb(99.098206%, 99.409485%, 100%)" offset="0.09375"/><stop stop-opacity="1" stop-color="rgb(98.75946%, 99.186707%, 100%)" offset="0.0978669"/><stop stop-opacity="1" stop-color="rgb(98.590088%, 99.076843%, 100%)" offset="0.109375"/><stop stop-opacity="1" stop-color="rgb(98.419189%, 98.965454%, 100%)" offset="0.125"/><stop stop-opacity="1" stop-color="rgb(98.080444%, 98.742676%, 100%)" offset="0.140625"/><stop stop-opacity="1" stop-color="rgb(97.741699%, 98.521423%, 100%)" offset="0.15625"/><stop stop-opacity="1" stop-color="rgb(97.402954%, 98.298645%, 100%)" offset="0.171875"/><stop stop-opacity="1" stop-color="rgb(97.062683%, 98.077393%, 100%)" offset="0.1875"/><stop stop-opacity="1" stop-color="rgb(96.723938%, 97.854614%, 100%)" offset="0.203125"/><stop stop-opacity="1" stop-color="rgb(96.385193%, 97.631836%, 100%)" offset="0.21875"/><stop stop-opacity="1" stop-color="rgb(96.044922%, 97.410583%, 100%)" offset="0.234375"/><stop stop-opacity="1" stop-color="rgb(95.706177%, 97.187805%, 100%)" offset="0.25"/><stop stop-opacity="1" stop-color="rgb(95.367432%, 96.966553%, 100%)" offset="0.265625"/><stop stop-opacity="1" stop-color="rgb(95.028687%, 96.743774%, 100%)" offset="0.28125"/><stop stop-opacity="1" stop-color="rgb(94.688416%, 96.522522%, 100%)" offset="0.296875"/><stop stop-opacity="1" stop-color="rgb(94.34967%, 96.299744%, 100%)" offset="0.3125"/><stop stop-opacity="1" stop-color="rgb(94.010925%, 96.078491%, 100%)" offset="0.328125"/><stop stop-opacity="1" stop-color="rgb(93.670654%, 95.855713%, 100%)" offset="0.34375"/><stop stop-opacity="1" stop-color="rgb(93.331909%, 95.63446%, 100%)" offset="0.359375"/><stop stop-opacity="1" stop-color="rgb(92.993164%, 95.411682%, 100%)" offset="0.375"/><stop stop-opacity="1" stop-color="rgb(92.654419%, 95.188904%, 100%)" offset="0.390625"/><stop stop-opacity="1" stop-color="rgb(92.314148%, 94.967651%, 100%)" offset="0.40625"/><stop stop-opacity="1" stop-color="rgb(91.975403%, 94.744873%, 100%)" offset="0.421875"/><stop stop-opacity="1" stop-color="rgb(91.636658%, 94.523621%, 100%)" offset="0.4375"/><stop stop-opacity="1" stop-color="rgb(91.296387%, 94.300842%, 100%)" offset="0.453125"/><stop stop-opacity="1" stop-color="rgb(90.957642%, 94.07959%, 100%)" offset="0.46875"/><stop stop-opacity="1" stop-color="rgb(90.618896%, 93.856812%, 100%)" offset="0.484375"/><stop stop-opacity="1" stop-color="rgb(90.280151%, 93.635559%, 100%)" offset="0.5"/><stop stop-opacity="1" stop-color="rgb(89.93988%, 93.412781%, 100%)" offset="0.515625"/><stop stop-opacity="1" stop-color="rgb(89.601135%, 93.191528%, 100%)" offset="0.53125"/><stop stop-opacity="1" stop-color="rgb(89.26239%, 92.96875%, 100%)" offset="0.546875"/><stop stop-opacity="1" stop-color="rgb(88.922119%, 92.745972%, 100%)" offset="0.5625"/><stop stop-opacity="1" stop-color="rgb(88.583374%, 92.524719%, 100%)" offset="0.578125"/><stop stop-opacity="1" stop-color="rgb(88.244629%, 92.301941%, 100%)" offset="0.59375"/><stop stop-opacity="1" stop-color="rgb(87.905884%, 92.080688%, 100%)" offset="0.609375"/><stop stop-opacity="1" stop-color="rgb(87.565613%, 91.85791%, 100%)" offset="0.625"/><stop stop-opacity="1" stop-color="rgb(87.226868%, 91.636658%, 100%)" offset="0.640625"/><stop stop-opacity="1" stop-color="rgb(86.888123%, 91.413879%, 100%)" offset="0.65625"/><stop stop-opacity="1" stop-color="rgb(86.547852%, 91.192627%, 100%)" offset="0.671875"/><stop stop-opacity="1" stop-color="rgb(86.209106%, 90.969849%, 100%)" offset="0.6875"/><stop stop-opacity="1" stop-color="rgb(85.870361%, 90.748596%, 100%)" offset="0.703125"/><stop stop-opacity="1" stop-color="rgb(85.531616%, 90.525818%, 100%)" offset="0.71875"/><stop stop-opacity="1" stop-color="rgb(85.191345%, 90.30304%, 100%)" offset="0.734375"/><stop stop-opacity="1" stop-color="rgb(84.8526%, 90.081787%, 100%)" offset="0.75"/><stop stop-opacity="1" stop-color="rgb(84.513855%, 89.859009%, 100%)" offset="0.765625"/><stop stop-opacity="1" stop-color="rgb(84.173584%, 89.637756%, 100%)" offset="0.78125"/><stop stop-opacity="1" stop-color="rgb(83.834839%, 89.414978%, 100%)" offset="0.796875"/><stop stop-opacity="1" stop-color="rgb(83.496094%, 89.193726%, 100%)" offset="0.8125"/><stop stop-opacity="1" stop-color="rgb(83.157349%, 88.970947%, 100%)" offset="0.828125"/><stop stop-opacity="1" stop-color="rgb(82.817078%, 88.749695%, 100%)" offset="0.84375"/><stop stop-opacity="1" stop-color="rgb(82.478333%, 88.526917%, 100%)" offset="0.859375"/><stop stop-opacity="1" stop-color="rgb(82.139587%, 88.305664%, 100%)" offset="0.875"/><stop stop-opacity="1" stop-color="rgb(81.799316%, 88.082886%, 100%)" offset="0.890625"/><stop stop-opacity="1" stop-color="rgb(81.460571%, 87.860107%, 100%)" offset="0.902133"/><stop stop-opacity="1" stop-color="rgb(81.291199%, 87.750244%, 100%)" offset="0.90625"/><stop stop-opacity="1" stop-color="rgb(81.121826%, 87.638855%, 100%)" offset="0.921875"/><stop stop-opacity="1" stop-color="rgb(80.783081%, 87.416077%, 100%)" offset="0.9375"/><stop stop-opacity="1" stop-color="rgb(80.44281%, 87.194824%, 100%)" offset="0.953125"/><stop stop-opacity="1" stop-color="rgb(80.104065%, 86.972046%, 100%)" offset="0.96875"/><stop stop-opacity="1" stop-color="rgb(79.76532%, 86.750793%, 100%)" offset="0.984375"/><stop stop-opacity="1" stop-color="rgb(79.425049%, 86.528015%, 100%)" offset="1"/></linearGradient><clipPath id="1c3baa5e14"><path d="M 72 216 L 128 216 L 128 236 L 72 236 Z M 72 216 " clip-rule="nonzero"/></clipPath><clipPath id="56656a3f0c"><path d="M 124.574219 235.042969 L 73.390625 235.042969 C 73.230469 235.046875 73.070312 235.015625 72.921875 234.949219 C 72.777344 234.886719 72.644531 234.792969 72.535156 234.671875 C 72.429688 234.554688 72.347656 234.414062 72.300781 234.261719 C 72.25 234.109375 72.234375 233.949219 72.253906 233.789062 L 73.78125 217.9375 C 73.820312 217.597656 73.980469 217.285156 74.234375 217.054688 C 74.488281 216.824219 74.816406 216.691406 75.160156 216.683594 L 126.34375 216.683594 C 126.503906 216.683594 126.660156 216.714844 126.808594 216.777344 C 126.957031 216.839844 127.089844 216.933594 127.195312 217.054688 C 127.304688 217.171875 127.382812 217.3125 127.433594 217.464844 C 127.480469 217.617188 127.496094 217.78125 127.476562 217.9375 L 125.949219 233.789062 C 125.910156 234.128906 125.75 234.441406 125.5 234.675781 C 125.246094 234.90625 124.914062 235.035156 124.574219 235.042969 Z M 124.574219 235.042969 " clip-rule="nonzero"/></clipPath><linearGradient x1="1848.373725" gradientTransform="matrix(0.0396182, 0, 0, 0.0395229, 25.228975, 118.084957)" y1="2470.783533" x2="1866.950508" gradientUnits="userSpaceOnUse" y2="2985.103075" id="bcaadfe8e0"><stop stop-opacity="0.4" stop-color="rgb(100%, 100%, 100%)" offset="0"/><stop stop-opacity="0.4" stop-color="rgb(100%, 100%, 100%)" offset="0.03125"/><stop stop-opacity="0.4" stop-color="rgb(99.972534%, 99.981689%, 100%)" offset="0.046875"/><stop stop-opacity="0.4" stop-color="rgb(99.777222%, 99.853516%, 100%)" offset="0.0625"/><stop stop-opacity="0.4" stop-color="rgb(99.438477%, 99.632263%, 100%)" offset="0.078125"/><stop stop-opacity="0.4" stop-color="rgb(99.099731%, 99.409485%, 100%)" offset="0.09375"/><stop stop-opacity="0.4" stop-color="rgb(98.75946%, 99.188232%, 100%)" offset="0.0978279"/><stop stop-opacity="0.4" stop-color="rgb(98.590088%, 99.076843%, 100%)" offset="0.109375"/><stop stop-opacity="0.4" stop-color="rgb(98.420715%, 98.965454%, 100%)" offset="0.125"/><stop stop-opacity="0.4" stop-color="rgb(98.08197%, 98.742676%, 100%)" offset="0.140625"/><stop stop-opacity="0.4" stop-color="rgb(97.741699%, 98.521423%, 100%)" offset="0.15625"/><stop stop-opacity="0.4" stop-color="rgb(97.402954%, 98.298645%, 100%)" offset="0.171875"/><stop stop-opacity="0.4" stop-color="rgb(97.064209%, 98.077393%, 100%)" offset="0.1875"/><stop stop-opacity="0.4" stop-color="rgb(96.723938%, 97.854614%, 100%)" offset="0.203125"/><stop stop-opacity="0.4" stop-color="rgb(96.385193%, 97.633362%, 100%)" offset="0.21875"/><stop stop-opacity="0.4" stop-color="rgb(96.046448%, 97.410583%, 100%)" offset="0.234375"/><stop stop-opacity="0.4" stop-color="rgb(95.706177%, 97.189331%, 100%)" offset="0.25"/><stop stop-opacity="0.4" stop-color="rgb(95.367432%, 96.966553%, 100%)" offset="0.265625"/><stop stop-opacity="0.4" stop-color="rgb(95.028687%, 96.743774%, 100%)" offset="0.28125"/><stop stop-opacity="0.4" stop-color="rgb(94.689941%, 96.522522%, 100%)" offset="0.296875"/><stop stop-opacity="0.4" stop-color="rgb(94.34967%, 96.299744%, 100%)" offset="0.3125"/><stop stop-opacity="0.4" stop-color="rgb(94.010925%, 96.078491%, 100%)" offset="0.328125"/><stop stop-opacity="0.4" stop-color="rgb(93.67218%, 95.855713%, 100%)" offset="0.34375"/><stop stop-opacity="0.4" stop-color="rgb(93.331909%, 95.63446%, 100%)" offset="0.359375"/><stop stop-opacity="0.4" stop-color="rgb(92.993164%, 95.411682%, 100%)" offset="0.375"/><stop stop-opacity="0.4" stop-color="rgb(92.654419%, 95.19043%, 100%)" offset="0.390625"/><stop stop-opacity="0.4" stop-color="rgb(92.314148%, 94.967651%, 100%)" offset="0.40625"/><stop stop-opacity="0.4" stop-color="rgb(91.975403%, 94.744873%, 100%)" offset="0.421875"/><stop stop-opacity="0.4" stop-color="rgb(91.636658%, 94.523621%, 100%)" offset="0.4375"/><stop stop-opacity="0.4" stop-color="rgb(91.297913%, 94.300842%, 100%)" offset="0.453125"/><stop stop-opacity="0.4" stop-color="rgb(90.957642%, 94.07959%, 100%)" offset="0.46875"/><stop stop-opacity="0.4" stop-color="rgb(90.618896%, 93.856812%, 100%)" offset="0.484375"/><stop stop-opacity="0.4" stop-color="rgb(90.280151%, 93.635559%, 100%)" offset="0.5"/><stop stop-opacity="0.4" stop-color="rgb(89.93988%, 93.412781%, 100%)" offset="0.515625"/><stop stop-opacity="0.4" stop-color="rgb(89.601135%, 93.191528%, 100%)" offset="0.53125"/><stop stop-opacity="0.4" stop-color="rgb(89.26239%, 92.96875%, 100%)" offset="0.546875"/><stop stop-opacity="0.4" stop-color="rgb(88.922119%, 92.745972%, 100%)" offset="0.5625"/><stop stop-opacity="0.4" stop-color="rgb(88.583374%, 92.524719%, 100%)" offset="0.578125"/><stop stop-opacity="0.4" stop-color="rgb(88.244629%, 92.301941%, 100%)" offset="0.59375"/><stop stop-opacity="0.4" stop-color="rgb(87.905884%, 92.080688%, 100%)" offset="0.609375"/><stop stop-opacity="0.4" stop-color="rgb(87.565613%, 91.85791%, 100%)" offset="0.625"/><stop stop-opacity="0.4" stop-color="rgb(87.226868%, 91.636658%, 100%)" offset="0.640625"/><stop stop-opacity="0.4" stop-color="rgb(86.888123%, 91.413879%, 100%)" offset="0.65625"/><stop stop-opacity="0.4" stop-color="rgb(86.547852%, 91.192627%, 100%)" offset="0.671875"/><stop stop-opacity="0.4" stop-color="rgb(86.209106%, 90.969849%, 100%)" offset="0.6875"/><stop stop-opacity="0.4" stop-color="rgb(85.870361%, 90.74707%, 100%)" offset="0.703125"/><stop stop-opacity="0.4" stop-color="rgb(85.53009%, 90.525818%, 100%)" offset="0.71875"/><stop stop-opacity="0.4" stop-color="rgb(85.191345%, 90.30304%, 100%)" offset="0.734375"/><stop stop-opacity="0.4" stop-color="rgb(84.8526%, 90.081787%, 100%)" offset="0.75"/><stop stop-opacity="0.4" stop-color="rgb(84.513855%, 89.859009%, 100%)" offset="0.765625"/><stop stop-opacity="0.4" stop-color="rgb(84.173584%, 89.637756%, 100%)" offset="0.78125"/><stop stop-opacity="0.4" stop-color="rgb(83.834839%, 89.414978%, 100%)" offset="0.796875"/><stop stop-opacity="0.4" stop-color="rgb(83.496094%, 89.193726%, 100%)" offset="0.8125"/><stop stop-opacity="0.4" stop-color="rgb(83.155823%, 88.970947%, 100%)" offset="0.828125"/><stop stop-opacity="0.4" stop-color="rgb(82.817078%, 88.748169%, 100%)" offset="0.84375"/><stop stop-opacity="0.4" stop-color="rgb(82.478333%, 88.526917%, 100%)" offset="0.859375"/><stop stop-opacity="0.4" stop-color="rgb(82.138062%, 88.304138%, 100%)" offset="0.875"/><stop stop-opacity="0.4" stop-color="rgb(81.799316%, 88.082886%, 100%)" offset="0.890625"/><stop stop-opacity="0.4" stop-color="rgb(81.460571%, 87.860107%, 100%)" offset="0.902172"/><stop stop-opacity="0.4" stop-color="rgb(81.291199%, 87.750244%, 100%)" offset="0.90625"/><stop stop-opacity="0.4" stop-color="rgb(81.121826%, 87.638855%, 100%)" offset="0.921875"/><stop stop-opacity="0.4" stop-color="rgb(80.781555%, 87.416077%, 100%)" offset="0.9375"/><stop stop-opacity="0.4" stop-color="rgb(80.44281%, 87.194824%, 100%)" offset="0.953125"/><stop stop-opacity="0.4" stop-color="rgb(80.104065%, 86.972046%, 100%)" offset="0.96875"/><stop stop-opacity="0.4" stop-color="rgb(79.763794%, 86.749268%, 100%)" offset="0.984375"/><stop stop-opacity="0.4" stop-color="rgb(79.425049%, 86.528015%, 100%)" offset="1"/></linearGradient><clipPath id="0bc294f82e"><path d="M 45 118.085938 L 117 118.085938 L 117 177 L 45 177 Z M 45 118.085938 " clip-rule="nonzero"/></clipPath><clipPath id="c5a9eae600"><path d="M 25.25 186 L 50 186 L 50 211 L 25.25 211 Z M 25.25 186 " clip-rule="nonzero"/></clipPath><clipPath id="d4a7175a19"><path d="M 130 118.085938 L 176.707031 118.085938 L 176.707031 177 L 130 177 Z M 130 118.085938 " clip-rule="nonzero"/></clipPath><clipPath id="e1486f1f83"><path d="M 155 137 L 166 137 L 166 146 L 155 146 Z M 155 137 " clip-rule="nonzero"/></clipPath><clipPath id="66add36c07"><path d="M 155.335938 137.742188 L 163.511719 145.183594 C 163.511719 145.183594 165.371094 143.1875 165.925781 141.761719 Z M 155.335938 137.742188 " clip-rule="nonzero"/></clipPath><linearGradient x1="3410.29807" gradientTransform="matrix(0.0396182, 0, 0, 0.0395229, 25.228975, 118.084957)" y1="487.730455" x2="3426.135373" gradientUnits="userSpaceOnUse" y2="695.160012" id="c98d287ece"><stop stop-opacity="1" stop-color="rgb(100%, 100%, 100%)" offset="0"/><stop stop-opacity="1" stop-color="rgb(100%, 100%, 100%)" offset="0.03125"/><stop stop-opacity="1" stop-color="rgb(99.971008%, 99.981689%, 100%)" offset="0.046875"/><stop stop-opacity="1" stop-color="rgb(99.77417%, 99.85199%, 100%)" offset="0.0625"/><stop stop-opacity="1" stop-color="rgb(99.435425%, 99.629211%, 100%)" offset="0.078125"/><stop stop-opacity="1" stop-color="rgb(99.095154%, 99.407959%, 100%)" offset="0.09375"/><stop stop-opacity="1" stop-color="rgb(98.756409%, 99.185181%, 100%)" offset="0.0978281"/><stop stop-opacity="1" stop-color="rgb(98.587036%, 99.075317%, 100%)" offset="0.109375"/><stop stop-opacity="1" stop-color="rgb(98.417664%, 98.963928%, 100%)" offset="0.125"/><stop stop-opacity="1" stop-color="rgb(98.078918%, 98.74115%, 100%)" offset="0.140625"/><stop stop-opacity="1" stop-color="rgb(97.740173%, 98.519897%, 100%)" offset="0.15625"/><stop stop-opacity="1" stop-color="rgb(97.399902%, 98.297119%, 100%)" offset="0.171875"/><stop stop-opacity="1" stop-color="rgb(97.061157%, 98.075867%, 100%)" offset="0.1875"/><stop stop-opacity="1" stop-color="rgb(96.722412%, 97.853088%, 100%)" offset="0.203125"/><stop stop-opacity="1" stop-color="rgb(96.383667%, 97.631836%, 100%)" offset="0.21875"/><stop stop-opacity="1" stop-color="rgb(96.043396%, 97.409058%, 100%)" offset="0.234375"/><stop stop-opacity="1" stop-color="rgb(95.704651%, 97.187805%, 100%)" offset="0.25"/><stop stop-opacity="1" stop-color="rgb(95.365906%, 96.965027%, 100%)" offset="0.265625"/><stop stop-opacity="1" stop-color="rgb(95.027161%, 96.743774%, 100%)" offset="0.28125"/><stop stop-opacity="1" stop-color="rgb(94.688416%, 96.520996%, 100%)" offset="0.296875"/><stop stop-opacity="1" stop-color="rgb(94.348145%, 96.299744%, 100%)" offset="0.3125"/><stop stop-opacity="1" stop-color="rgb(94.009399%, 96.076965%, 100%)" offset="0.328125"/><stop stop-opacity="1" stop-color="rgb(93.670654%, 95.855713%, 100%)" offset="0.34375"/><stop stop-opacity="1" stop-color="rgb(93.331909%, 95.632935%, 100%)" offset="0.359375"/><stop stop-opacity="1" stop-color="rgb(92.991638%, 95.411682%, 100%)" offset="0.375"/><stop stop-opacity="1" stop-color="rgb(92.652893%, 95.188904%, 100%)" offset="0.390625"/><stop stop-opacity="1" stop-color="rgb(92.314148%, 94.967651%, 100%)" offset="0.40625"/><stop stop-opacity="1" stop-color="rgb(91.975403%, 94.744873%, 100%)" offset="0.421875"/><stop stop-opacity="1" stop-color="rgb(91.635132%, 94.523621%, 100%)" offset="0.4375"/><stop stop-opacity="1" stop-color="rgb(91.296387%, 94.300842%, 100%)" offset="0.453125"/><stop stop-opacity="1" stop-color="rgb(90.957642%, 94.07959%, 100%)" offset="0.46875"/><stop stop-opacity="1" stop-color="rgb(90.618896%, 93.856812%, 100%)" offset="0.484375"/><stop stop-opacity="1" stop-color="rgb(90.280151%, 93.635559%, 100%)" offset="0.5"/><stop stop-opacity="1" stop-color="rgb(89.93988%, 93.412781%, 100%)" offset="0.515625"/><stop stop-opacity="1" stop-color="rgb(89.601135%, 93.190002%, 100%)" offset="0.53125"/><stop stop-opacity="1" stop-color="rgb(89.26239%, 92.96875%, 100%)" offset="0.546875"/><stop stop-opacity="1" stop-color="rgb(88.923645%, 92.745972%, 100%)" offset="0.5625"/><stop stop-opacity="1" stop-color="rgb(88.583374%, 92.524719%, 100%)" offset="0.578125"/><stop stop-opacity="1" stop-color="rgb(88.244629%, 92.301941%, 100%)" offset="0.59375"/><stop stop-opacity="1" stop-color="rgb(87.905884%, 92.080688%, 100%)" offset="0.609375"/><stop stop-opacity="1" stop-color="rgb(87.567139%, 91.85791%, 100%)" offset="0.625"/><stop stop-opacity="1" stop-color="rgb(87.226868%, 91.636658%, 100%)" offset="0.640625"/><stop stop-opacity="1" stop-color="rgb(86.888123%, 91.413879%, 100%)" offset="0.65625"/><stop stop-opacity="1" stop-color="rgb(86.549377%, 91.192627%, 100%)" offset="0.671875"/><stop stop-opacity="1" stop-color="rgb(86.210632%, 90.969849%, 100%)" offset="0.6875"/><stop stop-opacity="1" stop-color="rgb(85.871887%, 90.748596%, 100%)" offset="0.703125"/><stop stop-opacity="1" stop-color="rgb(85.531616%, 90.525818%, 100%)" offset="0.71875"/><stop stop-opacity="1" stop-color="rgb(85.192871%, 90.304565%, 100%)" offset="0.734375"/><stop stop-opacity="1" stop-color="rgb(84.854126%, 90.081787%, 100%)" offset="0.75"/><stop stop-opacity="1" stop-color="rgb(84.515381%, 89.860535%, 100%)" offset="0.765625"/><stop stop-opacity="1" stop-color="rgb(84.17511%, 89.637756%, 100%)" offset="0.78125"/><stop stop-opacity="1" stop-color="rgb(83.836365%, 89.416504%, 100%)" offset="0.796875"/><stop stop-opacity="1" stop-color="rgb(83.49762%, 89.193726%, 100%)" offset="0.8125"/><stop stop-opacity="1" stop-color="rgb(83.158875%, 88.972473%, 100%)" offset="0.828125"/><stop stop-opacity="1" stop-color="rgb(82.818604%, 88.749695%, 100%)" offset="0.84375"/><stop stop-opacity="1" stop-color="rgb(82.479858%, 88.528442%, 100%)" offset="0.859375"/><stop stop-opacity="1" stop-color="rgb(82.141113%, 88.305664%, 100%)" offset="0.875"/><stop stop-opacity="1" stop-color="rgb(81.802368%, 88.084412%, 100%)" offset="0.890625"/><stop stop-opacity="1" stop-color="rgb(81.463623%, 87.861633%, 100%)" offset="0.902172"/><stop stop-opacity="1" stop-color="rgb(81.29425%, 87.75177%, 100%)" offset="0.90625"/><stop stop-opacity="1" stop-color="rgb(81.123352%, 87.640381%, 100%)" offset="0.921875"/><stop stop-opacity="1" stop-color="rgb(80.784607%, 87.417603%, 100%)" offset="0.9375"/><stop stop-opacity="1" stop-color="rgb(80.445862%, 87.19635%, 100%)" offset="0.953125"/><stop stop-opacity="1" stop-color="rgb(80.107117%, 86.973572%, 100%)" offset="0.96875"/><stop stop-opacity="1" stop-color="rgb(79.766846%, 86.752319%, 100%)" offset="0.984375"/><stop stop-opacity="1" stop-color="rgb(79.428101%, 86.529541%, 100%)" offset="1"/></linearGradient><clipPath id="d6d7a9f288"><path d="M 131 247 L 156 247 L 156 268.011719 L 131 268.011719 Z M 131 247 " clip-rule="nonzero"/></clipPath></defs><g clip-path="url(#5597efd9cb)"><path fill="#02579b" d="M 150.515625 21.433594 C 162.3125 23.5625 171.980469 30 178.921875 39.714844 L 178.96875 39.761719 C 179.246094 40.085938 179.382812 40.5 179.382812 40.917969 C 179.382812 47.257812 179.382812 53.644531 179.382812 59.980469 C 179.382812 87.007812 179.382812 113.988281 179.382812 141.007812 C 179.382812 205.609375 179.382812 270.253906 179.382812 334.851562 L 179.382812 335.320312 C 179.382812 335.828125 179.152344 336.335938 178.738281 336.660156 C 171.378906 342.859375 163.097656 348.273438 154.03125 351.605469 L 154.03125 351.652344 C 153.941406 351.652344 153.894531 351.699219 153.800781 351.699219 C 147.601562 353.964844 141.125 355.167969 134.507812 355.121094 C 117.394531 354.9375 102.449219 346.191406 90.050781 335.039062 L 89.867188 334.902344 L 89.683594 334.902344 C 77.375 337.308594 64.65625 336.523438 53.042969 331.570312 C 44.808594 328.003906 37.546875 322.542969 31.945312 315.558594 C 26.351562 308.664062 22.554688 300.472656 20.753906 291.769531 C 18.484375 280.851562 19.457031 269.5625 23.203125 259.101562 L 23.4375 258.546875 L 22.835938 258.503906 C 22.140625 258.453125 21.445312 258.363281 20.753906 258.316406 L 20.335938 258.273438 C 19.964844 258.226562 19.597656 258.085938 19.316406 257.855469 C 15.015625 254.101562 11.128906 249.894531 8.03125 245.082031 C 2.480469 236.429688 0.0742188 226.710938 1.554688 216.480469 C 2.894531 207.273438 7.335938 198.761719 13.394531 191.773438 C 16.542969 188.117188 20.195312 184.832031 24.222656 182.058594 L 24.5 181.867188 L 24.359375 181.546875 C 21.539062 174.789062 19.179688 167.710938 17.835938 160.492188 C 16.125 151.144531 16.21875 141.101562 20.476562 132.402344 C 24.730469 123.703125 32.226562 117.964844 40.96875 114.171875 C 45.78125 112.089844 50.914062 110.65625 56.097656 109.589844 L 56.511719 109.5 L 56.421875 109.082031 C 54.894531 101.441406 54.988281 93.667969 57.019531 86.175781 C 59.472656 77.242188 64.515625 69.378906 71.316406 63.175781 C 76.683594 58.269531 83.761719 54.011719 90.886719 52.300781 C 93.058594 51.792969 95.417969 51.46875 97.640625 51.605469 L 98.101562 51.652344 L 98.101562 51.238281 C 98.472656 45.359375 101.433594 40.085938 105.320312 35.828125 C 108.003906 32.914062 111.148438 30.457031 114.523438 28.425781 C 114.570312 28.378906 114.570312 28.378906 114.617188 28.328125 L 114.664062 28.328125 C 117.949219 26.339844 121.464844 24.71875 125.117188 23.515625 C 133.214844 20.789062 142.050781 19.90625 150.515625 21.433594 Z M 318.429688 286.589844 C 323.242188 286.589844 327.171875 290.476562 327.171875 295.332031 C 327.171875 300.148438 323.242188 304.082031 318.429688 304.082031 C 313.621094 304.082031 309.6875 300.148438 309.6875 295.332031 C 309.6875 290.476562 313.621094 286.589844 318.429688 286.589844 Z M 235.761719 249.058594 C 240.570312 249.058594 244.503906 252.996094 244.503906 257.808594 C 244.503906 262.621094 240.570312 266.554688 235.761719 266.554688 C 230.949219 266.554688 227.019531 262.621094 227.019531 257.808594 C 227.019531 252.996094 230.949219 249.058594 235.761719 249.058594 Z M 253.757812 299.269531 C 258.617188 299.269531 262.5 303.15625 262.5 308.015625 C 262.5 312.828125 258.617188 316.714844 253.757812 316.714844 C 248.945312 316.714844 245.058594 312.828125 245.058594 308.015625 C 245.058594 303.15625 248.945312 299.269531 253.757812 299.269531 Z M 316.070312 252.019531 C 320.882812 252.019531 324.8125 255.910156 324.8125 260.722656 C 324.8125 265.582031 320.882812 269.46875 316.070312 269.46875 C 311.257812 269.46875 307.328125 265.582031 307.328125 260.722656 C 307.328125 255.910156 311.257812 252.019531 316.070312 252.019531 Z M 310.980469 173.773438 C 315.792969 173.773438 319.726562 177.703125 319.726562 182.515625 C 319.726562 187.332031 315.792969 191.265625 310.980469 191.265625 C 306.125 191.265625 302.238281 187.332031 302.238281 182.515625 C 302.238281 177.703125 306.125 173.773438 310.980469 173.773438 Z M 261.207031 213.941406 C 266.015625 213.941406 269.902344 217.871094 269.902344 222.683594 C 269.902344 227.5 266.015625 231.429688 261.207031 231.429688 C 256.347656 231.429688 252.460938 227.5 252.460938 222.683594 C 252.460938 217.871094 256.347656 213.941406 261.207031 213.941406 Z M 231.320312 129.808594 C 236.132812 129.808594 240.015625 133.695312 240.015625 138.507812 C 240.015625 143.371094 236.132812 147.257812 231.320312 147.257812 C 226.460938 147.257812 222.574219 143.371094 222.574219 138.507812 C 222.574219 133.695312 226.460938 129.808594 231.320312 129.808594 Z M 272.261719 128.515625 C 277.074219 128.515625 281.003906 132.449219 281.003906 137.265625 C 281.003906 142.070312 277.074219 146.007812 272.261719 146.007812 C 267.449219 146.007812 263.515625 142.070312 263.515625 137.265625 C 263.515625 132.449219 267.449219 128.515625 272.261719 128.515625 Z M 286.230469 91.632812 C 291.042969 91.632812 294.929688 95.519531 294.929688 100.378906 C 294.929688 105.191406 291.042969 109.128906 286.230469 109.128906 C 281.375 109.128906 277.492188 105.191406 277.492188 100.378906 C 277.492188 95.519531 281.375 91.632812 286.230469 91.632812 Z M 244.597656 69.75 C 249.410156 69.75 253.339844 73.636719 253.339844 78.492188 C 253.339844 83.304688 249.410156 87.191406 244.597656 87.191406 C 239.785156 87.191406 235.855469 83.304688 235.855469 78.492188 C 235.855469 73.636719 239.785156 69.75 244.597656 69.75 Z M 274.714844 97.558594 C 274.992188 96.398438 275.453125 95.289062 276.101562 94.269531 C 269.300781 90.339844 262.546875 86.359375 255.746094 82.378906 C 255.378906 83.492188 254.820312 84.554688 254.128906 85.480469 C 260.976562 89.507812 267.867188 93.53125 274.714844 97.558594 Z M 243.117188 138.507812 C 248.898438 138.230469 254.683594 137.90625 260.46875 137.632812 C 260.46875 137.492188 260.46875 137.398438 260.46875 137.265625 C 260.46875 136.195312 260.601562 135.132812 260.878906 134.066406 C 254.777344 134.390625 248.667969 134.714844 242.558594 134.992188 C 242.929688 136.148438 243.117188 137.304688 243.117188 138.507812 Z M 247.046875 298.296875 C 248.019531 297.605469 249.085938 297.097656 250.242188 296.722656 C 247.140625 287.28125 243.996094 277.890625 240.894531 268.449219 C 239.835938 268.960938 238.722656 269.328125 237.515625 269.515625 C 240.710938 279.09375 243.855469 288.671875 247.046875 298.296875 Z M 255.46875 233.050781 C 254.453125 232.449219 253.480469 231.753906 252.695312 230.875 C 248.945312 236.429688 245.199219 241.933594 241.449219 247.488281 C 242.515625 248.042969 243.441406 248.78125 244.273438 249.613281 C 248.019531 244.109375 251.769531 238.554688 255.46875 233.050781 Z M 307.558594 268.914062 C 306.726562 268.082031 306.03125 267.109375 305.523438 266.042969 C 291.042969 277.242188 276.566406 288.4375 262.082031 299.59375 C 262.917969 300.425781 263.65625 301.398438 264.210938 302.417969 C 278.648438 291.261719 293.078125 280.109375 307.558594 268.914062 Z M 314.265625 249.058594 C 310.890625 240.40625 307.511719 231.800781 304.136719 223.148438 L 304.089844 223.054688 L 304.136719 222.917969 C 306.40625 213.382812 308.621094 203.851562 310.890625 194.320312 C 309.6875 194.320312 308.53125 194.132812 307.371094 193.761719 C 305.105469 203.433594 302.84375 213.105469 300.574219 222.777344 C 300.484375 223.101562 300.484375 223.472656 300.621094 223.796875 C 304.046875 232.585938 307.464844 241.332031 310.890625 250.125 C 311.953125 249.613281 313.109375 249.246094 314.265625 249.058594 Z M 271.289062 228.792969 C 270.6875 229.8125 269.902344 230.738281 269.023438 231.523438 C 281.234375 239.34375 293.496094 247.164062 305.753906 254.984375 C 306.355469 253.917969 307.050781 252.996094 307.929688 252.207031 C 295.714844 244.386719 283.503906 236.613281 271.289062 228.792969 Z M 284.335938 112.042969 C 283.132812 111.859375 282.019531 111.488281 280.957031 110.929688 C 278.785156 115.835938 276.65625 120.742188 274.527344 125.644531 C 275.6875 125.878906 276.796875 126.292969 277.859375 126.847656 C 279.988281 121.898438 282.160156 116.996094 284.335938 112.042969 Z M 307.464844 298.808594 C 307.09375 297.695312 306.914062 296.496094 306.914062 295.332031 L 265.089844 304.636719 C 265.414062 305.703125 265.597656 306.859375 265.597656 308.015625 C 265.597656 308.015625 265.597656 308.0625 265.597656 308.109375 Z M 289.980469 111.582031 C 301.171875 130.734375 312.324219 149.941406 323.519531 169.097656 L 323.707031 169.421875 L 323.429688 169.652344 C 321.902344 170.996094 320.375 172.382812 318.894531 173.722656 C 319.773438 174.511719 320.511719 175.4375 321.113281 176.457031 C 322.457031 175.25 323.796875 174.046875 325.089844 172.890625 L 325.507812 172.523438 L 325.789062 172.984375 C 326.800781 174.695312 327.777344 176.410156 328.792969 178.167969 C 337.953125 197.511719 347.109375 216.804688 356.273438 236.152344 L 356.363281 236.382812 L 356.226562 236.566406 C 351.785156 242.90625 347.386719 249.246094 342.996094 255.582031 L 342.859375 255.769531 L 342.671875 255.769531 C 337.535156 256.1875 332.402344 256.652344 327.3125 257.070312 C 327.679688 258.226562 327.867188 259.378906 327.867188 260.582031 C 331.707031 260.261719 335.5 259.9375 339.296875 259.609375 L 340.265625 259.519531 L 322.734375 284.644531 C 323.84375 285.109375 324.863281 285.710938 325.789062 286.449219 L 344.800781 259.152344 L 345.03125 259.101562 C 345.910156 259.058594 346.742188 258.960938 347.625 258.871094 L 347.945312 258.871094 L 348.082031 259.152344 C 351.921875 269.328125 353.078125 280.386719 350.859375 291.078125 C 349.148438 299.21875 345.585938 306.859375 340.359375 313.335938 C 338.648438 315.511719 336.75 317.5 334.714844 319.351562 L 334.296875 319.722656 L 325.507812 304.40625 C 324.582031 305.148438 323.566406 305.703125 322.457031 306.117188 L 331.523438 321.941406 L 331.246094 322.175781 C 327.960938 324.625 324.355469 326.707031 320.605469 328.328125 C 309.316406 333.140625 296.875 333.746094 284.980469 331.242188 C 284.425781 331.152344 283.824219 331.292969 283.414062 331.660156 C 271.566406 342.582031 257.042969 351.421875 240.476562 351.605469 C 235.300781 351.652344 230.164062 350.863281 225.214844 349.339844 L 224.613281 349.152344 L 224.980469 348.644531 C 232.617188 338.511719 240.246094 328.378906 247.882812 318.242188 C 246.863281 317.640625 245.9375 316.898438 245.152344 316.066406 C 237.199219 326.570312 229.238281 337.121094 221.328125 347.625 L 221.09375 347.902344 L 220.769531 347.765625 C 213.003906 344.664062 205.785156 339.992188 199.351562 334.625 L 199.167969 334.484375 L 199.167969 334.296875 C 199.167969 311.023438 199.167969 287.746094 199.167969 264.519531 L 199.167969 264.101562 L 199.582031 264.054688 C 207.914062 263.269531 216.238281 262.480469 224.613281 261.695312 C 224.195312 260.582031 224.011719 259.429688 223.964844 258.226562 C 215.867188 259.011719 207.773438 259.753906 199.675781 260.539062 L 199.167969 260.582031 L 199.167969 260.074219 C 199.167969 251.605469 199.167969 243.183594 199.167969 234.714844 L 199.167969 233.511719 L 199.953125 234.4375 C 200.324219 234.855469 200.832031 235.085938 201.386719 235.039062 C 215.960938 234.160156 230.488281 233.328125 245.011719 232.449219 C 245.707031 232.402344 246.308594 231.941406 246.539062 231.292969 C 247.511719 228.699219 248.4375 226.109375 249.410156 223.519531 C 249.363281 223.238281 249.363281 222.960938 249.363281 222.683594 C 249.363281 219.582031 250.566406 216.667969 252.695312 214.449219 C 252.878906 214.03125 253.015625 213.566406 253.203125 213.105469 L 253.617188 211.992188 L 254.035156 213.105469 C 254.035156 213.152344 254.035156 213.195312 254.082031 213.242188 C 255.007812 212.550781 256.070312 211.949219 257.183594 211.578125 C 256.625 210.050781 256.070312 208.570312 255.515625 207.042969 L 255.46875 206.902344 L 255.515625 206.765625 C 257.136719 202.230469 258.800781 197.742188 260.421875 193.253906 L 260.46875 193.160156 L 260.511719 193.117188 C 267.820312 184.691406 275.128906 176.222656 282.4375 167.800781 L 282.667969 167.523438 L 282.996094 167.710938 C 283.316406 167.894531 283.640625 168.078125 284.011719 168.3125 L 284.148438 168.355469 L 284.199219 168.496094 C 286.046875 173.03125 287.945312 177.523438 289.839844 182.007812 L 289.933594 182.238281 L 289.746094 182.472656 C 282.019531 192.328125 274.25 202.230469 266.476562 212.132812 C 267.542969 212.640625 268.515625 213.335938 269.394531 214.167969 C 277.351562 203.988281 285.351562 193.808594 293.355469 183.628906 C 293.726562 183.121094 293.820312 182.382812 293.542969 181.777344 C 292.246094 178.675781 290.949219 175.574219 289.65625 172.476562 L 289.148438 171.273438 L 290.304688 171.964844 C 293.589844 173.863281 296.875 175.761719 300.203125 177.660156 C 300.667969 176.597656 301.3125 175.574219 302.097656 174.695312 C 297.105469 171.828125 292.0625 168.914062 287.0625 165.996094 L 286.925781 165.90625 L 286.878906 165.765625 C 284.242188 159.519531 281.652344 153.226562 279.015625 146.980469 C 278.046875 147.628906 276.980469 148.183594 275.871094 148.554688 C 277.859375 153.367188 279.898438 158.222656 281.882812 163.035156 L 282.070312 163.453125 L 281.652344 163.636719 C 281.375 163.730469 281.09375 163.914062 280.914062 164.148438 L 280.914062 164.191406 C 273.140625 173.167969 265.367188 182.148438 257.59375 191.125 C 257.457031 191.265625 257.367188 191.449219 257.273438 191.679688 C 256.164062 194.6875 255.101562 197.695312 253.988281 200.703125 L 253.574219 201.8125 L 253.15625 200.703125 C 249.316406 190.386719 245.476562 180.066406 241.636719 169.746094 L 241.542969 169.46875 L 241.773438 169.28125 C 249.269531 161.507812 256.765625 153.734375 264.304688 146.007812 C 263.425781 145.171875 262.683594 144.246094 262.082031 143.230469 C 254.175781 151.375 246.308594 159.472656 238.441406 167.617188 L 238.394531 167.664062 L 238.351562 167.664062 C 226.878906 175.019531 215.40625 182.382812 203.980469 189.738281 L 202.453125 190.710938 L 203.332031 189.136719 C 210.917969 175.8125 218.503906 162.480469 226.046875 149.109375 C 224.980469 148.601562 224.011719 147.90625 223.175781 147.070312 C 215.449219 160.675781 207.726562 174.28125 200 187.886719 L 199.167969 189.367188 L 199.167969 187.703125 C 199.167969 172.800781 199.167969 157.855469 199.167969 142.953125 L 199.167969 142.585938 L 199.582031 142.535156 C 206.246094 141.796875 212.953125 141.054688 219.613281 140.359375 C 219.523438 139.761719 219.476562 139.113281 219.476562 138.507812 C 219.476562 137.953125 219.523438 137.355469 219.613281 136.796875 C 215.222656 137.265625 210.828125 137.769531 206.429688 138.230469 L 204.582031 138.417969 L 206.152344 137.445312 C 216.328125 130.828125 226.554688 124.210938 236.730469 117.640625 L 236.730469 117.59375 C 237.199219 117.363281 237.515625 116.949219 237.609375 116.4375 C 239.507812 107.695312 241.402344 98.945312 243.300781 90.199219 C 242.097656 90.0625 240.941406 89.78125 239.875 89.320312 C 238.027344 97.789062 236.175781 106.304688 234.375 114.820312 L 234.328125 115.003906 L 234.191406 115.097656 C 222.714844 122.5 211.289062 129.902344 199.863281 137.304688 L 199.167969 137.769531 L 199.167969 136.9375 C 199.167969 112.367188 199.167969 87.746094 199.167969 63.175781 L 199.167969 62.527344 L 199.769531 62.757812 C 210.917969 66.972656 222.066406 71.179688 233.21875 75.394531 C 233.496094 74.238281 234.003906 73.171875 234.601562 72.15625 C 222.898438 67.710938 211.199219 63.3125 199.445312 58.871094 L 199.167969 58.777344 L 199.167969 58.453125 C 199.167969 52.855469 199.167969 47.210938 199.167969 41.613281 L 199.167969 41.472656 L 199.261719 41.335938 C 205.644531 32.589844 214.484375 26.804688 225.167969 24.90625 C 233.03125 23.472656 241.265625 24.304688 248.808594 26.847656 C 251.675781 27.820312 254.5 29.023438 257.136719 30.503906 L 257.457031 30.691406 L 257.316406 31.011719 C 253.527344 42.910156 249.6875 54.800781 245.847656 66.738281 C 247.046875 66.832031 248.207031 67.152344 249.269531 67.621094 C 252.601562 57.207031 255.933594 46.839844 259.304688 36.429688 L 259.675781 35.226562 L 260.140625 36.429688 C 266.847656 54.335938 273.558594 72.246094 280.21875 90.152344 C 281.234375 89.550781 282.347656 89.136719 283.503906 88.859375 C 276.933594 71.273438 270.363281 53.6875 263.75 36.152344 L 263.148438 34.488281 L 264.488281 35.644531 C 265.367188 36.476562 266.292969 37.308594 267.078125 38.234375 C 270.964844 42.398438 273.835938 47.8125 273.371094 53.644531 C 273.324219 54.613281 274.066406 55.445312 274.992188 55.539062 C 275.269531 55.539062 275.5 55.492188 275.730469 55.445312 L 275.730469 55.402344 L 275.777344 55.402344 C 278.136719 54.800781 280.957031 55.167969 283.316406 55.726562 C 289.609375 57.207031 295.808594 60.90625 300.667969 65.164062 L 300.898438 65.351562 L 300.761719 65.671875 C 300.714844 65.769531 300.667969 65.859375 300.621094 66 C 297.242188 73.773438 293.820312 81.546875 290.394531 89.320312 C 291.550781 89.78125 292.664062 90.382812 293.589844 91.171875 C 296.875 83.628906 300.113281 76.085938 303.351562 68.589844 L 303.628906 67.945312 L 304.089844 68.453125 C 309.039062 73.726562 312.695312 80.066406 314.636719 87.097656 C 316.71875 94.78125 316.535156 102.738281 314.683594 110.46875 C 314.453125 111.394531 315.054688 112.367188 316.023438 112.597656 C 316.070312 112.597656 316.164062 112.644531 316.210938 112.644531 L 316.257812 112.644531 C 321.855469 113.664062 327.449219 115.1875 332.679688 117.457031 C 340.589844 120.835938 347.527344 126.015625 351.414062 133.929688 C 352.710938 136.613281 353.636719 139.480469 354.144531 142.445312 L 354.238281 142.953125 L 353.726562 142.953125 C 353.3125 143 352.941406 143.140625 352.617188 143.417969 C 344.015625 151.144531 335.410156 158.871094 326.761719 166.644531 L 326.386719 167.015625 L 326.109375 166.550781 C 315.101562 147.675781 304.089844 128.839844 293.125 109.960938 C 292.152344 110.65625 291.089844 111.210938 289.980469 111.582031 Z M 348.683594 253.59375 C 352.386719 248.226562 356.132812 242.90625 359.835938 237.539062 C 360.207031 236.984375 360.25 236.289062 359.925781 235.6875 C 350.628906 215.972656 341.285156 196.308594 331.9375 176.597656 C 331.9375 176.546875 331.890625 176.5 331.847656 176.410156 C 330.6875 174.417969 329.53125 172.429688 328.375 170.4375 L 328.195312 170.117188 L 328.46875 169.882812 C 336.9375 162.25 345.449219 154.617188 353.914062 146.980469 L 354.605469 146.332031 L 354.652344 147.257812 C 354.882812 151.46875 354.46875 155.726562 353.726562 159.84375 C 352.339844 167.386719 349.75 174.835938 346.699219 181.824219 C 346.371094 182.65625 346.699219 183.628906 347.4375 184.046875 L 347.484375 184.09375 C 351.738281 186.820312 355.671875 190.199219 359.003906 194.042969 C 364.601562 200.519531 368.71875 208.429688 369.964844 216.992188 C 371.355469 226.339844 369.085938 235.269531 364.046875 243.183594 C 361.269531 247.488281 357.800781 251.328125 353.957031 254.707031 L 353.867188 254.796875 L 353.679688 254.84375 C 352.617188 254.9375 351.554688 255.03125 350.492188 255.074219 L 350.257812 255.121094 L 350.117188 254.9375 C 349.84375 254.566406 349.425781 254.335938 348.960938 254.289062 L 348.273438 254.199219 Z M 199.398438 196.863281 C 212.304688 188.582031 225.257812 180.296875 238.164062 172.011719 L 238.632812 171.6875 L 238.8125 172.199219 C 243.117188 183.71875 247.371094 195.242188 251.675781 206.765625 L 251.722656 206.902344 L 251.675781 207.042969 C 249.039062 214.261719 246.402344 221.527344 243.761719 228.746094 L 243.671875 229.023438 L 243.347656 229.023438 C 229.332031 229.859375 215.269531 230.691406 201.203125 231.523438 C 200.695312 231.570312 200.277344 231.800781 199.953125 232.171875 L 199.167969 233.097656 L 199.167969 231.894531 C 199.167969 220.324219 199.167969 208.800781 199.167969 197.234375 L 199.167969 197.003906 Z M 354.28125 258.316406 L 354.699219 258.265625 C 355.070312 258.226562 355.4375 258.085938 355.71875 257.855469 C 360.019531 254.101562 363.90625 249.894531 367.007812 245.082031 C 372.558594 236.429688 374.960938 226.710938 373.480469 216.480469 C 372.140625 207.273438 367.699219 198.761719 361.640625 191.773438 C 358.492188 188.117188 354.839844 184.832031 350.8125 182.058594 L 350.535156 181.867188 L 350.671875 181.546875 C 353.496094 174.789062 355.855469 167.710938 357.199219 160.492188 C 358.910156 151.144531 358.816406 141.101562 354.558594 132.402344 C 350.304688 123.703125 342.8125 117.964844 334.066406 114.171875 C 329.253906 112.089844 324.121094 110.65625 318.941406 109.589844 L 318.523438 109.496094 L 318.617188 109.082031 C 320.144531 101.441406 320.050781 93.667969 318.015625 86.175781 C 315.5625 77.242188 310.519531 69.378906 303.71875 63.175781 C 298.355469 58.269531 291.273438 54.011719 284.148438 52.300781 C 281.980469 51.792969 279.617188 51.46875 277.398438 51.605469 L 276.933594 51.652344 L 276.933594 51.238281 C 276.566406 45.359375 273.605469 40.085938 269.71875 35.828125 C 267.035156 32.914062 263.886719 30.457031 260.511719 28.425781 C 260.46875 28.378906 260.46875 28.378906 260.421875 28.328125 L 260.371094 28.328125 C 257.089844 26.339844 253.574219 24.71875 249.917969 23.515625 C 241.820312 20.789062 232.988281 19.90625 224.519531 21.433594 C 212.722656 23.5625 203.054688 30 196.113281 39.714844 L 196.066406 39.761719 C 195.789062 40.085938 195.652344 40.5 195.652344 40.917969 C 195.652344 47.257812 195.652344 53.644531 195.652344 59.980469 C 195.652344 87.007812 195.652344 113.988281 195.652344 141.007812 C 195.652344 205.609375 195.652344 270.253906 195.652344 334.851562 L 195.652344 335.320312 C 195.652344 335.828125 195.882812 336.335938 196.296875 336.660156 C 203.65625 342.859375 211.9375 348.273438 221.003906 351.605469 L 221.003906 351.652344 C 221.09375 351.652344 221.140625 351.699219 221.234375 351.699219 C 227.433594 353.964844 233.910156 355.167969 240.523438 355.121094 C 257.644531 354.9375 272.585938 346.191406 284.980469 335.039062 L 285.167969 334.902344 L 285.351562 334.902344 C 297.660156 337.308594 310.378906 336.523438 321.996094 331.570312 C 330.226562 328.003906 337.492188 322.542969 343.089844 315.558594 C 348.683594 308.664062 352.476562 300.472656 354.28125 291.769531 C 356.550781 280.851562 355.578125 269.5625 351.832031 259.101562 L 351.597656 258.546875 L 352.199219 258.503906 C 352.894531 258.453125 353.589844 258.363281 354.28125 258.316406 " fill-opacity="1" fill-rule="evenodd"/></g><g clip-path="url(#c659d2797d)"><path stroke-linecap="butt" transform="matrix(0.0396182, 0, 0, 0.0395229, 25.228976, 118.084972)" fill="none" stroke-linejoin="miter" d="M 1979.774009 3383.74542 C 2877.502941 3383.74542 3605.25003 2656.022038 3605.25003 1758.302158 C 3605.25003 860.582278 2877.502941 132.760061 1979.774009 132.760061 C 1082.045078 132.760061 354.297989 860.582278 354.297989 1758.302158 C 354.297989 2656.022038 1082.045078 3383.74542 1979.774009 3383.74542 Z M 1979.774009 3383.74542 " stroke="#d1e8f7" stroke-width="8.686" stroke-opacity="1" stroke-miterlimit="10"/></g><path fill="#febb94" d="M 51.273438 152.117188 C 52.527344 152.117188 53.542969 151.105469 53.542969 149.855469 C 53.542969 148.605469 52.527344 147.59375 51.273438 147.59375 C 50.023438 147.59375 49.007812 148.605469 49.007812 149.855469 C 49.007812 151.105469 50.023438 152.117188 51.273438 152.117188 Z M 51.273438 152.117188 " fill-opacity="1" fill-rule="nonzero"/><path fill="#5661ae" d="M 168.0625 192.289062 C 169.316406 192.289062 170.332031 191.273438 170.332031 190.023438 C 170.332031 188.773438 169.316406 187.761719 168.0625 187.761719 C 166.8125 187.761719 165.796875 188.773438 165.796875 190.023438 C 165.796875 191.273438 166.8125 192.289062 168.0625 192.289062 Z M 168.0625 192.289062 " fill-opacity="1" fill-rule="nonzero"/><path fill="#1c85e8" d="M 106.304688 254.085938 C 107.558594 254.085938 108.574219 253.070312 108.574219 251.820312 C 108.574219 250.574219 107.558594 249.558594 106.304688 249.558594 C 105.054688 249.558594 104.039062 250.574219 104.039062 251.820312 C 104.039062 253.070312 105.054688 254.085938 106.304688 254.085938 Z M 106.304688 254.085938 " fill-opacity="1" fill-rule="nonzero"/><path stroke-linecap="butt" transform="matrix(0.0396182, 0, 0, 0.0395229, 25.228976, 118.084972)" fill="none" stroke-linejoin="miter" d="M 2017.4382 2981.5851 C 2687.111445 2981.5851 3229.98849 2438.683492 3229.98849 1768.976357 C 3229.98849 1099.368057 2687.111445 556.466449 2017.4382 556.466449 C 1347.764954 556.466449 804.887909 1099.368057 804.887909 1768.976357 C 804.887909 2438.683492 1347.764954 2981.5851 2017.4382 2981.5851 Z M 2017.4382 2981.5851 " stroke="#d1e8f7" stroke-width="6.479" stroke-opacity="1" stroke-miterlimit="10"/><path fill="#febb94" d="M 152.375 199.34375 C 153.308594 199.34375 154.066406 198.585938 154.066406 197.65625 C 154.066406 196.722656 153.308594 195.964844 152.375 195.964844 C 151.4375 195.964844 150.679688 196.722656 150.679688 197.65625 C 150.679688 198.585938 151.4375 199.34375 152.375 199.34375 Z M 152.375 199.34375 " fill-opacity="1" fill-rule="nonzero"/><path fill="#5661ae" d="M 60.601562 207.699219 C 61.535156 207.699219 62.292969 206.945312 62.292969 206.011719 C 62.292969 205.078125 61.535156 204.324219 60.601562 204.324219 C 59.667969 204.324219 58.910156 205.078125 58.910156 206.011719 C 58.910156 206.945312 59.667969 207.699219 60.601562 207.699219 Z M 60.601562 207.699219 " fill-opacity="1" fill-rule="nonzero"/><path fill="#1c85e8" d="M 83.636719 146.796875 C 84.574219 146.796875 85.332031 146.039062 85.332031 145.109375 C 85.332031 144.175781 84.574219 143.421875 83.636719 143.421875 C 82.703125 143.421875 81.945312 144.175781 81.945312 145.109375 C 81.945312 146.039062 82.703125 146.796875 83.636719 146.796875 Z M 83.636719 146.796875 " fill-opacity="1" fill-rule="nonzero"/><path fill="#1c85e8" d="M 130.160156 241.070312 L 74.679688 241.070312 C 72.273438 241.070312 70.511719 239.125 70.742188 236.722656 L 80.210938 138.441406 C 80.445312 136.039062 82.582031 134.09375 84.988281 134.09375 L 140.46875 134.09375 C 142.875 134.09375 144.636719 136.039062 144.40625 138.441406 L 134.9375 236.722656 C 134.707031 239.125 132.566406 241.070312 130.160156 241.070312 Z M 130.160156 241.070312 " fill-opacity="1" fill-rule="nonzero"/><g clip-path="url(#8ca0a733b3)"><g clip-path="url(#10d1d51a55)"><path fill="url(#f1bfa3181b)" d="M 66.601562 134.09375 L 66.601562 241.070312 L 140.730469 241.070312 L 140.730469 134.09375 Z M 66.601562 134.09375 " fill-rule="nonzero"/></g></g><path fill="#ffffff" d="M 124.148438 237.804688 L 73.503906 237.804688 C 71.273438 237.804688 69.636719 236 69.851562 233.773438 L 78.753906 141.386719 C 78.96875 139.164062 80.953125 137.359375 83.183594 137.359375 L 133.824219 137.359375 C 136.054688 137.359375 137.691406 139.164062 137.476562 141.386719 L 128.574219 233.773438 C 128.359375 236 126.378906 237.804688 124.148438 237.804688 Z M 124.148438 237.804688 " fill-opacity="1" fill-rule="nonzero"/><g clip-path="url(#ebd02d6f20)"><g clip-path="url(#702094f4f3)"><path fill="url(#17805b2eed)" d="M 72.261719 143.464844 L 72.261719 179.386719 L 133.066406 179.386719 L 133.066406 143.464844 Z M 72.261719 143.464844 " fill-rule="nonzero"/></g></g><g clip-path="url(#2d15388e39)"><g clip-path="url(#87f76b2543)"><path fill="url(#0f804e6346)" d="M 102.316406 182.765625 L 102.316406 214.351562 L 130.757812 214.351562 L 130.757812 182.765625 Z M 102.316406 182.765625 " fill-rule="nonzero"/></g></g><path stroke-linecap="butt" transform="matrix(0.0396182, 0, 0, 0.0395229, 25.228976, 118.084972)" fill="none" stroke-linejoin="miter" d="M 2417.940662 2031.779083 C 2483.310709 1969.414088 2490.409719 1870.776585 2433.814836 1811.376646 C 2377.219954 1752.075542 2278.425402 1754.447586 2213.055355 1816.713746 C 2147.685308 1878.979905 2140.586298 1977.617408 2197.181181 2037.017347 C 2253.776063 2096.417286 2352.570615 2094.045242 2417.940662 2031.779083 Z M 2417.940662 2031.779083 " stroke="#ef6a77" stroke-width="52.98" stroke-opacity="1" stroke-miterlimit="10"/><path stroke-linecap="round" transform="matrix(0.0396182, 0, 0, 0.0395229, 25.228976, 118.084972)" fill="none" stroke-linejoin="miter" d="M 2242.042978 2068.249262 C 2187.814432 2044.825326 2153.403954 1989.181123 2159.714185 1924.246414 C 2167.897766 1838.160978 2244.409314 1768.383346 2330.484807 1768.383346 " stroke="#ffffff" stroke-width="52.98" stroke-opacity="1" stroke-miterlimit="10"/><path stroke-linecap="round" transform="matrix(0.0396182, 0, 0, 0.0395229, 25.228976, 118.084972)" fill="none" stroke-linejoin="miter" d="M 2229.126724 2202.170922 L 2348.429526 2202.170922 " stroke="#ffffff" stroke-width="27.118999" stroke-opacity="1" stroke-miterlimit="10"/><path stroke-linecap="round" transform="matrix(0.0396182, 0, 0, 0.0395229, 25.228976, 118.084972)" fill="none" stroke-linejoin="miter" d="M 2216.111873 2337.179769 L 2335.414675 2337.179769 " stroke="#ffffff" stroke-width="27.118999" stroke-opacity="1" stroke-miterlimit="10"/><path stroke-linecap="round" transform="matrix(0.0396182, 0, 0, 0.0395229, 25.228976, 118.084972)" fill="none" stroke-linejoin="miter" d="M 2159.122601 2268.983499 L 2405.517395 2268.983499 " stroke="#ffffff" stroke-width="27.118999" stroke-opacity="0.4" stroke-miterlimit="10"/><path fill="#febb94" d="M 98.417969 214.347656 L 75.453125 214.347656 C 75.285156 214.351562 75.117188 214.316406 74.960938 214.25 C 74.804688 214.183594 74.667969 214.082031 74.554688 213.957031 C 74.4375 213.832031 74.355469 213.683594 74.304688 213.523438 C 74.25 213.363281 74.234375 213.191406 74.257812 213.023438 L 77.042969 184.089844 C 77.085938 183.730469 77.253906 183.398438 77.519531 183.15625 C 77.789062 182.914062 78.136719 182.773438 78.496094 182.765625 L 101.460938 182.765625 C 101.628906 182.765625 101.796875 182.796875 101.953125 182.863281 C 102.109375 182.929688 102.246094 183.03125 102.359375 183.15625 C 102.472656 183.28125 102.558594 183.429688 102.609375 183.589844 C 102.660156 183.75 102.679688 183.921875 102.65625 184.089844 L 99.871094 213.023438 C 99.828125 213.382812 99.660156 213.714844 99.390625 213.957031 C 99.125 214.203125 98.777344 214.339844 98.417969 214.347656 Z M 98.417969 214.347656 " fill-opacity="1" fill-rule="nonzero"/><path stroke-linecap="butt" transform="matrix(0.0396182, 0, 0, 0.0395229, 25.228976, 118.084972)" fill="none" stroke-linejoin="miter" d="M 1709.124266 2031.779083 C 1774.494313 1969.414088 1781.593323 1870.776585 1724.99844 1811.376646 C 1668.403558 1752.075542 1569.609006 1754.447586 1504.238959 1816.713746 C 1438.868911 1878.979905 1431.769902 1977.617408 1488.364784 2037.017347 C 1544.959667 2096.417286 1643.754218 2094.045242 1709.124266 2031.779083 Z M 1709.124266 2031.779083 " stroke="#ef6a77" stroke-width="52.98" stroke-opacity="1" stroke-miterlimit="10"/><path stroke-linecap="round" transform="matrix(0.0396182, 0, 0, 0.0395229, 25.228976, 118.084972)" fill="none" stroke-linejoin="miter" d="M 1762.465436 1924.246414 C 1754.183258 2010.233015 1677.770306 2080.010648 1591.694814 2080.010648 C 1505.619322 2080.010648 1442.615611 2010.233015 1450.897789 1924.246414 C 1459.08137 1838.160978 1535.592918 1768.383346 1621.668411 1768.383346 " stroke="#ffffff" stroke-width="52.98" stroke-opacity="1" stroke-miterlimit="10"/><path stroke-linecap="round" transform="matrix(0.0396182, 0, 0, 0.0395229, 25.228976, 118.084972)" fill="none" stroke-linejoin="miter" d="M 1520.310328 2202.170922 L 1639.613129 2202.170922 " stroke="#ffffff" stroke-width="27.118999" stroke-opacity="1" stroke-miterlimit="10"/><path stroke-linecap="round" transform="matrix(0.0396182, 0, 0, 0.0395229, 25.228976, 118.084972)" fill="none" stroke-linejoin="miter" d="M 1507.394074 2337.179769 L 1626.598278 2337.179769 " stroke="#ffffff" stroke-width="27.118999" stroke-opacity="1" stroke-miterlimit="10"/><path stroke-linecap="round" transform="matrix(0.0396182, 0, 0, 0.0395229, 25.228976, 118.084972)" fill="none" stroke-linejoin="miter" d="M 1450.306205 2268.983499 L 1696.799596 2268.983499 " stroke="#ffffff" stroke-width="27.118999" stroke-opacity="0.4" stroke-miterlimit="10"/><g clip-path="url(#1c3baa5e14)"><g clip-path="url(#56656a3f0c)"><path fill="url(#bcaadfe8e0)" d="M 72.234375 216.683594 L 72.234375 235.046875 L 127.496094 235.046875 L 127.496094 216.683594 Z M 72.234375 216.683594 " fill-rule="nonzero"/></g></g><path stroke-linecap="round" transform="matrix(0.0396182, 0, 0, 0.0395229, 25.228976, 118.084972)" fill="none" stroke-linejoin="miter" d="M 1305.565285 2866.244452 L 1323.805796 2676.67859 " stroke="#ffffff" stroke-width="52.98" stroke-opacity="1" stroke-miterlimit="10"/><path stroke-linecap="round" transform="matrix(0.0396182, 0, 0, 0.0395229, 25.228976, 118.084972)" fill="none" stroke-linejoin="miter" d="M 1439.361898 2733.409979 L 1426.544242 2866.244452 " stroke="#ffffff" stroke-width="52.98" stroke-opacity="1" stroke-miterlimit="10"/><path stroke-linecap="round" transform="matrix(0.0396182, 0, 0, 0.0395229, 25.228976, 118.084972)" fill="none" stroke-linejoin="miter" d="M 1555.903974 2778.775324 L 1547.523198 2866.244452 " stroke="#ffffff" stroke-width="52.98" stroke-opacity="1" stroke-miterlimit="10"/><path stroke-linecap="round" transform="matrix(0.0396182, 0, 0, 0.0395229, 25.228976, 118.084972)" fill="none" stroke-linejoin="miter" d="M 1691.475339 2627.359838 L 1668.502155 2866.244452 " stroke="#ffffff" stroke-width="52.98" stroke-opacity="1" stroke-miterlimit="10"/><path stroke-linecap="round" transform="matrix(0.0396182, 0, 0, 0.0395229, 25.228976, 118.084972)" fill="none" stroke-linejoin="miter" d="M 1797.861887 2778.775324 L 1789.382514 2866.244452 " stroke="#ffffff" stroke-width="52.98" stroke-opacity="1" stroke-miterlimit="10"/><path stroke-linecap="round" transform="matrix(0.0396182, 0, 0, 0.0395229, 25.228976, 118.084972)" fill="none" stroke-linejoin="miter" d="M 1932.348681 2637.935202 L 1910.36147 2866.244452 " stroke="#ffffff" stroke-width="52.98" stroke-opacity="1" stroke-miterlimit="10"/><path stroke-linecap="round" transform="matrix(0.0396182, 0, 0, 0.0395229, 25.228976, 118.084972)" fill="none" stroke-linejoin="miter" d="M 2040.411384 2771.461521 L 2031.340427 2866.244452 " stroke="#ffffff" stroke-width="52.98" stroke-opacity="1" stroke-miterlimit="10"/><path stroke-linecap="round" transform="matrix(0.0396182, 0, 0, 0.0395229, 25.228976, 118.084972)" fill="none" stroke-linejoin="miter" d="M 2157.150654 2815.739679 L 2152.319383 2866.244452 " stroke="#ffffff" stroke-width="52.98" stroke-opacity="1" stroke-miterlimit="10"/><path stroke-linecap="round" transform="matrix(0.0396182, 0, 0, 0.0395229, 25.228976, 118.084972)" fill="none" stroke-linejoin="miter" d="M 2291.440254 2676.67859 L 2273.199743 2866.244452 " stroke="#ffffff" stroke-width="52.98" stroke-opacity="1" stroke-miterlimit="10"/><path stroke-linecap="round" transform="matrix(0.0396182, 0, 0, 0.0395229, 25.228976, 118.084972)" fill="none" stroke-linejoin="miter" d="M 2419.321025 2604.430078 L 2394.178699 2866.244452 " stroke="#ffffff" stroke-width="52.98" stroke-opacity="1" stroke-miterlimit="10"/><path fill="#ffccb3" d="M 78.28125 174.414062 L 81.15625 178.90625 C 81.289062 179.109375 81.332031 179.355469 81.28125 179.589844 C 81.230469 179.828125 81.085938 180.03125 80.886719 180.164062 L 80.421875 180.464844 C 79.640625 180.96875 78.707031 181.175781 77.789062 181.042969 C 76.871094 180.910156 76.03125 180.449219 75.425781 179.75 L 71.609375 175.308594 Z M 78.28125 174.414062 " fill-opacity="1" fill-rule="nonzero"/><path fill="#fcba9f" d="M 76.085938 176.140625 C 76.085938 176.140625 77.152344 179.789062 79.292969 180.960938 C 79.847656 180.746094 80.378906 180.480469 80.886719 180.164062 L 78.484375 176.140625 " fill-opacity="1" fill-rule="nonzero"/><path fill="#ffccb3" d="M 26.875 192.546875 L 38.175781 187.148438 C 39.238281 186.636719 40.140625 185.84375 40.773438 184.847656 L 51.6875 167.71875 C 52.367188 166.652344 53.351562 165.816406 54.515625 165.316406 L 70.238281 158.558594 L 66.871094 183.949219 L 66.8125 184.886719 C 66.8125 184.886719 62.652344 195.628906 52.460938 199.535156 L 36.167969 209.476562 Z M 26.875 192.546875 " fill-opacity="1" fill-rule="nonzero"/><path fill="#fcba9f" d="M 39.171875 186.550781 C 39.171875 186.550781 44.515625 199.859375 52.460938 199.535156 L 47.390625 202.628906 C 47.390625 202.628906 30.167969 199.441406 36.617188 187.867188 Z M 39.171875 186.550781 " fill-opacity="1" fill-rule="nonzero"/><path fill="#fcba9f" d="M 67.804688 163.257812 C 67.804688 163.257812 62.246094 166.617188 62.539062 174.414062 L 69.214844 171.921875 Z M 67.804688 163.257812 " fill-opacity="1" fill-rule="nonzero"/><path fill="#ffccb3" d="M 81.765625 174.414062 L 84.644531 178.90625 C 84.773438 179.109375 84.816406 179.355469 84.765625 179.589844 C 84.714844 179.828125 84.574219 180.03125 84.371094 180.164062 L 83.90625 180.464844 C 83.128906 180.96875 82.191406 181.175781 81.273438 181.042969 C 80.355469 180.910156 79.515625 180.449219 78.910156 179.75 L 75.09375 175.308594 Z M 81.765625 174.414062 " fill-opacity="1" fill-rule="nonzero"/><path fill="#1c85e8" d="M 124.289062 176.183594 L 69.960938 176.136719 C 69.742188 176.140625 69.519531 176.101562 69.316406 176.015625 C 69.109375 175.929688 68.925781 175.800781 68.777344 175.640625 C 68.625 175.476562 68.511719 175.285156 68.441406 175.074219 C 68.371094 174.863281 68.34375 174.640625 68.367188 174.421875 L 71.296875 141.976562 C 71.351562 141.507812 71.574219 141.074219 71.921875 140.761719 C 72.273438 140.445312 72.726562 140.269531 73.199219 140.261719 L 127.527344 140.3125 C 127.75 140.304688 127.972656 140.347656 128.175781 140.433594 C 128.378906 140.519531 128.566406 140.648438 128.714844 140.808594 C 128.867188 140.972656 128.980469 141.164062 129.050781 141.375 C 129.121094 141.585938 129.144531 141.808594 129.125 142.027344 L 126.195312 174.472656 C 126.140625 174.941406 125.917969 175.371094 125.566406 175.6875 C 125.21875 176.003906 124.761719 176.179688 124.289062 176.183594 Z M 124.289062 176.183594 " fill-opacity="1" fill-rule="nonzero"/><path stroke-linecap="round" transform="matrix(0.0396182, 0, 0, 0.0395229, 25.228976, 118.084972)" fill="none" stroke-linejoin="miter" d="M 1219.884183 1048.171437 C 1219.884183 1048.171437 1343.032281 1023.264973 1376.160993 1080.984714 C 1409.289705 1138.803291 1437.784341 1247.225476 1525.930377 1233.289717 C 1614.076414 1219.255122 1681.615603 935.69701 1768.184082 938.266724 C 1854.851159 940.836439 1824.285978 1126.646565 1918.643648 1129.216279 C 2013.001319 1131.785994 1996.141171 1025.439347 2059.046284 1028.404402 C 2135.262041 1032.061304 2106.866002 1252.364905 2206.252137 1254.93462 C 2305.73687 1257.603169 2321.906837 963.865034 2472.267805 969.103298 " stroke="#ffffff" stroke-width="34.285999" stroke-opacity="1" stroke-miterlimit="10"/><g clip-path="url(#0bc294f82e)"><path stroke-linecap="round" transform="matrix(0.0396182, 0, 0, 0.0395229, 25.228976, 118.084972)" fill="none" stroke-linejoin="miter" d="M 1289.888306 698.690264 L 1531.156037 698.887934 " stroke="#ffffff" stroke-width="54.382" stroke-opacity="1" stroke-miterlimit="10"/></g><path stroke-linecap="round" transform="matrix(0.0396182, 0, 0, 0.0395229, 25.228976, 118.084972)" fill="none" stroke-linejoin="miter" d="M 1279.929973 809.286823 L 1778.536805 809.682163 " stroke="#ffffff" stroke-width="54.382" stroke-opacity="0.4" stroke-miterlimit="10"/><path fill="#ffccb3" d="M 57.445312 176.023438 L 64.414062 172.960938 L 71.539062 168.109375 C 73.414062 166.832031 77.328125 166.257812 78.738281 168.03125 C 80.171875 169.835938 78.5625 173.40625 76.824219 174.921875 L 70.238281 180.660156 L 66.8125 184.886719 Z M 57.445312 176.023438 " fill-opacity="1" fill-rule="nonzero"/><path stroke-linecap="round" transform="matrix(0.0396182, 0, 0, 0.0395229, 25.228976, 118.084972)" fill="none" stroke-linejoin="miter" d="M 1170.684102 1312.357855 C 1170.684102 1312.357855 1194.446065 1403.879226 1255.970815 1419.692854 L 1321.340862 1364.542827 C 1327.946885 1359.601068 1333.468337 1353.374452 1337.609426 1346.25832 C 1341.750515 1339.142187 1344.412644 1331.235374 1345.398617 1323.032054 C 1346.384591 1314.828735 1345.595812 1306.52658 1343.328073 1298.520931 C 1340.961736 1290.614117 1337.017842 1283.300315 1331.792182 1276.974863 C 1322.524031 1265.806489 1309.706374 1258.393851 1295.508355 1255.922971 C 1281.310336 1253.452092 1266.61933 1256.021807 1254.196063 1263.335609 Z M 1170.684102 1312.357855 " stroke="#ff967c" stroke-width="13.596" stroke-opacity="1" stroke-miterlimit="4"/><g clip-path="url(#c5a9eae600)"><path fill="#1c85e8" d="M 38.605469 186.699219 C 38.605469 186.699219 37.253906 196.335938 49.007812 201.851562 C 49.007812 201.851562 40.5625 209.578125 37.308594 210.878906 C 34.054688 212.179688 21.824219 198.902344 26.171875 191.367188 C 27.394531 189.253906 38.605469 186.699219 38.605469 186.699219 Z M 38.605469 186.699219 " fill-opacity="1" fill-rule="nonzero"/></g><path fill="#fcba9f" d="M 83.136719 176.554688 C 83.136719 176.554688 78.554688 176.648438 76.960938 177.480469 L 75.8125 176.140625 L 82.875 176.140625 Z M 83.136719 176.554688 " fill-opacity="1" fill-rule="nonzero"/><g clip-path="url(#d4a7175a19)"><path fill="#febb94" d="M 167.484375 176.183594 L 134.914062 176.183594 C 132.460938 176.183594 130.644531 174.199219 130.863281 171.753906 L 135.234375 122.515625 C 135.449219 120.070312 137.617188 118.085938 140.070312 118.085938 L 172.640625 118.085938 C 175.097656 118.085938 176.90625 120.070312 176.691406 122.515625 L 172.320312 171.753906 C 172.101562 174.199219 169.9375 176.183594 167.484375 176.183594 Z M 167.484375 176.183594 " fill-opacity="1" fill-rule="nonzero"/></g><path fill="#ffffff" d="M 162.820312 145.886719 C 167.980469 140.964844 168.5 133.15625 163.984375 128.445312 C 159.46875 123.738281 151.625 123.910156 146.46875 128.832031 C 141.308594 133.753906 140.789062 141.5625 145.304688 146.273438 C 149.824219 150.980469 157.664062 150.808594 162.820312 145.886719 Z M 162.820312 145.886719 " fill-opacity="1" fill-rule="nonzero"/><g clip-path="url(#e1486f1f83)"><g clip-path="url(#66add36c07)"><path fill="url(#c98d287ece)" d="M 155.335938 137.742188 L 155.335938 145.183594 L 165.925781 145.183594 L 165.925781 137.742188 Z M 155.335938 137.742188 " fill-rule="nonzero"/></g></g><path fill="#1c85e8" d="M 155.878906 123.453125 L 154.71875 136.542969 C 154.691406 136.78125 154.734375 137.019531 154.847656 137.234375 C 154.957031 137.449219 155.125 137.625 155.335938 137.742188 L 166.429688 143.902344 C 166.429688 143.902344 173.015625 125.570312 155.878906 123.453125 Z M 155.878906 123.453125 " fill-opacity="1" fill-rule="nonzero"/><path stroke-linecap="round" transform="matrix(0.0396182, 0, 0, 0.0395229, 25.228976, 118.084972)" fill="none" stroke-linejoin="miter" d="M 2859.459625 1029.096248 L 3200.014894 1029.096248 " stroke="#ffffff" stroke-width="54.386002" stroke-opacity="1" stroke-miterlimit="10"/><path stroke-linecap="round" transform="matrix(0.0396182, 0, 0, 0.0395229, 25.228976, 118.084972)" fill="none" stroke-linejoin="miter" d="M 2834.514493 1310.677658 L 3175.069763 1310.677658 " stroke="#ffffff" stroke-width="54.386002" stroke-opacity="1" stroke-miterlimit="10"/><path stroke-linecap="round" transform="matrix(0.0396182, 0, 0, 0.0395229, 25.228976, 118.084972)" fill="none" stroke-linejoin="miter" d="M 2847.134955 1168.355008 L 3550.922886 1168.355008 " stroke="#ffffff" stroke-width="54.386002" stroke-opacity="0.4" stroke-miterlimit="10"/><path fill="#ffccb3" d="M 127.425781 212.457031 C 127.425781 212.457031 131.777344 211.300781 134.09375 213.785156 C 134.09375 213.785156 138.253906 213.03125 139.945312 215.339844 C 139.945312 215.339844 143.632812 215.554688 144.703125 217.054688 C 145.589844 217.179688 146.429688 217.53125 147.136719 218.085938 C 147.84375 218.636719 148.390625 219.363281 148.722656 220.195312 C 149.730469 222.566406 148.875 236.277344 147.875 241.191406 C 147.621094 242.421875 147.707031 243.695312 148.121094 244.878906 L 150.671875 252.191406 L 133.027344 259.550781 L 128.835938 248.648438 C 128.835938 248.648438 123.738281 240.472656 123.007812 239.019531 C 122.28125 237.566406 123.515625 225.503906 121.027344 217.972656 Z M 127.425781 212.457031 " fill-opacity="1" fill-rule="nonzero"/><path fill="#fcba9f" d="M 131.113281 254.570312 L 130.601562 253.246094 C 130.601562 253.246094 139.761719 252.664062 148.121094 244.878906 L 148.921875 247.171875 C 148.921875 247.171875 147.886719 251.910156 143.1875 254.140625 C 138.484375 256.371094 131.113281 254.570312 131.113281 254.570312 Z M 131.113281 254.570312 " fill-opacity="1" fill-rule="nonzero"/><g clip-path="url(#d6d7a9f288)"><path fill="#5661ae" d="M 131.113281 254.570312 C 131.113281 254.570312 142.195312 255.578125 148.921875 247.171875 C 148.921875 247.171875 151.40625 248.472656 155.21875 257.980469 C 156.386719 260.898438 136.832031 271.296875 133.671875 266.976562 C 133.671875 266.976562 130.941406 261.214844 131.113281 254.570312 Z M 131.113281 254.570312 " fill-opacity="1" fill-rule="nonzero"/></g><path fill="#ffccb3" d="M 122.113281 222.519531 C 122.113281 222.519531 121.730469 224.542969 119.921875 224.542969 C 118.742188 224.542969 113.632812 223.003906 110.21875 221.933594 C 109.292969 221.640625 108.296875 221.640625 107.367188 221.933594 C 106.4375 222.222656 105.621094 222.792969 105.027344 223.5625 L 104.820312 223.828125 C 104.71875 223.960938 104.644531 224.117188 104.601562 224.277344 C 104.558594 224.441406 104.550781 224.609375 104.578125 224.777344 C 104.601562 224.941406 104.660156 225.101562 104.75 225.246094 C 104.839844 225.386719 104.957031 225.511719 105.09375 225.609375 C 107.984375 227.621094 115.78125 233.078125 116.78125 234.074219 C 118.007812 235.300781 124.84375 242.164062 124.84375 242.164062 Z M 122.113281 222.519531 " fill-opacity="1" fill-rule="nonzero"/><path fill="#fcba9f" d="M 121.699219 220.492188 C 121.699219 220.492188 125.390625 225.480469 124.84375 226.574219 C 124.296875 227.664062 118.570312 224.328125 118.570312 224.328125 C 118.570312 224.328125 123.191406 225.511719 121.699219 220.492188 Z M 121.699219 220.492188 " fill-opacity="1" fill-rule="nonzero"/><path fill="#ffccb3" d="M 121.027344 217.972656 L 114.8125 199.136719 C 114.597656 198.492188 114.515625 197.808594 114.574219 197.128906 C 114.628906 196.453125 114.820312 195.792969 115.136719 195.191406 C 115.453125 194.589844 115.886719 194.054688 116.414062 193.625 C 116.941406 193.191406 117.550781 192.871094 118.203125 192.675781 C 118.738281 192.519531 119.3125 192.5625 119.820312 192.796875 C 120.324219 193.03125 120.726562 193.445312 120.949219 193.953125 L 129.671875 213.953125 Z M 121.027344 217.972656 " fill-opacity="1" fill-rule="nonzero"/><path stroke-linecap="round" transform="matrix(0.0396182, 0, 0, 0.0395229, 25.228976, 118.084972)" fill="none" stroke-linejoin="miter" d="M 2350.007083 2320.674295 C 2354.443964 2327.988098 2360.359806 2334.313549 2367.360218 2339.156472 C 2374.36063 2344.098231 2382.248419 2347.557462 2390.727792 2349.23766 " stroke="#ff967c" stroke-width="13.596" stroke-opacity="1" stroke-miterlimit="4"/><path stroke-linecap="round" transform="matrix(0.0396182, 0, 0, 0.0395229, 25.228976, 118.084972)" fill="none" stroke-linejoin="miter" d="M 2406.503369 2076.749087 C 2425.532658 2068.249262 2446.632493 2056.389041 2455.70345 2042.650952 L 2397.235217 1903.886368 C 2395.953451 1900.921313 2394.080102 1898.153928 2391.713765 1895.979555 C 2389.347429 1893.805181 2386.586703 1892.124983 2383.530185 1891.037796 C 2380.473666 1889.950609 2377.219954 1889.654104 2373.966241 1889.950609 C 2370.712528 1890.247115 2367.557413 1891.235466 2364.796687 1892.816829 C 2343.992645 1904.87472 2316.582579 1926.519623 2315.498009 1957.553868 L 2355.035549 2055.9937 C 2356.908898 2060.737789 2359.866819 2065.086536 2363.514921 2068.743438 C 2367.163023 2072.400339 2371.501307 2075.365394 2376.332578 2077.243263 C 2381.163848 2079.219966 2386.290911 2080.109483 2391.417973 2080.010648 C 2396.643633 2079.911812 2401.770696 2078.824625 2406.503369 2076.749087 Z M 2406.503369 2076.749087 " stroke="#ff967c" stroke-width="13.596" stroke-opacity="1" stroke-miterlimit="4"/><path stroke-linecap="round" transform="matrix(0.0396182, 0, 0, 0.0395229, 25.228976, 118.084972)" fill="none" stroke-linejoin="miter" d="M 2618.487685 2385.015993 L 2672.617634 2504.112377 " stroke="#ff967c" stroke-width="13.596" stroke-opacity="1" stroke-miterlimit="4"/><path stroke-linecap="round" transform="matrix(0.0396182, 0, 0, 0.0395229, 25.228976, 118.084972)" fill="none" stroke-linejoin="miter" d="M 2749.917961 2423.858216 C 2777.426624 2463.29345 2792.216227 2510.141322 2792.216227 2558.175217 " stroke="#ff967c" stroke-width="13.596" stroke-opacity="1" stroke-miterlimit="4"/><path stroke-linecap="round" transform="matrix(0.0396182, 0, 0, 0.0395229, 25.228976, 118.084972)" fill="none" stroke-linejoin="miter" d="M 2898.109788 2462.996945 C 2898.109788 2462.996945 2925.322659 2525.460774 2927.590398 2574.878361 " stroke="#ff967c" stroke-width="13.596" stroke-opacity="1" stroke-miterlimit="4"/><path stroke-linecap="round" transform="matrix(0.0396182, 0, 0, 0.0395229, 25.228976, 118.084972)" fill="none" stroke-linejoin="miter" d="M 3019.384537 2507.868113 C 3030.131649 2534.158269 3034.272738 2562.721635 3031.512012 2591.087329 " stroke="#ff967c" stroke-width="13.596" stroke-opacity="1" stroke-miterlimit="4"/><path stroke-linecap="round" transform="matrix(0.0396182, 0, 0, 0.0395229, 25.228976, 118.084972)" fill="none" stroke-linejoin="miter" d="M 2131.120952 2778.775324 C 2131.120952 2778.775324 2163.362287 2737.857562 2152.319383 2717.299846 C 2141.27648 2696.840965 2092.076399 2667.783424 2063.68036 2670.946149 C 2050.073925 2673.021688 2036.960476 2677.469271 2025.030196 2684.091228 C 2022.861054 2685.27725 2020.987705 2686.957448 2019.705939 2689.032986 C 2018.325576 2691.108525 2017.635394 2693.480569 2017.4382 2695.951448 C 2017.339602 2698.323493 2017.832589 2700.794372 2019.015757 2702.968746 C 2020.100328 2705.241955 2021.776483 2707.020988 2023.847028 2708.40468 Z M 2131.120952 2778.775324 " stroke="#ff967c" stroke-width="13.596" stroke-opacity="1" stroke-miterlimit="4"/><path fill="#febb94" d="M 87.707031 247.632812 L 48.8125 247.632812 C 48.652344 247.636719 48.492188 247.605469 48.34375 247.539062 C 48.195312 247.476562 48.066406 247.382812 47.957031 247.265625 C 47.847656 247.144531 47.769531 247.003906 47.71875 246.851562 C 47.671875 246.699219 47.65625 246.539062 47.675781 246.378906 L 49.203125 230.527344 C 49.242188 230.1875 49.402344 229.875 49.65625 229.644531 C 49.910156 229.414062 50.238281 229.28125 50.578125 229.277344 L 89.472656 229.277344 C 89.636719 229.273438 89.792969 229.304688 89.941406 229.367188 C 90.089844 229.429688 90.21875 229.527344 90.328125 229.644531 C 90.4375 229.761719 90.515625 229.902344 90.566406 230.054688 C 90.613281 230.210938 90.628906 230.371094 90.609375 230.527344 L 89.082031 246.378906 C 89.042969 246.71875 88.882812 247.035156 88.628906 247.265625 C 88.378906 247.496094 88.046875 247.625 87.707031 247.632812 Z M 87.707031 247.632812 " fill-opacity="1" fill-rule="nonzero"/><path stroke-linecap="round" transform="matrix(0.0396182, 0, 0, 0.0395229, 25.228976, 118.084972)" fill="none" stroke-linejoin="miter" d="M 687.35986 2917.935248 L 1293.240616 2917.935248 " stroke="#ef6a77" stroke-width="52.98" stroke-opacity="1" stroke-miterlimit="10"/><path stroke-linecap="round" transform="matrix(0.0396182, 0, 0, 0.0395229, 25.228976, 118.084972)" fill="none" stroke-linejoin="miter" d="M 687.35986 2917.935248 L 1108.46917 2917.935248 " stroke="#ffffff" stroke-width="52.98" stroke-opacity="1" stroke-miterlimit="10"/><path stroke-linecap="round" transform="matrix(0.0396182, 0, 0, 0.0395229, 25.228976, 118.084972)" fill="none" stroke-linejoin="miter" d="M 678.288903 3045.531457 L 1284.169659 3045.531457 " stroke="#ef6a77" stroke-width="52.98" stroke-opacity="1" stroke-miterlimit="10"/><path stroke-linecap="round" transform="matrix(0.0396182, 0, 0, 0.0395229, 25.228976, 118.084972)" fill="none" stroke-linejoin="miter" d="M 678.288903 3045.531457 L 930.007954 3045.531457 " stroke="#ffffff" stroke-width="52.98" stroke-opacity="1" stroke-miterlimit="10"/><path stroke-linecap="round" transform="matrix(0.0396182, 0, 0, 0.0395229, 25.228976, 118.084972)" fill="none" stroke-linejoin="miter" d="M 658.569432 3173.226501 L 1264.35159 3173.226501 " stroke="#ef6a77" stroke-width="52.98" stroke-opacity="1" stroke-miterlimit="10"/><path stroke-linecap="round" transform="matrix(0.0396182, 0, 0, 0.0395229, 25.228976, 118.084972)" fill="none" stroke-linejoin="miter" d="M 658.569432 3173.226501 L 812.479905 3173.226501 " stroke="#ffffff" stroke-width="52.98" stroke-opacity="1" stroke-miterlimit="10"/><path fill="#ffffff" d="M 84.964844 234.839844 C 85.753906 234.839844 86.398438 234.199219 86.398438 233.410156 C 86.398438 232.617188 85.753906 231.980469 84.964844 231.980469 C 84.171875 231.980469 83.527344 232.617188 83.527344 233.410156 C 83.527344 234.199219 84.171875 234.839844 84.964844 234.839844 Z M 84.964844 234.839844 " fill-opacity="1" fill-rule="nonzero"/><path fill="#ffffff" d="M 84.496094 239.664062 C 85.289062 239.664062 85.933594 239.023438 85.933594 238.234375 C 85.933594 237.441406 85.289062 236.804688 84.496094 236.804688 C 83.707031 236.804688 83.0625 237.441406 83.0625 238.234375 C 83.0625 239.023438 83.707031 239.664062 84.496094 239.664062 Z M 84.496094 239.664062 " fill-opacity="1" fill-rule="nonzero"/><path fill="#ffffff" d="M 83.980469 244.929688 C 84.769531 244.929688 85.414062 244.289062 85.414062 243.5 C 85.414062 242.707031 84.769531 242.066406 83.980469 242.066406 C 83.1875 242.066406 82.542969 242.707031 82.542969 243.5 C 82.542969 244.289062 83.1875 244.929688 83.980469 244.929688 Z M 83.980469 244.929688 " fill-opacity="1" fill-rule="nonzero"/></svg>