<svg xmlns="http://www.w3.org/2000/svg" xmlns:xlink="http://www.w3.org/1999/xlink" width="500" zoomAndPan="magnify" viewBox="0 0 375 374.999991" height="500" preserveAspectRatio="xMidYMid meet" version="1.0"><defs><g/><clipPath id="74136e2814"><path d="M 114.191406 75 L 235 75 L 235 226.359375 L 114.191406 226.359375 Z M 114.191406 75 " clip-rule="nonzero"/></clipPath><clipPath id="27ee6dcec7"><path d="M 114.191406 75 L 235.691406 75 L 235.691406 226.359375 L 114.191406 226.359375 Z M 114.191406 75 " clip-rule="nonzero"/></clipPath></defs><path fill="#004aad" d="M 341.417969 240 L 224.753906 36.050781 L 179.238281 127.765625 L 259.371094 220.6875 L 110.648438 237.585938 Z M 111.292969 87.335938 L 33.726562 218.28125 L 99.753906 211.640625 L 215.777344 -0.152344 Z M 111.292969 87.335938 " fill-opacity="1" fill-rule="nonzero"/><g clip-path="url(#74136e2814)"><path fill="#f8cf53" d="M 157.195312 221.046875 C 156.421875 199.636719 144.878906 198.945312 135.710938 198.3125 C 125.863281 197.632812 126.542969 189.6875 127.09375 185.175781 C 127.640625 180.65625 126.542969 181.074219 124.363281 178.066406 C 122.179688 175.0625 125.042969 171.910156 125.042969 171.910156 C 121.347656 170.265625 123.8125 166.984375 124.492188 164.933594 C 125.171875 162.882812 124.21875 161.234375 120.941406 160.554688 C 117.664062 159.875 114.382812 157 114.789062 154.257812 C 115.195312 151.511719 124.636719 140.011719 126.28125 136.734375 C 127.925781 133.453125 126.832031 130.851562 125.328125 127.023438 C 123.824219 123.191406 125.328125 118.671875 125.328125 118.671875 C 129.691406 92.867188 152.820312 71.875 189.601562 75.847656 C 226.394531 79.816406 235.691406 112.386719 234.871094 130.578125 C 234.046875 148.78125 222.421875 165.886719 218.597656 174.226562 C 215.605469 180.75 216.105469 208.773438 216.460938 220.714844 C 216.546875 223.683594 214.171875 226.140625 211.203125 226.140625 L 162.453125 226.140625 C 159.617188 226.140625 157.292969 223.886719 157.195312 221.046875 Z M 157.195312 221.046875 " fill-opacity="1" fill-rule="nonzero"/></g><path fill="#ed715c" d="M 153.667969 121.738281 C 153.667969 121.738281 153.679688 121.738281 153.679688 121.738281 C 153.679688 121.738281 153.679688 121.738281 153.667969 121.738281 Z M 153.488281 121.714844 C 153.5 121.714844 153.5 121.714844 153.511719 121.714844 C 153.5 121.714844 153.488281 121.714844 153.488281 121.714844 Z M 154.085938 121.785156 C 154.097656 121.785156 154.097656 121.785156 154.109375 121.785156 C 154.097656 121.785156 154.097656 121.785156 154.085938 121.785156 Z M 154.300781 121.820312 C 154.3125 121.820312 154.3125 121.820312 154.324219 121.820312 C 154.3125 121.820312 154.3125 121.820312 154.300781 121.820312 Z M 154.789062 121.917969 C 154.789062 121.917969 154.777344 121.90625 154.789062 121.917969 C 154.777344 121.90625 154.789062 121.917969 154.789062 121.917969 Z M 163.527344 137.769531 C 166.042969 136.921875 168.011719 134.753906 168.464844 131.960938 C 169.117188 127.941406 166.375 124.148438 162.371094 123.492188 C 161.128906 123.289062 159.914062 123.40625 158.804688 123.789062 C 160.308594 125.019531 161.609375 126.972656 162.074219 130.050781 C 162.074219 130.050781 162.109375 135.277344 164.566406 140.226562 C 164.148438 139.40625 163.8125 138.582031 163.527344 137.769531 Z M 152.453125 121.679688 Z M 155.039062 121.964844 C 155.027344 121.964844 155.027344 121.964844 155.015625 121.953125 C 155.015625 121.964844 155.027344 121.964844 155.039062 121.964844 Z M 152.570312 121.679688 Z M 152.867188 121.679688 Z M 152.652344 121.679688 C 152.652344 121.679688 152.640625 121.679688 152.640625 121.679688 C 152.652344 121.679688 152.652344 121.679688 152.652344 121.679688 Z M 153 121.691406 C 153.011719 121.691406 153.011719 121.691406 153.023438 121.691406 C 153.011719 121.691406 153 121.691406 153 121.691406 Z M 153.15625 121.691406 Z M 164.816406 140.730469 C 164.898438 140.894531 164.992188 141.050781 165.078125 141.21875 C 164.980469 141.050781 164.898438 140.882812 164.816406 140.730469 Z M 164.550781 140.226562 C 164.636719 140.394531 164.71875 140.5625 164.804688 140.71875 C 164.71875 140.5625 164.636719 140.394531 164.550781 140.226562 Z M 158.507812 123.5625 C 158.519531 123.574219 158.53125 123.585938 158.554688 123.597656 C 158.542969 123.585938 158.53125 123.574219 158.507812 123.5625 Z M 181.042969 81.644531 C 163.910156 81.644531 148.980469 90.972656 141.148438 104.785156 C 141.078125 104.941406 133.375 122 152.367188 121.679688 L 150.9375 119.003906 L 153.285156 117.3125 L 156.0625 120.269531 C 157.601562 119.519531 159.308594 119.089844 161.09375 119.078125 L 162.261719 115.210938 L 165.125 115.675781 L 165.003906 119.722656 C 166.6875 120.292969 168.175781 121.238281 169.394531 122.441406 L 172.957031 120.519531 L 174.652344 122.871094 L 171.695312 125.636719 C 172.445312 127.175781 172.875 128.882812 172.886719 130.671875 L 176.75 131.839844 L 176.285156 134.703125 L 172.242188 134.585938 C 171.671875 136.265625 170.726562 137.757812 169.523438 138.976562 L 171.445312 142.542969 L 169.09375 144.234375 L 166.316406 141.277344 C 166.007812 141.433594 165.683594 141.574219 165.363281 141.695312 C 168.664062 147.136719 175.28125 151.5625 188.550781 147.265625 C 188.550781 147.265625 196.085938 143.402344 199.960938 150.558594 C 199.960938 150.558594 208.558594 165.660156 217.894531 153.839844 C 223.484375 146.324219 226.785156 137.03125 226.785156 126.972656 C 226.773438 101.933594 206.304688 81.644531 181.042969 81.644531 Z M 158.28125 123.394531 C 158.269531 123.382812 158.257812 123.382812 158.257812 123.371094 C 158.269531 123.382812 158.269531 123.394531 158.28125 123.394531 Z M 165.363281 141.695312 C 165.269531 141.539062 165.171875 141.371094 165.078125 141.207031 C 165.171875 141.371094 165.269531 141.539062 165.363281 141.695312 Z M 157.734375 123.039062 C 157.722656 123.027344 157.710938 123.027344 157.695312 123.015625 C 157.710938 123.027344 157.722656 123.039062 157.734375 123.039062 Z M 156.0625 122.261719 C 156.0625 122.261719 156.0625 122.273438 156.0625 122.261719 C 156.0625 122.273438 156.0625 122.261719 156.0625 122.261719 Z M 155.8125 122.179688 C 155.800781 122.179688 155.789062 122.167969 155.777344 122.167969 C 155.789062 122.179688 155.800781 122.179688 155.8125 122.179688 Z M 156.625 122.488281 C 156.613281 122.488281 156.601562 122.476562 156.589844 122.476562 C 156.601562 122.476562 156.613281 122.476562 156.625 122.488281 Z M 157.457031 122.882812 C 157.445312 122.882812 157.433594 122.871094 157.421875 122.871094 C 157.433594 122.871094 157.445312 122.882812 157.457031 122.882812 Z M 156.875 122.597656 C 156.886719 122.597656 156.886719 122.609375 156.898438 122.609375 C 156.886719 122.597656 156.875 122.597656 156.875 122.597656 Z M 156.875 122.597656 " fill-opacity="1" fill-rule="nonzero"/><path fill="#5ce1e6" d="M 175.03125 87.535156 L 171.824219 89.851562 L 174.734375 95.265625 C 173.253906 96.804688 172.085938 98.65625 171.347656 100.730469 L 165.207031 100.550781 L 164.578125 104.453125 L 170.464844 106.21875 C 170.515625 108.425781 171.039062 110.546875 171.945312 112.46875 L 167.460938 116.691406 L 169.773438 119.914062 L 175.1875 117 C 176.726562 118.480469 178.574219 119.648438 180.648438 120.390625 L 180.46875 126.53125 L 184.367188 127.164062 L 186.132812 121.273438 C 188.335938 121.222656 190.460938 120.699219 192.378906 119.792969 L 196.601562 124.277344 L 199.808594 121.964844 L 196.898438 116.546875 C 198.375 115.007812 199.542969 113.160156 200.285156 111.085938 L 206.421875 111.265625 L 207.054688 107.363281 L 201.164062 105.597656 C 201.117188 103.390625 200.59375 101.265625 199.6875 99.347656 L 204.171875 95.125 L 201.855469 91.914062 L 196.445312 94.824219 C 194.90625 93.347656 193.058594 92.175781 190.984375 91.4375 L 191.164062 85.292969 L 187.265625 84.660156 L 185.5 90.554688 C 183.292969 90.601562 181.171875 91.128906 179.253906 92.035156 Z M 187.371094 96.339844 C 192.640625 97.199219 196.242188 102.183594 195.382812 107.457031 C 194.523438 112.730469 189.542969 116.332031 184.273438 115.476562 C 179.003906 114.617188 175.402344 109.628906 176.261719 104.355469 C 177.105469 99.070312 182.101562 95.480469 187.371094 96.339844 Z M 187.371094 96.339844 " fill-opacity="1" fill-rule="nonzero"/><path fill="#5ce1e6" d="M 226.105469 134.765625 C 226.296875 133.65625 226.453125 132.546875 226.558594 131.414062 L 223.078125 130.363281 C 223.03125 128.824219 222.660156 127.332031 222.042969 125.984375 L 225.75 122.5 L 223.984375 120.054688 L 219.503906 122.464844 C 218.417969 121.4375 217.117188 120.628906 215.675781 120.089844 L 215.832031 115.007812 L 212.851562 114.519531 L 211.382812 119.386719 C 209.84375 119.433594 208.355469 119.804688 207.007812 120.425781 L 203.515625 116.714844 L 201.082031 118.480469 L 203.492188 122.964844 C 202.464844 124.050781 201.65625 125.339844 201.117188 126.796875 L 196.039062 126.640625 L 195.550781 129.621094 L 200.414062 131.089844 C 200.460938 132.628906 200.832031 134.121094 201.453125 135.46875 L 197.746094 138.964844 L 199.507812 141.410156 L 203.992188 139 C 205.078125 140.023438 206.363281 140.835938 207.820312 141.371094 L 207.664062 146.453125 L 210.644531 146.945312 L 212.109375 142.078125 C 213.648438 142.027344 215.140625 141.660156 216.484375 141.039062 L 219.96875 144.738281 L 222.410156 142.972656 L 220.003906 138.484375 C 221.027344 137.402344 221.839844 136.101562 222.375 134.65625 Z M 219.359375 131.949219 C 218.679688 136.148438 214.710938 139 210.523438 138.320312 C 206.328125 137.640625 203.480469 133.667969 204.160156 129.480469 C 204.839844 125.292969 208.808594 122.429688 212.992188 123.109375 C 217.1875 123.789062 220.039062 127.761719 219.359375 131.949219 Z M 142.019531 115.261719 L 144.773438 113.78125 C 145.574219 114.542969 146.527344 115.152344 147.609375 115.535156 L 147.515625 118.660156 L 149.519531 118.980469 L 150.425781 115.988281 C 151.570312 115.964844 152.679688 115.6875 153.667969 115.222656 L 155.8125 117.503906 L 157.457031 116.308594 L 155.980469 113.554688 C 156.742188 112.753906 157.351562 111.800781 157.734375 110.714844 L 160.855469 110.808594 L 161.179688 108.804688 L 158.1875 107.898438 C 158.164062 106.753906 157.886719 105.644531 157.421875 104.65625 L 159.699219 102.507812 L 158.507812 100.863281 L 155.753906 102.339844 C 154.957031 101.578125 154 100.96875 152.917969 100.585938 L 153.011719 97.460938 L 151.007812 97.140625 L 150.101562 100.132812 C 148.957031 100.15625 147.847656 100.433594 146.859375 100.898438 L 145.058594 98.988281 C 144.570312 99.609375 144.09375 100.242188 143.640625 100.886719 L 144.546875 102.578125 C 143.785156 103.378906 143.175781 104.332031 142.792969 105.417969 L 140.921875 105.359375 C 140.730469 105.847656 140.457031 106.625 140.195312 107.589844 L 142.339844 108.234375 C 142.363281 109.378906 142.640625 110.488281 143.105469 111.476562 L 140.828125 113.625 Z M 145.417969 107.265625 C 145.847656 104.59375 148.386719 102.769531 151.054688 103.199219 C 153.726562 103.628906 155.550781 106.167969 155.121094 108.84375 C 154.691406 111.515625 152.164062 113.339844 149.484375 112.910156 C 146.800781 112.480469 144.988281 109.953125 145.417969 107.265625 Z M 186.179688 146.800781 L 185.394531 145.714844 C 185.679688 145.355469 185.917969 144.964844 186.121094 144.546875 L 187.441406 144.761719 L 187.910156 141.863281 L 186.585938 141.648438 C 186.539062 141.183594 186.429688 140.730469 186.261719 140.3125 L 187.347656 139.523438 L 185.632812 137.148438 L 184.558594 137.925781 C 184.199219 137.640625 183.808594 137.386719 183.390625 137.199219 L 183.605469 135.875 L 180.71875 135.410156 L 180.503906 136.734375 C 180.039062 136.78125 179.585938 136.886719 179.15625 137.054688 L 178.371094 135.96875 L 175.996094 137.6875 L 176.785156 138.773438 C 176.5 139.128906 176.25 139.523438 176.058594 139.941406 L 174.734375 139.726562 L 174.269531 142.625 L 175.59375 142.839844 C 175.640625 143.304688 175.746094 143.757812 175.914062 144.175781 L 174.828125 144.964844 L 176.546875 147.335938 L 177.632812 146.550781 C 177.988281 146.835938 178.382812 147.085938 178.800781 147.277344 L 178.585938 148.601562 L 180.613281 148.9375 C 180.910156 148.914062 181.207031 148.886719 181.507812 148.851562 L 181.683594 147.753906 C 182.148438 147.707031 182.601562 147.601562 183.019531 147.433594 L 183.796875 148.507812 C 183.808594 148.507812 183.820312 148.507812 183.832031 148.496094 Z M 180.671875 144.808594 C 179.253906 144.582031 178.285156 143.234375 178.511719 141.8125 C 178.738281 140.394531 180.085938 139.429688 181.507812 139.65625 C 182.925781 139.882812 183.890625 141.230469 183.664062 142.648438 C 183.425781 144.070312 182.089844 145.035156 180.671875 144.808594 Z M 180.671875 144.808594 " fill-opacity="1" fill-rule="nonzero"/><path fill="#f8cf53" d="M 193.929688 142.304688 L 195.480469 141.183594 L 194.964844 140.464844 C 195.15625 140.238281 195.3125 139.976562 195.441406 139.703125 L 196.300781 139.847656 L 196.613281 137.949219 L 195.753906 137.804688 C 195.71875 137.507812 195.644531 137.210938 195.539062 136.921875 L 196.253906 136.410156 L 195.132812 134.859375 L 194.429688 135.371094 C 194.191406 135.183594 193.941406 135.027344 193.667969 134.894531 L 193.808594 134.035156 L 191.914062 133.726562 L 191.769531 134.585938 C 191.472656 134.621094 191.175781 134.691406 190.890625 134.789062 L 190.375 134.085938 L 188.828125 135.207031 L 189.339844 135.921875 C 189.148438 136.148438 188.992188 136.410156 188.863281 136.683594 L 188.003906 136.542969 L 187.695312 138.4375 L 188.550781 138.582031 C 188.585938 138.878906 188.660156 139.179688 188.765625 139.464844 L 188.050781 139.976562 L 189.171875 141.527344 L 189.886719 141.015625 C 190.113281 141.207031 190.375 141.359375 190.652344 141.492188 L 190.507812 142.351562 L 192.402344 142.660156 L 192.546875 141.800781 C 192.84375 141.765625 193.140625 141.695312 193.429688 141.601562 Z M 191.890625 139.894531 C 190.960938 139.738281 190.328125 138.867188 190.484375 137.9375 C 190.636719 137.007812 191.507812 136.375 192.4375 136.53125 C 193.367188 136.683594 194 137.554688 193.84375 138.484375 C 193.691406 139.40625 192.808594 140.035156 191.890625 139.894531 Z M 191.890625 139.894531 " fill-opacity="1" fill-rule="nonzero"/><g clip-path="url(#27ee6dcec7)"><path fill="#231f20" d="M 226.488281 97.773438 C 222.78125 91.84375 218.046875 87 212.410156 83.347656 C 205.945312 79.175781 198.28125 76.585938 189.625 75.65625 C 172.324219 73.792969 156.957031 77.347656 145.191406 85.949219 C 134.507812 93.75 127.390625 105.359375 125.148438 118.625 C 125.042969 118.945312 123.671875 123.300781 125.160156 127.082031 L 125.269531 127.355469 C 126.722656 131.066406 127.6875 133.523438 126.128906 136.648438 C 125.460938 137.972656 123.492188 140.691406 121.394531 143.578125 C 118.1875 147.992188 114.871094 152.550781 114.621094 154.222656 C 114.191406 157.097656 117.589844 160.019531 120.917969 160.722656 C 122.621094 161.082031 123.730469 161.699219 124.230469 162.570312 C 124.601562 163.203125 124.636719 163.980469 124.339844 164.875 C 124.21875 165.242188 124.027344 165.660156 123.839844 166.101562 C 123.003906 167.988281 121.871094 170.539062 124.78125 171.972656 C 124.207031 172.699219 122.300781 175.503906 124.230469 178.175781 C 124.769531 178.914062 125.246094 179.449219 125.636719 179.890625 C 126.84375 181.253906 127.34375 181.824219 126.9375 185.164062 C 126.640625 187.683594 126.066406 192.371094 128.605469 195.4375 C 130.097656 197.25 132.492188 198.277344 135.722656 198.503906 L 135.867188 198.515625 C 144.964844 199.144531 156.277344 199.933594 157.042969 221.070312 C 157.148438 224.03125 159.535156 226.34375 162.476562 226.34375 L 211.203125 226.34375 C 212.695312 226.34375 214.078125 225.761719 215.113281 224.6875 C 216.152344 223.625 216.6875 222.21875 216.652344 220.726562 C 216.296875 208.941406 215.792969 180.8125 218.773438 174.308594 C 219.585938 172.53125 220.753906 170.371094 222.101562 167.855469 C 227 158.730469 234.417969 144.953125 235.0625 130.589844 C 235.550781 119.421875 232.34375 107.148438 226.488281 97.773438 Z M 234.679688 130.566406 C 234.035156 144.84375 226.65625 158.585938 221.769531 167.675781 C 220.421875 170.195312 219.253906 172.363281 218.429688 174.144531 C 215.414062 180.703125 215.925781 208.90625 216.269531 220.714844 C 216.320312 222.097656 215.804688 223.410156 214.839844 224.414062 C 213.875 225.414062 212.574219 225.964844 211.191406 225.964844 L 162.453125 225.964844 C 159.699219 225.964844 157.472656 223.804688 157.375 221.035156 C 157.03125 211.503906 154.550781 205.207031 149.769531 201.78125 C 145.632812 198.8125 140.445312 198.453125 135.867188 198.132812 L 135.722656 198.121094 C 132.601562 197.90625 130.289062 196.914062 128.855469 195.1875 C 126.414062 192.226562 126.972656 187.644531 127.257812 185.175781 C 127.675781 181.683594 127.117188 181.039062 125.875 179.628906 C 125.472656 179.175781 125.019531 178.664062 124.492188 177.9375 C 122.417969 175.085938 125.054688 172.125 125.160156 172.007812 C 125.195312 171.960938 125.222656 171.910156 125.210938 171.851562 C 125.195312 171.792969 125.160156 171.746094 125.101562 171.722656 C 122.253906 170.457031 123.253906 168.214844 124.136719 166.222656 C 124.339844 165.769531 124.53125 165.351562 124.648438 164.957031 C 124.984375 163.96875 124.933594 163.097656 124.515625 162.367188 C 123.957031 161.402344 122.765625 160.722656 120.964844 160.339844 C 119.390625 160.007812 117.757812 159.136719 116.589844 158.015625 C 115.359375 156.832031 114.777344 155.496094 114.96875 154.28125 C 115.207031 152.707031 118.640625 147.96875 121.679688 143.792969 C 123.777344 140.894531 125.769531 138.164062 126.449219 136.816406 C 128.082031 133.535156 127.046875 130.886719 125.601562 127.226562 L 125.496094 126.949219 C 124.027344 123.230469 125.484375 118.765625 125.496094 118.71875 C 125.496094 118.707031 125.496094 118.707031 125.507812 118.695312 C 127.738281 105.515625 134.804688 93.976562 145.417969 86.234375 C 155.074219 79.175781 167.1875 75.535156 180.816406 75.535156 C 183.675781 75.535156 186.597656 75.691406 189.578125 76.011719 C 198.183594 76.941406 205.792969 79.507812 212.207031 83.648438 C 217.808594 87.261719 222.507812 92.082031 226.179688 97.949219 C 232.007812 107.28125 235.179688 119.472656 234.679688 130.566406 Z M 149.445312 113.089844 C 149.722656 113.136719 149.996094 113.160156 150.269531 113.160156 C 152.726562 113.160156 154.882812 111.382812 155.289062 108.878906 C 155.503906 107.542969 155.195312 106.195312 154.394531 105.085938 C 153.597656 103.976562 152.425781 103.246094 151.082031 103.03125 C 149.746094 102.816406 148.398438 103.128906 147.289062 103.925781 C 146.179688 104.726562 145.453125 105.894531 145.238281 107.242188 C 144.796875 110.011719 146.679688 112.636719 149.445312 113.089844 Z M 145.597656 107.304688 C 146.011719 104.726562 148.445312 102.972656 151.03125 103.390625 C 152.285156 103.59375 153.371094 104.273438 154.109375 105.300781 C 154.847656 106.324219 155.144531 107.578125 154.941406 108.832031 C 154.527344 111.40625 152.09375 113.160156 149.507812 112.742188 C 146.929688 112.3125 145.179688 109.878906 145.597656 107.304688 Z M 187.394531 96.160156 C 182.03125 95.289062 176.953125 98.953125 176.082031 104.320312 C 175.664062 106.921875 176.273438 109.535156 177.820312 111.667969 C 179.359375 113.816406 181.648438 115.222656 184.234375 115.640625 C 184.773438 115.726562 185.308594 115.773438 185.832031 115.773438 C 187.882812 115.773438 189.886719 115.128906 191.582031 113.898438 C 193.726562 112.359375 195.132812 110.070312 195.550781 107.480469 C 196.433594 102.113281 192.773438 97.03125 187.394531 96.160156 Z M 195.203125 107.421875 C 194.800781 109.925781 193.441406 112.121094 191.378906 113.613281 C 189.316406 115.105469 186.800781 115.703125 184.296875 115.285156 C 181.792969 114.878906 179.597656 113.519531 178.109375 111.453125 C 176.617188 109.390625 176.023438 106.875 176.4375 104.367188 C 177.191406 99.703125 181.242188 96.375 185.820312 96.375 C 186.324219 96.375 186.835938 96.410156 187.347656 96.496094 C 192.511719 97.355469 196.039062 102.246094 195.203125 107.421875 Z M 207.113281 107.183594 L 201.355469 105.453125 C 201.296875 103.34375 200.808594 101.304688 199.914062 99.371094 L 204.300781 95.242188 C 204.359375 95.183594 204.371094 95.074219 204.324219 95.003906 L 202.011719 91.796875 C 201.964844 91.722656 201.855469 91.699219 201.785156 91.746094 L 196.480469 94.597656 C 194.941406 93.144531 193.152344 92.035156 191.175781 91.304688 L 191.355469 85.292969 C 191.355469 85.199219 191.292969 85.125 191.199219 85.113281 L 187.300781 84.484375 C 187.21875 84.46875 187.121094 84.519531 187.097656 84.601562 L 185.367188 90.363281 C 183.257812 90.421875 181.21875 90.914062 179.289062 91.808594 L 175.164062 87.417969 C 175.105469 87.359375 174.996094 87.34375 174.925781 87.394531 L 171.71875 89.707031 C 171.644531 89.753906 171.621094 89.863281 171.671875 89.933594 L 174.519531 95.242188 C 173.066406 96.78125 171.957031 98.570312 171.230469 100.550781 L 165.21875 100.371094 C 165.136719 100.359375 165.054688 100.433594 165.042969 100.527344 L 164.410156 104.429688 C 164.398438 104.511719 164.445312 104.605469 164.527344 104.632812 L 170.289062 106.359375 C 170.347656 108.472656 170.835938 110.511719 171.730469 112.445312 L 167.34375 116.570312 C 167.28125 116.632812 167.269531 116.738281 167.320312 116.8125 L 169.632812 120.019531 C 169.679688 120.089844 169.785156 120.113281 169.859375 120.066406 L 175.164062 117.214844 C 176.703125 118.671875 178.488281 119.78125 180.46875 120.507812 L 180.289062 126.519531 C 180.289062 126.617188 180.347656 126.6875 180.445312 126.699219 L 184.34375 127.332031 C 184.355469 127.332031 184.367188 127.332031 184.367188 127.332031 C 184.449219 127.332031 184.511719 127.285156 184.535156 127.199219 L 186.261719 121.4375 C 188.375 121.378906 190.410156 120.890625 192.34375 119.996094 L 196.46875 124.386719 C 196.527344 124.445312 196.636719 124.457031 196.707031 124.410156 L 199.914062 122.09375 C 199.984375 122.046875 200.007812 121.941406 199.960938 121.867188 L 197.113281 116.558594 C 198.566406 115.019531 199.675781 113.230469 200.402344 111.25 L 206.410156 111.429688 C 206.496094 111.429688 206.578125 111.371094 206.589844 111.277344 L 207.222656 107.375 C 207.246094 107.292969 207.199219 107.207031 207.113281 107.183594 Z M 206.28125 111.074219 L 200.296875 110.894531 C 200.210938 110.894531 200.152344 110.941406 200.117188 111.011719 C 199.390625 113.042969 198.269531 114.855469 196.777344 116.417969 C 196.71875 116.476562 196.71875 116.558594 196.753906 116.632812 L 199.59375 121.917969 L 196.636719 124.050781 L 192.523438 119.6875 C 192.472656 119.625 192.390625 119.613281 192.320312 119.648438 C 190.363281 120.582031 188.289062 121.070312 186.144531 121.117188 C 186.058594 121.117188 186 121.164062 185.976562 121.25 L 184.25 126.949219 L 180.660156 126.367188 L 180.839844 120.378906 C 180.839844 120.292969 180.789062 120.234375 180.71875 120.199219 C 178.691406 119.472656 176.878906 118.351562 175.320312 116.859375 C 175.257812 116.796875 175.175781 116.796875 175.105469 116.835938 L 169.820312 119.671875 L 167.6875 116.714844 L 172.050781 112.601562 C 172.109375 112.550781 172.125 112.46875 172.085938 112.398438 C 171.15625 110.441406 170.667969 108.363281 170.621094 106.21875 C 170.621094 106.132812 170.574219 106.074219 170.488281 106.050781 L 164.753906 104.320312 L 165.339844 100.730469 L 171.324219 100.910156 C 171.40625 100.910156 171.46875 100.863281 171.503906 100.789062 C 172.230469 98.761719 173.351562 96.949219 174.839844 95.386719 C 174.902344 95.328125 174.902344 95.242188 174.867188 95.171875 L 172.027344 89.886719 L 174.984375 87.761719 L 179.097656 92.128906 C 179.144531 92.1875 179.230469 92.199219 179.300781 92.164062 C 181.253906 91.234375 183.332031 90.746094 185.476562 90.699219 C 185.558594 90.699219 185.621094 90.648438 185.644531 90.566406 L 187.371094 84.828125 L 190.960938 85.414062 L 190.78125 91.402344 C 190.78125 91.484375 190.828125 91.542969 190.902344 91.582031 C 192.925781 92.308594 194.738281 93.429688 196.300781 94.921875 C 196.359375 94.980469 196.445312 94.980469 196.515625 94.945312 L 201.796875 92.105469 L 203.921875 95.0625 L 199.554688 99.179688 C 199.496094 99.226562 199.484375 99.3125 199.519531 99.382812 C 200.449219 101.339844 200.9375 103.414062 200.988281 105.5625 C 200.988281 105.644531 201.035156 105.703125 201.117188 105.726562 L 206.851562 107.457031 Z M 180.636719 144.988281 C 180.789062 145.011719 180.933594 145.023438 181.089844 145.023438 C 181.671875 145.023438 182.234375 144.84375 182.710938 144.5 C 183.316406 144.058594 183.710938 143.425781 183.832031 142.683594 C 183.949219 141.945312 183.769531 141.21875 183.34375 140.609375 C 182.902344 140 182.257812 139.609375 181.53125 139.488281 C 180.015625 139.238281 178.585938 140.277344 178.335938 141.789062 C 178.085938 143.304688 179.121094 144.738281 180.636719 144.988281 Z M 178.691406 141.851562 C 178.882812 140.65625 179.921875 139.808594 181.089844 139.808594 C 181.21875 139.808594 181.351562 139.820312 181.480469 139.847656 C 182.125 139.953125 182.6875 140.300781 183.054688 140.824219 C 183.425781 141.347656 183.59375 141.992188 183.484375 142.636719 C 183.378906 143.28125 183.03125 143.84375 182.507812 144.210938 C 181.984375 144.59375 181.339844 144.75 180.695312 144.640625 C 179.371094 144.414062 178.476562 143.175781 178.691406 141.851562 Z M 195.167969 134.691406 C 195.121094 134.679688 195.074219 134.691406 195.039062 134.726562 L 194.441406 135.15625 C 194.261719 135.027344 194.070312 134.90625 193.871094 134.800781 L 193.988281 134.074219 C 194 133.976562 193.941406 133.882812 193.84375 133.871094 L 191.949219 133.558594 C 191.902344 133.546875 191.855469 133.558594 191.820312 133.59375 C 191.78125 133.617188 191.757812 133.667969 191.746094 133.714844 L 191.628906 134.441406 C 191.402344 134.476562 191.1875 134.527344 190.972656 134.597656 L 190.542969 134 C 190.484375 133.917969 190.375 133.90625 190.292969 133.964844 L 188.742188 135.085938 C 188.707031 135.109375 188.683594 135.15625 188.671875 135.207031 C 188.660156 135.253906 188.671875 135.300781 188.707031 135.335938 L 189.136719 135.933594 C 189.003906 136.113281 188.886719 136.304688 188.777344 136.507812 L 188.050781 136.386719 C 187.957031 136.375 187.859375 136.433594 187.847656 136.53125 L 187.539062 138.425781 C 187.527344 138.523438 187.585938 138.617188 187.683594 138.628906 L 188.410156 138.75 C 188.445312 138.976562 188.492188 139.191406 188.5625 139.40625 L 187.96875 139.835938 C 187.933594 139.859375 187.910156 139.90625 187.894531 139.953125 C 187.882812 140 187.894531 140.050781 187.933594 140.085938 L 189.054688 141.636719 C 189.113281 141.71875 189.21875 141.730469 189.304688 141.671875 L 189.898438 141.242188 C 190.078125 141.371094 190.269531 141.492188 190.472656 141.601562 L 190.351562 142.328125 C 190.339844 142.421875 190.398438 142.519531 190.496094 142.53125 L 192.390625 142.839844 C 192.402344 142.839844 192.414062 142.839844 192.414062 142.839844 C 192.449219 142.839844 192.488281 142.828125 192.523438 142.804688 C 192.558594 142.78125 192.582031 142.734375 192.59375 142.683594 L 192.714844 141.957031 C 192.941406 141.921875 193.152344 141.875 193.367188 141.800781 L 193.796875 142.398438 C 193.820312 142.433594 193.871094 142.457031 193.917969 142.46875 C 193.964844 142.484375 194.011719 142.46875 194.046875 142.433594 L 195.597656 141.3125 C 195.632812 141.289062 195.65625 141.242188 195.667969 141.195312 C 195.679688 141.144531 195.667969 141.097656 195.632812 141.0625 L 195.203125 140.464844 C 195.335938 140.289062 195.457031 140.097656 195.5625 139.894531 L 196.289062 140.011719 C 196.386719 140.023438 196.480469 139.964844 196.492188 139.871094 L 196.800781 137.972656 C 196.8125 137.878906 196.753906 137.78125 196.660156 137.769531 L 195.933594 137.652344 C 195.894531 137.425781 195.847656 137.210938 195.777344 136.996094 L 196.386719 136.566406 C 196.421875 136.542969 196.445312 136.492188 196.457031 136.445312 C 196.46875 136.398438 196.457031 136.351562 196.421875 136.316406 L 195.300781 134.765625 C 195.265625 134.726562 195.214844 134.703125 195.167969 134.691406 Z M 195.441406 136.792969 C 195.382812 136.839844 195.347656 136.921875 195.382812 136.996094 C 195.480469 137.269531 195.550781 137.542969 195.585938 137.828125 C 195.597656 137.914062 195.65625 137.972656 195.742188 137.984375 L 196.421875 138.09375 L 196.171875 139.632812 L 195.492188 139.523438 C 195.40625 139.511719 195.335938 139.546875 195.300781 139.632812 C 195.179688 139.894531 195.027344 140.132812 194.847656 140.359375 C 194.800781 140.417969 194.800781 140.515625 194.835938 140.574219 L 195.242188 141.132812 L 193.976562 142.042969 L 193.570312 141.480469 C 193.523438 141.421875 193.441406 141.386719 193.367188 141.421875 C 193.09375 141.515625 192.820312 141.585938 192.535156 141.625 C 192.449219 141.636719 192.390625 141.695312 192.378906 141.777344 L 192.273438 142.46875 L 190.734375 142.21875 L 190.839844 141.527344 C 190.851562 141.445312 190.816406 141.371094 190.734375 141.335938 C 190.472656 141.21875 190.234375 141.0625 190.007812 140.882812 C 189.945312 140.835938 189.851562 140.835938 189.792969 140.882812 L 189.230469 141.289062 L 188.324219 140.023438 L 188.886719 139.621094 C 188.957031 139.570312 188.980469 139.488281 188.945312 139.417969 C 188.851562 139.152344 188.777344 138.867188 188.742188 138.582031 C 188.730469 138.5 188.671875 138.4375 188.601562 138.425781 L 187.921875 138.320312 L 188.171875 136.78125 L 188.863281 136.886719 C 188.945312 136.898438 189.015625 136.863281 189.054688 136.78125 C 189.171875 136.519531 189.328125 136.265625 189.507812 136.050781 C 189.554688 135.992188 189.566406 135.898438 189.519531 135.835938 L 189.113281 135.277344 L 190.375 134.371094 L 190.78125 134.929688 C 190.828125 134.992188 190.914062 135.027344 190.984375 134.992188 C 191.257812 134.894531 191.53125 134.824219 191.820312 134.789062 C 191.902344 134.777344 191.960938 134.714844 191.972656 134.632812 L 192.082031 133.941406 L 193.617188 134.191406 L 193.511719 134.882812 C 193.5 134.96875 193.535156 135.039062 193.617188 135.074219 C 193.871094 135.195312 194.121094 135.347656 194.347656 135.527344 C 194.40625 135.574219 194.5 135.574219 194.5625 135.527344 L 195.121094 135.121094 L 196.027344 136.386719 Z M 192.460938 136.339844 C 191.960938 136.253906 191.472656 136.375 191.054688 136.671875 C 190.636719 136.972656 190.375 137.402344 190.292969 137.902344 C 190.125 138.925781 190.828125 139.894531 191.855469 140.0625 C 191.960938 140.074219 192.058594 140.085938 192.152344 140.085938 C 193.058594 140.085938 193.859375 139.429688 194.011719 138.5 C 194.097656 137.996094 193.976562 137.507812 193.679688 137.089844 C 193.378906 136.671875 192.964844 136.421875 192.460938 136.339844 Z M 193.667969 138.449219 C 193.535156 139.285156 192.75 139.847656 191.914062 139.714844 C 191.078125 139.582031 190.519531 138.796875 190.652344 137.960938 C 190.710938 137.554688 190.9375 137.210938 191.269531 136.972656 C 191.605469 136.734375 192.007812 136.636719 192.402344 136.695312 C 192.808594 136.757812 193.152344 136.984375 193.390625 137.316406 C 193.632812 137.640625 193.726562 138.042969 193.667969 138.449219 Z M 213.015625 122.941406 C 210.941406 122.609375 208.855469 123.097656 207.152344 124.324219 C 205.445312 125.554688 204.3125 127.378906 203.980469 129.457031 C 203.644531 131.53125 204.132812 133.617188 205.363281 135.324219 C 206.589844 137.03125 208.414062 138.164062 210.488281 138.5 C 210.917969 138.570312 211.335938 138.605469 211.753906 138.605469 C 215.542969 138.605469 218.894531 135.851562 219.527344 131.984375 C 219.859375 129.910156 219.371094 127.820312 218.144531 126.117188 C 216.914062 124.398438 215.089844 123.277344 213.015625 122.941406 Z M 219.179688 131.925781 C 218.511719 136.015625 214.648438 138.808594 210.546875 138.152344 C 208.570312 137.828125 206.828125 136.757812 205.660156 135.121094 C 204.480469 133.488281 204.015625 131.496094 204.335938 129.515625 C 204.660156 127.535156 205.730469 125.792969 207.367188 124.625 C 208.664062 123.695312 210.179688 123.203125 211.753906 123.203125 C 212.160156 123.203125 212.5625 123.242188 212.96875 123.300781 C 214.949219 123.621094 216.6875 124.695312 217.855469 126.332031 C 219.039062 127.953125 219.503906 129.945312 219.179688 131.925781 Z M 213.503906 94.789062 C 209.285156 90.613281 204.371094 87.332031 198.914062 85.03125 C 193.25 82.65625 187.242188 81.453125 181.042969 81.453125 C 172.742188 81.453125 164.613281 83.671875 157.519531 87.871094 C 152.667969 90.746094 148.398438 94.480469 144.929688 98.855469 C 144.917969 98.871094 144.90625 98.894531 144.894531 98.90625 C 144.785156 99.035156 144.691406 99.167969 144.582031 99.296875 C 144.558594 99.324219 144.535156 99.359375 144.511719 99.382812 C 144.1875 99.800781 143.867188 100.230469 143.558594 100.660156 C 143.535156 100.683594 143.507812 100.71875 143.496094 100.742188 C 142.605469 102.007812 141.757812 103.320312 140.992188 104.667969 C 140.992188 104.667969 140.992188 104.679688 140.980469 104.679688 C 140.839844 104.988281 137.511719 112.457031 140.804688 117.46875 C 142.757812 120.449219 146.65625 121.917969 152.378906 121.820312 L 152.390625 121.820312 C 152.402344 121.820312 152.402344 121.820312 152.414062 121.820312 C 152.414062 121.820312 152.414062 121.820312 152.425781 121.820312 C 152.425781 121.820312 152.441406 121.820312 152.453125 121.820312 C 152.464844 121.820312 152.464844 121.820312 152.476562 121.820312 C 152.90625 121.808594 156.125 121.773438 158.699219 123.898438 C 158.710938 123.910156 158.722656 123.910156 158.734375 123.921875 C 160.425781 125.328125 161.488281 127.367188 161.90625 130.027344 C 161.90625 130.242188 161.964844 132.914062 162.859375 136.160156 C 163.003906 136.671875 163.167969 137.210938 163.359375 137.769531 C 163.359375 137.78125 163.359375 137.78125 163.359375 137.792969 C 163.859375 139.238281 164.480469 140.5625 165.207031 141.753906 C 165.21875 141.765625 165.21875 141.777344 165.230469 141.777344 C 166.246094 143.4375 167.582031 145.035156 169.332031 146.300781 C 172.335938 148.472656 176.105469 149.390625 180.601562 149.054688 C 180.601562 149.054688 180.613281 149.054688 180.613281 149.054688 C 180.625 149.054688 180.636719 149.054688 180.636719 149.054688 C 180.753906 149.042969 180.875 149.03125 180.992188 149.03125 C 181.066406 149.03125 181.125 149.019531 181.195312 149.007812 C 182.042969 148.925781 182.914062 148.804688 183.808594 148.625 C 183.808594 148.625 183.808594 148.625 183.820312 148.625 L 183.855469 148.613281 C 183.855469 148.613281 183.867188 148.613281 183.867188 148.613281 C 185.378906 148.328125 186.953125 147.921875 188.601562 147.386719 C 188.613281 147.386719 188.625 147.375 188.625 147.375 C 188.648438 147.363281 190.507812 146.417969 192.808594 146.359375 C 195.871094 146.277344 198.222656 147.695312 199.78125 150.59375 C 199.949219 150.890625 204.074219 158.039062 209.808594 158.46875 C 209.988281 158.480469 210.167969 158.492188 210.347656 158.492188 C 213.027344 158.492188 215.605469 156.953125 218.011719 153.898438 C 223.855469 146.039062 226.941406 136.707031 226.941406 126.925781 C 226.941406 120.78125 225.726562 114.820312 223.328125 109.210938 C 221.039062 103.84375 217.726562 98.976562 213.503906 94.789062 Z M 145.082031 99.261719 L 146.742188 101.027344 C 146.789062 101.089844 146.871094 101.101562 146.941406 101.0625 C 147.945312 100.585938 149.007812 100.335938 150.113281 100.3125 C 150.199219 100.3125 150.257812 100.265625 150.28125 100.179688 L 151.140625 97.332031 L 152.832031 97.605469 L 152.75 100.574219 C 152.75 100.660156 152.796875 100.71875 152.867188 100.753906 C 153.90625 101.125 154.847656 101.695312 155.632812 102.472656 C 155.695312 102.53125 155.777344 102.53125 155.847656 102.496094 L 158.472656 101.089844 L 159.472656 102.484375 L 157.304688 104.523438 C 157.246094 104.570312 157.230469 104.65625 157.269531 104.726562 C 157.746094 105.726562 157.996094 106.789062 158.019531 107.898438 C 158.019531 107.984375 158.066406 108.042969 158.148438 108.066406 L 161 108.925781 L 160.726562 110.621094 L 157.757812 110.535156 C 157.671875 110.535156 157.613281 110.582031 157.578125 110.65625 C 157.207031 111.691406 156.636719 112.636719 155.859375 113.421875 C 155.800781 113.484375 155.800781 113.566406 155.835938 113.636719 L 157.246094 116.261719 L 155.847656 117.265625 L 153.796875 115.105469 C 153.75 115.046875 153.667969 115.035156 153.597656 115.070312 C 152.59375 115.546875 151.535156 115.796875 150.425781 115.820312 C 150.339844 115.820312 150.28125 115.867188 150.257812 115.953125 L 149.398438 118.804688 L 147.707031 118.527344 L 147.789062 115.558594 C 147.789062 115.476562 147.742188 115.414062 147.671875 115.378906 C 146.632812 115.007812 145.691406 114.4375 144.90625 113.660156 C 144.84375 113.601562 144.761719 113.589844 144.691406 113.636719 L 142.066406 115.046875 L 141.066406 113.648438 L 143.234375 111.609375 C 143.296875 111.5625 143.308594 111.476562 143.269531 111.40625 C 142.792969 110.40625 142.542969 109.34375 142.519531 108.234375 C 142.519531 108.148438 142.472656 108.089844 142.390625 108.066406 L 140.410156 107.46875 C 140.636719 106.671875 140.863281 106.003906 141.042969 105.550781 L 142.792969 105.597656 C 142.878906 105.597656 142.9375 105.550781 142.972656 105.476562 C 143.34375 104.441406 143.914062 103.496094 144.691406 102.710938 C 144.75 102.652344 144.75 102.566406 144.714844 102.496094 L 143.855469 100.910156 C 143.878906 100.875 143.914062 100.824219 143.9375 100.789062 C 144.082031 100.585938 144.238281 100.371094 144.390625 100.167969 C 144.414062 100.144531 144.441406 100.109375 144.453125 100.085938 C 144.535156 99.980469 144.617188 99.859375 144.703125 99.753906 C 144.738281 99.703125 144.773438 99.65625 144.808594 99.609375 C 144.90625 99.476562 144.988281 99.371094 145.082031 99.261719 Z M 143.617188 101.21875 L 144.320312 102.542969 C 143.59375 103.332031 143.03125 104.226562 142.664062 105.226562 L 141.171875 105.179688 C 141.246094 105.023438 141.28125 104.917969 141.304688 104.871094 C 142.019531 103.617188 142.792969 102.386719 143.617188 101.21875 Z M 164.933594 119.875 C 166.566406 120.4375 168.023438 121.34375 169.261719 122.5625 C 169.320312 122.621094 169.40625 122.632812 169.476562 122.597656 L 172.898438 120.757812 L 174.414062 122.859375 L 171.585938 125.53125 C 171.527344 125.589844 171.515625 125.675781 171.550781 125.746094 C 172.3125 127.308594 172.707031 128.964844 172.71875 130.695312 C 172.71875 130.78125 172.765625 130.839844 172.851562 130.863281 L 176.570312 131.984375 L 176.152344 134.539062 L 172.265625 134.417969 C 172.183594 134.417969 172.109375 134.464844 172.085938 134.539062 C 171.527344 136.171875 170.621094 137.628906 169.40625 138.867188 C 169.34375 138.925781 169.332031 139.011719 169.371094 139.082031 L 171.207031 142.507812 L 169.105469 144.019531 L 166.4375 141.195312 C 166.402344 141.160156 166.351562 141.132812 166.304688 141.132812 C 166.28125 141.132812 166.257812 141.132812 166.222656 141.160156 C 165.960938 141.289062 165.695312 141.410156 165.421875 141.515625 C 164.707031 140.3125 164.160156 139.070312 163.742188 137.925781 C 166.328125 136.984375 168.1875 134.742188 168.628906 132.03125 C 168.953125 130.039062 168.476562 128.046875 167.292969 126.402344 C 166.113281 124.765625 164.375 123.683594 162.382812 123.359375 C 161.191406 123.167969 159.960938 123.265625 158.816406 123.632812 C 156.171875 121.5 152.988281 121.523438 152.453125 121.546875 L 151.140625 119.113281 L 153.238281 117.597656 L 155.898438 120.425781 C 155.957031 120.484375 156.039062 120.496094 156.113281 120.460938 C 157.671875 119.699219 159.332031 119.304688 161.058594 119.292969 C 161.144531 119.292969 161.203125 119.246094 161.226562 119.160156 L 162.347656 115.4375 L 164.898438 115.855469 L 164.777344 119.734375 C 164.804688 119.78125 164.851562 119.851562 164.933594 119.875 Z M 162.25 130.050781 C 162.25 130.039062 162.25 130.039062 162.25 130.027344 C 161.796875 127.035156 160.546875 125.113281 159.164062 123.871094 C 160.1875 123.5625 161.285156 123.503906 162.347656 123.671875 C 164.242188 123.980469 165.898438 125.007812 167.03125 126.570312 C 168.164062 128.132812 168.605469 130.039062 168.296875 131.925781 C 167.878906 134.515625 166.101562 136.636719 163.644531 137.53125 C 163.480469 137.042969 163.324219 136.554688 163.207031 136.113281 C 162.289062 132.796875 162.25 130.074219 162.25 130.050781 Z M 178.859375 147.109375 C 178.453125 146.921875 178.074219 146.679688 177.726562 146.40625 C 177.667969 146.359375 177.570312 146.359375 177.511719 146.394531 L 176.570312 147.074219 L 175.066406 144.988281 L 176.011719 144.308594 C 176.070312 144.261719 176.105469 144.175781 176.070312 144.105469 C 175.914062 143.6875 175.808594 143.246094 175.757812 142.804688 C 175.746094 142.722656 175.6875 142.660156 175.605469 142.648438 L 174.460938 142.457031 L 174.878906 139.917969 L 176.023438 140.109375 C 176.105469 140.121094 176.175781 140.085938 176.210938 140 C 176.402344 139.59375 176.628906 139.214844 176.914062 138.867188 C 176.964844 138.808594 176.964844 138.710938 176.914062 138.652344 L 176.238281 137.710938 L 178.324219 136.207031 L 179.003906 137.148438 C 179.050781 137.210938 179.132812 137.246094 179.203125 137.210938 C 179.621094 137.054688 180.0625 136.949219 180.503906 136.898438 C 180.589844 136.886719 180.648438 136.828125 180.660156 136.746094 L 180.851562 135.597656 L 183.390625 136.015625 L 183.199219 137.160156 C 183.1875 137.246094 183.222656 137.316406 183.304688 137.351562 C 183.710938 137.53125 184.09375 137.769531 184.4375 138.058594 C 184.5 138.105469 184.59375 138.105469 184.652344 138.070312 L 185.59375 137.386719 L 187.097656 139.476562 L 186.15625 140.15625 C 186.097656 140.203125 186.058594 140.289062 186.097656 140.359375 C 186.25 140.777344 186.359375 141.21875 186.40625 141.660156 C 186.417969 141.742188 186.476562 141.800781 186.5625 141.8125 L 187.707031 142.003906 L 187.289062 144.546875 L 186.144531 144.355469 C 186.058594 144.34375 185.988281 144.378906 185.953125 144.460938 C 185.773438 144.867188 185.535156 145.25 185.25 145.597656 C 185.203125 145.65625 185.203125 145.75 185.25 145.8125 L 185.929688 146.753906 L 183.84375 148.257812 L 183.164062 147.3125 C 183.117188 147.253906 183.03125 147.21875 182.960938 147.253906 C 182.542969 147.410156 182.101562 147.515625 181.660156 147.5625 C 181.578125 147.578125 181.519531 147.636719 181.507812 147.707031 L 181.351562 148.671875 C 181.351562 148.671875 181.339844 148.671875 181.339844 148.671875 C 181.113281 148.699219 180.875 148.722656 180.648438 148.734375 C 180.636719 148.734375 180.625 148.734375 180.625 148.734375 L 178.789062 148.433594 L 178.976562 147.289062 C 178.980469 147.21875 178.929688 147.148438 178.859375 147.109375 Z M 183.472656 148.375 C 182.878906 148.484375 182.28125 148.566406 181.707031 148.636719 L 181.828125 147.910156 C 182.210938 147.863281 182.578125 147.765625 182.949219 147.648438 Z M 219.859375 138.558594 L 222.195312 142.898438 L 220.003906 144.488281 L 216.628906 140.894531 C 216.582031 140.835938 216.496094 140.824219 216.425781 140.859375 C 215.066406 141.492188 213.613281 141.839844 212.121094 141.886719 C 212.050781 141.886719 211.980469 141.945312 211.957031 142.015625 L 210.535156 146.742188 L 207.867188 146.3125 L 208.007812 141.386719 C 208.007812 141.3125 207.960938 141.242188 207.890625 141.207031 C 206.484375 140.691406 205.21875 139.90625 204.121094 138.867188 C 204.0625 138.820312 203.980469 138.808594 203.921875 138.84375 L 199.582031 141.160156 L 198.007812 138.964844 L 201.59375 135.585938 C 201.65625 135.539062 201.667969 135.457031 201.628906 135.382812 C 201 134.023438 200.652344 132.570312 200.605469 131.078125 C 200.605469 131.007812 200.558594 130.933594 200.472656 130.910156 L 195.765625 129.492188 L 196.195312 126.820312 L 201.117188 126.960938 C 201.191406 126.960938 201.261719 126.914062 201.296875 126.84375 C 201.808594 125.4375 202.597656 124.171875 203.632812 123.074219 C 203.679688 123.015625 203.695312 122.929688 203.65625 122.871094 L 201.320312 118.527344 L 203.515625 116.953125 L 206.886719 120.542969 C 206.9375 120.605469 207.019531 120.617188 207.089844 120.582031 C 208.449219 119.949219 209.90625 119.601562 211.394531 119.554688 C 211.464844 119.554688 211.539062 119.507812 211.5625 119.421875 L 212.980469 114.699219 L 215.652344 115.128906 L 215.507812 120.054688 C 215.507812 120.128906 215.554688 120.199219 215.628906 120.234375 C 217.035156 120.746094 218.296875 121.535156 219.394531 122.574219 C 219.453125 122.621094 219.539062 122.632812 219.597656 122.597656 L 223.9375 120.257812 L 225.511719 122.453125 L 221.921875 125.828125 C 221.863281 125.878906 221.851562 125.960938 221.886719 126.03125 C 222.519531 127.390625 222.863281 128.847656 222.914062 130.339844 C 222.914062 130.410156 222.972656 130.480469 223.042969 130.503906 L 226.382812 131.507812 C 226.273438 132.523438 226.144531 133.535156 225.964844 134.550781 L 222.398438 134.441406 C 222.328125 134.441406 222.257812 134.488281 222.21875 134.5625 C 221.707031 135.96875 220.921875 137.234375 219.882812 138.332031 C 219.835938 138.414062 219.824219 138.5 219.859375 138.558594 Z M 226.40625 131.171875 L 223.257812 130.230469 C 223.199219 128.777344 222.863281 127.355469 222.269531 126.03125 L 225.878906 122.632812 C 225.941406 122.574219 225.953125 122.464844 225.90625 122.394531 L 224.140625 119.9375 C 224.09375 119.863281 223.984375 119.839844 223.914062 119.886719 L 219.550781 122.238281 C 218.476562 121.25 217.238281 120.484375 215.878906 119.960938 L 216.03125 115.007812 C 216.03125 114.914062 215.972656 114.84375 215.878906 114.832031 L 212.898438 114.339844 C 212.8125 114.328125 212.71875 114.378906 212.695312 114.460938 L 211.265625 119.207031 C 209.808594 119.269531 208.390625 119.601562 207.066406 120.199219 L 203.667969 116.585938 C 203.609375 116.523438 203.503906 116.511719 203.429688 116.558594 L 200.988281 118.324219 C 200.914062 118.375 200.890625 118.480469 200.9375 118.550781 L 203.289062 122.917969 C 202.296875 123.992188 201.535156 125.234375 201.011719 126.59375 L 196.0625 126.449219 C 195.980469 126.449219 195.894531 126.507812 195.882812 126.605469 L 195.394531 129.585938 C 195.382812 129.671875 195.429688 129.765625 195.515625 129.789062 L 200.261719 131.222656 C 200.320312 132.675781 200.652344 134.097656 201.25 135.421875 L 197.636719 138.820312 C 197.578125 138.878906 197.566406 138.988281 197.613281 139.058594 L 199.378906 141.503906 C 199.425781 141.574219 199.53125 141.601562 199.605469 141.550781 L 203.96875 139.203125 C 205.039062 140.191406 206.28125 140.957031 207.640625 141.480469 L 207.496094 146.429688 C 207.496094 146.527344 207.554688 146.597656 207.652344 146.609375 L 210.632812 147.097656 C 210.644531 147.097656 210.65625 147.097656 210.65625 147.097656 C 210.738281 147.097656 210.800781 147.050781 210.824219 146.96875 L 212.253906 142.21875 C 213.707031 142.160156 215.125 141.828125 216.449219 141.230469 L 219.847656 144.84375 C 219.90625 144.902344 220.015625 144.914062 220.085938 144.867188 L 222.53125 143.101562 C 222.601562 143.054688 222.625 142.949219 222.578125 142.875 L 220.230469 138.511719 C 221.21875 137.4375 221.980469 136.195312 222.507812 134.835938 L 225.894531 134.929688 C 224.675781 141.707031 221.921875 148.101562 217.738281 153.730469 C 215.257812 156.882812 212.597656 158.371094 209.84375 158.15625 C 204.3125 157.738281 200.140625 150.535156 200.105469 150.464844 C 198.148438 146.835938 195.253906 146.039062 193.058594 146.039062 C 192.964844 146.039062 192.878906 146.039062 192.785156 146.039062 C 190.484375 146.109375 188.660156 146.992188 188.46875 147.085938 C 187.132812 147.515625 185.832031 147.875 184.59375 148.136719 L 186.273438 146.933594 C 186.3125 146.90625 186.335938 146.859375 186.347656 146.8125 C 186.359375 146.765625 186.347656 146.71875 186.3125 146.679688 L 185.605469 145.703125 C 185.847656 145.394531 186.046875 145.070312 186.214844 144.726562 L 187.394531 144.914062 C 187.441406 144.929688 187.492188 144.914062 187.527344 144.878906 C 187.5625 144.855469 187.585938 144.808594 187.597656 144.761719 L 188.0625 141.863281 C 188.074219 141.765625 188.015625 141.671875 187.921875 141.660156 L 186.738281 141.46875 C 186.691406 141.085938 186.597656 140.71875 186.476562 140.347656 L 187.457031 139.644531 C 187.539062 139.582031 187.550781 139.476562 187.492188 139.394531 L 185.773438 137.019531 C 185.75 136.984375 185.703125 136.960938 185.65625 136.949219 C 185.605469 136.933594 185.558594 136.949219 185.523438 136.984375 L 184.546875 137.6875 C 184.234375 137.449219 183.914062 137.246094 183.570312 137.078125 L 183.757812 135.898438 C 183.769531 135.851562 183.757812 135.800781 183.722656 135.765625 C 183.699219 135.730469 183.652344 135.707031 183.605469 135.695312 L 180.71875 135.230469 C 180.671875 135.21875 180.625 135.230469 180.589844 135.265625 C 180.550781 135.289062 180.527344 135.335938 180.515625 135.382812 L 180.324219 136.566406 C 179.945312 136.613281 179.5625 136.707031 179.203125 136.828125 L 178.5 135.851562 C 178.476562 135.8125 178.429688 135.789062 178.382812 135.777344 C 178.335938 135.765625 178.285156 135.777344 178.25 135.8125 L 175.878906 137.53125 C 175.796875 137.589844 175.785156 137.699219 175.84375 137.78125 L 176.546875 138.761719 C 176.308594 139.070312 176.105469 139.394531 175.9375 139.738281 L 174.757812 139.546875 C 174.664062 139.535156 174.566406 139.59375 174.554688 139.691406 L 174.089844 142.589844 C 174.078125 142.683594 174.136719 142.78125 174.234375 142.792969 L 175.414062 142.984375 C 175.460938 143.363281 175.558594 143.746094 175.675781 144.105469 L 174.699219 144.808594 C 174.664062 144.832031 174.640625 144.878906 174.625 144.929688 C 174.613281 144.976562 174.625 145.023438 174.664062 145.058594 L 176.378906 147.433594 C 176.402344 147.46875 176.449219 147.492188 176.5 147.503906 C 176.546875 147.515625 176.59375 147.503906 176.628906 147.46875 L 177.609375 146.765625 C 177.90625 147.003906 178.238281 147.207031 178.585938 147.375 L 178.394531 148.554688 C 178.382812 148.648438 178.441406 148.746094 178.539062 148.757812 L 178.789062 148.792969 C 175.164062 148.78125 172.074219 147.863281 169.546875 146.039062 C 167.878906 144.832031 166.601562 143.328125 165.625 141.765625 C 165.851562 141.671875 166.066406 141.585938 166.269531 141.480469 L 168.953125 144.332031 C 168.988281 144.367188 169.035156 144.390625 169.082031 144.390625 C 169.117188 144.390625 169.15625 144.378906 169.191406 144.355469 L 171.539062 142.660156 C 171.609375 142.613281 171.632812 142.507812 171.585938 142.433594 L 169.75 139 C 170.90625 137.792969 171.8125 136.328125 172.375 134.753906 L 176.285156 134.871094 C 176.367188 134.871094 176.449219 134.8125 176.464844 134.714844 L 176.929688 131.851562 C 176.941406 131.769531 176.890625 131.675781 176.808594 131.652344 L 173.066406 130.53125 C 173.03125 128.859375 172.636719 127.1875 171.921875 125.675781 L 174.769531 122.988281 C 174.828125 122.929688 174.839844 122.824219 174.792969 122.75 L 173.101562 120.402344 C 173.054688 120.328125 172.945312 120.304688 172.875 120.355469 L 169.417969 122.214844 C 168.210938 121.058594 166.746094 120.152344 165.171875 119.589844 L 165.292969 115.675781 C 165.292969 115.582031 165.230469 115.511719 165.136719 115.5 L 162.277344 115.035156 C 162.191406 115.019531 162.097656 115.070312 162.074219 115.152344 L 160.953125 118.898438 C 159.28125 118.933594 157.613281 119.328125 156.101562 120.042969 L 153.417969 117.191406 C 153.359375 117.132812 153.25 117.121094 153.179688 117.167969 L 150.828125 118.863281 C 150.757812 118.910156 150.734375 119.019531 150.78125 119.089844 L 152.082031 121.5 C 146.65625 121.535156 142.960938 120.128906 141.113281 117.300781 C 139.15625 114.316406 139.636719 110.429688 140.316406 107.792969 L 142.164062 108.351562 C 142.199219 109.414062 142.449219 110.453125 142.890625 111.417969 L 140.707031 113.484375 C 140.648438 113.542969 140.636719 113.648438 140.683594 113.722656 L 141.875 115.367188 C 141.925781 115.4375 142.03125 115.460938 142.101562 115.414062 L 144.75 113.996094 C 145.535156 114.722656 146.429688 115.285156 147.433594 115.652344 L 147.335938 118.660156 C 147.335938 118.753906 147.394531 118.828125 147.492188 118.839844 L 149.496094 119.160156 C 149.507812 119.160156 149.519531 119.160156 149.519531 119.160156 C 149.601562 119.160156 149.660156 119.113281 149.683594 119.03125 L 150.542969 116.15625 C 151.605469 116.117188 152.640625 115.867188 153.609375 115.425781 L 155.671875 117.609375 C 155.730469 117.667969 155.835938 117.679688 155.910156 117.632812 L 157.554688 116.441406 C 157.625 116.394531 157.648438 116.285156 157.601562 116.214844 L 156.207031 113.589844 C 156.933594 112.800781 157.496094 111.90625 157.863281 110.90625 L 160.867188 111 C 160.964844 111 161.035156 110.941406 161.046875 110.847656 L 161.371094 108.84375 C 161.382812 108.757812 161.332031 108.664062 161.25 108.640625 L 158.375 107.78125 C 158.339844 106.71875 158.089844 105.679688 157.648438 104.703125 L 159.832031 102.640625 C 159.890625 102.578125 159.902344 102.472656 159.855469 102.398438 L 158.664062 100.753906 C 158.617188 100.683594 158.507812 100.660156 158.4375 100.707031 L 155.789062 102.125 C 155.003906 101.398438 154.109375 100.835938 153.105469 100.46875 L 153.203125 97.460938 C 153.203125 97.367188 153.144531 97.292969 153.046875 97.28125 L 151.042969 96.960938 C 150.960938 96.949219 150.867188 96.996094 150.84375 97.078125 L 149.984375 99.953125 C 148.921875 99.992188 147.886719 100.242188 146.917969 100.683594 L 145.308594 98.976562 C 148.742188 94.683594 152.941406 91.019531 157.710938 88.191406 C 164.742188 84.027344 172.816406 81.824219 181.054688 81.824219 C 187.203125 81.824219 193.167969 83.015625 198.792969 85.367188 C 204.21875 87.644531 209.09375 90.902344 213.277344 95.039062 C 217.464844 99.191406 220.742188 104.011719 223.042969 109.390625 C 225.414062 114.960938 226.621094 120.867188 226.621094 126.960938 C 226.597656 128.382812 226.535156 129.777344 226.40625 131.171875 Z M 226.40625 131.171875 " fill-opacity="1" fill-rule="nonzero"/></g><g fill="#0097b2" fill-opacity="1"><g transform="translate(4.703778, 281.591023)"><g><path d="M 19.03125 0 L 17.625 -6.453125 L 9.265625 -6.453125 L 7.859375 0 L -0.859375 0 L 8.5 -31.578125 L 18.578125 -31.578125 L 27.9375 0 Z M 10.59375 -12.453125 L 16.3125 -12.453125 L 13.453125 -25.578125 Z M 10.59375 -12.453125 "/></g></g></g><g fill="#0097b2" fill-opacity="1"><g transform="translate(31.78621, 281.591023)"><g><path d="M 20.21875 -24.21875 L 20.21875 -18.53125 L 9.8125 -6.046875 L 20.53125 -6.046875 L 19.8125 0 L 0.40625 0 L 0.40625 -5.6875 L 10.953125 -18.21875 L 1.3125 -18.21875 L 1.3125 -24.21875 Z M 20.21875 -24.21875 "/></g></g></g><g fill="#0097b2" fill-opacity="1"><g transform="translate(52.915949, 281.591023)"><g><path d="M 23.484375 0 L 16.453125 0 L 16.125 -2.859375 C 14.425781 -0.410156 12.019531 0.8125 8.90625 0.8125 C 6.664062 0.8125 4.976562 0.140625 3.84375 -1.203125 C 2.707031 -2.546875 2.140625 -4.414062 2.140625 -6.8125 L 2.140625 -24.21875 L 10.21875 -24.21875 L 10.21875 -7.859375 C 10.21875 -6.828125 10.375 -6.109375 10.6875 -5.703125 C 11.007812 -5.296875 11.488281 -5.09375 12.125 -5.09375 C 12.707031 -5.09375 13.273438 -5.296875 13.828125 -5.703125 C 14.390625 -6.109375 14.914062 -6.707031 15.40625 -7.5 L 15.40625 -24.21875 L 23.484375 -24.21875 Z M 23.484375 0 "/></g></g></g><g fill="#0097b2" fill-opacity="1"><g transform="translate(78.771489, 281.591023)"><g><path d="M 16.265625 -24.9375 C 17.054688 -24.9375 17.875 -24.800781 18.71875 -24.53125 L 17.40625 -16.71875 C 16.613281 -16.957031 15.882812 -17.078125 15.21875 -17.078125 C 13.851562 -17.078125 12.816406 -16.613281 12.109375 -15.6875 C 11.398438 -14.769531 10.847656 -13.375 10.453125 -11.5 L 10.453125 0 L 2.359375 0 L 2.359375 -24.21875 L 9.40625 -24.21875 L 10.125 -19.625 C 10.613281 -21.226562 11.425781 -22.515625 12.5625 -23.484375 C 13.695312 -24.453125 14.929688 -24.9375 16.265625 -24.9375 Z M 16.265625 -24.9375 "/></g></g></g><g fill="#0097b2" fill-opacity="1"><g transform="translate(97.174811, 281.591023)"><g><path d="M 24.3125 -12.5 C 24.3125 -12.3125 24.265625 -11.398438 24.171875 -9.765625 L 9.359375 -9.765625 C 9.566406 -7.921875 10.085938 -6.65625 10.921875 -5.96875 C 11.753906 -5.289062 12.945312 -4.953125 14.5 -4.953125 C 15.40625 -4.953125 16.300781 -5.125 17.1875 -5.46875 C 18.082031 -5.820312 19.0625 -6.363281 20.125 -7.09375 L 23.40625 -2.640625 C 22.125 -1.578125 20.664062 -0.734375 19.03125 -0.109375 C 17.394531 0.503906 15.625 0.8125 13.71875 0.8125 C 9.601562 0.8125 6.476562 -0.34375 4.34375 -2.65625 C 2.207031 -4.976562 1.140625 -8.09375 1.140625 -12 C 1.140625 -14.445312 1.582031 -16.65625 2.46875 -18.625 C 3.363281 -20.59375 4.691406 -22.148438 6.453125 -23.296875 C 8.210938 -24.453125 10.332031 -25.03125 12.8125 -25.03125 C 16.351562 -25.03125 19.15625 -23.929688 21.21875 -21.734375 C 23.28125 -19.546875 24.3125 -16.46875 24.3125 -12.5 Z M 16.359375 -14.765625 C 16.328125 -16.367188 16.050781 -17.609375 15.53125 -18.484375 C 15.019531 -19.367188 14.160156 -19.8125 12.953125 -19.8125 C 11.828125 -19.8125 10.976562 -19.414062 10.40625 -18.625 C 9.832031 -17.84375 9.46875 -16.46875 9.3125 -14.5 L 16.359375 -14.5 Z M 16.359375 -14.765625 "/></g></g></g><g fill="#0097b2" fill-opacity="1"><g transform="translate(122.394191, 281.591023)"><g/></g></g><g fill="#0097b2" fill-opacity="1"><g transform="translate(132.754576, 281.591023)"><g><path d="M 11.90625 -31.578125 C 16.90625 -31.578125 20.914062 -30.445312 23.9375 -28.1875 C 26.96875 -25.9375 28.484375 -21.84375 28.484375 -15.90625 C 28.484375 -5.300781 23.171875 0 12.546875 0 L 2.453125 0 L 2.453125 -31.578125 Z M 10.859375 -25.578125 L 10.859375 -6 L 13.046875 -6 C 15.347656 -6 17.050781 -6.722656 18.15625 -8.171875 C 19.257812 -9.628906 19.8125 -12.207031 19.8125 -15.90625 C 19.8125 -18.445312 19.546875 -20.421875 19.015625 -21.828125 C 18.484375 -23.242188 17.722656 -24.222656 16.734375 -24.765625 C 15.753906 -25.304688 14.507812 -25.578125 13 -25.578125 Z M 10.859375 -25.578125 "/></g></g></g><g fill="#0097b2" fill-opacity="1"><g transform="translate(162.472537, 281.591023)"><g><path d="M 24.3125 -12.5 C 24.3125 -12.3125 24.265625 -11.398438 24.171875 -9.765625 L 9.359375 -9.765625 C 9.566406 -7.921875 10.085938 -6.65625 10.921875 -5.96875 C 11.753906 -5.289062 12.945312 -4.953125 14.5 -4.953125 C 15.40625 -4.953125 16.300781 -5.125 17.1875 -5.46875 C 18.082031 -5.820312 19.0625 -6.363281 20.125 -7.09375 L 23.40625 -2.640625 C 22.125 -1.578125 20.664062 -0.734375 19.03125 -0.109375 C 17.394531 0.503906 15.625 0.8125 13.71875 0.8125 C 9.601562 0.8125 6.476562 -0.34375 4.34375 -2.65625 C 2.207031 -4.976562 1.140625 -8.09375 1.140625 -12 C 1.140625 -14.445312 1.582031 -16.65625 2.46875 -18.625 C 3.363281 -20.59375 4.691406 -22.148438 6.453125 -23.296875 C 8.210938 -24.453125 10.332031 -25.03125 12.8125 -25.03125 C 16.351562 -25.03125 19.15625 -23.929688 21.21875 -21.734375 C 23.28125 -19.546875 24.3125 -16.46875 24.3125 -12.5 Z M 16.359375 -14.765625 C 16.328125 -16.367188 16.050781 -17.609375 15.53125 -18.484375 C 15.019531 -19.367188 14.160156 -19.8125 12.953125 -19.8125 C 11.828125 -19.8125 10.976562 -19.414062 10.40625 -18.625 C 9.832031 -17.84375 9.46875 -16.46875 9.3125 -14.5 L 16.359375 -14.5 Z M 16.359375 -14.765625 "/></g></g></g><g fill="#0097b2" fill-opacity="1"><g transform="translate(187.691918, 281.591023)"><g><path d="M 24.078125 -24.21875 L 16.671875 0 L 7.09375 0 L -0.453125 -24.21875 L 8.3125 -24.21875 L 11.953125 -5.953125 L 15.859375 -24.21875 Z M 24.078125 -24.21875 "/></g></g></g><g fill="#0097b2" fill-opacity="1"><g transform="translate(211.320882, 281.591023)"><g><path d="M 15.671875 -32.390625 C 20.242188 -32.390625 23.800781 -30.9375 26.34375 -28.03125 C 28.894531 -25.125 30.171875 -21.050781 30.171875 -15.8125 C 30.171875 -12.382812 29.601562 -9.421875 28.46875 -6.921875 C 27.332031 -4.429688 25.671875 -2.519531 23.484375 -1.1875 C 21.304688 0.144531 18.703125 0.8125 15.671875 0.8125 C 11.097656 0.8125 7.546875 -0.640625 5.015625 -3.546875 C 2.492188 -6.453125 1.234375 -10.539062 1.234375 -15.8125 C 1.234375 -19.238281 1.800781 -22.191406 2.9375 -24.671875 C 4.070312 -27.160156 5.71875 -29.066406 7.875 -30.390625 C 10.039062 -31.722656 12.640625 -32.390625 15.671875 -32.390625 Z M 15.671875 -26.359375 C 13.703125 -26.359375 12.253906 -25.539062 11.328125 -23.90625 C 10.410156 -22.269531 9.953125 -19.570312 9.953125 -15.8125 C 9.953125 -12.050781 10.421875 -9.34375 11.359375 -7.6875 C 12.296875 -6.039062 13.734375 -5.21875 15.671875 -5.21875 C 17.671875 -5.21875 19.125 -6.035156 20.03125 -7.671875 C 20.945312 -9.304688 21.40625 -12.019531 21.40625 -15.8125 C 21.40625 -19.570312 20.945312 -22.269531 20.03125 -23.90625 C 19.125 -25.539062 17.671875 -26.359375 15.671875 -26.359375 Z M 15.671875 -26.359375 "/></g></g></g><g fill="#0097b2" fill-opacity="1"><g transform="translate(242.674703, 281.591023)"><g><path d="M 16.765625 -25.03125 C 19.796875 -25.03125 22.066406 -23.898438 23.578125 -21.640625 C 25.097656 -19.390625 25.859375 -16.234375 25.859375 -12.171875 C 25.859375 -9.691406 25.460938 -7.46875 24.671875 -5.5 C 23.878906 -3.53125 22.75 -1.984375 21.28125 -0.859375 C 19.8125 0.253906 18.125 0.8125 16.21875 0.8125 C 13.820312 0.8125 11.898438 -0.00390625 10.453125 -1.640625 L 10.453125 9.359375 L 2.359375 10.171875 L 2.359375 -24.21875 L 9.546875 -24.21875 L 9.90625 -21.671875 C 10.84375 -22.859375 11.910156 -23.710938 13.109375 -24.234375 C 14.304688 -24.765625 15.523438 -25.03125 16.765625 -25.03125 Z M 13.625 -5 C 16.207031 -5 17.5 -7.363281 17.5 -12.09375 C 17.5 -14.84375 17.21875 -16.707031 16.65625 -17.6875 C 16.09375 -18.675781 15.25 -19.171875 14.125 -19.171875 C 12.675781 -19.171875 11.453125 -18.320312 10.453125 -16.625 L 10.453125 -6.90625 C 10.898438 -6.238281 11.375 -5.753906 11.875 -5.453125 C 12.375 -5.148438 12.957031 -5 13.625 -5 Z M 13.625 -5 "/></g></g></g><g fill="#0097b2" fill-opacity="1"><g transform="translate(269.848009, 281.591023)"><g><path d="M 11.5 -25.03125 C 13.25 -25.03125 14.921875 -24.757812 16.515625 -24.21875 C 18.109375 -23.675781 19.460938 -22.929688 20.578125 -21.984375 L 17.671875 -17.53125 C 15.734375 -18.75 13.78125 -19.359375 11.8125 -19.359375 C 10.96875 -19.359375 10.335938 -19.226562 9.921875 -18.96875 C 9.515625 -18.707031 9.3125 -18.351562 9.3125 -17.90625 C 9.3125 -17.507812 9.414062 -17.1875 9.625 -16.9375 C 9.84375 -16.695312 10.289062 -16.429688 10.96875 -16.140625 C 11.65625 -15.859375 12.738281 -15.492188 14.21875 -15.046875 C 16.707031 -14.316406 18.539062 -13.367188 19.71875 -12.203125 C 20.894531 -11.035156 21.484375 -9.40625 21.484375 -7.3125 C 21.484375 -5.675781 21.003906 -4.242188 20.046875 -3.015625 C 19.097656 -1.796875 17.78125 -0.851562 16.09375 -0.1875 C 14.414062 0.476562 12.519531 0.8125 10.40625 0.8125 C 8.34375 0.8125 6.410156 0.488281 4.609375 -0.15625 C 2.804688 -0.8125 1.285156 -1.710938 0.046875 -2.859375 L 3.90625 -7.171875 C 4.84375 -6.453125 5.847656 -5.878906 6.921875 -5.453125 C 8.003906 -5.023438 9.085938 -4.8125 10.171875 -4.8125 C 11.140625 -4.8125 11.890625 -4.96875 12.421875 -5.28125 C 12.953125 -5.601562 13.21875 -6.082031 13.21875 -6.71875 C 13.21875 -7.207031 13.101562 -7.585938 12.875 -7.859375 C 12.65625 -8.128906 12.222656 -8.394531 11.578125 -8.65625 C 10.941406 -8.914062 9.851562 -9.269531 8.3125 -9.71875 C 3.613281 -11.113281 1.265625 -13.675781 1.265625 -17.40625 C 1.265625 -18.820312 1.671875 -20.113281 2.484375 -21.28125 C 3.304688 -22.445312 4.484375 -23.363281 6.015625 -24.03125 C 7.546875 -24.695312 9.375 -25.03125 11.5 -25.03125 Z M 11.5 -25.03125 "/></g></g></g><g fill="#0097b2" fill-opacity="1"><g transform="translate(292.022877, 281.591023)"><g/></g><g transform="translate(302.383248, 281.591023)"><g><path d="M 19.03125 0 L 17.625 -6.453125 L 9.265625 -6.453125 L 7.859375 0 L -0.859375 0 L 8.5 -31.578125 L 18.578125 -31.578125 L 27.9375 0 Z M 10.59375 -12.453125 L 16.3125 -12.453125 L 13.453125 -25.578125 Z M 10.59375 -12.453125 "/></g></g></g><g fill="#0097b2" fill-opacity="1"><g transform="translate(329.46568, 281.591023)"><g><path d="M 13.265625 -31.578125 C 17.503906 -31.578125 20.796875 -30.691406 23.140625 -28.921875 C 25.492188 -27.148438 26.671875 -24.550781 26.671875 -21.125 C 26.671875 -17.550781 25.535156 -14.832031 23.265625 -12.96875 C 20.992188 -11.101562 17.929688 -10.171875 14.078125 -10.171875 L 10.859375 -10.171875 L 10.859375 0 L 2.453125 0 L 2.453125 -31.578125 Z M 13.3125 -16.171875 C 14.882812 -16.171875 16.070312 -16.5625 16.875 -17.34375 C 17.675781 -18.132812 18.078125 -19.378906 18.078125 -21.078125 C 18.078125 -24.140625 16.425781 -25.671875 13.125 -25.671875 L 10.859375 -25.671875 L 10.859375 -16.171875 Z M 13.3125 -16.171875 "/></g></g></g><g fill="#0097b2" fill-opacity="1"><g transform="translate(356.957081, 281.591023)"><g><path d="M 10.859375 -31.578125 L 10.859375 0 L 2.453125 0 L 2.453125 -31.578125 Z M 10.859375 -31.578125 "/></g></g></g><g fill="#000000" fill-opacity="1"><g transform="translate(31.077448, 321.600337)"><g><path d="M 9.59375 -0.625 C 9.113281 -0.289062 8.582031 -0.0390625 8 0.125 C 7.425781 0.289062 6.835938 0.375 6.234375 0.375 C 4.921875 0.363281 3.921875 -0.00390625 3.234375 -0.734375 C 2.554688 -1.472656 2.21875 -2.554688 2.21875 -3.984375 L 2.21875 -11.03125 L 0.125 -11.03125 L 0.125 -13.34375 L 2.21875 -13.34375 L 2.21875 -16.296875 L 5.453125 -16.6875 L 5.453125 -13.34375 L 8.546875 -13.34375 L 8.21875 -11.03125 L 5.453125 -11.03125 L 5.453125 -4.0625 C 5.453125 -3.40625 5.5625 -2.929688 5.78125 -2.640625 C 6.007812 -2.359375 6.367188 -2.21875 6.859375 -2.21875 C 7.347656 -2.21875 7.878906 -2.378906 8.453125 -2.703125 Z M 9.59375 -0.625 "/></g></g></g><g fill="#000000" fill-opacity="1"><g transform="translate(40.540434, 321.600337)"><g><path d="M 7.390625 -13.734375 C 9.359375 -13.734375 10.894531 -13.101562 12 -11.84375 C 13.101562 -10.59375 13.65625 -8.875 13.65625 -6.6875 C 13.65625 -5.289062 13.398438 -4.054688 12.890625 -2.984375 C 12.390625 -1.921875 11.664062 -1.09375 10.71875 -0.5 C 9.78125 0.0820312 8.664062 0.375 7.375 0.375 C 5.40625 0.375 3.863281 -0.25 2.75 -1.5 C 1.632812 -2.75 1.078125 -4.476562 1.078125 -6.6875 C 1.078125 -8.082031 1.328125 -9.3125 1.828125 -10.375 C 2.335938 -11.4375 3.066406 -12.257812 4.015625 -12.84375 C 4.972656 -13.4375 6.097656 -13.734375 7.390625 -13.734375 Z M 7.390625 -11.28125 C 5.453125 -11.28125 4.484375 -9.75 4.484375 -6.6875 C 4.484375 -5.101562 4.722656 -3.9375 5.203125 -3.1875 C 5.691406 -2.4375 6.414062 -2.0625 7.375 -2.0625 C 8.332031 -2.0625 9.050781 -2.441406 9.53125 -3.203125 C 10.007812 -3.960938 10.25 -5.125 10.25 -6.6875 C 10.25 -8.25 10.007812 -9.40625 9.53125 -10.15625 C 9.050781 -10.90625 8.335938 -11.28125 7.390625 -11.28125 Z M 7.390625 -11.28125 "/></g></g></g><g fill="#000000" fill-opacity="1"><g transform="translate(55.277455, 321.600337)"><g/></g></g><g fill="#004aad" fill-opacity="1"><g transform="translate(61.592806, 321.600337)"><g><path d="M 5.375 -17.4375 L 5.375 0 L 2.046875 0 L 2.046875 -17.4375 Z M 15.171875 -17.4375 L 9.140625 -9.53125 L 15.640625 0 L 11.6875 0 L 5.53125 -9.3125 L 11.5625 -17.4375 Z M 15.171875 -17.4375 "/></g></g></g><g fill="#004aad" fill-opacity="1"><g transform="translate(77.061628, 321.600337)"><g><path d="M 9.0625 -13.734375 C 10.25 -13.734375 11.175781 -13.375 11.84375 -12.65625 C 12.507812 -11.9375 12.84375 -10.941406 12.84375 -9.671875 L 12.84375 0 L 9.609375 0 L 9.609375 -9.15625 C 9.609375 -9.945312 9.46875 -10.503906 9.1875 -10.828125 C 8.914062 -11.148438 8.507812 -11.3125 7.96875 -11.3125 C 7.414062 -11.3125 6.914062 -11.132812 6.46875 -10.78125 C 6.019531 -10.4375 5.585938 -9.9375 5.171875 -9.28125 L 5.171875 0 L 1.9375 0 L 1.9375 -13.34375 L 4.75 -13.34375 L 5 -11.609375 C 6.09375 -13.023438 7.445312 -13.734375 9.0625 -13.734375 Z M 9.0625 -13.734375 "/></g></g></g><g fill="#004aad" fill-opacity="1"><g transform="translate(91.722943, 321.600337)"><g><path d="M 7.390625 -13.734375 C 9.359375 -13.734375 10.894531 -13.101562 12 -11.84375 C 13.101562 -10.59375 13.65625 -8.875 13.65625 -6.6875 C 13.65625 -5.289062 13.398438 -4.054688 12.890625 -2.984375 C 12.390625 -1.921875 11.664062 -1.09375 10.71875 -0.5 C 9.78125 0.0820312 8.664062 0.375 7.375 0.375 C 5.40625 0.375 3.863281 -0.25 2.75 -1.5 C 1.632812 -2.75 1.078125 -4.476562 1.078125 -6.6875 C 1.078125 -8.082031 1.328125 -9.3125 1.828125 -10.375 C 2.335938 -11.4375 3.066406 -12.257812 4.015625 -12.84375 C 4.972656 -13.4375 6.097656 -13.734375 7.390625 -13.734375 Z M 7.390625 -11.28125 C 5.453125 -11.28125 4.484375 -9.75 4.484375 -6.6875 C 4.484375 -5.101562 4.722656 -3.9375 5.203125 -3.1875 C 5.691406 -2.4375 6.414062 -2.0625 7.375 -2.0625 C 8.332031 -2.0625 9.050781 -2.441406 9.53125 -3.203125 C 10.007812 -3.960938 10.25 -5.125 10.25 -6.6875 C 10.25 -8.25 10.007812 -9.40625 9.53125 -10.15625 C 9.050781 -10.90625 8.335938 -11.28125 7.390625 -11.28125 Z M 7.390625 -11.28125 "/></g></g></g><g fill="#004aad" fill-opacity="1"><g transform="translate(106.459964, 321.600337)"><g><path d="M 18.25 -13.34375 L 15.34375 0 L 11.3125 0 L 9.28125 -10.46875 L 7.21875 0 L 3.25 0 L 0.296875 -13.34375 L 3.53125 -13.34375 L 5.40625 -2.375 L 7.71875 -13.34375 L 11.03125 -13.34375 L 13.140625 -2.375 L 15.140625 -13.34375 Z M 18.25 -13.34375 "/></g></g></g><g fill="#004aad" fill-opacity="1"><g transform="translate(124.982168, 321.600337)"><g><path d="M 5.09375 0.375 C 4.070312 0.375 3.269531 0.078125 2.6875 -0.515625 C 2.101562 -1.109375 1.8125 -1.953125 1.8125 -3.046875 L 1.8125 -18.703125 L 5.046875 -19.046875 L 5.046875 -3.15625 C 5.046875 -2.53125 5.296875 -2.21875 5.796875 -2.21875 C 6.054688 -2.21875 6.3125 -2.257812 6.5625 -2.34375 L 7.25 -0.078125 C 6.570312 0.222656 5.851562 0.375 5.09375 0.375 Z M 5.09375 0.375 "/></g></g></g><g fill="#004aad" fill-opacity="1"><g transform="translate(132.426385, 321.600337)"><g><path d="M 12.890625 -6.984375 C 12.890625 -6.816406 12.863281 -6.378906 12.8125 -5.671875 L 4.4375 -5.671875 C 4.539062 -4.378906 4.878906 -3.453125 5.453125 -2.890625 C 6.023438 -2.335938 6.78125 -2.0625 7.71875 -2.0625 C 8.3125 -2.0625 8.867188 -2.160156 9.390625 -2.359375 C 9.910156 -2.554688 10.460938 -2.851562 11.046875 -3.25 L 12.390625 -1.40625 C 10.910156 -0.21875 9.257812 0.375 7.4375 0.375 C 5.40625 0.375 3.835938 -0.242188 2.734375 -1.484375 C 1.628906 -2.734375 1.078125 -4.4375 1.078125 -6.59375 C 1.078125 -7.945312 1.3125 -9.164062 1.78125 -10.25 C 2.257812 -11.34375 2.941406 -12.195312 3.828125 -12.8125 C 4.722656 -13.425781 5.785156 -13.734375 7.015625 -13.734375 C 8.878906 -13.734375 10.320312 -13.140625 11.34375 -11.953125 C 12.375 -10.765625 12.890625 -9.109375 12.890625 -6.984375 Z M 9.6875 -7.921875 C 9.6875 -10.265625 8.820312 -11.4375 7.09375 -11.4375 C 6.300781 -11.4375 5.679688 -11.144531 5.234375 -10.5625 C 4.785156 -9.976562 4.519531 -9.046875 4.4375 -7.765625 L 9.6875 -7.765625 Z M 9.6875 -7.921875 "/></g></g></g><g fill="#004aad" fill-opacity="1"><g transform="translate(146.280192, 321.600337)"><g><path d="M 13.171875 -18.703125 L 13.171875 0 L 10.328125 0 L 10.09375 -1.6875 C 9.675781 -1.050781 9.140625 -0.546875 8.484375 -0.171875 C 7.835938 0.191406 7.101562 0.375 6.28125 0.375 C 4.644531 0.375 3.390625 -0.253906 2.515625 -1.515625 C 1.648438 -2.773438 1.21875 -4.488281 1.21875 -6.65625 C 1.21875 -8.019531 1.4375 -9.234375 1.875 -10.296875 C 2.3125 -11.367188 2.9375 -12.207031 3.75 -12.8125 C 4.5625 -13.425781 5.507812 -13.734375 6.59375 -13.734375 C 7.863281 -13.734375 8.976562 -13.253906 9.9375 -12.296875 L 9.9375 -19.046875 Z M 7.1875 -2.0625 C 7.757812 -2.0625 8.265625 -2.203125 8.703125 -2.484375 C 9.140625 -2.765625 9.550781 -3.195312 9.9375 -3.78125 L 9.9375 -9.890625 C 9.550781 -10.359375 9.160156 -10.710938 8.765625 -10.953125 C 8.367188 -11.191406 7.910156 -11.3125 7.390625 -11.3125 C 6.535156 -11.3125 5.859375 -10.925781 5.359375 -10.15625 C 4.867188 -9.394531 4.625 -8.238281 4.625 -6.6875 C 4.625 -5.039062 4.84375 -3.859375 5.28125 -3.140625 C 5.71875 -2.421875 6.351562 -2.0625 7.1875 -2.0625 Z M 7.1875 -2.0625 "/></g></g></g><g fill="#004aad" fill-opacity="1"><g transform="translate(161.395732, 321.600337)"><g><path d="M 13.546875 -12.640625 C 12.691406 -12.335938 11.40625 -12.1875 9.6875 -12.1875 C 10.507812 -11.820312 11.117188 -11.363281 11.515625 -10.8125 C 11.910156 -10.269531 12.109375 -9.582031 12.109375 -8.75 C 12.109375 -7.875 11.894531 -7.097656 11.46875 -6.421875 C 11.039062 -5.753906 10.414062 -5.226562 9.59375 -4.84375 C 8.78125 -4.457031 7.828125 -4.265625 6.734375 -4.265625 C 6.128906 -4.265625 5.597656 -4.332031 5.140625 -4.46875 C 4.773438 -4.21875 4.59375 -3.890625 4.59375 -3.484375 C 4.59375 -2.859375 5.128906 -2.546875 6.203125 -2.546875 L 8.25 -2.546875 C 9.226562 -2.546875 10.082031 -2.382812 10.8125 -2.0625 C 11.539062 -1.75 12.109375 -1.300781 12.515625 -0.71875 C 12.921875 -0.132812 13.125 0.515625 13.125 1.234375 C 13.125 2.578125 12.550781 3.625 11.40625 4.375 C 10.257812 5.125 8.609375 5.5 6.453125 5.5 C 4.910156 5.5 3.695312 5.335938 2.8125 5.015625 C 1.925781 4.703125 1.296875 4.238281 0.921875 3.625 C 0.554688 3.019531 0.375 2.25 0.375 1.3125 L 3.28125 1.3125 C 3.28125 1.78125 3.367188 2.148438 3.546875 2.421875 C 3.722656 2.691406 4.039062 2.894531 4.5 3.03125 C 4.96875 3.164062 5.640625 3.234375 6.515625 3.234375 C 7.742188 3.234375 8.609375 3.082031 9.109375 2.78125 C 9.609375 2.476562 9.859375 2.039062 9.859375 1.46875 C 9.859375 0.957031 9.664062 0.5625 9.28125 0.28125 C 8.894531 0.0078125 8.332031 -0.125 7.59375 -0.125 L 5.578125 -0.125 C 4.316406 -0.125 3.363281 -0.367188 2.71875 -0.859375 C 2.082031 -1.347656 1.765625 -1.960938 1.765625 -2.703125 C 1.765625 -3.171875 1.898438 -3.625 2.171875 -4.0625 C 2.453125 -4.5 2.835938 -4.867188 3.328125 -5.171875 C 2.523438 -5.585938 1.929688 -6.101562 1.546875 -6.71875 C 1.171875 -7.332031 0.984375 -8.070312 0.984375 -8.9375 C 0.984375 -9.894531 1.21875 -10.734375 1.6875 -11.453125 C 2.15625 -12.179688 2.804688 -12.742188 3.640625 -13.140625 C 4.472656 -13.535156 5.429688 -13.734375 6.515625 -13.734375 C 7.921875 -13.691406 9.054688 -13.789062 9.921875 -14.03125 C 10.796875 -14.28125 11.738281 -14.675781 12.75 -15.21875 Z M 6.5625 -11.53125 C 5.832031 -11.53125 5.257812 -11.296875 4.84375 -10.828125 C 4.4375 -10.367188 4.234375 -9.753906 4.234375 -8.984375 C 4.234375 -8.171875 4.441406 -7.53125 4.859375 -7.0625 C 5.285156 -6.59375 5.867188 -6.359375 6.609375 -6.359375 C 7.378906 -6.359375 7.96875 -6.585938 8.375 -7.046875 C 8.78125 -7.515625 8.984375 -8.171875 8.984375 -9.015625 C 8.984375 -10.691406 8.175781 -11.53125 6.5625 -11.53125 Z M 6.5625 -11.53125 "/></g></g></g><g fill="#004aad" fill-opacity="1"><g transform="translate(174.946712, 321.600337)"><g><path d="M 12.890625 -6.984375 C 12.890625 -6.816406 12.863281 -6.378906 12.8125 -5.671875 L 4.4375 -5.671875 C 4.539062 -4.378906 4.878906 -3.453125 5.453125 -2.890625 C 6.023438 -2.335938 6.78125 -2.0625 7.71875 -2.0625 C 8.3125 -2.0625 8.867188 -2.160156 9.390625 -2.359375 C 9.910156 -2.554688 10.460938 -2.851562 11.046875 -3.25 L 12.390625 -1.40625 C 10.910156 -0.21875 9.257812 0.375 7.4375 0.375 C 5.40625 0.375 3.835938 -0.242188 2.734375 -1.484375 C 1.628906 -2.734375 1.078125 -4.4375 1.078125 -6.59375 C 1.078125 -7.945312 1.3125 -9.164062 1.78125 -10.25 C 2.257812 -11.34375 2.941406 -12.195312 3.828125 -12.8125 C 4.722656 -13.425781 5.785156 -13.734375 7.015625 -13.734375 C 8.878906 -13.734375 10.320312 -13.140625 11.34375 -11.953125 C 12.375 -10.765625 12.890625 -9.109375 12.890625 -6.984375 Z M 9.6875 -7.921875 C 9.6875 -10.265625 8.820312 -11.4375 7.09375 -11.4375 C 6.300781 -11.4375 5.679688 -11.144531 5.234375 -10.5625 C 4.785156 -9.976562 4.519531 -9.046875 4.4375 -7.765625 L 9.6875 -7.765625 Z M 9.6875 -7.921875 "/></g></g></g><g fill="#004aad" fill-opacity="1"><g transform="translate(188.800519, 321.600337)"><g/></g></g><g fill="#004aad" fill-opacity="1"><g transform="translate(195.109167, 321.600337)"><g><path d="M 18.578125 0 L 15.3125 0 L 14.859375 -7.296875 C 14.710938 -9.898438 14.640625 -11.96875 14.640625 -13.5 L 14.640625 -14.40625 L 11.453125 -1.890625 L 8.296875 -1.890625 L 4.921875 -14.4375 C 4.953125 -13.320312 4.96875 -12.476562 4.96875 -11.90625 C 4.96875 -10.375 4.914062 -8.800781 4.8125 -7.1875 L 4.390625 0 L 1.15625 0 L 2.546875 -17.4375 L 6.84375 -17.4375 L 9.9375 -5.21875 L 12.875 -17.4375 L 17.203125 -17.4375 Z M 18.578125 0 "/></g></g></g><g fill="#004aad" fill-opacity="1"><g transform="translate(214.842633, 321.600337)"><g><path d="M 11.8125 -3.53125 C 11.8125 -3.007812 11.890625 -2.625 12.046875 -2.375 C 12.210938 -2.132812 12.46875 -1.945312 12.8125 -1.8125 L 12.140625 0.328125 C 11.378906 0.265625 10.757812 0.0820312 10.28125 -0.21875 C 9.800781 -0.53125 9.4375 -0.992188 9.1875 -1.609375 C 8.726562 -0.941406 8.15625 -0.441406 7.46875 -0.109375 C 6.789062 0.210938 6.035156 0.375 5.203125 0.375 C 3.867188 0.375 2.816406 0 2.046875 -0.75 C 1.273438 -1.507812 0.890625 -2.503906 0.890625 -3.734375 C 0.890625 -5.179688 1.410156 -6.285156 2.453125 -7.046875 C 3.503906 -7.816406 5.007812 -8.203125 6.96875 -8.203125 L 8.625 -8.203125 L 8.625 -8.953125 C 8.625 -9.816406 8.425781 -10.421875 8.03125 -10.765625 C 7.632812 -11.109375 7 -11.28125 6.125 -11.28125 C 5.15625 -11.28125 3.976562 -11.046875 2.59375 -10.578125 L 1.84375 -12.765625 C 3.507812 -13.410156 5.125 -13.734375 6.6875 -13.734375 C 10.101562 -13.734375 11.8125 -12.203125 11.8125 -9.140625 Z M 6.0625 -1.96875 C 7.15625 -1.96875 8.007812 -2.515625 8.625 -3.609375 L 8.625 -6.3125 L 7.296875 -6.3125 C 5.203125 -6.3125 4.15625 -5.535156 4.15625 -3.984375 C 4.15625 -3.347656 4.316406 -2.851562 4.640625 -2.5 C 4.960938 -2.144531 5.4375 -1.96875 6.0625 -1.96875 Z M 6.0625 -1.96875 "/></g></g></g><g fill="#004aad" fill-opacity="1"><g transform="translate(228.620733, 321.600337)"><g><path d="M 9.0625 -13.734375 C 10.25 -13.734375 11.175781 -13.375 11.84375 -12.65625 C 12.507812 -11.9375 12.84375 -10.941406 12.84375 -9.671875 L 12.84375 0 L 9.609375 0 L 9.609375 -9.15625 C 9.609375 -9.945312 9.46875 -10.503906 9.1875 -10.828125 C 8.914062 -11.148438 8.507812 -11.3125 7.96875 -11.3125 C 7.414062 -11.3125 6.914062 -11.132812 6.46875 -10.78125 C 6.019531 -10.4375 5.585938 -9.9375 5.171875 -9.28125 L 5.171875 0 L 1.9375 0 L 1.9375 -13.34375 L 4.75 -13.34375 L 5 -11.609375 C 6.09375 -13.023438 7.445312 -13.734375 9.0625 -13.734375 Z M 9.0625 -13.734375 "/></g></g></g><g fill="#004aad" fill-opacity="1"><g transform="translate(243.282048, 321.600337)"><g><path d="M 11.8125 -3.53125 C 11.8125 -3.007812 11.890625 -2.625 12.046875 -2.375 C 12.210938 -2.132812 12.46875 -1.945312 12.8125 -1.8125 L 12.140625 0.328125 C 11.378906 0.265625 10.757812 0.0820312 10.28125 -0.21875 C 9.800781 -0.53125 9.4375 -0.992188 9.1875 -1.609375 C 8.726562 -0.941406 8.15625 -0.441406 7.46875 -0.109375 C 6.789062 0.210938 6.035156 0.375 5.203125 0.375 C 3.867188 0.375 2.816406 0 2.046875 -0.75 C 1.273438 -1.507812 0.890625 -2.503906 0.890625 -3.734375 C 0.890625 -5.179688 1.410156 -6.285156 2.453125 -7.046875 C 3.503906 -7.816406 5.007812 -8.203125 6.96875 -8.203125 L 8.625 -8.203125 L 8.625 -8.953125 C 8.625 -9.816406 8.425781 -10.421875 8.03125 -10.765625 C 7.632812 -11.109375 7 -11.28125 6.125 -11.28125 C 5.15625 -11.28125 3.976562 -11.046875 2.59375 -10.578125 L 1.84375 -12.765625 C 3.507812 -13.410156 5.125 -13.734375 6.6875 -13.734375 C 10.101562 -13.734375 11.8125 -12.203125 11.8125 -9.140625 Z M 6.0625 -1.96875 C 7.15625 -1.96875 8.007812 -2.515625 8.625 -3.609375 L 8.625 -6.3125 L 7.296875 -6.3125 C 5.203125 -6.3125 4.15625 -5.535156 4.15625 -3.984375 C 4.15625 -3.347656 4.316406 -2.851562 4.640625 -2.5 C 4.960938 -2.144531 5.4375 -1.96875 6.0625 -1.96875 Z M 6.0625 -1.96875 "/></g></g></g><g fill="#004aad" fill-opacity="1"><g transform="translate(257.060148, 321.600337)"><g><path d="M 13.546875 -12.640625 C 12.691406 -12.335938 11.40625 -12.1875 9.6875 -12.1875 C 10.507812 -11.820312 11.117188 -11.363281 11.515625 -10.8125 C 11.910156 -10.269531 12.109375 -9.582031 12.109375 -8.75 C 12.109375 -7.875 11.894531 -7.097656 11.46875 -6.421875 C 11.039062 -5.753906 10.414062 -5.226562 9.59375 -4.84375 C 8.78125 -4.457031 7.828125 -4.265625 6.734375 -4.265625 C 6.128906 -4.265625 5.597656 -4.332031 5.140625 -4.46875 C 4.773438 -4.21875 4.59375 -3.890625 4.59375 -3.484375 C 4.59375 -2.859375 5.128906 -2.546875 6.203125 -2.546875 L 8.25 -2.546875 C 9.226562 -2.546875 10.082031 -2.382812 10.8125 -2.0625 C 11.539062 -1.75 12.109375 -1.300781 12.515625 -0.71875 C 12.921875 -0.132812 13.125 0.515625 13.125 1.234375 C 13.125 2.578125 12.550781 3.625 11.40625 4.375 C 10.257812 5.125 8.609375 5.5 6.453125 5.5 C 4.910156 5.5 3.695312 5.335938 2.8125 5.015625 C 1.925781 4.703125 1.296875 4.238281 0.921875 3.625 C 0.554688 3.019531 0.375 2.25 0.375 1.3125 L 3.28125 1.3125 C 3.28125 1.78125 3.367188 2.148438 3.546875 2.421875 C 3.722656 2.691406 4.039062 2.894531 4.5 3.03125 C 4.96875 3.164062 5.640625 3.234375 6.515625 3.234375 C 7.742188 3.234375 8.609375 3.082031 9.109375 2.78125 C 9.609375 2.476562 9.859375 2.039062 9.859375 1.46875 C 9.859375 0.957031 9.664062 0.5625 9.28125 0.28125 C 8.894531 0.0078125 8.332031 -0.125 7.59375 -0.125 L 5.578125 -0.125 C 4.316406 -0.125 3.363281 -0.367188 2.71875 -0.859375 C 2.082031 -1.347656 1.765625 -1.960938 1.765625 -2.703125 C 1.765625 -3.171875 1.898438 -3.625 2.171875 -4.0625 C 2.453125 -4.5 2.835938 -4.867188 3.328125 -5.171875 C 2.523438 -5.585938 1.929688 -6.101562 1.546875 -6.71875 C 1.171875 -7.332031 0.984375 -8.070312 0.984375 -8.9375 C 0.984375 -9.894531 1.21875 -10.734375 1.6875 -11.453125 C 2.15625 -12.179688 2.804688 -12.742188 3.640625 -13.140625 C 4.472656 -13.535156 5.429688 -13.734375 6.515625 -13.734375 C 7.921875 -13.691406 9.054688 -13.789062 9.921875 -14.03125 C 10.796875 -14.28125 11.738281 -14.675781 12.75 -15.21875 Z M 6.5625 -11.53125 C 5.832031 -11.53125 5.257812 -11.296875 4.84375 -10.828125 C 4.4375 -10.367188 4.234375 -9.753906 4.234375 -8.984375 C 4.234375 -8.171875 4.441406 -7.53125 4.859375 -7.0625 C 5.285156 -6.59375 5.867188 -6.359375 6.609375 -6.359375 C 7.378906 -6.359375 7.96875 -6.585938 8.375 -7.046875 C 8.78125 -7.515625 8.984375 -8.171875 8.984375 -9.015625 C 8.984375 -10.691406 8.175781 -11.53125 6.5625 -11.53125 Z M 6.5625 -11.53125 "/></g></g></g><g fill="#004aad" fill-opacity="1"><g transform="translate(270.611129, 321.600337)"><g><path d="M 12.890625 -6.984375 C 12.890625 -6.816406 12.863281 -6.378906 12.8125 -5.671875 L 4.4375 -5.671875 C 4.539062 -4.378906 4.878906 -3.453125 5.453125 -2.890625 C 6.023438 -2.335938 6.78125 -2.0625 7.71875 -2.0625 C 8.3125 -2.0625 8.867188 -2.160156 9.390625 -2.359375 C 9.910156 -2.554688 10.460938 -2.851562 11.046875 -3.25 L 12.390625 -1.40625 C 10.910156 -0.21875 9.257812 0.375 7.4375 0.375 C 5.40625 0.375 3.835938 -0.242188 2.734375 -1.484375 C 1.628906 -2.734375 1.078125 -4.4375 1.078125 -6.59375 C 1.078125 -7.945312 1.3125 -9.164062 1.78125 -10.25 C 2.257812 -11.34375 2.941406 -12.195312 3.828125 -12.8125 C 4.722656 -13.425781 5.785156 -13.734375 7.015625 -13.734375 C 8.878906 -13.734375 10.320312 -13.140625 11.34375 -11.953125 C 12.375 -10.765625 12.890625 -9.109375 12.890625 -6.984375 Z M 9.6875 -7.921875 C 9.6875 -10.265625 8.820312 -11.4375 7.09375 -11.4375 C 6.300781 -11.4375 5.679688 -11.144531 5.234375 -10.5625 C 4.785156 -9.976562 4.519531 -9.046875 4.4375 -7.765625 L 9.6875 -7.765625 Z M 9.6875 -7.921875 "/></g></g></g><g fill="#004aad" fill-opacity="1"><g transform="translate(284.464936, 321.600337)"><g><path d="M 16.09375 -13.734375 C 17.175781 -13.734375 18.035156 -13.363281 18.671875 -12.625 C 19.304688 -11.894531 19.625 -10.910156 19.625 -9.671875 L 19.625 0 L 16.40625 0 L 16.40625 -9.15625 C 16.40625 -10.59375 15.914062 -11.3125 14.9375 -11.3125 C 14.414062 -11.3125 13.960938 -11.144531 13.578125 -10.8125 C 13.203125 -10.488281 12.816406 -9.976562 12.421875 -9.28125 L 12.421875 0 L 9.1875 0 L 9.1875 -9.15625 C 9.1875 -10.59375 8.695312 -11.3125 7.71875 -11.3125 C 7.1875 -11.3125 6.726562 -11.144531 6.34375 -10.8125 C 5.96875 -10.488281 5.578125 -9.976562 5.171875 -9.28125 L 5.171875 0 L 1.9375 0 L 1.9375 -13.34375 L 4.75 -13.34375 L 5 -11.609375 C 6.007812 -13.023438 7.296875 -13.734375 8.859375 -13.734375 C 9.628906 -13.734375 10.296875 -13.535156 10.859375 -13.140625 C 11.421875 -12.742188 11.832031 -12.191406 12.09375 -11.484375 C 12.625 -12.203125 13.210938 -12.753906 13.859375 -13.140625 C 14.515625 -13.535156 15.257812 -13.734375 16.09375 -13.734375 Z M 16.09375 -13.734375 "/></g></g></g><g fill="#004aad" fill-opacity="1"><g transform="translate(305.914373, 321.600337)"><g><path d="M 12.890625 -6.984375 C 12.890625 -6.816406 12.863281 -6.378906 12.8125 -5.671875 L 4.4375 -5.671875 C 4.539062 -4.378906 4.878906 -3.453125 5.453125 -2.890625 C 6.023438 -2.335938 6.78125 -2.0625 7.71875 -2.0625 C 8.3125 -2.0625 8.867188 -2.160156 9.390625 -2.359375 C 9.910156 -2.554688 10.460938 -2.851562 11.046875 -3.25 L 12.390625 -1.40625 C 10.910156 -0.21875 9.257812 0.375 7.4375 0.375 C 5.40625 0.375 3.835938 -0.242188 2.734375 -1.484375 C 1.628906 -2.734375 1.078125 -4.4375 1.078125 -6.59375 C 1.078125 -7.945312 1.3125 -9.164062 1.78125 -10.25 C 2.257812 -11.34375 2.941406 -12.195312 3.828125 -12.8125 C 4.722656 -13.425781 5.785156 -13.734375 7.015625 -13.734375 C 8.878906 -13.734375 10.320312 -13.140625 11.34375 -11.953125 C 12.375 -10.765625 12.890625 -9.109375 12.890625 -6.984375 Z M 9.6875 -7.921875 C 9.6875 -10.265625 8.820312 -11.4375 7.09375 -11.4375 C 6.300781 -11.4375 5.679688 -11.144531 5.234375 -10.5625 C 4.785156 -9.976562 4.519531 -9.046875 4.4375 -7.765625 L 9.6875 -7.765625 Z M 9.6875 -7.921875 "/></g></g></g><g fill="#004aad" fill-opacity="1"><g transform="translate(319.768165, 321.600337)"><g><path d="M 9.0625 -13.734375 C 10.25 -13.734375 11.175781 -13.375 11.84375 -12.65625 C 12.507812 -11.9375 12.84375 -10.941406 12.84375 -9.671875 L 12.84375 0 L 9.609375 0 L 9.609375 -9.15625 C 9.609375 -9.945312 9.46875 -10.503906 9.1875 -10.828125 C 8.914062 -11.148438 8.507812 -11.3125 7.96875 -11.3125 C 7.414062 -11.3125 6.914062 -11.132812 6.46875 -10.78125 C 6.019531 -10.4375 5.585938 -9.9375 5.171875 -9.28125 L 5.171875 0 L 1.9375 0 L 1.9375 -13.34375 L 4.75 -13.34375 L 5 -11.609375 C 6.09375 -13.023438 7.445312 -13.734375 9.0625 -13.734375 Z M 9.0625 -13.734375 "/></g></g></g><g fill="#004aad" fill-opacity="1"><g transform="translate(334.429495, 321.600337)"><g><path d="M 9.59375 -0.625 C 9.113281 -0.289062 8.582031 -0.0390625 8 0.125 C 7.425781 0.289062 6.835938 0.375 6.234375 0.375 C 4.921875 0.363281 3.921875 -0.00390625 3.234375 -0.734375 C 2.554688 -1.472656 2.21875 -2.554688 2.21875 -3.984375 L 2.21875 -11.03125 L 0.125 -11.03125 L 0.125 -13.34375 L 2.21875 -13.34375 L 2.21875 -16.296875 L 5.453125 -16.6875 L 5.453125 -13.34375 L 8.546875 -13.34375 L 8.21875 -11.03125 L 5.453125 -11.03125 L 5.453125 -4.0625 C 5.453125 -3.40625 5.5625 -2.929688 5.78125 -2.640625 C 6.007812 -2.359375 6.367188 -2.21875 6.859375 -2.21875 C 7.347656 -2.21875 7.878906 -2.378906 8.453125 -2.703125 Z M 9.59375 -0.625 "/></g></g></g><g fill="#004aad" fill-opacity="1"><g transform="translate(145.639467, 356.627175)"><g><path d="M 7.0625 -17.8125 C 8.289062 -17.8125 9.359375 -17.632812 10.265625 -17.28125 C 11.179688 -16.925781 12.03125 -16.390625 12.8125 -15.671875 L 11.171875 -13.78125 C 10.554688 -14.300781 9.929688 -14.675781 9.296875 -14.90625 C 8.671875 -15.144531 7.992188 -15.265625 7.265625 -15.265625 C 6.460938 -15.265625 5.8125 -15.082031 5.3125 -14.71875 C 4.8125 -14.363281 4.5625 -13.859375 4.5625 -13.203125 C 4.5625 -12.765625 4.65625 -12.398438 4.84375 -12.109375 C 5.039062 -11.828125 5.390625 -11.554688 5.890625 -11.296875 C 6.398438 -11.046875 7.15625 -10.769531 8.15625 -10.46875 C 9.863281 -9.9375 11.148438 -9.269531 12.015625 -8.46875 C 12.890625 -7.664062 13.328125 -6.5 13.328125 -4.96875 C 13.328125 -3.925781 13.0625 -3 12.53125 -2.1875 C 12 -1.382812 11.234375 -0.753906 10.234375 -0.296875 C 9.242188 0.148438 8.070312 0.375 6.71875 0.375 C 5.382812 0.375 4.191406 0.160156 3.140625 -0.265625 C 2.085938 -0.691406 1.179688 -1.273438 0.421875 -2.015625 L 2.140625 -3.9375 C 2.816406 -3.363281 3.515625 -2.929688 4.234375 -2.640625 C 4.960938 -2.347656 5.765625 -2.203125 6.640625 -2.203125 C 7.597656 -2.203125 8.367188 -2.425781 8.953125 -2.875 C 9.546875 -3.332031 9.84375 -3.972656 9.84375 -4.796875 C 9.84375 -5.296875 9.738281 -5.707031 9.53125 -6.03125 C 9.332031 -6.363281 8.988281 -6.660156 8.5 -6.921875 C 8.007812 -7.179688 7.304688 -7.457031 6.390625 -7.75 C 4.535156 -8.320312 3.195312 -9.007812 2.375 -9.8125 C 1.550781 -10.625 1.140625 -11.6875 1.140625 -13 C 1.140625 -13.957031 1.390625 -14.796875 1.890625 -15.515625 C 2.398438 -16.242188 3.101562 -16.804688 4 -17.203125 C 4.894531 -17.609375 5.914062 -17.8125 7.0625 -17.8125 Z M 7.0625 -17.8125 "/></g></g></g><g fill="#004aad" fill-opacity="1"><g transform="translate(159.77085, 356.627175)"><g><path d="M 8.40625 0.046875 C 7.863281 1.703125 7.046875 2.988281 5.953125 3.90625 C 4.859375 4.820312 3.363281 5.351562 1.46875 5.5 L 1.140625 3.15625 C 2.015625 3.019531 2.710938 2.828125 3.234375 2.578125 C 3.765625 2.335938 4.191406 2.015625 4.515625 1.609375 C 4.835938 1.210938 5.132812 0.675781 5.40625 0 L 4.296875 0 L 0.046875 -13.34375 L 3.484375 -13.34375 L 6.390625 -2.140625 L 9.40625 -13.34375 L 12.75 -13.34375 Z M 8.40625 0.046875 "/></g></g></g><g fill="#004aad" fill-opacity="1"><g transform="translate(172.539559, 356.627175)"><g><path d="M 6.15625 -13.734375 C 7.957031 -13.734375 9.539062 -13.203125 10.90625 -12.140625 L 9.640625 -10.25 C 8.492188 -10.96875 7.375 -11.328125 6.28125 -11.328125 C 5.644531 -11.328125 5.148438 -11.203125 4.796875 -10.953125 C 4.441406 -10.710938 4.265625 -10.394531 4.265625 -10 C 4.265625 -9.6875 4.335938 -9.429688 4.484375 -9.234375 C 4.640625 -9.035156 4.914062 -8.847656 5.3125 -8.671875 C 5.707031 -8.492188 6.289062 -8.296875 7.0625 -8.078125 C 8.507812 -7.691406 9.582031 -7.175781 10.28125 -6.53125 C 10.976562 -5.894531 11.328125 -5.003906 11.328125 -3.859375 C 11.328125 -2.535156 10.785156 -1.5 9.703125 -0.75 C 8.628906 0 7.296875 0.375 5.703125 0.375 C 4.609375 0.375 3.609375 0.207031 2.703125 -0.125 C 1.804688 -0.457031 1.03125 -0.921875 0.375 -1.515625 L 2 -3.328125 C 3.15625 -2.453125 4.363281 -2.015625 5.625 -2.015625 C 6.351562 -2.015625 6.929688 -2.15625 7.359375 -2.4375 C 7.785156 -2.726562 8 -3.128906 8 -3.640625 C 8 -4.023438 7.914062 -4.328125 7.75 -4.546875 C 7.59375 -4.773438 7.304688 -4.976562 6.890625 -5.15625 C 6.484375 -5.332031 5.84375 -5.546875 4.96875 -5.796875 C 3.601562 -6.171875 2.601562 -6.691406 1.96875 -7.359375 C 1.332031 -8.023438 1.015625 -8.851562 1.015625 -9.84375 C 1.015625 -10.582031 1.226562 -11.242188 1.65625 -11.828125 C 2.082031 -12.421875 2.6875 -12.882812 3.46875 -13.21875 C 4.25 -13.5625 5.144531 -13.734375 6.15625 -13.734375 Z M 6.15625 -13.734375 "/></g></g></g><g fill="#004aad" fill-opacity="1"><g transform="translate(184.551231, 356.627175)"><g><path d="M 9.59375 -0.625 C 9.113281 -0.289062 8.582031 -0.0390625 8 0.125 C 7.425781 0.289062 6.835938 0.375 6.234375 0.375 C 4.921875 0.363281 3.921875 -0.00390625 3.234375 -0.734375 C 2.554688 -1.472656 2.21875 -2.554688 2.21875 -3.984375 L 2.21875 -11.03125 L 0.125 -11.03125 L 0.125 -13.34375 L 2.21875 -13.34375 L 2.21875 -16.296875 L 5.453125 -16.6875 L 5.453125 -13.34375 L 8.546875 -13.34375 L 8.21875 -11.03125 L 5.453125 -11.03125 L 5.453125 -4.0625 C 5.453125 -3.40625 5.5625 -2.929688 5.78125 -2.640625 C 6.007812 -2.359375 6.367188 -2.21875 6.859375 -2.21875 C 7.347656 -2.21875 7.878906 -2.378906 8.453125 -2.703125 Z M 9.59375 -0.625 "/></g></g></g><g fill="#004aad" fill-opacity="1"><g transform="translate(194.014217, 356.627175)"><g><path d="M 12.890625 -6.984375 C 12.890625 -6.816406 12.863281 -6.378906 12.8125 -5.671875 L 4.4375 -5.671875 C 4.539062 -4.378906 4.878906 -3.453125 5.453125 -2.890625 C 6.023438 -2.335938 6.78125 -2.0625 7.71875 -2.0625 C 8.3125 -2.0625 8.867188 -2.160156 9.390625 -2.359375 C 9.910156 -2.554688 10.460938 -2.851562 11.046875 -3.25 L 12.390625 -1.40625 C 10.910156 -0.21875 9.257812 0.375 7.4375 0.375 C 5.40625 0.375 3.835938 -0.242188 2.734375 -1.484375 C 1.628906 -2.734375 1.078125 -4.4375 1.078125 -6.59375 C 1.078125 -7.945312 1.3125 -9.164062 1.78125 -10.25 C 2.257812 -11.34375 2.941406 -12.195312 3.828125 -12.8125 C 4.722656 -13.425781 5.785156 -13.734375 7.015625 -13.734375 C 8.878906 -13.734375 10.320312 -13.140625 11.34375 -11.953125 C 12.375 -10.765625 12.890625 -9.109375 12.890625 -6.984375 Z M 9.6875 -7.921875 C 9.6875 -10.265625 8.820312 -11.4375 7.09375 -11.4375 C 6.300781 -11.4375 5.679688 -11.144531 5.234375 -10.5625 C 4.785156 -9.976562 4.519531 -9.046875 4.4375 -7.765625 L 9.6875 -7.765625 Z M 9.6875 -7.921875 "/></g></g></g><g fill="#004aad" fill-opacity="1"><g transform="translate(207.868024, 356.627175)"><g><path d="M 16.09375 -13.734375 C 17.175781 -13.734375 18.035156 -13.363281 18.671875 -12.625 C 19.304688 -11.894531 19.625 -10.910156 19.625 -9.671875 L 19.625 0 L 16.40625 0 L 16.40625 -9.15625 C 16.40625 -10.59375 15.914062 -11.3125 14.9375 -11.3125 C 14.414062 -11.3125 13.960938 -11.144531 13.578125 -10.8125 C 13.203125 -10.488281 12.816406 -9.976562 12.421875 -9.28125 L 12.421875 0 L 9.1875 0 L 9.1875 -9.15625 C 9.1875 -10.59375 8.695312 -11.3125 7.71875 -11.3125 C 7.1875 -11.3125 6.726562 -11.144531 6.34375 -10.8125 C 5.96875 -10.488281 5.578125 -9.976562 5.171875 -9.28125 L 5.171875 0 L 1.9375 0 L 1.9375 -13.34375 L 4.75 -13.34375 L 5 -11.609375 C 6.007812 -13.023438 7.296875 -13.734375 8.859375 -13.734375 C 9.628906 -13.734375 10.296875 -13.535156 10.859375 -13.140625 C 11.421875 -12.742188 11.832031 -12.191406 12.09375 -11.484375 C 12.625 -12.203125 13.210938 -12.753906 13.859375 -13.140625 C 14.515625 -13.535156 15.257812 -13.734375 16.09375 -13.734375 Z M 16.09375 -13.734375 "/></g></g></g></svg>