<svg xmlns="http://www.w3.org/2000/svg" xmlns:xlink="http://www.w3.org/1999/xlink" width="500" zoomAndPan="magnify" viewBox="0 0 375 374.999991" height="500" preserveAspectRatio="xMidYMid meet" version="1.0"><defs><g/><clipPath id="e513534fb3"><path d="M 213 262 L 260 262 L 260 283.136719 L 213 283.136719 Z M 213 262 " clip-rule="nonzero"/></clipPath><clipPath id="49b28fc40b"><path d="M 209 16 L 321.980469 16 L 321.980469 168 L 209 168 Z M 209 16 " clip-rule="nonzero"/></clipPath><clipPath id="c839cbb7aa"><path d="M 49.730469 87 L 68 87 L 68 166 L 49.730469 166 Z M 49.730469 87 " clip-rule="nonzero"/></clipPath><clipPath id="3e56f4c6dd"><path d="M 112 11.636719 L 131 11.636719 L 131 42 L 112 42 Z M 112 11.636719 " clip-rule="nonzero"/></clipPath><clipPath id="87880e4e49"><path d="M 151 11.636719 L 170 11.636719 L 170 42 L 151 42 Z M 151 11.636719 " clip-rule="nonzero"/></clipPath></defs><g clip-path="url(#e513534fb3)"><path fill="#004aad" d="M 215.300781 283.054688 C 214.652344 283.054688 214.070312 282.609375 213.921875 281.949219 C 213.753906 281.191406 214.234375 280.4375 214.996094 280.265625 C 219.964844 279.160156 224.925781 277.75 229.730469 276.078125 C 230.46875 275.820312 231.273438 276.210938 231.53125 276.945312 C 231.785156 277.679688 231.398438 278.484375 230.660156 278.742188 C 225.75 280.449219 220.6875 281.890625 215.609375 283.019531 C 215.507812 283.042969 215.402344 283.054688 215.300781 283.054688 Z M 244.5 272.894531 C 243.976562 272.894531 243.472656 272.601562 243.226562 272.101562 C 242.886719 271.398438 243.179688 270.554688 243.882812 270.214844 C 248.460938 268 252.964844 265.492188 257.265625 262.761719 C 257.921875 262.34375 258.796875 262.539062 259.214844 263.195312 C 259.636719 263.855469 259.441406 264.726562 258.78125 265.144531 C 254.390625 267.933594 249.789062 270.492188 245.113281 272.753906 C 244.917969 272.851562 244.707031 272.894531 244.5 272.894531 Z M 244.5 272.894531 " fill-opacity="1" fill-rule="nonzero"/></g><g clip-path="url(#49b28fc40b)"><path fill="#004aad" d="M 319.699219 167.070312 C 319.644531 167.070312 319.59375 167.066406 319.539062 167.058594 C 318.761719 166.972656 318.203125 166.273438 318.292969 165.5 C 318.859375 160.507812 319.144531 155.414062 319.144531 150.359375 L 319.144531 150.21875 C 319.144531 149.4375 319.777344 148.808594 320.558594 148.808594 C 321.339844 148.808594 321.972656 149.4375 321.972656 150.21875 L 321.972656 150.359375 C 321.972656 155.523438 321.679688 160.722656 321.101562 165.816406 C 321.019531 166.535156 320.410156 167.070312 319.699219 167.070312 Z M 319.664062 136.195312 C 318.957031 136.195312 318.34375 135.667969 318.261719 134.945312 C 317.675781 129.890625 316.792969 124.820312 315.632812 119.878906 C 315.457031 119.117188 315.925781 118.359375 316.6875 118.179688 C 317.445312 118.003906 318.207031 118.472656 318.386719 119.234375 C 319.570312 124.28125 320.472656 129.457031 321.070312 134.625 C 321.160156 135.398438 320.601562 136.097656 319.828125 136.1875 C 319.773438 136.191406 319.71875 136.195312 319.664062 136.195312 Z M 312.609375 106.144531 C 312.03125 106.144531 311.488281 105.785156 311.28125 105.210938 C 309.554688 100.4375 307.53125 95.707031 305.265625 91.15625 C 304.917969 90.457031 305.203125 89.609375 305.898438 89.265625 C 306.597656 88.917969 307.445312 89.203125 307.796875 89.898438 C 310.109375 94.546875 312.179688 99.378906 313.941406 104.253906 C 314.203125 104.988281 313.824219 105.796875 313.089844 106.058594 C 312.929688 106.117188 312.769531 106.144531 312.609375 106.144531 Z M 298.851562 78.523438 C 298.390625 78.523438 297.9375 78.296875 297.664062 77.882812 C 294.890625 73.625 291.839844 69.476562 288.589844 65.558594 C 288.09375 64.957031 288.175781 64.070312 288.777344 63.574219 C 289.378906 63.074219 290.269531 63.160156 290.769531 63.761719 C 294.085938 67.761719 297.203125 71.996094 300.035156 76.34375 C 300.460938 76.996094 300.273438 77.871094 299.621094 78.292969 C 299.382812 78.449219 299.117188 78.523438 298.851562 78.523438 Z M 279.144531 54.742188 C 278.789062 54.742188 278.4375 54.613281 278.164062 54.351562 C 274.492188 50.828125 270.574219 47.480469 266.523438 44.402344 C 265.902344 43.929688 265.78125 43.042969 266.253906 42.421875 C 266.726562 41.804688 267.613281 41.683594 268.234375 42.15625 C 272.371094 45.300781 276.371094 48.71875 280.121094 52.316406 C 280.683594 52.855469 280.703125 53.746094 280.164062 54.308594 C 279.886719 54.597656 279.515625 54.742188 279.144531 54.742188 Z M 254.539062 36.042969 C 254.292969 36.042969 254.042969 35.980469 253.816406 35.84375 C 249.433594 33.246094 244.855469 30.875 240.210938 28.800781 C 239.5 28.484375 239.179688 27.648438 239.5 26.9375 C 239.816406 26.226562 240.652344 25.90625 241.367188 26.226562 C 246.109375 28.34375 250.785156 30.761719 255.261719 33.417969 C 255.933594 33.816406 256.152344 34.683594 255.753906 35.351562 C 255.492188 35.796875 255.019531 36.042969 254.539062 36.042969 Z M 226.304688 23.4375 C 226.164062 23.4375 226.023438 23.417969 225.882812 23.371094 C 221.023438 21.847656 216.019531 20.589844 211.015625 19.632812 C 210.246094 19.488281 209.746094 18.75 209.890625 17.984375 C 210.039062 17.21875 210.777344 16.714844 211.542969 16.863281 C 216.660156 17.835938 221.765625 19.121094 226.730469 20.679688 C 227.472656 20.914062 227.886719 21.707031 227.652344 22.449219 C 227.464844 23.050781 226.90625 23.4375 226.304688 23.4375 Z M 226.304688 23.4375 " fill-opacity="1" fill-rule="nonzero"/></g><g clip-path="url(#c839cbb7aa)"><path fill="#004aad" d="M 51.792969 165.132812 C 51.074219 165.132812 50.460938 164.589844 50.390625 163.863281 C 49.949219 159.40625 49.726562 154.863281 49.726562 150.359375 C 49.726562 149.660156 49.730469 148.949219 49.742188 148.246094 C 49.753906 147.476562 50.382812 146.859375 51.15625 146.859375 C 51.160156 146.859375 51.167969 146.859375 51.175781 146.859375 C 51.957031 146.871094 52.578125 147.511719 52.566406 148.289062 C 52.558594 148.976562 52.550781 149.675781 52.550781 150.359375 C 52.550781 154.769531 52.769531 159.21875 53.203125 163.585938 C 53.277344 164.359375 52.710938 165.050781 51.933594 165.128906 C 51.886719 165.132812 51.839844 165.132812 51.792969 165.132812 Z M 52.273438 134.253906 C 52.210938 134.253906 52.152344 134.25 52.089844 134.242188 C 51.316406 134.140625 50.769531 133.433594 50.871094 132.660156 C 51.542969 127.503906 52.519531 122.339844 53.78125 117.304688 C 53.96875 116.550781 54.734375 116.089844 55.492188 116.28125 C 56.25 116.46875 56.710938 117.234375 56.523438 117.992188 C 55.289062 122.917969 54.328125 127.976562 53.671875 133.027344 C 53.578125 133.738281 52.972656 134.253906 52.273438 134.253906 Z M 59.769531 104.300781 C 59.601562 104.300781 59.433594 104.269531 59.269531 104.207031 C 58.539062 103.933594 58.171875 103.121094 58.445312 102.390625 C 60.28125 97.535156 62.421875 92.730469 64.808594 88.113281 C 65.167969 87.421875 66.019531 87.148438 66.714844 87.507812 C 67.40625 87.863281 67.679688 88.714844 67.320312 89.40625 C 64.984375 93.929688 62.886719 98.632812 61.089844 103.386719 C 60.878906 103.953125 60.339844 104.300781 59.769531 104.300781 Z M 59.769531 104.300781 " fill-opacity="1" fill-rule="nonzero"/></g><path fill="#c2ffea" d="M 284.753906 150.359375 C 284.753906 151.976562 284.714844 153.59375 284.636719 155.207031 C 284.554688 156.820312 284.4375 158.433594 284.277344 160.039062 C 284.121094 161.648438 283.921875 163.253906 283.683594 164.851562 C 283.445312 166.449219 283.171875 168.042969 282.855469 169.628906 C 282.539062 171.210938 282.183594 172.789062 281.789062 174.355469 C 281.398438 175.925781 280.964844 177.480469 280.496094 179.027344 C 280.027344 180.574219 279.519531 182.109375 278.972656 183.632812 C 278.429688 185.152344 277.84375 186.660156 277.226562 188.152344 C 276.605469 189.648438 275.949219 191.125 275.257812 192.585938 C 274.566406 194.046875 273.839844 195.488281 273.074219 196.914062 C 272.3125 198.339844 271.515625 199.746094 270.683594 201.132812 C 269.851562 202.519531 268.984375 203.882812 268.085938 205.226562 C 267.1875 206.570312 266.253906 207.890625 265.289062 209.191406 C 264.328125 210.488281 263.332031 211.761719 262.304688 213.011719 C 261.277344 214.261719 260.21875 215.484375 259.132812 216.683594 C 258.046875 217.878906 256.929688 219.050781 255.785156 220.191406 C 254.640625 221.335938 253.46875 222.449219 252.269531 223.535156 C 251.070312 224.621094 249.84375 225.675781 248.59375 226.703125 C 247.34375 227.726562 246.066406 228.71875 244.765625 229.683594 C 243.46875 230.644531 242.144531 231.578125 240.796875 232.472656 C 239.453125 233.371094 238.085938 234.238281 236.695312 235.066406 C 235.308594 235.898438 233.898438 236.695312 232.472656 237.457031 C 231.046875 238.21875 229.601562 238.945312 228.136719 239.636719 C 226.671875 240.328125 225.195312 240.980469 223.699219 241.601562 C 222.203125 242.21875 220.691406 242.800781 219.167969 243.34375 C 217.644531 243.890625 216.109375 244.394531 214.558594 244.867188 C 213.011719 245.335938 211.449219 245.765625 209.882812 246.160156 C 208.3125 246.550781 206.730469 246.90625 205.144531 247.21875 C 203.558594 247.535156 201.960938 247.8125 200.359375 248.050781 C 198.761719 248.285156 197.152344 248.484375 195.542969 248.640625 C 193.933594 248.800781 192.320312 248.917969 190.703125 249 C 189.085938 249.078125 187.46875 249.117188 185.847656 249.117188 C 184.230469 249.117188 182.613281 249.078125 180.996094 249 C 179.378906 248.917969 177.765625 248.800781 176.15625 248.640625 C 174.542969 248.484375 172.9375 248.285156 171.335938 248.050781 C 169.734375 247.8125 168.140625 247.535156 166.554688 247.21875 C 164.964844 246.90625 163.386719 246.550781 161.816406 246.160156 C 160.246094 245.765625 158.6875 245.335938 157.136719 244.867188 C 155.589844 244.394531 154.050781 243.890625 152.527344 243.34375 C 151.003906 242.800781 149.496094 242.21875 148 241.601562 C 146.503906 240.980469 145.023438 240.328125 143.5625 239.636719 C 142.097656 238.945312 140.652344 238.21875 139.226562 237.457031 C 137.796875 236.695312 136.390625 235.898438 135 235.066406 C 133.613281 234.238281 132.246094 233.371094 130.898438 232.472656 C 129.554688 231.578125 128.230469 230.644531 126.929688 229.683594 C 125.628906 228.71875 124.355469 227.726562 123.105469 226.703125 C 121.851562 225.675781 120.628906 224.621094 119.425781 223.535156 C 118.226562 222.449219 117.054688 221.335938 115.910156 220.191406 C 114.765625 219.050781 113.652344 217.878906 112.5625 216.683594 C 111.476562 215.484375 110.421875 214.261719 109.394531 213.011719 C 108.367188 211.761719 107.371094 210.488281 106.40625 209.191406 C 105.441406 207.890625 104.511719 206.570312 103.613281 205.226562 C 102.710938 203.882812 101.847656 202.519531 101.015625 201.132812 C 100.183594 199.746094 99.382812 198.339844 98.621094 196.914062 C 97.859375 195.488281 97.132812 194.046875 96.4375 192.585938 C 95.746094 191.125 95.089844 189.648438 94.472656 188.152344 C 93.851562 186.660156 93.269531 185.152344 92.722656 183.632812 C 92.179688 182.109375 91.671875 180.574219 91.203125 179.027344 C 90.730469 177.480469 90.300781 175.925781 89.90625 174.355469 C 89.511719 172.789062 89.160156 171.210938 88.84375 169.628906 C 88.527344 168.042969 88.25 166.449219 88.011719 164.851562 C 87.777344 163.253906 87.578125 161.648438 87.417969 160.039062 C 87.261719 158.433594 87.140625 156.820312 87.0625 155.207031 C 86.984375 153.59375 86.941406 151.976562 86.941406 150.359375 C 86.941406 148.746094 86.984375 147.128906 87.0625 145.515625 C 87.140625 143.902344 87.261719 142.289062 87.417969 140.679688 C 87.578125 139.074219 87.777344 137.46875 88.011719 135.871094 C 88.25 134.273438 88.527344 132.679688 88.84375 131.09375 C 89.160156 129.507812 89.511719 127.933594 89.90625 126.363281 C 90.300781 124.796875 90.730469 123.238281 91.203125 121.695312 C 91.671875 120.148438 92.179688 118.613281 92.722656 117.089844 C 93.269531 115.570312 93.851562 114.0625 94.472656 112.570312 C 95.089844 111.074219 95.746094 109.597656 96.4375 108.136719 C 97.132812 106.675781 97.859375 105.234375 98.621094 103.808594 C 99.382812 102.382812 100.183594 100.976562 101.015625 99.589844 C 101.847656 98.203125 102.710938 96.839844 103.613281 95.496094 C 104.511719 94.152344 105.441406 92.828125 106.40625 91.53125 C 107.371094 90.234375 108.367188 88.960938 109.394531 87.710938 C 110.421875 86.460938 111.476562 85.238281 112.5625 84.039062 C 113.652344 82.84375 114.765625 81.671875 115.910156 80.53125 C 117.054688 79.386719 118.226562 78.273438 119.425781 77.1875 C 120.628906 76.101562 121.851562 75.046875 123.105469 74.019531 C 124.355469 72.996094 125.628906 72 126.929688 71.039062 C 128.230469 70.074219 129.554688 69.144531 130.898438 68.246094 C 132.246094 67.351562 133.613281 66.484375 135 65.65625 C 136.390625 64.824219 137.796875 64.027344 139.226562 63.265625 C 140.652344 62.503906 142.097656 61.777344 143.5625 61.085938 C 145.023438 60.394531 146.503906 59.738281 148 59.121094 C 149.496094 58.503906 151.003906 57.921875 152.527344 57.378906 C 154.050781 56.832031 155.589844 56.324219 157.136719 55.855469 C 158.6875 55.386719 160.246094 54.957031 161.816406 54.5625 C 163.386719 54.171875 164.964844 53.816406 166.554688 53.5 C 168.140625 53.1875 169.734375 52.910156 171.335938 52.671875 C 172.9375 52.4375 174.542969 52.238281 176.15625 52.078125 C 177.765625 51.921875 179.378906 51.800781 180.996094 51.722656 C 182.613281 51.644531 184.230469 51.605469 185.847656 51.605469 C 187.46875 51.605469 189.085938 51.644531 190.703125 51.722656 C 192.320312 51.800781 193.933594 51.921875 195.542969 52.078125 C 197.152344 52.238281 198.761719 52.4375 200.359375 52.671875 C 201.960938 52.910156 203.558594 53.1875 205.144531 53.5 C 206.730469 53.816406 208.3125 54.171875 209.882812 54.5625 C 211.449219 54.957031 213.011719 55.386719 214.558594 55.855469 C 216.109375 56.324219 217.644531 56.832031 219.167969 57.378906 C 220.691406 57.921875 222.203125 58.503906 223.699219 59.121094 C 225.195312 59.738281 226.671875 60.394531 228.136719 61.085938 C 229.601562 61.777344 231.046875 62.503906 232.472656 63.265625 C 233.898438 64.027344 235.308594 64.824219 236.695312 65.65625 C 238.085938 66.484375 239.453125 67.351562 240.796875 68.246094 C 242.144531 69.144531 243.46875 70.074219 244.765625 71.039062 C 246.066406 72 247.34375 72.996094 248.59375 74.019531 C 249.84375 75.046875 251.070312 76.101562 252.269531 77.1875 C 253.46875 78.273438 254.640625 79.386719 255.785156 80.53125 C 256.929688 81.671875 258.046875 82.84375 259.132812 84.039062 C 260.21875 85.238281 261.277344 86.460938 262.304688 87.710938 C 263.332031 88.960938 264.328125 90.234375 265.289062 91.53125 C 266.253906 92.828125 267.1875 94.152344 268.085938 95.496094 C 268.984375 96.839844 269.851562 98.203125 270.683594 99.589844 C 271.515625 100.976562 272.3125 102.382812 273.074219 103.808594 C 273.839844 105.234375 274.566406 106.675781 275.257812 108.136719 C 275.949219 109.597656 276.605469 111.074219 277.226562 112.570312 C 277.84375 114.0625 278.429688 115.570312 278.972656 117.089844 C 279.519531 118.613281 280.027344 120.148438 280.496094 121.695312 C 280.964844 123.238281 281.398438 124.796875 281.789062 126.363281 C 282.183594 127.933594 282.539062 129.507812 282.855469 131.09375 C 283.171875 132.679688 283.445312 134.273438 283.683594 135.871094 C 283.921875 137.46875 284.121094 139.074219 284.277344 140.679688 C 284.4375 142.289062 284.554688 143.902344 284.636719 145.515625 C 284.714844 147.128906 284.753906 148.746094 284.753906 150.359375 Z M 284.753906 150.359375 " fill-opacity="1" fill-rule="nonzero"/><path fill="#ffffff" d="M 184.300781 131.253906 L 97.625 131.253906 C 92.613281 131.253906 88.546875 127.195312 88.546875 122.1875 L 88.546875 51.546875 L 193.382812 51.546875 L 193.382812 122.1875 C 193.382812 127.195312 189.316406 131.253906 184.300781 131.253906 Z M 184.300781 131.253906 " fill-opacity="1" fill-rule="nonzero"/><path fill="#004aad" d="M 184.300781 132.667969 L 97.625 132.667969 C 91.839844 132.667969 87.132812 127.964844 87.132812 122.1875 L 87.132812 51.546875 C 87.132812 50.765625 87.765625 50.136719 88.546875 50.136719 L 193.382812 50.136719 C 194.164062 50.136719 194.796875 50.765625 194.796875 51.546875 L 194.796875 122.1875 C 194.796875 127.964844 190.085938 132.667969 184.300781 132.667969 Z M 89.960938 52.957031 L 89.960938 122.1875 C 89.960938 126.410156 93.398438 129.84375 97.625 129.84375 L 184.300781 129.84375 C 188.527344 129.84375 191.96875 126.410156 191.96875 122.1875 L 191.96875 52.957031 Z M 89.960938 52.957031 " fill-opacity="1" fill-rule="nonzero"/><path fill="#ffee8e" d="M 193.382812 51.546875 L 88.546875 51.546875 L 88.546875 37.140625 C 88.546875 31.835938 92.851562 27.539062 98.164062 27.539062 L 183.765625 27.539062 C 189.074219 27.539062 193.382812 31.835938 193.382812 37.140625 Z M 193.382812 51.546875 " fill-opacity="1" fill-rule="nonzero"/><path fill="#004aad" d="M 193.382812 52.957031 L 88.546875 52.957031 C 87.765625 52.957031 87.132812 52.324219 87.132812 51.546875 L 87.132812 37.140625 C 87.132812 31.066406 92.082031 26.125 98.164062 26.125 L 183.765625 26.125 C 189.847656 26.125 194.796875 31.066406 194.796875 37.140625 L 194.796875 51.546875 C 194.796875 52.324219 194.164062 52.957031 193.382812 52.957031 Z M 89.960938 50.136719 L 191.96875 50.136719 L 191.96875 37.140625 C 191.96875 32.625 188.289062 28.949219 183.765625 28.949219 L 98.164062 28.949219 C 93.640625 28.949219 89.960938 32.625 89.960938 37.140625 Z M 89.960938 50.136719 " fill-opacity="1" fill-rule="nonzero"/><g clip-path="url(#3e56f4c6dd)"><path fill="#004aad" d="M 123.171875 41.433594 L 120.285156 41.433594 C 115.792969 41.433594 112.140625 37.785156 112.140625 33.300781 L 112.140625 19.855469 C 112.140625 15.371094 115.792969 11.722656 120.285156 11.722656 L 122.207031 11.722656 C 126.699219 11.722656 130.355469 15.371094 130.355469 19.855469 L 130.355469 27.539062 C 130.355469 28.316406 129.722656 28.949219 128.941406 28.949219 C 128.160156 28.949219 127.527344 28.316406 127.527344 27.539062 L 127.527344 19.855469 C 127.527344 16.925781 125.140625 14.542969 122.207031 14.542969 L 120.285156 14.542969 C 117.351562 14.542969 114.964844 16.925781 114.964844 19.855469 L 114.964844 33.300781 C 114.964844 36.226562 117.351562 38.609375 120.285156 38.609375 L 123.171875 38.609375 C 123.949219 38.609375 124.582031 39.242188 124.582031 40.023438 C 124.582031 40.800781 123.949219 41.433594 123.171875 41.433594 Z M 123.171875 41.433594 " fill-opacity="1" fill-rule="nonzero"/></g><path fill="#004aad" d="M 123.171875 45.273438 C 122.390625 45.273438 121.757812 44.644531 121.757812 43.863281 L 121.757812 35.21875 C 121.757812 34.441406 122.390625 33.808594 123.171875 33.808594 C 123.949219 33.808594 124.582031 34.441406 124.582031 35.21875 L 124.582031 43.863281 C 124.582031 44.644531 123.949219 45.273438 123.171875 45.273438 Z M 123.171875 45.273438 " fill-opacity="1" fill-rule="nonzero"/><g clip-path="url(#87880e4e49)"><path fill="#004aad" d="M 162.605469 41.433594 L 159.71875 41.433594 C 155.226562 41.433594 151.574219 37.785156 151.574219 33.300781 L 151.574219 19.855469 C 151.574219 15.371094 155.226562 11.722656 159.71875 11.722656 L 161.640625 11.722656 C 166.132812 11.722656 169.789062 15.371094 169.789062 19.855469 L 169.789062 27.539062 C 169.789062 28.316406 169.15625 28.949219 168.375 28.949219 C 167.59375 28.949219 166.960938 28.316406 166.960938 27.539062 L 166.960938 19.855469 C 166.960938 16.925781 164.574219 14.542969 161.640625 14.542969 L 159.71875 14.542969 C 156.785156 14.542969 154.398438 16.925781 154.398438 19.855469 L 154.398438 33.300781 C 154.398438 36.226562 156.785156 38.609375 159.71875 38.609375 L 162.605469 38.609375 C 163.382812 38.609375 164.015625 39.242188 164.015625 40.023438 C 164.015625 40.800781 163.386719 41.433594 162.605469 41.433594 Z M 162.605469 41.433594 " fill-opacity="1" fill-rule="nonzero"/></g><path fill="#004aad" d="M 162.605469 45.273438 C 161.824219 45.273438 161.191406 44.644531 161.191406 43.863281 L 161.191406 35.21875 C 161.191406 34.441406 161.824219 33.808594 162.605469 33.808594 C 163.382812 33.808594 164.015625 34.441406 164.015625 35.21875 L 164.015625 43.863281 C 164.015625 44.644531 163.386719 45.273438 162.605469 45.273438 Z M 162.605469 45.273438 " fill-opacity="1" fill-rule="nonzero"/><path fill="#ffffff" d="M 117.367188 84.203125 L 102.941406 84.203125 C 101.347656 84.203125 100.054688 82.914062 100.054688 81.324219 L 100.054688 66.917969 C 100.054688 65.328125 101.347656 64.039062 102.941406 64.039062 L 117.367188 64.039062 C 118.960938 64.039062 120.253906 65.328125 120.253906 66.917969 L 120.253906 81.324219 C 120.253906 82.914062 118.960938 84.203125 117.367188 84.203125 Z M 117.367188 84.203125 " fill-opacity="1" fill-rule="nonzero"/><path fill="#004aad" d="M 117.367188 85.617188 L 102.941406 85.617188 C 100.570312 85.617188 98.644531 83.691406 98.644531 81.324219 L 98.644531 66.917969 C 98.644531 64.550781 100.570312 62.625 102.941406 62.625 L 117.367188 62.625 C 119.738281 62.625 121.667969 64.550781 121.667969 66.917969 L 121.667969 81.324219 C 121.667969 83.691406 119.738281 85.617188 117.367188 85.617188 Z M 102.941406 65.449219 C 102.128906 65.449219 101.46875 66.109375 101.46875 66.917969 L 101.46875 81.324219 C 101.46875 82.132812 102.128906 82.792969 102.941406 82.792969 L 117.367188 82.792969 C 118.179688 82.792969 118.839844 82.132812 118.839844 81.324219 L 118.839844 66.917969 C 118.839844 66.109375 118.179688 65.449219 117.367188 65.449219 Z M 102.941406 65.449219 " fill-opacity="1" fill-rule="nonzero"/><path fill="#ffee8e" d="M 118.332031 117.816406 L 103.902344 117.816406 C 102.308594 117.816406 101.019531 116.527344 101.019531 114.9375 L 101.019531 100.53125 C 101.019531 98.941406 102.308594 97.648438 103.902344 97.648438 L 118.332031 97.648438 C 119.925781 97.648438 121.214844 98.941406 121.214844 100.53125 L 121.214844 114.9375 C 121.214844 116.527344 119.925781 117.816406 118.332031 117.816406 Z M 118.332031 117.816406 " fill-opacity="1" fill-rule="nonzero"/><path fill="#004aad" d="M 118.332031 119.226562 L 103.902344 119.226562 C 101.535156 119.226562 99.605469 117.304688 99.605469 114.9375 L 99.605469 100.53125 C 99.605469 98.164062 101.535156 96.238281 103.902344 96.238281 L 118.332031 96.238281 C 120.703125 96.238281 122.628906 98.164062 122.628906 100.53125 L 122.628906 114.9375 C 122.628906 117.304688 120.699219 119.226562 118.332031 119.226562 Z M 103.902344 99.0625 C 103.09375 99.0625 102.433594 99.71875 102.433594 100.53125 L 102.433594 114.9375 C 102.433594 115.746094 103.09375 116.40625 103.902344 116.40625 L 118.332031 116.40625 C 119.144531 116.40625 119.804688 115.746094 119.804688 114.9375 L 119.804688 100.53125 C 119.804688 99.71875 119.144531 99.0625 118.332031 99.0625 Z M 103.902344 99.0625 " fill-opacity="1" fill-rule="nonzero"/><path fill="#ffffff" d="M 148.148438 117.816406 L 133.71875 117.816406 C 132.125 117.816406 130.835938 116.527344 130.835938 114.9375 L 130.835938 100.53125 C 130.835938 98.941406 132.125 97.648438 133.71875 97.648438 L 148.148438 97.648438 C 149.738281 97.648438 151.03125 98.941406 151.03125 100.53125 L 151.03125 114.9375 C 151.03125 116.527344 149.738281 117.816406 148.148438 117.816406 Z M 148.148438 117.816406 " fill-opacity="1" fill-rule="nonzero"/><path fill="#004aad" d="M 148.148438 119.226562 L 133.71875 119.226562 C 131.347656 119.226562 129.421875 117.304688 129.421875 114.9375 L 129.421875 100.53125 C 129.421875 98.164062 131.347656 96.238281 133.71875 96.238281 L 148.148438 96.238281 C 150.515625 96.238281 152.445312 98.164062 152.445312 100.53125 L 152.445312 114.9375 C 152.445312 117.304688 150.515625 119.226562 148.148438 119.226562 Z M 133.71875 99.0625 C 132.90625 99.0625 132.246094 99.71875 132.246094 100.53125 L 132.246094 114.9375 C 132.246094 115.746094 132.90625 116.40625 133.71875 116.40625 L 148.148438 116.40625 C 148.957031 116.40625 149.617188 115.746094 149.617188 114.9375 L 149.617188 100.53125 C 149.617188 99.71875 148.957031 99.0625 148.148438 99.0625 Z M 133.71875 99.0625 " fill-opacity="1" fill-rule="nonzero"/><path fill="#38b6ff" d="M 148.148438 84.203125 L 133.71875 84.203125 C 132.125 84.203125 130.835938 82.914062 130.835938 81.324219 L 130.835938 66.917969 C 130.835938 65.328125 132.125 64.039062 133.71875 64.039062 L 148.148438 64.039062 C 149.738281 64.039062 151.03125 65.328125 151.03125 66.917969 L 151.03125 81.324219 C 151.03125 82.914062 149.738281 84.203125 148.148438 84.203125 Z M 148.148438 84.203125 " fill-opacity="1" fill-rule="nonzero"/><path fill="#004aad" d="M 148.148438 85.617188 L 133.71875 85.617188 C 131.347656 85.617188 129.421875 83.691406 129.421875 81.324219 L 129.421875 66.917969 C 129.421875 64.550781 131.347656 62.625 133.71875 62.625 L 148.148438 62.625 C 150.515625 62.625 152.445312 64.550781 152.445312 66.917969 L 152.445312 81.324219 C 152.445312 83.691406 150.515625 85.617188 148.148438 85.617188 Z M 133.71875 65.449219 C 132.90625 65.449219 132.246094 66.109375 132.246094 66.917969 L 132.246094 81.324219 C 132.246094 82.132812 132.90625 82.792969 133.71875 82.792969 L 148.148438 82.792969 C 148.957031 82.792969 149.617188 82.132812 149.617188 81.324219 L 149.617188 66.917969 C 149.617188 66.109375 148.957031 65.449219 148.148438 65.449219 Z M 133.71875 65.449219 " fill-opacity="1" fill-rule="nonzero"/><path fill="#ffffff" d="M 178.96875 117.816406 L 164.542969 117.816406 C 162.949219 117.816406 161.65625 116.527344 161.65625 114.9375 L 161.65625 100.53125 C 161.65625 98.941406 162.949219 97.648438 164.542969 97.648438 L 178.96875 97.648438 C 180.5625 97.648438 181.855469 98.941406 181.855469 100.53125 L 181.855469 114.9375 C 181.855469 116.527344 180.5625 117.816406 178.96875 117.816406 Z M 178.96875 117.816406 " fill-opacity="1" fill-rule="nonzero"/><path fill="#004aad" d="M 178.96875 119.226562 L 164.542969 119.226562 C 162.171875 119.226562 160.242188 117.304688 160.242188 114.9375 L 160.242188 100.53125 C 160.242188 98.164062 162.171875 96.238281 164.542969 96.238281 L 178.96875 96.238281 C 181.339844 96.238281 183.265625 98.164062 183.265625 100.53125 L 183.265625 114.9375 C 183.265625 117.304688 181.339844 119.226562 178.96875 119.226562 Z M 164.542969 99.0625 C 163.730469 99.0625 163.070312 99.71875 163.070312 100.53125 L 163.070312 114.9375 C 163.070312 115.746094 163.730469 116.40625 164.542969 116.40625 L 178.96875 116.40625 C 179.78125 116.40625 180.441406 115.746094 180.441406 114.9375 L 180.441406 100.53125 C 180.441406 99.71875 179.78125 99.0625 178.96875 99.0625 Z M 164.542969 99.0625 " fill-opacity="1" fill-rule="nonzero"/><path fill="#ffffff" d="M 178.96875 84.203125 L 164.542969 84.203125 C 162.949219 84.203125 161.65625 82.914062 161.65625 81.324219 L 161.65625 66.917969 C 161.65625 65.328125 162.949219 64.039062 164.542969 64.039062 L 178.96875 64.039062 C 180.5625 64.039062 181.855469 65.328125 181.855469 66.917969 L 181.855469 81.324219 C 181.855469 82.914062 180.5625 84.203125 178.96875 84.203125 Z M 178.96875 84.203125 " fill-opacity="1" fill-rule="nonzero"/><path fill="#004aad" d="M 178.96875 85.617188 L 164.542969 85.617188 C 162.171875 85.617188 160.242188 83.691406 160.242188 81.324219 L 160.242188 66.917969 C 160.242188 64.550781 162.171875 62.625 164.542969 62.625 L 178.96875 62.625 C 181.339844 62.625 183.265625 64.550781 183.265625 66.917969 L 183.265625 81.324219 C 183.265625 83.691406 181.339844 85.617188 178.96875 85.617188 Z M 164.542969 65.449219 C 163.730469 65.449219 163.070312 66.109375 163.070312 66.917969 L 163.070312 81.324219 C 163.070312 82.132812 163.730469 82.792969 164.542969 82.792969 L 178.96875 82.792969 C 179.78125 82.792969 180.441406 82.132812 180.441406 81.324219 L 180.441406 66.917969 C 180.441406 66.109375 179.78125 65.449219 178.96875 65.449219 Z M 164.542969 65.449219 " fill-opacity="1" fill-rule="nonzero"/><path fill="#38b6ff" d="M 211.28125 112.109375 C 211.28125 113.105469 211.230469 114.101562 211.132812 115.09375 C 211.035156 116.089844 210.886719 117.074219 210.691406 118.054688 C 210.496094 119.03125 210.253906 120 209.964844 120.957031 C 209.675781 121.910156 209.339844 122.847656 208.957031 123.769531 C 208.574219 124.695312 208.144531 125.59375 207.675781 126.476562 C 207.203125 127.355469 206.691406 128.210938 206.136719 129.039062 C 205.578125 129.871094 204.984375 130.671875 204.351562 131.441406 C 203.714844 132.214844 203.046875 132.953125 202.339844 133.660156 C 201.632812 134.363281 200.890625 135.035156 200.121094 135.667969 C 199.347656 136.300781 198.542969 136.894531 197.714844 137.449219 C 196.882812 138.003906 196.027344 138.515625 195.144531 138.988281 C 194.261719 139.457031 193.359375 139.882812 192.4375 140.265625 C 191.511719 140.648438 190.574219 140.984375 189.617188 141.273438 C 188.660156 141.5625 187.691406 141.804688 186.710938 142 C 185.730469 142.195312 184.742188 142.339844 183.746094 142.4375 C 182.753906 142.535156 181.753906 142.585938 180.753906 142.585938 C 179.753906 142.585938 178.757812 142.535156 177.761719 142.4375 C 176.769531 142.339844 175.78125 142.195312 174.800781 142 C 173.820312 141.804688 172.851562 141.5625 171.894531 141.273438 C 170.9375 140.984375 170 140.648438 169.074219 140.265625 C 168.152344 139.882812 167.25 139.457031 166.367188 138.988281 C 165.484375 138.515625 164.628906 138.003906 163.796875 137.449219 C 162.964844 136.894531 162.164062 136.300781 161.390625 135.667969 C 160.617188 135.035156 159.878906 134.363281 159.171875 133.660156 C 158.464844 132.953125 157.792969 132.214844 157.160156 131.441406 C 156.527344 130.671875 155.929688 129.871094 155.375 129.039062 C 154.820312 128.210938 154.308594 127.355469 153.835938 126.476562 C 153.363281 125.59375 152.9375 124.695312 152.554688 123.769531 C 152.171875 122.847656 151.835938 121.910156 151.546875 120.957031 C 151.253906 120 151.011719 119.03125 150.816406 118.054688 C 150.621094 117.074219 150.476562 116.089844 150.378906 115.09375 C 150.28125 114.101562 150.230469 113.105469 150.230469 112.109375 C 150.230469 111.109375 150.28125 110.113281 150.378906 109.121094 C 150.476562 108.128906 150.621094 107.140625 150.816406 106.160156 C 151.011719 105.183594 151.253906 104.214844 151.546875 103.261719 C 151.835938 102.304688 152.171875 101.367188 152.554688 100.445312 C 152.9375 99.523438 153.363281 98.621094 153.835938 97.742188 C 154.308594 96.859375 154.820312 96.003906 155.375 95.175781 C 155.929688 94.34375 156.527344 93.542969 157.160156 92.773438 C 157.792969 92 158.464844 91.261719 159.171875 90.558594 C 159.878906 89.851562 160.617188 89.179688 161.390625 88.546875 C 162.164062 87.914062 162.964844 87.320312 163.796875 86.765625 C 164.628906 86.210938 165.484375 85.699219 166.367188 85.230469 C 167.25 84.757812 168.152344 84.332031 169.074219 83.949219 C 170 83.566406 170.9375 83.230469 171.894531 82.941406 C 172.851562 82.652344 173.820312 82.410156 174.800781 82.214844 C 175.78125 82.019531 176.769531 81.875 177.761719 81.777344 C 178.757812 81.679688 179.753906 81.628906 180.753906 81.628906 C 181.753906 81.628906 182.753906 81.679688 183.746094 81.777344 C 184.742188 81.875 185.730469 82.019531 186.710938 82.214844 C 187.691406 82.410156 188.660156 82.652344 189.617188 82.941406 C 190.574219 83.230469 191.511719 83.566406 192.4375 83.949219 C 193.359375 84.332031 194.261719 84.757812 195.144531 85.230469 C 196.027344 85.699219 196.882812 86.210938 197.714844 86.765625 C 198.542969 87.320312 199.347656 87.914062 200.121094 88.546875 C 200.890625 89.179688 201.632812 89.851562 202.339844 90.558594 C 203.046875 91.261719 203.714844 92 204.351562 92.773438 C 204.984375 93.542969 205.578125 94.34375 206.136719 95.175781 C 206.691406 96.003906 207.203125 96.859375 207.675781 97.742188 C 208.144531 98.621094 208.574219 99.523438 208.957031 100.445312 C 209.339844 101.367188 209.675781 102.304688 209.964844 103.261719 C 210.253906 104.214844 210.496094 105.183594 210.691406 106.160156 C 210.886719 107.140625 211.035156 108.128906 211.132812 109.121094 C 211.230469 110.113281 211.28125 111.109375 211.28125 112.109375 Z M 211.28125 112.109375 " fill-opacity="1" fill-rule="nonzero"/><path fill="#004aad" d="M 180.753906 143.996094 C 172.222656 143.996094 164.203125 140.679688 158.171875 134.65625 C 152.140625 128.632812 148.820312 120.625 148.820312 112.109375 C 148.820312 103.589844 152.140625 95.582031 158.171875 89.558594 C 164.203125 83.535156 172.226562 80.21875 180.753906 80.21875 C 189.285156 80.21875 197.304688 83.535156 203.339844 89.558594 C 209.371094 95.582031 212.691406 103.589844 212.691406 112.109375 C 212.691406 120.625 209.371094 128.632812 203.339844 134.65625 C 197.304688 140.679688 189.285156 143.996094 180.753906 143.996094 Z M 180.753906 83.042969 C 164.703125 83.042969 151.644531 96.082031 151.644531 112.109375 C 151.644531 128.136719 164.703125 141.175781 180.753906 141.175781 C 196.808594 141.175781 209.867188 128.136719 209.867188 112.109375 C 209.867188 96.082031 196.808594 83.042969 180.753906 83.042969 Z M 180.753906 83.042969 " fill-opacity="1" fill-rule="nonzero"/><path fill="#ffffff" d="M 180.800781 126.785156 C 178.984375 126.785156 177.246094 126.066406 175.960938 124.785156 L 164.144531 112.984375 C 161.472656 110.316406 161.472656 105.988281 164.144531 103.320312 C 166.820312 100.652344 171.152344 100.652344 173.824219 103.320312 L 180.800781 110.285156 L 199.59375 91.523438 C 202.269531 88.851562 206.601562 88.851562 209.273438 91.523438 C 211.949219 94.191406 211.949219 98.515625 209.273438 101.1875 L 185.640625 124.785156 C 184.359375 126.066406 182.617188 126.785156 180.800781 126.785156 Z M 180.800781 126.785156 " fill-opacity="1" fill-rule="nonzero"/><path fill="#004aad" d="M 180.800781 128.195312 C 178.59375 128.195312 176.519531 127.339844 174.960938 125.78125 L 163.144531 113.984375 C 161.585938 112.425781 160.726562 110.355469 160.726562 108.152344 C 160.726562 105.949219 161.585938 103.878906 163.144531 102.324219 C 166.367188 99.109375 171.605469 99.109375 174.824219 102.324219 L 180.800781 108.292969 L 198.597656 90.523438 C 201.816406 87.308594 207.054688 87.308594 210.273438 90.523438 C 211.832031 92.082031 212.691406 94.152344 212.691406 96.355469 C 212.691406 98.554688 211.832031 100.625 210.273438 102.183594 L 186.640625 125.78125 C 185.082031 127.339844 183.007812 128.195312 180.800781 128.195312 Z M 168.984375 102.734375 C 167.59375 102.734375 166.203125 103.261719 165.144531 104.320312 C 164.117188 105.34375 163.554688 106.703125 163.554688 108.152344 C 163.554688 109.601562 164.117188 110.964844 165.144531 111.988281 L 176.960938 123.785156 C 177.984375 124.8125 179.351562 125.375 180.800781 125.375 C 182.253906 125.375 183.617188 124.8125 184.640625 123.785156 L 208.277344 100.1875 C 209.300781 99.164062 209.867188 97.800781 209.867188 96.355469 C 209.867188 94.90625 209.300781 93.542969 208.277344 92.519531 C 206.15625 90.40625 202.710938 90.40625 200.59375 92.519531 L 181.800781 111.285156 C 181.535156 111.550781 181.175781 111.699219 180.800781 111.699219 C 180.425781 111.699219 180.066406 111.550781 179.800781 111.285156 L 172.824219 104.320312 C 171.765625 103.261719 170.375 102.734375 168.984375 102.734375 Z M 168.984375 102.734375 " fill-opacity="1" fill-rule="nonzero"/><path fill="#38b6ff" d="M 115.234375 148.746094 L 129.738281 148.746094 L 129.738281 163.722656 L 115.234375 163.722656 Z M 115.234375 148.746094 " fill-opacity="1" fill-rule="nonzero"/><path fill="#004aad" d="M 129.738281 165.132812 C 128.957031 165.132812 128.324219 164.503906 128.324219 163.722656 L 128.324219 150.160156 L 116.648438 150.160156 L 116.648438 163.722656 C 116.648438 164.503906 116.015625 165.132812 115.234375 165.132812 C 114.457031 165.132812 113.824219 164.503906 113.824219 163.722656 L 113.824219 148.746094 C 113.824219 147.96875 114.457031 147.335938 115.234375 147.335938 L 129.738281 147.335938 C 130.519531 147.335938 131.152344 147.96875 131.152344 148.746094 L 131.152344 163.722656 C 131.152344 164.503906 130.519531 165.132812 129.738281 165.132812 Z M 129.738281 165.132812 " fill-opacity="1" fill-rule="nonzero"/><path fill="#ffffff" d="M 75.355469 240.929688 C 84.238281 257.867188 102.011719 269.421875 122.488281 269.421875 C 151.855469 269.421875 175.664062 245.648438 175.664062 216.324219 C 175.664062 187 151.855469 163.226562 122.488281 163.226562 C 101.824219 163.226562 83.910156 174.996094 75.109375 192.191406 Z M 75.355469 240.929688 " fill-opacity="1" fill-rule="nonzero"/><path fill="#004aad" d="M 122.488281 270.832031 C 112.335938 270.832031 102.425781 268.03125 93.832031 262.726562 C 85.476562 257.574219 78.65625 250.261719 74.101562 241.585938 C 73.738281 240.894531 74.007812 240.042969 74.699219 239.679688 C 75.390625 239.320312 76.242188 239.585938 76.605469 240.277344 C 85.582031 257.382812 103.164062 268.011719 122.488281 268.011719 C 151.03125 268.011719 174.25 244.824219 174.25 216.324219 C 174.25 187.824219 151.03125 164.640625 122.488281 164.640625 C 102.941406 164.640625 85.269531 175.441406 76.367188 192.832031 C 76.011719 193.527344 75.160156 193.800781 74.464844 193.445312 C 73.769531 193.09375 73.496094 192.242188 73.851562 191.546875 C 78.359375 182.742188 85.1875 175.3125 93.601562 170.066406 C 102.25 164.667969 112.238281 161.816406 122.488281 161.816406 C 129.855469 161.816406 137.007812 163.257812 143.738281 166.101562 C 150.238281 168.847656 156.074219 172.777344 161.089844 177.78125 C 166.101562 182.789062 170.039062 188.617188 172.789062 195.109375 C 175.632812 201.828125 177.078125 208.96875 177.078125 216.324219 C 177.078125 223.683594 175.632812 230.820312 172.789062 237.542969 C 170.039062 244.035156 166.101562 249.863281 161.089844 254.867188 C 156.074219 259.875 150.238281 263.804688 143.738281 266.546875 C 137.003906 269.390625 129.855469 270.832031 122.488281 270.832031 Z M 122.488281 270.832031 " fill-opacity="1" fill-rule="nonzero"/><path fill="#004aad" d="M 122.488281 175.355469 C 121.707031 175.355469 121.074219 174.722656 121.074219 173.945312 L 121.074219 163.226562 C 121.074219 162.449219 121.707031 161.816406 122.488281 161.816406 C 123.269531 161.816406 123.902344 162.449219 123.902344 163.226562 L 123.902344 173.945312 C 123.902344 174.722656 123.269531 175.355469 122.488281 175.355469 Z M 122.488281 175.355469 " fill-opacity="1" fill-rule="nonzero"/><path fill="#004aad" d="M 135.78125 150.160156 L 109.195312 150.160156 C 108.414062 150.160156 107.78125 149.527344 107.78125 148.746094 C 107.78125 147.96875 108.414062 147.335938 109.195312 147.335938 L 135.78125 147.335938 C 136.5625 147.335938 137.195312 147.96875 137.195312 148.746094 C 137.195312 149.527344 136.5625 150.160156 135.78125 150.160156 Z M 135.78125 150.160156 " fill-opacity="1" fill-rule="nonzero"/><path fill="#ffee8e" d="M 129.738281 217.53125 C 129.738281 218.007812 129.691406 218.476562 129.601562 218.945312 C 129.507812 219.410156 129.371094 219.863281 129.1875 220.300781 C 129.003906 220.742188 128.78125 221.160156 128.515625 221.554688 C 128.253906 221.949219 127.953125 222.316406 127.613281 222.652344 C 127.277344 222.988281 126.914062 223.289062 126.515625 223.550781 C 126.121094 223.816406 125.703125 224.039062 125.261719 224.21875 C 124.824219 224.402344 124.371094 224.539062 123.902344 224.632812 C 123.433594 224.726562 122.964844 224.773438 122.488281 224.773438 C 122.011719 224.773438 121.539062 224.726562 121.074219 224.632812 C 120.605469 224.539062 120.152344 224.402344 119.710938 224.21875 C 119.273438 224.039062 118.855469 223.816406 118.460938 223.550781 C 118.0625 223.289062 117.695312 222.988281 117.359375 222.652344 C 117.023438 222.316406 116.722656 221.949219 116.457031 221.554688 C 116.195312 221.160156 115.96875 220.742188 115.789062 220.300781 C 115.605469 219.863281 115.46875 219.410156 115.375 218.945312 C 115.28125 218.476562 115.238281 218.007812 115.238281 217.53125 C 115.238281 217.054688 115.28125 216.585938 115.375 216.117188 C 115.46875 215.652344 115.605469 215.199219 115.789062 214.761719 C 115.96875 214.320312 116.195312 213.902344 116.457031 213.507812 C 116.722656 213.113281 117.023438 212.746094 117.359375 212.410156 C 117.695312 212.074219 118.0625 211.773438 118.460938 211.511719 C 118.855469 211.246094 119.273438 211.023438 119.710938 210.84375 C 120.152344 210.660156 120.605469 210.523438 121.074219 210.429688 C 121.539062 210.335938 122.011719 210.292969 122.488281 210.292969 C 122.964844 210.292969 123.433594 210.335938 123.902344 210.429688 C 124.371094 210.523438 124.824219 210.660156 125.261719 210.84375 C 125.703125 211.023438 126.121094 211.246094 126.515625 211.511719 C 126.914062 211.773438 127.277344 212.074219 127.613281 212.410156 C 127.953125 212.746094 128.253906 213.113281 128.515625 213.507812 C 128.78125 213.902344 129.003906 214.320312 129.1875 214.761719 C 129.371094 215.199219 129.507812 215.652344 129.601562 216.117188 C 129.691406 216.585938 129.738281 217.054688 129.738281 217.53125 Z M 129.738281 217.53125 " fill-opacity="1" fill-rule="nonzero"/><path fill="#004aad" d="M 122.488281 226.183594 C 117.710938 226.183594 113.824219 222.300781 113.824219 217.53125 C 113.824219 212.761719 117.710938 208.878906 122.488281 208.878906 C 127.265625 208.878906 131.152344 212.761719 131.152344 217.53125 C 131.152344 222.300781 127.265625 226.183594 122.488281 226.183594 Z M 122.488281 211.703125 C 119.269531 211.703125 116.648438 214.316406 116.648438 217.53125 C 116.648438 220.746094 119.269531 223.359375 122.488281 223.359375 C 125.707031 223.359375 128.324219 220.746094 128.324219 217.53125 C 128.324219 214.316406 125.707031 211.703125 122.488281 211.703125 Z M 122.488281 211.703125 " fill-opacity="1" fill-rule="nonzero"/><path fill="#004aad" d="M 149.074219 189.980469 C 148.714844 189.980469 148.351562 189.84375 148.078125 189.566406 C 147.523438 189.015625 147.523438 188.125 148.078125 187.570312 L 158.46875 177.195312 C 159.023438 176.644531 159.917969 176.644531 160.46875 177.195312 C 161.019531 177.746094 161.019531 178.636719 160.46875 179.191406 L 150.074219 189.566406 C 149.800781 189.84375 149.4375 189.980469 149.074219 189.980469 Z M 149.074219 189.980469 " fill-opacity="1" fill-rule="nonzero"/><path fill="#004aad" d="M 149.074219 189.980469 C 148.714844 189.980469 148.351562 189.84375 148.078125 189.566406 C 147.523438 189.015625 147.523438 188.125 148.078125 187.570312 L 158.46875 177.195312 C 159.023438 176.644531 159.917969 176.644531 160.46875 177.195312 C 161.019531 177.746094 161.019531 178.636719 160.46875 179.191406 L 150.074219 189.566406 C 149.800781 189.84375 149.4375 189.980469 149.074219 189.980469 Z M 149.074219 189.980469 " fill-opacity="1" fill-rule="nonzero"/><path fill="#004aad" d="M 95.898438 189.980469 C 95.539062 189.980469 95.175781 189.84375 94.898438 189.566406 L 84.496094 179.175781 C 83.941406 178.625 83.941406 177.734375 84.496094 177.183594 C 85.046875 176.632812 85.941406 176.632812 86.492188 177.183594 L 96.898438 187.570312 C 97.449219 188.125 97.449219 189.015625 96.898438 189.566406 C 96.621094 189.84375 96.261719 189.980469 95.898438 189.980469 Z M 95.898438 189.980469 " fill-opacity="1" fill-rule="nonzero"/><path fill="#004aad" d="M 175.664062 217.734375 L 161.160156 217.734375 C 160.382812 217.734375 159.75 217.105469 159.75 216.324219 C 159.75 215.546875 160.382812 214.914062 161.160156 214.914062 L 175.664062 214.914062 C 176.445312 214.914062 177.078125 215.546875 177.078125 216.324219 C 177.078125 217.105469 176.445312 217.734375 175.664062 217.734375 Z M 175.664062 217.734375 " fill-opacity="1" fill-rule="nonzero"/><path fill="#004aad" d="M 122.488281 270.832031 C 121.707031 270.832031 121.078125 270.203125 121.074219 269.425781 L 121.050781 259.769531 C 121.046875 258.992188 121.679688 258.359375 122.460938 258.355469 C 122.460938 258.355469 122.460938 258.355469 122.464844 258.355469 C 123.242188 258.355469 123.875 258.984375 123.875 259.765625 L 123.902344 269.417969 C 123.902344 270.195312 123.273438 270.832031 122.492188 270.832031 C 122.488281 270.832031 122.488281 270.832031 122.488281 270.832031 Z M 122.488281 270.832031 " fill-opacity="1" fill-rule="nonzero"/><path fill="#004aad" d="M 124.347656 211.945312 C 124.210938 211.945312 124.070312 211.925781 123.929688 211.882812 C 123.1875 211.652344 122.765625 210.863281 122.996094 210.117188 L 132.949219 177.894531 C 133.179688 177.148438 133.96875 176.730469 134.714844 176.960938 C 135.460938 177.191406 135.878906 177.980469 135.652344 178.726562 L 125.699219 210.949219 C 125.511719 211.554688 124.953125 211.945312 124.347656 211.945312 Z M 124.347656 211.945312 " fill-opacity="1" fill-rule="nonzero"/><path fill="#004aad" d="M 95.898438 217.734375 L 62.058594 217.734375 C 61.277344 217.734375 60.644531 217.105469 60.644531 216.324219 C 60.644531 215.546875 61.277344 214.914062 62.058594 214.914062 L 95.898438 214.914062 C 96.679688 214.914062 97.3125 215.546875 97.3125 216.324219 C 97.3125 217.105469 96.679688 217.734375 95.898438 217.734375 Z M 95.898438 217.734375 " fill-opacity="1" fill-rule="nonzero"/><path fill="#004aad" d="M 95.898438 203.253906 L 56.015625 203.253906 C 55.234375 203.253906 54.605469 202.625 54.605469 201.84375 C 54.605469 201.066406 55.234375 200.433594 56.015625 200.433594 L 95.898438 200.433594 C 96.679688 200.433594 97.3125 201.066406 97.3125 201.84375 C 97.3125 202.625 96.679688 203.253906 95.898438 203.253906 Z M 95.898438 203.253906 " fill-opacity="1" fill-rule="nonzero"/><path fill="#004aad" d="M 95.898438 232.214844 L 69.3125 232.214844 C 68.53125 232.214844 67.898438 231.585938 67.898438 230.804688 C 67.898438 230.027344 68.53125 229.394531 69.3125 229.394531 L 95.898438 229.394531 C 96.679688 229.394531 97.3125 230.027344 97.3125 230.804688 C 97.3125 231.585938 96.679688 232.214844 95.898438 232.214844 Z M 95.898438 232.214844 " fill-opacity="1" fill-rule="nonzero"/><path fill="#ffee8e" d="M 190.292969 184.230469 C 189.722656 183.101562 189.046875 182.058594 188.304688 181.089844 L 190.984375 175.128906 C 189.679688 173.796875 188.222656 172.570312 186.59375 171.507812 C 184.964844 170.441406 183.257812 169.601562 181.507812 168.941406 L 177.113281 173.78125 C 174.71875 173.195312 172.21875 173.050781 169.722656 173.375 L 165.890625 168.074219 C 164.078125 168.535156 162.289062 169.183594 160.550781 170.058594 C 158.816406 170.933594 157.230469 171.992188 155.785156 173.171875 L 157.789062 179.398438 C 156.046875 181.210938 154.679688 183.308594 153.734375 185.582031 L 147.222656 186.246094 C 146.71875 188.042969 146.382812 189.914062 146.277344 191.855469 C 146.167969 193.792969 146.292969 195.691406 146.59375 197.53125 L 152.988281 198.914062 C 153.332031 200.085938 153.769531 201.246094 154.339844 202.375 C 154.914062 203.503906 155.585938 204.542969 156.328125 205.515625 L 153.652344 211.472656 C 154.957031 212.808594 156.414062 214.03125 158.042969 215.097656 C 159.667969 216.160156 161.378906 217 163.125 217.660156 L 167.523438 212.820312 C 169.914062 213.40625 172.417969 213.550781 174.910156 213.226562 L 178.746094 218.527344 C 180.554688 218.066406 182.347656 217.421875 184.082031 216.542969 C 185.820312 215.667969 187.402344 214.613281 188.847656 213.429688 L 186.847656 207.203125 C 188.585938 205.390625 189.953125 203.292969 190.902344 201.023438 L 197.410156 200.355469 C 197.917969 198.5625 198.25 196.6875 198.359375 194.75 C 198.46875 192.808594 198.34375 190.910156 198.042969 189.070312 L 191.648438 187.6875 C 191.304688 186.519531 190.863281 185.359375 190.292969 184.230469 Z M 190.292969 184.230469 " fill-opacity="1" fill-rule="nonzero"/><path fill="#004aad" d="M 178.746094 219.941406 C 178.296875 219.941406 177.867188 219.726562 177.597656 219.355469 L 174.246094 214.71875 C 172.152344 214.910156 170.0625 214.796875 168.015625 214.378906 L 164.171875 218.609375 C 163.78125 219.039062 163.167969 219.1875 162.625 218.980469 C 160.710938 218.257812 158.910156 217.347656 157.265625 216.277344 C 155.625 215.207031 154.070312 213.921875 152.640625 212.460938 C 152.234375 212.042969 152.125 211.425781 152.359375 210.894531 L 154.703125 205.6875 C 154.082031 204.808594 153.535156 203.914062 153.078125 203.011719 C 152.621094 202.105469 152.222656 201.136719 151.882812 200.121094 L 146.292969 198.910156 C 145.726562 198.789062 145.292969 198.332031 145.199219 197.761719 C 144.867188 195.746094 144.753906 193.730469 144.863281 191.777344 C 144.972656 189.820312 145.308594 187.832031 145.863281 185.863281 C 146.019531 185.304688 146.5 184.902344 147.078125 184.84375 L 152.769531 184.261719 C 153.648438 182.367188 154.796875 180.617188 156.191406 179.046875 L 154.441406 173.605469 C 154.261719 173.050781 154.441406 172.449219 154.890625 172.082031 C 156.472656 170.785156 158.164062 169.683594 159.914062 168.800781 C 161.664062 167.917969 163.558594 167.210938 165.539062 166.707031 C 166.101562 166.5625 166.695312 166.777344 167.035156 167.246094 L 170.386719 171.882812 C 172.480469 171.691406 174.570312 171.808594 176.617188 172.226562 L 180.460938 167.996094 C 180.851562 167.566406 181.464844 167.417969 182.007812 167.621094 C 183.921875 168.34375 185.726562 169.253906 187.367188 170.324219 C 189.007812 171.398438 190.566406 172.683594 191.996094 174.144531 C 192.402344 174.558594 192.511719 175.179688 192.273438 175.707031 L 189.933594 180.917969 C 190.554688 181.792969 191.097656 182.691406 191.554688 183.59375 C 192.011719 184.496094 192.414062 185.464844 192.75 186.484375 L 198.339844 187.691406 C 198.90625 187.8125 199.339844 188.269531 199.433594 188.84375 C 199.765625 190.859375 199.878906 192.871094 199.769531 194.828125 C 199.660156 196.78125 199.324219 198.773438 198.773438 200.738281 C 198.613281 201.296875 198.132812 201.703125 197.554688 201.761719 L 191.863281 202.34375 C 190.984375 204.238281 189.839844 205.984375 188.445312 207.554688 L 190.195312 213 C 190.371094 213.550781 190.191406 214.15625 189.742188 214.523438 C 188.160156 215.816406 186.46875 216.921875 184.71875 217.804688 C 182.96875 218.6875 181.078125 219.390625 179.09375 219.894531 C 178.976562 219.925781 178.859375 219.941406 178.746094 219.941406 Z M 174.910156 211.816406 C 175.359375 211.816406 175.789062 212.03125 176.054688 212.402344 L 179.316406 216.910156 C 180.765625 216.484375 182.152344 215.9375 183.445312 215.285156 C 184.738281 214.632812 186 213.839844 187.203125 212.929688 L 185.503906 207.636719 C 185.34375 207.140625 185.46875 206.601562 185.828125 206.226562 C 187.441406 204.546875 188.707031 202.613281 189.59375 200.480469 C 189.792969 200 190.242188 199.671875 190.757812 199.617188 L 196.292969 199.054688 C 196.648438 197.585938 196.867188 196.117188 196.949219 194.671875 C 197.027344 193.226562 196.972656 191.738281 196.785156 190.242188 L 191.347656 189.070312 C 190.84375 188.960938 190.4375 188.582031 190.289062 188.085938 C 189.949219 186.917969 189.539062 185.863281 189.03125 184.867188 C 188.527344 183.867188 187.921875 182.914062 187.183594 181.945312 C 186.867188 181.535156 186.804688 180.984375 187.015625 180.511719 L 189.292969 175.445312 C 188.199219 174.40625 187.035156 173.480469 185.820312 172.6875 C 184.605469 171.894531 183.289062 171.199219 181.898438 170.617188 L 178.160156 174.730469 C 177.808594 175.113281 177.277344 175.277344 176.773438 175.152344 C 174.527344 174.601562 172.21875 174.476562 169.90625 174.773438 C 169.390625 174.839844 168.882812 174.621094 168.578125 174.203125 L 165.320312 169.695312 C 163.867188 170.121094 162.484375 170.664062 161.191406 171.320312 C 159.894531 171.972656 158.632812 172.761719 157.429688 173.675781 L 159.132812 178.96875 C 159.292969 179.460938 159.167969 180 158.808594 180.375 C 157.195312 182.054688 155.925781 183.992188 155.039062 186.121094 C 154.839844 186.601562 154.394531 186.933594 153.878906 186.984375 L 148.34375 187.550781 C 147.988281 189.015625 147.765625 190.484375 147.6875 191.933594 C 147.605469 193.378906 147.660156 194.863281 147.851562 196.359375 L 153.285156 197.535156 C 153.792969 197.644531 154.199219 198.023438 154.34375 198.519531 C 154.683594 199.683594 155.097656 200.738281 155.601562 201.738281 C 156.109375 202.734375 156.710938 203.691406 157.453125 204.65625 C 157.765625 205.070312 157.828125 205.621094 157.617188 206.089844 L 155.339844 211.15625 C 156.433594 212.199219 157.601562 213.121094 158.8125 213.914062 C 160.027344 214.707031 161.34375 215.402344 162.738281 215.988281 L 166.476562 211.871094 C 166.824219 211.488281 167.355469 211.328125 167.859375 211.449219 C 170.105469 212 172.417969 212.128906 174.730469 211.828125 C 174.789062 211.820312 174.851562 211.816406 174.910156 211.816406 Z M 174.910156 211.816406 " fill-opacity="1" fill-rule="nonzero"/><path fill="#ffffff" d="M 183.070312 192.578125 C 183.070312 193.332031 182.996094 194.074219 182.851562 194.808594 C 182.703125 195.546875 182.484375 196.261719 182.199219 196.953125 C 181.910156 197.648438 181.558594 198.304688 181.140625 198.929688 C 180.722656 199.554688 180.25 200.132812 179.714844 200.664062 C 179.183594 201.195312 178.605469 201.667969 177.980469 202.085938 C 177.355469 202.5 176.695312 202.855469 176.003906 203.140625 C 175.308594 203.429688 174.59375 203.644531 173.855469 203.792969 C 173.117188 203.9375 172.375 204.011719 171.621094 204.011719 C 170.871094 204.011719 170.125 203.9375 169.386719 203.792969 C 168.652344 203.644531 167.933594 203.429688 167.242188 203.140625 C 166.546875 202.855469 165.886719 202.5 165.261719 202.085938 C 164.636719 201.667969 164.058594 201.195312 163.527344 200.664062 C 162.996094 200.132812 162.519531 199.554688 162.101562 198.929688 C 161.683594 198.304688 161.332031 197.648438 161.042969 196.953125 C 160.757812 196.261719 160.539062 195.546875 160.394531 194.808594 C 160.246094 194.074219 160.171875 193.332031 160.171875 192.578125 C 160.171875 191.828125 160.246094 191.085938 160.394531 190.351562 C 160.539062 189.613281 160.757812 188.898438 161.042969 188.207031 C 161.332031 187.511719 161.683594 186.851562 162.101562 186.230469 C 162.519531 185.605469 162.996094 185.027344 163.527344 184.496094 C 164.058594 183.964844 164.636719 183.492188 165.261719 183.074219 C 165.886719 182.660156 166.546875 182.304688 167.242188 182.019531 C 167.933594 181.730469 168.652344 181.515625 169.386719 181.367188 C 170.125 181.222656 170.871094 181.148438 171.621094 181.148438 C 172.375 181.148438 173.117188 181.222656 173.855469 181.367188 C 174.59375 181.515625 175.308594 181.730469 176.003906 182.019531 C 176.695312 182.304688 177.355469 182.660156 177.980469 183.074219 C 178.605469 183.492188 179.183594 183.964844 179.714844 184.496094 C 180.25 185.027344 180.722656 185.605469 181.140625 186.230469 C 181.558594 186.851562 181.910156 187.511719 182.199219 188.207031 C 182.484375 188.898438 182.703125 189.613281 182.851562 190.351562 C 182.996094 191.085938 183.070312 191.828125 183.070312 192.578125 Z M 183.070312 192.578125 " fill-opacity="1" fill-rule="nonzero"/><path fill="#004aad" d="M 171.640625 205.433594 C 170.289062 205.433594 168.933594 205.21875 167.613281 204.789062 C 164.351562 203.714844 161.699219 201.441406 160.148438 198.378906 C 156.949219 192.058594 159.496094 184.320312 165.828125 181.125 C 172.15625 177.929688 179.90625 180.472656 183.105469 186.792969 C 186.304688 193.113281 183.757812 200.855469 177.429688 204.046875 C 175.605469 204.96875 173.628906 205.433594 171.640625 205.433594 Z M 171.613281 182.566406 C 170.089844 182.566406 168.550781 182.914062 167.101562 183.644531 C 162.164062 186.136719 160.175781 192.175781 162.671875 197.105469 C 163.882812 199.496094 165.949219 201.269531 168.496094 202.105469 C 171.042969 202.941406 173.761719 202.738281 176.15625 201.527344 C 181.09375 199.035156 183.082031 192.996094 180.585938 188.066406 C 178.820312 184.582031 175.28125 182.566406 171.613281 182.566406 Z M 171.613281 182.566406 " fill-opacity="1" fill-rule="nonzero"/><path fill="#38b6ff" d="M 194.90625 244.785156 C 195.027344 243.121094 194.972656 241.488281 194.789062 239.886719 L 201.867188 234.957031 C 201.296875 232.566406 200.480469 230.195312 199.359375 227.886719 C 198.238281 225.582031 196.878906 223.476562 195.347656 221.546875 L 187.085938 224.046875 C 184.78125 221.761719 182.046875 219.90625 179.007812 218.582031 L 178.269531 209.992188 C 175.90625 209.289062 173.441406 208.808594 170.882812 208.625 C 168.324219 208.441406 165.816406 208.5625 163.375 208.921875 L 161.414062 217.320312 C 158.214844 218.191406 155.246094 219.640625 152.632812 221.570312 L 144.816406 217.914062 C 143.023438 219.605469 141.375 221.496094 139.9375 223.617188 C 138.496094 225.738281 137.347656 227.96875 136.441406 230.257812 L 142.734375 236.148438 C 142.328125 237.703125 142.039062 239.3125 141.917969 240.976562 C 141.800781 242.640625 141.855469 244.273438 142.035156 245.875 L 134.960938 250.804688 C 135.53125 253.199219 136.347656 255.566406 137.46875 257.875 C 138.585938 260.179688 139.949219 262.285156 141.476562 264.214844 L 149.738281 261.714844 C 152.046875 264 154.777344 265.855469 157.820312 267.179688 L 158.558594 275.769531 C 160.917969 276.472656 163.382812 276.953125 165.945312 277.136719 C 168.503906 277.320312 171.011719 277.199219 173.449219 276.839844 L 175.414062 268.441406 C 178.609375 267.570312 181.582031 266.121094 184.195312 264.191406 L 192.011719 267.847656 C 193.800781 266.15625 195.449219 264.265625 196.890625 262.144531 C 198.328125 260.023438 199.476562 257.792969 200.386719 255.503906 L 194.089844 249.617188 C 194.496094 248.058594 194.789062 246.449219 194.90625 244.785156 Z M 194.90625 244.785156 " fill-opacity="1" fill-rule="nonzero"/><path fill="#004aad" d="M 168.304688 278.632812 C 167.476562 278.632812 166.65625 278.601562 165.84375 278.542969 C 163.296875 278.363281 160.710938 277.882812 158.152344 277.121094 C 157.597656 276.957031 157.199219 276.46875 157.148438 275.890625 L 156.480469 268.121094 C 153.855469 266.886719 151.464844 265.269531 149.355469 263.304688 L 141.886719 265.566406 C 141.332031 265.734375 140.730469 265.546875 140.371094 265.09375 C 138.714844 263.003906 137.308594 260.785156 136.195312 258.488281 C 135.082031 256.195312 134.203125 253.71875 133.585938 251.128906 C 133.449219 250.566406 133.675781 249.976562 134.152344 249.644531 L 140.546875 245.191406 C 140.421875 243.710938 140.410156 242.265625 140.507812 240.875 C 140.609375 239.488281 140.828125 238.054688 141.164062 236.613281 L 135.472656 231.285156 C 135.050781 230.890625 134.914062 230.277344 135.128906 229.738281 C 136.109375 227.261719 137.332031 224.9375 138.765625 222.828125 C 140.199219 220.714844 141.90625 218.71875 143.84375 216.890625 C 144.265625 216.492188 144.890625 216.390625 145.414062 216.636719 L 152.480469 219.941406 C 154.851562 218.300781 157.449219 217.042969 160.226562 216.195312 L 162 208.601562 C 162.132812 208.039062 162.597656 207.609375 163.171875 207.527344 C 165.808594 207.136719 168.4375 207.035156 170.984375 207.21875 C 173.53125 207.402344 176.117188 207.878906 178.671875 208.640625 C 179.226562 208.804688 179.625 209.292969 179.675781 209.871094 L 180.34375 217.640625 C 182.96875 218.875 185.359375 220.492188 187.46875 222.457031 L 194.9375 220.195312 C 195.496094 220.027344 196.097656 220.214844 196.457031 220.671875 C 198.113281 222.757812 199.515625 224.980469 200.628906 227.273438 C 201.746094 229.566406 202.625 232.042969 203.242188 234.632812 C 203.375 235.195312 203.152344 235.785156 202.675781 236.117188 L 196.277344 240.574219 C 196.402344 242.050781 196.417969 243.5 196.316406 244.886719 C 196.214844 246.273438 195.996094 247.707031 195.660156 249.152344 L 201.351562 254.476562 C 201.773438 254.871094 201.914062 255.488281 201.699219 256.027344 C 200.714844 258.5 199.492188 260.824219 198.058594 262.9375 C 196.628906 265.046875 194.917969 267.042969 192.980469 268.875 C 192.558594 269.269531 191.9375 269.371094 191.410156 269.125 L 184.34375 265.820312 C 181.972656 267.464844 179.375 268.71875 176.601562 269.566406 L 174.824219 277.160156 C 174.695312 277.726562 174.230469 278.152344 173.65625 278.234375 C 171.859375 278.5 170.070312 278.632812 168.304688 278.632812 Z M 159.882812 274.679688 C 161.9375 275.230469 164.007812 275.582031 166.046875 275.730469 C 168.082031 275.875 170.179688 275.824219 172.296875 275.570312 L 174.035156 268.121094 C 174.152344 267.617188 174.539062 267.21875 175.039062 267.082031 C 178.058594 266.257812 180.855469 264.902344 183.351562 263.058594 C 183.769531 262.75 184.324219 262.695312 184.792969 262.914062 L 191.726562 266.15625 C 193.234375 264.65625 194.574219 263.042969 195.71875 261.351562 C 196.867188 259.664062 197.867188 257.824219 198.707031 255.867188 L 193.125 250.644531 C 192.746094 250.292969 192.589844 249.757812 192.722656 249.257812 C 193.136719 247.679688 193.390625 246.183594 193.496094 244.683594 C 193.605469 243.183594 193.570312 241.667969 193.386719 240.046875 C 193.328125 239.53125 193.558594 239.027344 193.980469 238.730469 L 200.257812 234.359375 C 199.707031 232.304688 198.980469 230.339844 198.089844 228.503906 C 197.195312 226.667969 196.101562 224.882812 194.824219 223.179688 L 187.496094 225.398438 C 187 225.546875 186.460938 225.414062 186.09375 225.050781 C 183.886719 222.867188 181.3125 221.125 178.441406 219.878906 C 177.96875 219.671875 177.644531 219.222656 177.597656 218.703125 L 176.945312 211.085938 C 174.886719 210.53125 172.816406 210.179688 170.78125 210.03125 C 168.742188 209.886719 166.644531 209.941406 164.53125 210.191406 L 162.789062 217.640625 C 162.671875 218.144531 162.285156 218.542969 161.785156 218.679688 C 158.765625 219.503906 155.96875 220.859375 153.472656 222.703125 C 153.054688 223.011719 152.503906 223.066406 152.03125 222.847656 L 145.101562 219.605469 C 143.59375 221.109375 142.253906 222.722656 141.105469 224.410156 C 139.960938 226.097656 138.957031 227.9375 138.121094 229.894531 L 143.703125 235.117188 C 144.082031 235.472656 144.234375 236.003906 144.101562 236.503906 C 143.691406 238.082031 143.4375 239.578125 143.328125 241.078125 C 143.21875 242.578125 143.257812 244.097656 143.4375 245.714844 C 143.496094 246.230469 143.269531 246.734375 142.84375 247.03125 L 136.570312 251.402344 C 137.117188 253.457031 137.847656 255.421875 138.738281 257.257812 C 139.628906 259.09375 140.726562 260.878906 142 262.582031 L 149.328125 260.367188 C 149.824219 260.214844 150.363281 260.347656 150.734375 260.714844 C 152.9375 262.898438 155.511719 264.636719 158.382812 265.882812 C 158.859375 266.089844 159.183594 266.542969 159.226562 267.058594 Z M 159.882812 274.679688 " fill-opacity="1" fill-rule="nonzero"/><path fill="#ffffff" d="M 178.160156 233.136719 C 178.800781 233.777344 179.375 234.472656 179.878906 235.226562 C 180.378906 235.976562 180.804688 236.773438 181.152344 237.609375 C 181.5 238.441406 181.761719 239.304688 181.9375 240.191406 C 182.113281 241.078125 182.203125 241.976562 182.203125 242.878906 C 182.203125 243.785156 182.113281 244.679688 181.9375 245.566406 C 181.761719 246.453125 181.5 247.316406 181.152344 248.152344 C 180.804688 248.988281 180.378906 249.78125 179.878906 250.535156 C 179.375 251.285156 178.800781 251.980469 178.160156 252.621094 C 177.519531 253.261719 176.824219 253.832031 176.070312 254.335938 C 175.316406 254.835938 174.523438 255.261719 173.683594 255.609375 C 172.847656 255.953125 171.984375 256.214844 171.097656 256.390625 C 170.207031 256.566406 169.3125 256.65625 168.40625 256.65625 C 167.5 256.65625 166.601562 256.566406 165.714844 256.390625 C 164.824219 256.214844 163.960938 255.953125 163.125 255.609375 C 162.289062 255.261719 161.492188 254.835938 160.738281 254.335938 C 159.988281 253.832031 159.289062 253.261719 158.648438 252.621094 C 158.007812 251.980469 157.4375 251.285156 156.933594 250.535156 C 156.429688 249.78125 156.003906 248.988281 155.660156 248.152344 C 155.3125 247.316406 155.050781 246.453125 154.875 245.566406 C 154.695312 244.679688 154.609375 243.785156 154.609375 242.878906 C 154.609375 241.976562 154.695312 241.078125 154.875 240.191406 C 155.050781 239.304688 155.3125 238.445312 155.660156 237.609375 C 156.003906 236.773438 156.429688 235.976562 156.933594 235.226562 C 157.4375 234.472656 158.007812 233.777344 158.648438 233.136719 C 159.289062 232.5 159.988281 231.929688 160.738281 231.425781 C 161.492188 230.921875 162.289062 230.5 163.125 230.152344 C 163.960938 229.804688 164.824219 229.542969 165.714844 229.367188 C 166.601562 229.191406 167.5 229.101562 168.40625 229.101562 C 169.3125 229.101562 170.207031 229.191406 171.097656 229.367188 C 171.984375 229.542969 172.847656 229.804688 173.683594 230.152344 C 174.523438 230.5 175.316406 230.921875 176.070312 231.425781 C 176.824219 231.925781 177.519531 232.5 178.160156 233.136719 Z M 178.160156 233.136719 " fill-opacity="1" fill-rule="nonzero"/><path fill="#004aad" d="M 168.4375 258.070312 C 168.066406 258.070312 167.695312 258.054688 167.320312 258.03125 C 163.269531 257.738281 159.570312 255.890625 156.914062 252.820312 C 154.253906 249.753906 152.949219 245.835938 153.242188 241.789062 C 153.84375 233.4375 161.140625 227.132812 169.503906 227.734375 C 173.558594 228.023438 177.253906 229.875 179.914062 232.941406 C 182.570312 236.007812 183.875 239.925781 183.585938 243.972656 C 183.292969 248.019531 181.441406 251.707031 178.367188 254.363281 C 175.578125 256.773438 172.089844 258.070312 168.4375 258.070312 Z M 168.394531 230.515625 C 165.421875 230.515625 162.578125 231.570312 160.308594 233.53125 C 157.804688 235.695312 156.296875 238.699219 156.0625 241.992188 C 155.824219 245.289062 156.886719 248.476562 159.050781 250.976562 C 161.214844 253.472656 164.222656 254.976562 167.523438 255.214844 C 170.824219 255.453125 174.015625 254.390625 176.519531 252.230469 C 179.019531 250.070312 180.527344 247.0625 180.765625 243.769531 C 181.003906 240.472656 179.941406 237.285156 177.777344 234.789062 C 175.609375 232.289062 172.601562 230.785156 169.300781 230.546875 C 169 230.527344 168.695312 230.515625 168.394531 230.515625 Z M 168.394531 230.515625 " fill-opacity="1" fill-rule="nonzero"/><path fill="#ffee8e" d="M 272.886719 195.992188 L 272.886719 221.175781 L 272.886719 214.78125 L 277.152344 214.78125 C 281.042969 214.78125 284.222656 217.957031 284.222656 221.84375 C 284.222656 222.972656 283.949219 224.042969 283.46875 224.992188 C 288.152344 225.371094 291.867188 229.308594 291.867188 234.078125 C 291.867188 239.097656 287.757812 243.203125 282.730469 243.203125 L 241.074219 243.203125 C 236.050781 243.203125 231.9375 239.097656 231.9375 234.078125 C 231.9375 229.308594 235.652344 225.371094 240.335938 224.992188 C 239.859375 224.042969 239.582031 222.972656 239.582031 221.84375 C 239.582031 217.957031 242.765625 214.78125 246.65625 214.78125 L 250.917969 214.78125 L 250.917969 221.175781 L 250.917969 195.992188 Z M 272.886719 195.992188 " fill-opacity="1" fill-rule="nonzero"/><path fill="#004aad" d="M 282.730469 244.617188 L 241.074219 244.617188 C 235.257812 244.617188 230.523438 239.890625 230.523438 234.078125 C 230.523438 229.253906 233.875 225.082031 238.421875 223.890625 C 238.253906 223.222656 238.167969 222.539062 238.167969 221.84375 C 238.167969 217.167969 241.976562 213.367188 246.65625 213.367188 L 249.503906 213.367188 L 249.503906 195.992188 C 249.503906 195.210938 250.136719 194.578125 250.917969 194.578125 C 251.699219 194.578125 252.332031 195.210938 252.332031 195.992188 L 252.332031 221.175781 C 252.332031 221.953125 251.699219 222.585938 250.917969 222.585938 C 250.136719 222.585938 249.503906 221.953125 249.503906 221.175781 L 249.503906 216.191406 L 246.65625 216.191406 C 243.535156 216.191406 240.996094 218.726562 240.996094 221.84375 C 240.996094 222.714844 241.199219 223.5625 241.601562 224.359375 C 241.8125 224.777344 241.800781 225.273438 241.570312 225.683594 C 241.339844 226.09375 240.921875 226.359375 240.453125 226.398438 C 236.46875 226.722656 233.351562 230.09375 233.351562 234.078125 C 233.351562 238.332031 236.816406 241.792969 241.078125 241.792969 L 282.730469 241.792969 C 286.992188 241.792969 290.457031 238.332031 290.457031 234.078125 C 290.457031 230.09375 287.335938 226.722656 283.355469 226.398438 C 282.886719 226.359375 282.46875 226.09375 282.238281 225.683594 C 282.007812 225.273438 281.996094 224.777344 282.207031 224.359375 C 282.609375 223.5625 282.8125 222.714844 282.8125 221.84375 C 282.8125 218.726562 280.273438 216.191406 277.152344 216.191406 L 274.300781 216.191406 L 274.300781 221.175781 C 274.300781 221.953125 273.667969 222.585938 272.886719 222.585938 C 272.105469 222.585938 271.472656 221.953125 271.472656 221.175781 L 271.472656 214.78125 C 271.472656 214.769531 271.472656 214.761719 271.472656 214.753906 L 271.472656 195.992188 C 271.472656 195.210938 272.105469 194.578125 272.886719 194.578125 C 273.667969 194.578125 274.300781 195.210938 274.300781 195.992188 L 274.300781 213.367188 L 277.152344 213.367188 C 281.832031 213.367188 285.636719 217.171875 285.636719 221.84375 C 285.636719 222.539062 285.550781 223.226562 285.382812 223.890625 C 289.933594 225.082031 293.28125 229.253906 293.28125 234.078125 C 293.28125 239.890625 288.550781 244.617188 282.730469 244.617188 Z M 282.730469 244.617188 " fill-opacity="1" fill-rule="nonzero"/><path fill="#38b6ff" d="M 297.148438 163.316406 C 302.691406 168.851562 305.804688 176.355469 305.804688 184.183594 L 305.804688 200.605469 C 305.804688 205.210938 300.230469 207.515625 296.96875 204.261719 L 285.304688 192.617188 Z M 297.148438 163.316406 " fill-opacity="1" fill-rule="nonzero"/><path fill="#004aad" d="M 300.585938 207.203125 C 298.890625 207.203125 297.246094 206.535156 295.96875 205.257812 L 284.304688 193.613281 C 283.753906 193.0625 283.753906 192.167969 284.304688 191.617188 C 284.859375 191.066406 285.753906 191.066406 286.304688 191.617188 L 297.964844 203.261719 C 299.277344 204.570312 300.945312 204.542969 302.070312 204.078125 C 303.191406 203.613281 304.390625 202.457031 304.390625 200.605469 L 304.390625 184.183594 C 304.390625 176.675781 301.464844 169.621094 296.148438 164.3125 L 298.148438 162.316406 C 301.039062 165.203125 303.296875 168.578125 304.863281 172.347656 C 306.425781 176.121094 307.21875 180.101562 307.21875 184.183594 L 307.21875 200.605469 C 307.21875 203.316406 305.660156 205.648438 303.148438 206.683594 C 302.308594 207.03125 301.441406 207.203125 300.585938 207.203125 Z M 300.585938 207.203125 " fill-opacity="1" fill-rule="nonzero"/><path fill="#38b6ff" d="M 226.65625 163.316406 C 221.113281 168.851562 218 176.355469 218 184.183594 L 218 200.605469 C 218 205.210938 223.578125 207.515625 226.839844 204.261719 L 238.5 192.617188 Z M 226.65625 163.316406 " fill-opacity="1" fill-rule="nonzero"/><path fill="#004aad" d="M 223.21875 207.203125 C 222.367188 207.203125 221.496094 207.03125 220.65625 206.683594 C 218.148438 205.648438 216.589844 203.316406 216.589844 200.605469 L 216.589844 184.183594 C 216.589844 180.101562 217.382812 176.121094 218.945312 172.347656 C 220.507812 168.578125 222.769531 165.203125 225.65625 162.316406 C 226.210938 161.765625 227.105469 161.765625 227.65625 162.316406 C 228.207031 162.871094 228.207031 163.761719 227.65625 164.3125 C 222.339844 169.621094 219.414062 176.675781 219.414062 184.183594 L 219.414062 200.605469 C 219.414062 202.457031 220.613281 203.613281 221.738281 204.078125 C 222.863281 204.542969 224.527344 204.570312 225.839844 203.261719 L 237.503906 191.617188 C 238.054688 191.066406 238.949219 191.066406 239.5 191.617188 C 240.054688 192.167969 240.054688 193.0625 239.5 193.613281 L 227.839844 205.257812 C 226.5625 206.53125 224.917969 207.203125 223.21875 207.203125 Z M 223.21875 207.203125 " fill-opacity="1" fill-rule="nonzero"/><path fill="#ffffff" d="M 244.019531 195.828125 C 241.882812 195.828125 239.894531 194.738281 238.757812 192.933594 C 229.675781 178.519531 224.414062 161.464844 224.414062 143.175781 C 224.414062 116.664062 235.457031 92.726562 253.199219 75.695312 C 258.050781 71.035156 265.691406 71.035156 270.542969 75.695312 C 288.285156 92.726562 299.328125 116.664062 299.328125 143.175781 C 299.328125 161.464844 294.066406 178.519531 284.984375 192.933594 C 283.847656 194.738281 281.859375 195.828125 279.722656 195.828125 Z M 244.019531 195.828125 " fill-opacity="1" fill-rule="nonzero"/><path fill="#004aad" d="M 279.722656 197.238281 L 244.019531 197.238281 C 241.375 197.238281 238.960938 195.910156 237.558594 193.6875 C 228.035156 178.570312 223 161.101562 223 143.175781 C 223 130.019531 225.644531 117.28125 230.855469 105.316406 C 235.890625 93.761719 243.078125 83.453125 252.21875 74.679688 C 257.632812 69.484375 266.109375 69.484375 271.523438 74.679688 C 280.664062 83.453125 287.851562 93.761719 292.886719 105.316406 C 298.097656 117.28125 300.742188 130.019531 300.742188 143.175781 C 300.742188 161.101562 295.707031 178.570312 286.183594 193.6875 C 284.78125 195.910156 282.367188 197.238281 279.722656 197.238281 Z M 261.871094 73.605469 C 259.101562 73.605469 256.335938 74.640625 254.175781 76.714844 C 235.894531 94.261719 225.828125 117.867188 225.828125 143.175781 C 225.828125 160.570312 230.710938 177.515625 239.953125 192.183594 C 240.832031 193.582031 242.355469 194.417969 244.019531 194.417969 L 279.722656 194.417969 C 281.386719 194.417969 282.910156 193.582031 283.789062 192.183594 C 293.03125 177.519531 297.914062 160.570312 297.914062 143.175781 C 297.914062 117.867188 287.847656 94.261719 269.566406 76.714844 C 267.40625 74.640625 264.640625 73.605469 261.871094 73.605469 Z M 261.871094 73.605469 " fill-opacity="1" fill-rule="nonzero"/><path fill="#004aad" d="M 279.726562 87.304688 L 244.015625 87.304688 C 243.238281 87.304688 242.605469 86.671875 242.605469 85.894531 C 242.605469 85.113281 243.238281 84.480469 244.015625 84.480469 L 279.726562 84.480469 C 280.503906 84.480469 281.136719 85.113281 281.136719 85.894531 C 281.136719 86.671875 280.503906 87.304688 279.726562 87.304688 Z M 279.726562 87.304688 " fill-opacity="1" fill-rule="nonzero"/><path fill="#38b6ff" d="M 285.304688 137.621094 C 285.304688 138.386719 285.269531 139.152344 285.191406 139.914062 C 285.117188 140.675781 285.003906 141.433594 284.855469 142.183594 C 284.707031 142.9375 284.519531 143.679688 284.296875 144.410156 C 284.074219 145.144531 283.816406 145.867188 283.519531 146.574219 C 283.226562 147.28125 282.898438 147.972656 282.539062 148.648438 C 282.175781 149.324219 281.78125 149.980469 281.355469 150.621094 C 280.929688 151.257812 280.472656 151.871094 279.984375 152.464844 C 279.5 153.054688 278.984375 153.625 278.441406 154.164062 C 277.898438 154.707031 277.332031 155.222656 276.738281 155.707031 C 276.144531 156.191406 275.527344 156.648438 274.890625 157.074219 C 274.253906 157.5 273.59375 157.894531 272.917969 158.253906 C 272.242188 158.617188 271.546875 158.945312 270.839844 159.238281 C 270.128906 159.53125 269.40625 159.789062 268.671875 160.011719 C 267.9375 160.234375 267.195312 160.417969 266.441406 160.570312 C 265.691406 160.71875 264.933594 160.832031 264.167969 160.90625 C 263.40625 160.980469 262.640625 161.019531 261.871094 161.019531 C 261.105469 161.019531 260.339844 160.980469 259.574219 160.90625 C 258.808594 160.832031 258.050781 160.71875 257.300781 160.570312 C 256.546875 160.417969 255.804688 160.234375 255.070312 160.011719 C 254.335938 159.789062 253.613281 159.53125 252.902344 159.238281 C 252.195312 158.945312 251.5 158.617188 250.824219 158.253906 C 250.148438 157.894531 249.488281 157.5 248.851562 157.074219 C 248.214844 156.648438 247.597656 156.191406 247.003906 155.707031 C 246.410156 155.222656 245.84375 154.707031 245.300781 154.164062 C 244.757812 153.625 244.242188 153.054688 243.757812 152.464844 C 243.269531 151.871094 242.8125 151.257812 242.386719 150.621094 C 241.960938 149.980469 241.566406 149.324219 241.203125 148.648438 C 240.84375 147.972656 240.515625 147.28125 240.222656 146.574219 C 239.925781 145.867188 239.667969 145.144531 239.445312 144.410156 C 239.222656 143.679688 239.039062 142.9375 238.886719 142.183594 C 238.738281 141.433594 238.625 140.675781 238.550781 139.914062 C 238.476562 139.152344 238.4375 138.386719 238.4375 137.621094 C 238.4375 136.851562 238.476562 136.089844 238.550781 135.328125 C 238.625 134.5625 238.738281 133.804688 238.886719 133.054688 C 239.039062 132.304688 239.222656 131.5625 239.445312 130.828125 C 239.667969 130.09375 239.925781 129.375 240.222656 128.664062 C 240.515625 127.957031 240.84375 127.265625 241.203125 126.589844 C 241.566406 125.914062 241.960938 125.257812 242.386719 124.621094 C 242.8125 123.984375 243.269531 123.367188 243.757812 122.777344 C 244.242188 122.183594 244.757812 121.617188 245.300781 121.074219 C 245.84375 120.53125 246.410156 120.019531 247.003906 119.53125 C 247.597656 119.046875 248.214844 118.589844 248.851562 118.164062 C 249.488281 117.738281 250.148438 117.34375 250.824219 116.984375 C 251.5 116.621094 252.195312 116.296875 252.902344 116.003906 C 253.613281 115.707031 254.335938 115.449219 255.070312 115.226562 C 255.804688 115.007812 256.546875 114.820312 257.300781 114.671875 C 258.050781 114.519531 258.808594 114.410156 259.574219 114.332031 C 260.339844 114.257812 261.105469 114.222656 261.871094 114.222656 C 262.640625 114.222656 263.40625 114.257812 264.167969 114.332031 C 264.933594 114.410156 265.691406 114.519531 266.441406 114.671875 C 267.195312 114.820312 267.9375 115.007812 268.671875 115.226562 C 269.40625 115.449219 270.128906 115.707031 270.839844 116.003906 C 271.546875 116.296875 272.242188 116.621094 272.917969 116.984375 C 273.59375 117.34375 274.253906 117.738281 274.890625 118.164062 C 275.527344 118.589844 276.144531 119.046875 276.738281 119.53125 C 277.332031 120.019531 277.898438 120.53125 278.441406 121.074219 C 278.984375 121.617188 279.5 122.183594 279.984375 122.777344 C 280.472656 123.367188 280.929688 123.984375 281.355469 124.621094 C 281.78125 125.257812 282.175781 125.914062 282.539062 126.589844 C 282.898438 127.265625 283.226562 127.957031 283.519531 128.664062 C 283.816406 129.375 284.074219 130.09375 284.296875 130.828125 C 284.519531 131.5625 284.707031 132.304688 284.855469 133.054688 C 285.003906 133.804688 285.117188 134.5625 285.191406 135.328125 C 285.269531 136.089844 285.304688 136.851562 285.304688 137.621094 Z M 285.304688 137.621094 " fill-opacity="1" fill-rule="nonzero"/><path fill="#004aad" d="M 261.871094 162.429688 C 248.171875 162.429688 237.023438 151.300781 237.023438 137.621094 C 237.023438 123.941406 248.171875 112.808594 261.871094 112.808594 C 275.570312 112.808594 286.71875 123.941406 286.71875 137.621094 C 286.71875 151.300781 275.570312 162.429688 261.871094 162.429688 Z M 261.871094 115.632812 C 249.730469 115.632812 239.851562 125.496094 239.851562 137.621094 C 239.851562 149.742188 249.730469 159.605469 261.871094 159.605469 C 274.011719 159.605469 283.890625 149.742188 283.890625 137.621094 C 283.890625 125.496094 274.011719 115.632812 261.871094 115.632812 Z M 261.871094 115.632812 " fill-opacity="1" fill-rule="nonzero"/><path fill="#004aad" d="M 262.101562 139.136719 C 261.320312 139.136719 260.6875 138.503906 260.6875 137.722656 L 260.6875 119.457031 C 260.6875 118.675781 261.320312 118.042969 262.101562 118.042969 C 262.882812 118.042969 263.515625 118.675781 263.515625 119.457031 L 263.515625 137.722656 C 263.515625 138.503906 262.882812 139.136719 262.101562 139.136719 Z M 262.101562 139.136719 " fill-opacity="1" fill-rule="nonzero"/><path fill="#004aad" d="M 271.25 139.136719 L 262.101562 139.136719 C 261.320312 139.136719 260.6875 138.503906 260.6875 137.722656 C 260.6875 136.945312 261.320312 136.3125 262.101562 136.3125 L 271.25 136.3125 C 272.03125 136.3125 272.664062 136.945312 272.664062 137.722656 C 272.664062 138.503906 272.03125 139.136719 271.25 139.136719 Z M 271.25 139.136719 " fill-opacity="1" fill-rule="nonzero"/><g fill="#004aad" fill-opacity="1"><g transform="translate(33.899988, 322.614178)"><g><path d="M 6 -24 C 3.359375 -24 1.199219 -21.839844 1.199219 -19.199219 L 1.199219 0 L 6 0 L 6 -9.601562 L 20.398438 -9.601562 L 20.398438 0 L 25.199219 0 L 25.199219 -19.199219 C 25.199219 -21.839844 23.039062 -24 20.398438 -24 Z M 6 -19.199219 L 20.398438 -19.199219 L 20.398438 -14.398438 L 6 -14.398438 Z M 6 -19.199219 "/></g></g></g><g fill="#004aad" fill-opacity="1"><g transform="translate(60.29996, 322.614178)"><g><path d="M 25.199219 -4.800781 L 9.390625 -4.800781 L 24.480469 -19.890625 C 24.929688 -20.339844 25.199219 -20.941406 25.199219 -21.601562 C 25.199219 -22.921875 24.121094 -24 22.800781 -24 L 1.199219 -24 L 1.199219 -19.199219 L 17.011719 -19.199219 L 1.921875 -4.109375 C 1.46875 -3.660156 1.199219 -3.058594 1.199219 -2.398438 C 1.199219 -1.078125 2.28125 0 3.601562 0 L 25.199219 0 Z M 25.199219 -4.800781 "/></g></g></g><g fill="#004aad" fill-opacity="1"><g transform="translate(86.699933, 322.614178)"><g><path d="M 20.398438 0 C 23.039062 0 25.199219 -2.160156 25.199219 -4.800781 L 25.199219 -24 L 20.398438 -24 L 20.398438 -4.800781 L 6 -4.800781 L 6 -24 L 1.199219 -24 L 1.199219 -4.800781 C 1.199219 -2.160156 3.359375 0 6 0 Z M 20.398438 0 "/></g></g></g><g fill="#004aad" fill-opacity="1"><g transform="translate(113.099906, 322.614178)"><g><path d="M 25.199219 -19.199219 C 25.199219 -21.839844 23.039062 -24 20.398438 -24 L 1.199219 -24 L 1.199219 0 L 6 0 L 6 -9.601562 L 8.820312 -9.601562 L 17.699219 -0.71875 C 18.179688 -0.238281 18.78125 0 19.441406 0 L 25.199219 0 L 25.199219 -4.800781 L 20.398438 -4.800781 L 15.601562 -9.601562 L 20.398438 -9.601562 C 23.039062 -9.601562 25.199219 -11.761719 25.199219 -14.398438 Z M 20.398438 -19.199219 L 20.398438 -14.398438 L 6 -14.398438 L 6 -19.199219 Z M 20.398438 -19.199219 "/></g></g></g><g fill="#004aad" fill-opacity="1"><g transform="translate(139.499879, 322.614178)"><g><path d="M 25.199219 -24 L 6 -24 C 3.359375 -24 1.199219 -21.839844 1.199219 -19.199219 L 1.199219 -4.800781 C 1.199219 -2.160156 3.359375 0 6 0 L 25.199219 0 L 25.199219 -4.800781 L 6 -4.800781 L 6 -9.601562 L 25.199219 -9.601562 L 25.199219 -14.398438 L 6 -14.398438 L 6 -19.199219 L 25.199219 -19.199219 Z M 25.199219 -24 "/></g></g></g><g fill="#004aad" fill-opacity="1"><g transform="translate(165.899851, 322.614178)"><g/></g></g><g fill="#5271ff" fill-opacity="1"><g transform="translate(179.107013, 322.614178)"><g><path d="M 20.398438 0 C 23.039062 0 25.199219 -2.160156 25.199219 -4.800781 L 25.199219 -19.199219 C 25.199219 -21.839844 23.039062 -24 20.398438 -24 L 1.199219 -24 L 1.199219 0 Z M 6 -19.199219 L 20.398438 -19.199219 L 20.398438 -4.800781 L 6 -4.800781 Z M 6 -19.199219 "/></g></g></g><g fill="#5271ff" fill-opacity="1"><g transform="translate(205.506986, 322.614178)"><g><path d="M 25.199219 -24 L 6 -24 C 3.359375 -24 1.199219 -21.839844 1.199219 -19.199219 L 1.199219 -4.800781 C 1.199219 -2.160156 3.359375 0 6 0 L 25.199219 0 L 25.199219 -4.800781 L 6 -4.800781 L 6 -9.601562 L 25.199219 -9.601562 L 25.199219 -14.398438 L 6 -14.398438 L 6 -19.199219 L 25.199219 -19.199219 Z M 25.199219 -24 "/></g></g></g><g fill="#5271ff" fill-opacity="1"><g transform="translate(231.906959, 322.614178)"><g><path d="M 13.199219 0 C 14.25 0 15.328125 -0.390625 16.199219 -1.140625 L 24.300781 -8.101562 C 24.871094 -8.609375 25.171875 -9.238281 25.171875 -10.019531 L 25.199219 -24 L 20.398438 -24 L 20.398438 -11.101562 L 13.199219 -4.890625 L 6 -11.101562 L 6 -24 L 1.199219 -24 L 1.199219 -10.019531 C 1.199219 -9.269531 1.53125 -8.609375 2.101562 -8.101562 L 10.199219 -1.140625 C 11.101562 -0.390625 12.148438 0 13.199219 0 Z M 13.199219 0 "/></g></g></g><g fill="#5271ff" fill-opacity="1"><g transform="translate(258.306931, 322.614178)"><g><path d="M 20.398438 0 C 23.070312 0 25.199219 -2.191406 25.199219 -4.800781 L 25.199219 -19.199219 C 25.199219 -21.839844 23.039062 -24 20.398438 -24 L 6 -24 C 3.359375 -24 1.199219 -21.839844 1.199219 -19.199219 L 1.199219 -4.800781 C 1.199219 -2.160156 3.359375 0 6 0 Z M 6 -19.199219 L 20.398438 -19.199219 L 20.398438 -4.800781 L 6 -4.800781 Z M 6 -19.199219 "/></g></g></g><g fill="#5271ff" fill-opacity="1"><g transform="translate(284.706904, 322.614178)"><g><path d="M 20.398438 -24 L 1.199219 -24 L 1.199219 0 L 6 0 L 6 -9.601562 L 20.398438 -9.601562 C 23.039062 -9.601562 25.199219 -11.761719 25.199219 -14.398438 L 25.199219 -19.199219 C 25.199219 -21.839844 23.039062 -24 20.398438 -24 Z M 6 -14.398438 L 6 -19.199219 L 20.398438 -19.199219 L 20.398438 -14.398438 Z M 6 -14.398438 "/></g></g></g><g fill="#5271ff" fill-opacity="1"><g transform="translate(311.106877, 322.614178)"><g><path d="M 25.199219 -24 L 6 -24 C 3.359375 -24 1.199219 -21.839844 1.199219 -19.199219 L 1.199219 -14.398438 C 1.199219 -11.761719 3.359375 -9.601562 6 -9.601562 L 20.398438 -9.601562 L 20.398438 -4.800781 L 1.199219 -4.800781 L 1.199219 0 L 20.398438 0 C 23.039062 0 25.199219 -2.160156 25.199219 -4.800781 L 25.199219 -9.601562 C 25.199219 -12.238281 23.039062 -14.398438 20.398438 -14.398438 L 6 -14.398438 L 6 -19.199219 L 25.199219 -19.199219 Z M 25.199219 -24 "/></g></g></g><g fill="#004aad" fill-opacity="1"><g transform="translate(40.497643, 364.614175)"><g><path d="M 25.199219 0 L 25.199219 -4.800781 L 15.601562 -4.800781 L 15.601562 -19.199219 L 25.199219 -19.199219 L 25.199219 -24 L 1.199219 -24 L 1.199219 -19.199219 L 10.800781 -19.199219 L 10.800781 -4.800781 L 1.199219 -4.800781 L 1.199219 0 Z M 25.199219 0 "/></g></g></g><g fill="#004aad" fill-opacity="1"><g transform="translate(66.897616, 364.614175)"><g><path d="M 6 0 L 6 -15.808594 L 21.089844 -0.71875 C 21.539062 -0.269531 22.140625 0 22.800781 0 C 24.121094 0 25.199219 -1.078125 25.199219 -2.398438 L 25.199219 -24 L 20.398438 -24 L 20.398438 -8.191406 L 5.308594 -23.28125 C 4.859375 -23.730469 4.261719 -24 3.601562 -24 C 2.28125 -24 1.199219 -22.921875 1.199219 -21.601562 L 1.199219 0 Z M 6 0 "/></g></g></g><g fill="#004aad" fill-opacity="1"><g transform="translate(93.297589, 364.614175)"><g><path d="M 25.199219 -24 L 1.199219 -24 L 1.199219 -19.199219 L 10.800781 -19.199219 L 10.800781 0 L 15.601562 0 L 15.601562 -19.199219 L 25.199219 -19.199219 Z M 25.199219 -24 "/></g></g></g><g fill="#004aad" fill-opacity="1"><g transform="translate(119.697562, 364.614175)"><g><path d="M 25.199219 -24 L 6 -24 C 3.359375 -24 1.199219 -21.839844 1.199219 -19.199219 L 1.199219 -4.800781 C 1.199219 -2.160156 3.359375 0 6 0 L 25.199219 0 L 25.199219 -4.800781 L 6 -4.800781 L 6 -9.601562 L 25.199219 -9.601562 L 25.199219 -14.398438 L 6 -14.398438 L 6 -19.199219 L 25.199219 -19.199219 Z M 25.199219 -24 "/></g></g></g><g fill="#004aad" fill-opacity="1"><g transform="translate(146.097535, 364.614175)"><g><path d="M 25.199219 -24 L 6 -24 C 3.359375 -24 1.199219 -21.839844 1.199219 -19.199219 L 1.199219 -4.800781 C 1.199219 -2.160156 3.359375 0 6 0 L 20.398438 0 C 23.070312 0 25.199219 -2.191406 25.199219 -4.800781 L 25.199219 -14.398438 L 10.800781 -14.398438 L 10.800781 -9.601562 L 20.398438 -9.601562 L 20.398438 -4.800781 L 6 -4.800781 L 6 -19.199219 L 25.199219 -19.199219 Z M 25.199219 -24 "/></g></g></g><g fill="#004aad" fill-opacity="1"><g transform="translate(172.497507, 364.614175)"><g><path d="M 25.199219 -19.199219 C 25.199219 -21.839844 23.039062 -24 20.398438 -24 L 1.199219 -24 L 1.199219 0 L 6 0 L 6 -9.601562 L 8.820312 -9.601562 L 17.699219 -0.71875 C 18.179688 -0.238281 18.78125 0 19.441406 0 L 25.199219 0 L 25.199219 -4.800781 L 20.398438 -4.800781 L 15.601562 -9.601562 L 20.398438 -9.601562 C 23.039062 -9.601562 25.199219 -11.761719 25.199219 -14.398438 Z M 20.398438 -19.199219 L 20.398438 -14.398438 L 6 -14.398438 L 6 -19.199219 Z M 20.398438 -19.199219 "/></g></g></g><g fill="#004aad" fill-opacity="1"><g transform="translate(198.89748, 364.614175)"><g><path d="M 6 -24 C 3.359375 -24 1.199219 -21.839844 1.199219 -19.199219 L 1.199219 0 L 6 0 L 6 -9.601562 L 20.398438 -9.601562 L 20.398438 0 L 25.199219 0 L 25.199219 -19.199219 C 25.199219 -21.839844 23.039062 -24 20.398438 -24 Z M 6 -19.199219 L 20.398438 -19.199219 L 20.398438 -14.398438 L 6 -14.398438 Z M 6 -19.199219 "/></g></g></g><g fill="#004aad" fill-opacity="1"><g transform="translate(225.297453, 364.614175)"><g><path d="M 25.199219 -24 L 1.199219 -24 L 1.199219 -19.199219 L 10.800781 -19.199219 L 10.800781 0 L 15.601562 0 L 15.601562 -19.199219 L 25.199219 -19.199219 Z M 25.199219 -24 "/></g></g></g><g fill="#004aad" fill-opacity="1"><g transform="translate(251.697426, 364.614175)"><g><path d="M 25.199219 0 L 25.199219 -4.800781 L 15.601562 -4.800781 L 15.601562 -19.199219 L 25.199219 -19.199219 L 25.199219 -24 L 1.199219 -24 L 1.199219 -19.199219 L 10.800781 -19.199219 L 10.800781 -4.800781 L 1.199219 -4.800781 L 1.199219 0 Z M 25.199219 0 "/></g></g></g><g fill="#004aad" fill-opacity="1"><g transform="translate(278.097387, 364.614175)"><g><path d="M 20.398438 0 C 23.070312 0 25.199219 -2.191406 25.199219 -4.800781 L 25.199219 -19.199219 C 25.199219 -21.839844 23.039062 -24 20.398438 -24 L 6 -24 C 3.359375 -24 1.199219 -21.839844 1.199219 -19.199219 L 1.199219 -4.800781 C 1.199219 -2.160156 3.359375 0 6 0 Z M 6 -19.199219 L 20.398438 -19.199219 L 20.398438 -4.800781 L 6 -4.800781 Z M 6 -19.199219 "/></g></g></g><g fill="#004aad" fill-opacity="1"><g transform="translate(304.497349, 364.614175)"><g><path d="M 6 0 L 6 -15.808594 L 21.089844 -0.71875 C 21.539062 -0.269531 22.140625 0 22.800781 0 C 24.121094 0 25.199219 -1.078125 25.199219 -2.398438 L 25.199219 -24 L 20.398438 -24 L 20.398438 -8.191406 L 5.308594 -23.28125 C 4.859375 -23.730469 4.261719 -24 3.601562 -24 C 2.28125 -24 1.199219 -22.921875 1.199219 -21.601562 L 1.199219 0 Z M 6 0 "/></g></g></g></svg>