<svg xmlns="http://www.w3.org/2000/svg" xmlns:xlink="http://www.w3.org/1999/xlink" width="200" zoomAndPan="magnify" viewBox="0 0 150 374.999991" height="500" preserveAspectRatio="xMidYMid meet" version="1.0"><defs><g/><clipPath id="f649e1b3c5"><path d="M 75.414062 0.109375 L 144.402344 0.109375 L 144.402344 138.089844 L 75.414062 138.089844 Z M 75.414062 0.109375 " clip-rule="nonzero"/></clipPath><clipPath id="78cab60f97"><path d="M 25.175781 19.636719 L 123.996094 19.636719 L 123.996094 118.453125 L 25.175781 118.453125 Z M 25.175781 19.636719 " clip-rule="nonzero"/></clipPath><clipPath id="0a88a3eb07"><path d="M 74.585938 19.636719 C 47.296875 19.636719 25.175781 41.757812 25.175781 69.046875 C 25.175781 96.332031 47.296875 118.453125 74.585938 118.453125 C 101.875 118.453125 123.996094 96.332031 123.996094 69.046875 C 123.996094 41.757812 101.875 19.636719 74.585938 19.636719 Z M 74.585938 19.636719 " clip-rule="nonzero"/></clipPath><clipPath id="a3e31efe84"><path d="M 50.492188 33.769531 L 92 33.769531 L 92 89.117188 L 50.492188 89.117188 Z M 50.492188 33.769531 " clip-rule="nonzero"/></clipPath><clipPath id="a5c6457c20"><path d="M 65 39 L 105.839844 39 L 105.839844 82 L 65 82 Z M 65 39 " clip-rule="nonzero"/></clipPath><clipPath id="0a33d21ef6"><path d="M 5.59375 118.457031 L 74.585938 118.457031 L 74.585938 256.433594 L 5.59375 256.433594 Z M 5.59375 118.457031 " clip-rule="nonzero"/></clipPath><clipPath id="de873f6f2c"><path d="M 74.585938 237.019531 L 143.574219 237.019531 L 143.574219 375 L 74.585938 375 Z M 74.585938 237.019531 " clip-rule="nonzero"/></clipPath><clipPath id="83918c1fcd"><path d="M 25.175781 138.089844 L 123.996094 138.089844 L 123.996094 236.910156 L 25.175781 236.910156 Z M 25.175781 138.089844 " clip-rule="nonzero"/></clipPath><clipPath id="6284f60bc1"><path d="M 74.585938 138.089844 C 47.296875 138.089844 25.175781 160.210938 25.175781 187.5 C 25.175781 214.789062 47.296875 236.910156 74.585938 236.910156 C 101.875 236.910156 123.996094 214.789062 123.996094 187.5 C 123.996094 160.210938 101.875 138.089844 74.585938 138.089844 Z M 74.585938 138.089844 " clip-rule="nonzero"/></clipPath><clipPath id="b8c6be5a4b"><path d="M 47.75 150 L 102 150 L 102 204.308594 L 47.75 204.308594 Z M 47.75 150 " clip-rule="nonzero"/></clipPath><clipPath id="fb79a35b6d"><path d="M 28.75 256.546875 L 127.570312 256.546875 L 127.570312 355.363281 L 28.75 355.363281 Z M 28.75 256.546875 " clip-rule="nonzero"/></clipPath><clipPath id="328c54ff60"><path d="M 78.160156 256.546875 C 50.871094 256.546875 28.75 278.667969 28.75 305.953125 C 28.75 333.242188 50.871094 355.363281 78.160156 355.363281 C 105.445312 355.363281 127.570312 333.242188 127.570312 305.953125 C 127.570312 278.667969 105.445312 256.546875 78.160156 256.546875 Z M 78.160156 256.546875 " clip-rule="nonzero"/></clipPath><clipPath id="6a277f2b00"><path d="M 83 285 L 105 285 L 105 316.960938 L 83 316.960938 Z M 83 285 " clip-rule="nonzero"/></clipPath><clipPath id="c991f1f8b8"><path d="M 51 285 L 73 285 L 73 316.960938 L 51 316.960938 Z M 51 285 " clip-rule="nonzero"/></clipPath><clipPath id="1aef060bd1"><path d="M 91 288 L 109.339844 288 L 109.339844 310 L 91 310 Z M 91 288 " clip-rule="nonzero"/></clipPath><clipPath id="3c075f10b0"><path d="M 74 273.695312 L 83 273.695312 L 83 282 L 74 282 Z M 74 273.695312 " clip-rule="nonzero"/></clipPath></defs><g clip-path="url(#f649e1b3c5)"><path fill="#f1c40f" d="M 144.402344 69.101562 C 144.402344 31 113.515625 0.109375 75.414062 0.109375 L 75.414062 138.089844 C 113.515625 138.089844 144.402344 107.199219 144.402344 69.101562 Z M 144.402344 69.101562 " fill-opacity="1" fill-rule="nonzero"/></g><g clip-path="url(#78cab60f97)"><g clip-path="url(#0a88a3eb07)"><path fill="#eaf3ff" d="M 25.175781 19.636719 L 123.996094 19.636719 L 123.996094 118.453125 L 25.175781 118.453125 Z M 25.175781 19.636719 " fill-opacity="1" fill-rule="nonzero"/></g></g><path fill="#173859" d="M 62.519531 58.835938 C 62.199219 58.582031 61.691406 58.644531 61.371094 58.964844 L 58.699219 62.273438 L 57.875 61.507812 C 57.554688 61.191406 57.046875 61.191406 56.726562 61.507812 C 56.410156 61.828125 56.410156 62.335938 56.726562 62.652344 C 56.726562 62.652344 58.253906 64.054688 58.253906 64.054688 C 58.636719 64.371094 59.210938 64.246094 59.402344 63.988281 L 62.582031 59.980469 C 62.898438 59.601562 63.027344 59.21875 62.519531 58.835938 Z M 62.519531 58.835938 " fill-opacity="1" fill-rule="nonzero"/><g clip-path="url(#a3e31efe84)"><path fill="#173859" d="M 90.636719 66.472656 C 90.191406 66.472656 89.875 66.851562 89.875 67.234375 L 89.875 87.527344 L 52.148438 87.527344 L 52.148438 35.363281 L 78.421875 35.363281 L 78.421875 45.921875 C 78.421875 46.367188 78.738281 46.75 79.183594 46.75 L 89.746094 46.75 L 89.746094 47.765625 C 89.746094 48.210938 90.128906 48.53125 90.507812 48.53125 C 90.890625 48.53125 91.273438 48.148438 91.273438 47.765625 L 91.273438 45.921875 C 91.273438 45.730469 91.210938 45.539062 91.019531 45.351562 L 79.820312 34.027344 C 79.695312 33.835938 79.441406 33.769531 79.25 33.769531 L 51.382812 33.769531 C 50.9375 33.769531 50.621094 34.152344 50.621094 34.535156 L 50.621094 88.355469 C 50.621094 88.800781 51.003906 89.117188 51.382812 89.117188 L 90.636719 89.117188 C 91.082031 89.117188 91.398438 88.738281 91.398438 88.355469 L 91.398438 67.234375 C 91.398438 66.789062 91.082031 66.472656 90.636719 66.472656 Z M 90.636719 66.472656 " fill-opacity="1" fill-rule="nonzero"/></g><path fill="#173859" d="M 85.800781 50.25 C 85.800781 49.804688 85.421875 49.484375 85.039062 49.484375 L 66.082031 49.484375 C 65.636719 49.484375 65.316406 49.867188 65.316406 50.25 C 65.316406 50.628906 65.699219 51.011719 66.082031 51.011719 L 85.039062 51.011719 C 85.484375 51.074219 85.800781 50.695312 85.800781 50.25 Z M 85.800781 50.25 " fill-opacity="1" fill-rule="nonzero"/><path fill="#173859" d="M 66.082031 53.554688 C 65.636719 53.554688 65.316406 53.9375 65.316406 54.320312 C 65.316406 54.703125 65.699219 55.082031 66.082031 55.082031 L 79.695312 55.082031 C 80.140625 55.082031 80.457031 54.703125 80.457031 54.320312 C 80.457031 53.9375 80.140625 53.554688 79.695312 53.554688 Z M 66.082031 53.554688 " fill-opacity="1" fill-rule="nonzero"/><path fill="#173859" d="M 62.519531 48.339844 C 62.199219 48.085938 61.691406 48.148438 61.371094 48.46875 L 58.699219 51.773438 L 57.875 51.011719 C 57.554688 50.695312 57.046875 50.695312 56.726562 51.011719 C 56.410156 51.328125 56.410156 51.839844 56.726562 52.15625 C 56.726562 52.15625 58.253906 53.554688 58.253906 53.554688 C 58.636719 53.875 59.210938 53.746094 59.402344 53.492188 L 62.582031 49.484375 C 62.898438 49.101562 62.964844 48.722656 62.519531 48.339844 Z M 62.519531 48.339844 " fill-opacity="1" fill-rule="nonzero"/><path fill="#173859" d="M 62.519531 68.953125 C 62.199219 68.699219 61.691406 68.761719 61.371094 69.078125 L 58.699219 72.386719 L 57.875 71.625 C 57.554688 71.304688 57.046875 71.304688 56.726562 71.625 C 56.410156 71.941406 56.410156 72.449219 56.726562 72.769531 C 56.726562 72.769531 58.253906 74.167969 58.253906 74.167969 C 58.636719 74.488281 59.210938 74.359375 59.402344 74.105469 L 62.582031 70.097656 C 62.898438 69.777344 62.964844 69.332031 62.519531 68.953125 Z M 62.519531 68.953125 " fill-opacity="1" fill-rule="nonzero"/><g clip-path="url(#a5c6457c20)"><path fill="#173859" d="M 105.269531 48.210938 L 102.980469 46.429688 L 104.503906 44.460938 C 104.824219 44.078125 105.140625 43.441406 104.441406 42.867188 L 101.132812 40.261719 C 100.625 39.816406 99.796875 39.816406 99.351562 40.386719 L 97.824219 42.359375 C 97.699219 42.296875 97.507812 42.234375 97.378906 42.296875 C 97.1875 42.296875 97 42.421875 96.871094 42.613281 L 94.199219 46.050781 C 94.007812 46.367188 94.007812 46.75 94.199219 47.003906 L 84.148438 59.792969 L 66.082031 59.792969 C 65.636719 59.792969 65.316406 60.171875 65.316406 60.554688 C 65.316406 60.9375 65.699219 61.316406 66.082031 61.316406 L 82.875 61.316406 L 80.96875 63.800781 L 66.082031 63.800781 C 65.636719 63.800781 65.316406 64.179688 65.316406 64.5625 C 65.316406 64.945312 65.699219 65.324219 66.082031 65.324219 L 79.757812 65.324219 L 76.132812 70.097656 L 66.082031 70.097656 C 65.636719 70.097656 65.316406 70.480469 65.316406 70.859375 C 65.316406 71.242188 65.699219 71.625 66.082031 71.625 L 74.859375 71.625 L 73.269531 73.660156 C 73.269531 73.660156 73.207031 73.851562 73.140625 74.105469 L 66.082031 74.105469 C 65.636719 74.105469 65.316406 74.488281 65.316406 74.867188 C 65.316406 75.25 65.699219 75.632812 66.082031 75.632812 L 72.632812 75.632812 C 71.996094 77.667969 71.167969 80.53125 71.167969 80.53125 C 71.042969 80.847656 71.167969 81.230469 71.425781 81.421875 C 71.679688 81.613281 72.058594 81.613281 72.316406 81.484375 C 72.316406 81.484375 78.359375 77.859375 78.484375 77.730469 L 99.289062 50.949219 C 99.414062 51.011719 99.542969 51.074219 99.734375 51.074219 C 99.988281 51.074219 100.242188 50.949219 100.371094 50.757812 L 102.535156 47.957031 L 103.679688 48.847656 L 97.1875 57.308594 C 96.933594 57.691406 97 58.136719 97.316406 58.457031 C 97.632812 58.773438 98.144531 58.644531 98.460938 58.328125 L 105.460938 49.359375 C 105.714844 48.976562 105.585938 48.46875 105.269531 48.210938 Z M 73.269531 79.132812 L 74.414062 75.3125 C 74.859375 75.566406 75.242188 75.824219 75.621094 76.078125 C 76.003906 76.394531 76.386719 76.714844 76.703125 77.03125 Z M 99.605469 49.292969 L 95.851562 46.367188 L 97.445312 44.332031 L 101.195312 47.257812 Z M 99.605469 49.292969 " fill-opacity="1" fill-rule="nonzero"/></g><g clip-path="url(#0a33d21ef6)"><path fill="#9b59b6" d="M 5.597656 187.445312 C 5.597656 225.546875 36.484375 256.433594 74.585938 256.433594 L 74.585938 118.457031 C 36.484375 118.457031 5.597656 149.34375 5.597656 187.445312 Z M 5.597656 187.445312 " fill-opacity="1" fill-rule="nonzero"/></g><g clip-path="url(#de873f6f2c)"><path fill="#e74c3c" d="M 143.574219 306.011719 C 143.574219 267.910156 112.6875 237.019531 74.585938 237.019531 L 74.585938 375 C 112.6875 375 143.574219 344.109375 143.574219 306.011719 Z M 143.574219 306.011719 " fill-opacity="1" fill-rule="nonzero"/></g><g clip-path="url(#83918c1fcd)"><g clip-path="url(#6284f60bc1)"><path fill="#ffffff" d="M 25.175781 138.089844 L 123.996094 138.089844 L 123.996094 236.910156 L 25.175781 236.910156 Z M 25.175781 138.089844 " fill-opacity="1" fill-rule="nonzero"/><path fill="#eaf3ff" d="M 25.175781 138.089844 L 123.996094 138.089844 L 123.996094 236.910156 L 25.175781 236.910156 Z M 25.175781 138.089844 " fill-opacity="1" fill-rule="nonzero"/></g></g><g clip-path="url(#b8c6be5a4b)"><path fill="#173859" d="M 97.050781 155.125 C 96.679688 154.757812 96.292969 154.40625 95.890625 154.074219 C 95.488281 153.742188 95.066406 153.433594 94.632812 153.140625 C 94.199219 152.851562 93.75 152.582031 93.289062 152.335938 C 92.828125 152.089844 92.359375 151.867188 91.875 151.667969 C 91.394531 151.46875 90.902344 151.292969 90.402344 151.140625 C 89.902344 150.988281 89.394531 150.863281 88.882812 150.761719 C 88.371094 150.660156 87.855469 150.582031 87.335938 150.53125 C 86.816406 150.480469 86.292969 150.453125 85.773438 150.453125 C 85.25 150.453125 84.726562 150.480469 84.207031 150.53125 C 83.6875 150.582031 83.171875 150.660156 82.660156 150.761719 C 82.148438 150.863281 81.640625 150.988281 81.140625 151.140625 C 80.640625 151.292969 80.148438 151.46875 79.667969 151.667969 C 79.183594 151.867188 78.714844 152.089844 78.253906 152.335938 C 77.792969 152.582031 77.34375 152.851562 76.910156 153.140625 C 76.476562 153.433594 76.054688 153.742188 75.652344 154.074219 C 75.25 154.40625 74.863281 154.757812 74.492188 155.125 C 73.785156 155.832031 73.152344 156.601562 72.589844 157.429688 C 72.027344 158.253906 71.546875 159.128906 71.148438 160.042969 C 70.75 160.960938 70.441406 161.910156 70.21875 162.882812 C 70 163.859375 69.871094 164.847656 69.835938 165.847656 C 69.800781 166.84375 69.859375 167.839844 70.011719 168.828125 C 70.160156 169.816406 70.402344 170.78125 70.734375 171.726562 C 71.070312 172.667969 71.488281 173.574219 71.988281 174.4375 C 72.492188 175.300781 73.070312 176.113281 73.726562 176.867188 L 67.773438 182.800781 C 67.378906 182.691406 66.988281 182.6875 66.59375 182.789062 C 66.199219 182.886719 65.855469 183.078125 65.5625 183.355469 L 48.5625 200.308594 C 48.34375 200.527344 48.171875 200.78125 48.054688 201.066406 C 47.933594 201.351562 47.875 201.652344 47.875 201.960938 C 47.875 202.269531 47.933594 202.570312 48.054688 202.855469 C 48.171875 203.140625 48.34375 203.394531 48.5625 203.613281 C 49.019531 204.066406 49.570312 204.289062 50.214844 204.285156 C 50.859375 204.289062 51.410156 204.066406 51.867188 203.613281 L 68.863281 186.613281 C 69.164062 186.304688 69.367188 185.945312 69.464844 185.527344 C 69.566406 185.109375 69.550781 184.695312 69.421875 184.289062 L 75.308594 178.449219 C 76.082031 179.09375 76.910156 179.65625 77.792969 180.140625 C 78.675781 180.628906 79.59375 181.027344 80.550781 181.335938 C 81.507812 181.648438 82.488281 181.867188 83.484375 181.992188 C 84.484375 182.117188 85.488281 182.148438 86.492188 182.085938 C 87.496094 182.019531 88.484375 181.863281 89.460938 181.609375 C 90.433594 181.359375 91.378906 181.015625 92.289062 180.585938 C 93.199219 180.15625 94.058594 179.644531 94.871094 179.050781 C 95.683594 178.457031 96.433594 177.789062 97.121094 177.054688 C 97.808594 176.320312 98.421875 175.523438 98.957031 174.671875 C 99.492188 173.820312 99.945312 172.925781 100.3125 171.988281 C 100.675781 171.050781 100.953125 170.085938 101.136719 169.097656 C 101.320312 168.105469 101.410156 167.109375 101.402344 166.101562 C 101.398438 165.09375 101.296875 164.097656 101.105469 163.109375 C 100.910156 162.121094 100.625 161.160156 100.246094 160.226562 C 99.871094 159.292969 99.410156 158.402344 98.863281 157.558594 C 98.320312 156.710938 97.699219 155.921875 97.003906 155.195312 Z M 95.421875 176.054688 C 94.789062 176.6875 94.101562 177.25 93.355469 177.75 C 92.613281 178.246094 91.828125 178.664062 91 179.007812 C 90.175781 179.347656 89.320312 179.609375 88.445312 179.78125 C 87.566406 179.957031 86.679688 180.042969 85.785156 180.042969 C 84.890625 180.042969 84.003906 179.957031 83.128906 179.78125 C 82.25 179.605469 81.398438 179.347656 80.574219 179.003906 C 79.746094 178.664062 78.960938 178.242188 78.21875 177.746094 C 77.472656 177.25 76.785156 176.683594 76.152344 176.050781 C 75.519531 175.417969 74.953125 174.730469 74.457031 173.984375 C 73.960938 173.242188 73.542969 172.457031 73.199219 171.628906 C 72.855469 170.804688 72.597656 169.953125 72.421875 169.074219 C 72.25 168.195312 72.160156 167.308594 72.160156 166.414062 C 72.160156 165.519531 72.25 164.636719 72.421875 163.757812 C 72.597656 162.878906 72.855469 162.027344 73.199219 161.203125 C 73.542969 160.375 73.960938 159.589844 74.457031 158.84375 C 74.953125 158.101562 75.519531 157.414062 76.152344 156.78125 C 76.785156 156.148438 77.472656 155.582031 78.21875 155.085938 C 78.960938 154.589844 79.746094 154.167969 80.574219 153.828125 C 81.398438 153.484375 82.25 153.226562 83.128906 153.050781 C 84.003906 152.875 84.890625 152.789062 85.785156 152.789062 C 86.679688 152.789062 87.566406 152.875 88.445312 153.050781 C 89.320312 153.222656 90.175781 153.480469 91 153.824219 C 91.828125 154.167969 92.613281 154.585938 93.355469 155.082031 C 94.101562 155.578125 94.789062 156.144531 95.421875 156.777344 C 96.058594 157.40625 96.628906 158.089844 97.128906 158.832031 C 97.628906 159.578125 98.054688 160.359375 98.398438 161.1875 C 98.742188 162.011719 99.003906 162.867188 99.179688 163.742188 C 99.355469 164.621094 99.445312 165.507812 99.445312 166.402344 C 99.445312 167.300781 99.355469 168.1875 99.179688 169.0625 C 99.003906 169.941406 98.742188 170.792969 98.398438 171.621094 C 98.054688 172.445312 97.628906 173.230469 97.128906 173.972656 C 96.628906 174.714844 96.058594 175.402344 95.421875 176.03125 Z M 95.421875 176.054688 " fill-opacity="1" fill-rule="nonzero"/></g><path fill="#173859" d="M 93.910156 158.265625 C 93.800781 158.15625 93.671875 158.074219 93.53125 158.015625 C 93.386719 157.960938 93.238281 157.929688 93.085938 157.929688 C 92.929688 157.929688 92.78125 157.960938 92.640625 158.015625 C 92.496094 158.074219 92.371094 158.15625 92.257812 158.265625 C 92.148438 158.375 92.066406 158.5 92.003906 158.644531 C 91.945312 158.785156 91.914062 158.933594 91.914062 159.089844 C 91.914062 159.246094 91.945312 159.394531 92.003906 159.539062 C 92.066406 159.679688 92.148438 159.804688 92.257812 159.914062 C 92.65625 160.3125 93.015625 160.746094 93.335938 161.207031 C 93.65625 161.671875 93.929688 162.160156 94.160156 162.671875 C 94.390625 163.1875 94.574219 163.71875 94.707031 164.261719 C 94.84375 164.808594 94.925781 165.363281 94.960938 165.925781 C 94.996094 166.488281 94.980469 167.046875 94.910156 167.605469 C 94.84375 168.164062 94.726562 168.714844 94.558594 169.25 C 94.390625 169.789062 94.175781 170.304688 93.914062 170.804688 C 93.65625 171.304688 93.351562 171.773438 93.003906 172.21875 C 92.90625 172.335938 92.835938 172.46875 92.789062 172.617188 C 92.746094 172.765625 92.734375 172.917969 92.75 173.070312 C 92.769531 173.222656 92.816406 173.367188 92.890625 173.503906 C 92.96875 173.636719 93.066406 173.75 93.191406 173.84375 C 93.394531 174.03125 93.636719 174.121094 93.910156 174.125 C 94.28125 174.121094 94.585938 173.972656 94.816406 173.683594 C 95.253906 173.128906 95.636719 172.539062 95.96875 171.914062 C 96.296875 171.292969 96.566406 170.644531 96.78125 169.96875 C 96.992188 169.296875 97.140625 168.609375 97.226562 167.910156 C 97.3125 167.207031 97.335938 166.507812 97.292969 165.800781 C 97.253906 165.097656 97.148438 164.402344 96.980469 163.714844 C 96.8125 163.03125 96.582031 162.367188 96.292969 161.722656 C 96.003906 161.078125 95.660156 160.464844 95.261719 159.886719 C 94.859375 159.304688 94.410156 158.765625 93.910156 158.265625 Z M 93.910156 158.265625 " fill-opacity="1" fill-rule="nonzero"/><g clip-path="url(#fb79a35b6d)"><g clip-path="url(#328c54ff60)"><path fill="#eaf3ff" d="M 28.75 256.546875 L 127.570312 256.546875 L 127.570312 355.363281 L 28.75 355.363281 Z M 28.75 256.546875 " fill-opacity="1" fill-rule="nonzero"/></g></g><g clip-path="url(#6a277f2b00)"><path fill="#173859" d="M 88.957031 310.160156 C 88.957031 311.589844 89 313.023438 88.941406 314.453125 C 88.882812 316.019531 87.925781 316.933594 86.441406 316.96875 C 84.980469 317.003906 83.808594 316.113281 83.78125 314.605469 C 83.695312 310.414062 83.699219 306.222656 83.773438 302.035156 C 83.800781 300.617188 84.953125 299.699219 86.472656 299.664062 C 88.363281 299.617188 90.257812 299.613281 92.152344 299.660156 C 93.058594 299.683594 93.453125 299.542969 93.527344 298.453125 C 93.714844 295.8125 94.175781 293.195312 94.96875 290.65625 C 95.933594 287.5625 98.628906 285.582031 101.847656 285.605469 C 104.09375 285.621094 105.070312 286.894531 104.476562 289.136719 C 103.578125 292.527344 102.632812 295.90625 101.699219 299.289062 C 100.195312 304.722656 100.191406 304.71875 94.484375 304.71875 C 93.152344 304.71875 91.820312 304.789062 90.496094 304.699219 C 89.335938 304.617188 88.820312 304.890625 88.9375 306.175781 C 89.058594 307.496094 88.964844 308.832031 88.964844 310.160156 C 88.964844 310.160156 88.957031 310.160156 88.957031 310.160156 Z M 88.957031 310.160156 " fill-opacity="1" fill-rule="evenodd"/></g><g clip-path="url(#c991f1f8b8)"><path fill="#173859" d="M 72.589844 308.320312 C 72.589844 310.261719 72.613281 312.207031 72.582031 314.148438 C 72.554688 315.925781 71.480469 317 69.855469 316.964844 C 68.296875 316.933594 67.355469 315.898438 67.34375 314.132812 C 67.324219 311.472656 67.285156 308.8125 67.367188 306.15625 C 67.398438 305.046875 67.175781 304.632812 65.960938 304.6875 C 63.664062 304.796875 61.355469 304.734375 59.054688 304.714844 C 56.996094 304.695312 55.871094 303.835938 55.308594 301.808594 C 54.109375 297.496094 52.925781 293.175781 51.777344 288.847656 C 51.261719 286.910156 52.273438 285.65625 54.285156 285.605469 C 57.65625 285.523438 60.535156 287.59375 61.460938 290.914062 C 62.136719 293.320312 62.640625 295.777344 62.75 298.28125 C 62.792969 299.300781 63.058594 299.734375 64.167969 299.671875 C 65.800781 299.574219 67.441406 299.640625 69.078125 299.648438 C 71.710938 299.65625 72.585938 300.519531 72.589844 303.101562 C 72.59375 304.84375 72.589844 306.582031 72.589844 308.320312 Z M 72.589844 308.320312 " fill-opacity="1" fill-rule="evenodd"/></g><path fill="#173859" d="M 78.332031 282.839844 C 79.917969 282.839844 81.5 282.824219 83.085938 282.84375 C 85.867188 282.878906 87.878906 284.871094 87.964844 287.652344 C 87.976562 288.0625 87.96875 288.46875 87.96875 288.878906 C 87.96875 290.921875 87.964844 290.863281 85.996094 290.925781 C 84.96875 290.957031 84.492188 290.734375 84.621094 289.609375 C 84.675781 289.121094 84.917969 288.230469 84.183594 288.203125 C 83.371094 288.171875 83.644531 289.074219 83.707031 289.539062 C 83.867188 290.746094 83.363281 290.960938 82.265625 290.929688 C 79.609375 290.847656 76.949219 290.847656 74.292969 290.929688 C 73.199219 290.960938 72.804688 290.625 72.972656 289.566406 C 73.015625 289.320312 72.988281 289.054688 72.960938 288.800781 C 72.933594 288.496094 72.871094 288.128906 72.480469 288.152344 C 72.148438 288.171875 71.980469 288.457031 72 288.808594 C 72.003906 288.859375 72.007812 288.914062 72 288.964844 C 71.90625 289.59375 72.335938 290.578125 71.75 290.792969 C 70.941406 291.09375 69.941406 290.886719 69.023438 290.894531 C 68.707031 290.898438 68.566406 290.714844 68.582031 290.421875 C 68.648438 288.855469 68.257812 287.222656 68.953125 285.734375 C 69.796875 283.941406 71.234375 282.890625 73.269531 282.847656 C 74.957031 282.808594 76.644531 282.839844 78.332031 282.839844 Z M 78.332031 282.839844 " fill-opacity="1" fill-rule="evenodd"/><path fill="#173859" d="M 78.429688 295.75 C 74.230469 295.75 70.027344 295.691406 65.832031 295.785156 C 64.558594 295.8125 64.546875 295.214844 64.640625 294.328125 C 64.722656 293.523438 64.191406 292.511719 65.832031 292.523438 C 74.175781 292.597656 82.523438 292.59375 90.867188 292.523438 C 92.308594 292.507812 91.984375 293.335938 91.945312 294.074219 C 91.910156 294.800781 92.449219 295.816406 90.867188 295.78125 C 86.722656 295.6875 82.574219 295.75 78.429688 295.75 Z M 78.429688 295.75 " fill-opacity="1" fill-rule="evenodd"/><g clip-path="url(#1aef060bd1)"><path fill="#173859" d="M 95.386719 309.566406 C 94.515625 309.566406 93.644531 309.5625 92.773438 309.566406 C 91.867188 309.574219 91.257812 309.15625 91.214844 308.246094 C 91.164062 307.253906 91.859375 306.964844 92.738281 306.96875 C 94.171875 306.972656 95.605469 306.972656 97.039062 306.964844 C 100.28125 306.949219 102.191406 305.515625 103.050781 302.390625 C 104.175781 298.324219 105.277344 294.25 106.363281 290.171875 C 106.613281 289.234375 107.019531 288.429688 108.113281 288.753906 C 109.160156 289.0625 109.144531 289.9375 108.886719 290.886719 C 107.785156 294.960938 106.769531 299.058594 105.640625 303.128906 C 104.492188 307.269531 101.382812 309.558594 97.074219 309.566406 C 96.511719 309.566406 95.949219 309.566406 95.386719 309.566406 Z M 95.386719 309.566406 " fill-opacity="1" fill-rule="evenodd"/></g><path fill="#173859" d="M 60.78125 309.566406 C 59.742188 309.484375 58.527344 309.621094 57.296875 309.375 C 53.890625 308.707031 51.726562 306.675781 50.78125 303.441406 C 49.566406 299.292969 48.527344 295.089844 47.425781 290.910156 C 47.191406 290.019531 47.121094 289.050781 48.21875 288.746094 C 49.308594 288.441406 49.710938 289.238281 49.960938 290.183594 C 51.027344 294.21875 52.140625 298.238281 53.222656 302.265625 C 54.070312 305.425781 56.027344 306.957031 59.300781 306.96875 C 60.734375 306.972656 62.164062 306.972656 63.597656 306.96875 C 64.476562 306.964844 65.203125 307.292969 65.15625 308.242188 C 65.113281 309.089844 64.492188 309.578125 63.574219 309.570312 C 62.703125 309.558594 61.832031 309.566406 60.78125 309.566406 Z M 60.78125 309.566406 " fill-opacity="1" fill-rule="evenodd"/><path fill="#173859" d="M 104.261719 279.925781 C 104.257812 282.25 102.398438 284.097656 100.078125 284.089844 C 97.753906 284.078125 95.917969 282.222656 95.925781 279.894531 C 95.9375 277.570312 97.785156 275.746094 100.117188 275.753906 C 102.460938 275.761719 104.265625 277.578125 104.261719 279.925781 Z M 104.261719 279.925781 " fill-opacity="1" fill-rule="evenodd"/><path fill="#173859" d="M 60.371094 279.8125 C 60.390625 282.164062 58.59375 284.035156 56.277344 284.082031 C 54.03125 284.125 52.046875 282.210938 51.992188 279.945312 C 51.933594 277.621094 53.875 275.730469 56.304688 275.738281 C 58.578125 275.746094 60.355469 277.523438 60.371094 279.8125 Z M 60.371094 279.8125 " fill-opacity="1" fill-rule="evenodd"/><g clip-path="url(#3c075f10b0)"><path fill="#173859" d="M 82.160156 277.601562 C 82.167969 279.796875 80.5 281.453125 78.296875 281.433594 C 76.144531 281.421875 74.398438 279.664062 74.429688 277.550781 C 74.460938 275.523438 76.214844 273.792969 78.269531 273.757812 C 80.425781 273.726562 82.152344 275.425781 82.160156 277.601562 Z M 82.160156 277.601562 " fill-opacity="1" fill-rule="evenodd"/></g><g fill="#004aad" fill-opacity="1"><g transform="translate(57.714966, 98.585656)"><g><path d="M 0.65625 0 L 0.65625 -7.390625 L 2.9375 -7.390625 C 3.582031 -7.390625 4.160156 -7.242188 4.671875 -6.953125 C 5.179688 -6.660156 5.582031 -6.242188 5.875 -5.703125 C 6.164062 -5.160156 6.3125 -4.546875 6.3125 -3.859375 L 6.3125 -3.515625 C 6.3125 -2.828125 6.164062 -2.21875 5.875 -1.6875 C 5.59375 -1.15625 5.195312 -0.738281 4.6875 -0.4375 C 4.175781 -0.144531 3.597656 0 2.953125 0 Z M 2.1875 -6.15625 L 2.1875 -1.21875 L 2.921875 -1.21875 C 3.515625 -1.21875 3.96875 -1.410156 4.28125 -1.796875 C 4.59375 -2.191406 4.753906 -2.75 4.765625 -3.46875 L 4.765625 -3.859375 C 4.765625 -4.617188 4.609375 -5.191406 4.296875 -5.578125 C 3.984375 -5.960938 3.53125 -6.15625 2.9375 -6.15625 Z M 2.1875 -6.15625 "/></g></g></g><g fill="#004aad" fill-opacity="1"><g transform="translate(64.467329, 98.585656)"><g><path d="M 4.828125 -1.515625 L 2.15625 -1.515625 L 1.65625 0 L 0.03125 0 L 2.78125 -7.390625 L 4.203125 -7.390625 L 6.953125 0 L 5.34375 0 Z M 2.578125 -2.75 L 4.421875 -2.75 L 3.484375 -5.515625 Z M 2.578125 -2.75 "/></g></g></g><g fill="#004aad" fill-opacity="1"><g transform="translate(71.458131, 98.585656)"><g><path d="M 6.21875 -6.15625 L 3.953125 -6.15625 L 3.953125 0 L 2.4375 0 L 2.4375 -6.15625 L 0.203125 -6.15625 L 0.203125 -7.390625 L 6.21875 -7.390625 Z M 6.21875 -6.15625 "/></g></g></g><g fill="#004aad" fill-opacity="1"><g transform="translate(77.885813, 98.585656)"><g><path d="M 6.734375 -3.53125 C 6.734375 -2.800781 6.601562 -2.160156 6.34375 -1.609375 C 6.082031 -1.066406 5.710938 -0.644531 5.234375 -0.34375 C 4.753906 -0.0507812 4.207031 0.09375 3.59375 0.09375 C 2.976562 0.09375 2.429688 -0.0507812 1.953125 -0.34375 C 1.472656 -0.632812 1.097656 -1.050781 0.828125 -1.59375 C 0.566406 -2.144531 0.4375 -2.773438 0.4375 -3.484375 L 0.4375 -3.84375 C 0.4375 -4.570312 0.566406 -5.210938 0.828125 -5.765625 C 1.085938 -6.316406 1.457031 -6.738281 1.9375 -7.03125 C 2.414062 -7.332031 2.960938 -7.484375 3.578125 -7.484375 C 4.191406 -7.484375 4.738281 -7.332031 5.21875 -7.03125 C 5.695312 -6.738281 6.066406 -6.316406 6.328125 -5.765625 C 6.597656 -5.210938 6.734375 -4.578125 6.734375 -3.859375 Z M 5.1875 -3.859375 C 5.1875 -4.628906 5.046875 -5.21875 4.765625 -5.625 C 4.492188 -6.03125 4.097656 -6.234375 3.578125 -6.234375 C 3.066406 -6.234375 2.671875 -6.03125 2.390625 -5.625 C 2.117188 -5.226562 1.984375 -4.648438 1.984375 -3.890625 L 1.984375 -3.53125 C 1.984375 -2.769531 2.117188 -2.179688 2.390625 -1.765625 C 2.671875 -1.347656 3.070312 -1.140625 3.59375 -1.140625 C 4.101562 -1.140625 4.492188 -1.335938 4.765625 -1.734375 C 5.046875 -2.140625 5.1875 -2.726562 5.1875 -3.5 Z M 5.1875 -3.859375 "/></g></g></g><g fill="#004aad" fill-opacity="1"><g transform="translate(85.059248, 98.585656)"><g><path d="M 4.484375 -1.9375 C 4.484375 -2.226562 4.378906 -2.445312 4.171875 -2.59375 C 3.972656 -2.75 3.609375 -2.910156 3.078125 -3.078125 C 2.554688 -3.253906 2.144531 -3.425781 1.84375 -3.59375 C 1 -4.039062 0.578125 -4.648438 0.578125 -5.421875 C 0.578125 -5.816406 0.6875 -6.171875 0.90625 -6.484375 C 1.132812 -6.796875 1.457031 -7.039062 1.875 -7.21875 C 2.300781 -7.394531 2.773438 -7.484375 3.296875 -7.484375 C 3.828125 -7.484375 4.296875 -7.390625 4.703125 -7.203125 C 5.117188 -7.015625 5.441406 -6.742188 5.671875 -6.390625 C 5.898438 -6.046875 6.015625 -5.648438 6.015625 -5.203125 L 4.5 -5.203125 C 4.5 -5.546875 4.390625 -5.8125 4.171875 -6 C 3.960938 -6.1875 3.664062 -6.28125 3.28125 -6.28125 C 2.90625 -6.28125 2.613281 -6.195312 2.40625 -6.03125 C 2.195312 -5.875 2.09375 -5.671875 2.09375 -5.421875 C 2.09375 -5.179688 2.210938 -4.976562 2.453125 -4.8125 C 2.703125 -4.65625 3.0625 -4.503906 3.53125 -4.359375 C 4.394531 -4.097656 5.023438 -3.773438 5.421875 -3.390625 C 5.816406 -3.003906 6.015625 -2.523438 6.015625 -1.953125 C 6.015625 -1.304688 5.769531 -0.800781 5.28125 -0.4375 C 4.800781 -0.0820312 4.15625 0.09375 3.34375 0.09375 C 2.769531 0.09375 2.25 -0.00390625 1.78125 -0.203125 C 1.3125 -0.410156 0.953125 -0.695312 0.703125 -1.0625 C 0.460938 -1.425781 0.34375 -1.847656 0.34375 -2.328125 L 1.875 -2.328125 C 1.875 -1.503906 2.363281 -1.09375 3.34375 -1.09375 C 3.695312 -1.09375 3.972656 -1.164062 4.171875 -1.3125 C 4.378906 -1.46875 4.484375 -1.675781 4.484375 -1.9375 Z M 4.484375 -1.9375 "/></g></g></g><g fill="#004aad" fill-opacity="1"><g transform="translate(44.712474, 216.784693)"><g><path d="M 1.9375 0 L 0.640625 0 L 0.640625 -6.28125 L 1.9375 -6.28125 Z M 1.9375 0 "/></g></g></g><g fill="#004aad" fill-opacity="1"><g transform="translate(47.286667, 216.784693)"><g><path d="M 5.671875 0 L 4.375 0 L 1.859375 -4.125 L 1.859375 0 L 0.5625 0 L 0.5625 -6.28125 L 1.859375 -6.28125 L 4.375 -2.140625 L 4.375 -6.28125 L 5.671875 -6.28125 Z M 5.671875 0 "/></g></g></g><g fill="#004aad" fill-opacity="1"><g transform="translate(53.521647, 216.784693)"><g><path d="M 4.34375 -2.5625 L 1.859375 -2.5625 L 1.859375 0 L 0.5625 0 L 0.5625 -6.28125 L 4.640625 -6.28125 L 4.640625 -5.234375 L 1.859375 -5.234375 L 1.859375 -3.609375 L 4.34375 -3.609375 Z M 4.34375 -2.5625 "/></g></g></g><g fill="#004aad" fill-opacity="1"><g transform="translate(58.359577, 216.784693)"><g><path d="M 5.71875 -3 C 5.71875 -2.375 5.609375 -1.828125 5.390625 -1.359375 C 5.171875 -0.898438 4.859375 -0.539062 4.453125 -0.28125 C 4.046875 -0.03125 3.578125 0.09375 3.046875 0.09375 C 2.523438 0.09375 2.0625 -0.03125 1.65625 -0.28125 C 1.25 -0.53125 0.929688 -0.890625 0.703125 -1.359375 C 0.484375 -1.828125 0.375 -2.363281 0.375 -2.96875 L 0.375 -3.265625 C 0.375 -3.890625 0.484375 -4.4375 0.703125 -4.90625 C 0.921875 -5.375 1.234375 -5.734375 1.640625 -5.984375 C 2.054688 -6.234375 2.523438 -6.359375 3.046875 -6.359375 C 3.566406 -6.359375 4.03125 -6.234375 4.4375 -5.984375 C 4.84375 -5.734375 5.15625 -5.375 5.375 -4.90625 C 5.601562 -4.4375 5.71875 -3.894531 5.71875 -3.28125 Z M 4.40625 -3.28125 C 4.40625 -3.9375 4.285156 -4.4375 4.046875 -4.78125 C 3.816406 -5.125 3.484375 -5.296875 3.046875 -5.296875 C 2.609375 -5.296875 2.269531 -5.125 2.03125 -4.78125 C 1.800781 -4.445312 1.6875 -3.953125 1.6875 -3.296875 L 1.6875 -3 C 1.6875 -2.351562 1.800781 -1.851562 2.03125 -1.5 C 2.269531 -1.144531 2.609375 -0.96875 3.046875 -0.96875 C 3.484375 -0.96875 3.816406 -1.140625 4.046875 -1.484375 C 4.285156 -1.828125 4.40625 -2.320312 4.40625 -2.96875 Z M 4.40625 -3.28125 "/></g></g></g><g fill="#004aad" fill-opacity="1"><g transform="translate(64.456576, 216.784693)"><g><path d="M 2.890625 -2.296875 L 1.859375 -2.296875 L 1.859375 0 L 0.5625 0 L 0.5625 -6.28125 L 2.890625 -6.28125 C 3.628906 -6.28125 4.203125 -6.113281 4.609375 -5.78125 C 5.015625 -5.445312 5.21875 -4.976562 5.21875 -4.375 C 5.21875 -3.945312 5.125 -3.585938 4.9375 -3.296875 C 4.75 -3.015625 4.46875 -2.789062 4.09375 -2.625 L 5.453125 -0.0625 L 5.453125 0 L 4.0625 0 Z M 1.859375 -3.34375 L 2.890625 -3.34375 C 3.222656 -3.34375 3.476562 -3.425781 3.65625 -3.59375 C 3.832031 -3.757812 3.921875 -3.988281 3.921875 -4.28125 C 3.921875 -4.570312 3.832031 -4.800781 3.65625 -4.96875 C 3.488281 -5.144531 3.234375 -5.234375 2.890625 -5.234375 L 1.859375 -5.234375 Z M 1.859375 -3.34375 "/></g></g></g><g fill="#004aad" fill-opacity="1"><g transform="translate(70.092205, 216.784693)"><g><path d="M 2.25 -6.28125 L 3.859375 -1.71875 L 5.46875 -6.28125 L 7.171875 -6.28125 L 7.171875 0 L 5.859375 0 L 5.859375 -1.71875 L 6 -4.671875 L 4.296875 0 L 3.40625 0 L 1.71875 -4.671875 L 1.859375 -1.71875 L 1.859375 0 L 0.5625 0 L 0.5625 -6.28125 Z M 2.25 -6.28125 "/></g></g></g><g fill="#004aad" fill-opacity="1"><g transform="translate(77.827719, 216.784693)"><g><path d="M 4.109375 -1.296875 L 1.84375 -1.296875 L 1.40625 0 L 0.03125 0 L 2.359375 -6.28125 L 3.5625 -6.28125 L 5.921875 0 L 4.546875 0 Z M 2.1875 -2.34375 L 3.75 -2.34375 L 2.96875 -4.6875 Z M 2.1875 -2.34375 "/></g></g></g><g fill="#004aad" fill-opacity="1"><g transform="translate(83.769491, 216.784693)"><g><path d="M 5.484375 -2.09375 C 5.441406 -1.414062 5.191406 -0.878906 4.734375 -0.484375 C 4.285156 -0.0976562 3.695312 0.09375 2.96875 0.09375 C 2.15625 0.09375 1.519531 -0.175781 1.0625 -0.71875 C 0.601562 -1.257812 0.375 -2.003906 0.375 -2.953125 L 0.375 -3.34375 C 0.375 -3.945312 0.476562 -4.476562 0.6875 -4.9375 C 0.90625 -5.394531 1.207031 -5.742188 1.59375 -5.984375 C 1.988281 -6.234375 2.453125 -6.359375 2.984375 -6.359375 C 3.703125 -6.359375 4.28125 -6.164062 4.71875 -5.78125 C 5.164062 -5.394531 5.425781 -4.847656 5.5 -4.140625 L 4.203125 -4.140625 C 4.171875 -4.546875 4.054688 -4.835938 3.859375 -5.015625 C 3.671875 -5.203125 3.378906 -5.296875 2.984375 -5.296875 C 2.546875 -5.296875 2.21875 -5.140625 2 -4.828125 C 1.789062 -4.523438 1.6875 -4.050781 1.6875 -3.40625 L 1.6875 -2.921875 C 1.6875 -2.242188 1.785156 -1.75 1.984375 -1.4375 C 2.191406 -1.125 2.519531 -0.96875 2.96875 -0.96875 C 3.363281 -0.96875 3.660156 -1.054688 3.859375 -1.234375 C 4.054688 -1.421875 4.164062 -1.707031 4.1875 -2.09375 Z M 5.484375 -2.09375 "/></g></g></g><g fill="#004aad" fill-opacity="1"><g transform="translate(89.547411, 216.784693)"><g><path d="M 1.9375 0 L 0.640625 0 L 0.640625 -6.28125 L 1.9375 -6.28125 Z M 1.9375 0 "/></g></g></g><g fill="#004aad" fill-opacity="1"><g transform="translate(92.121604, 216.784693)"><g><path d="M 5.71875 -3 C 5.71875 -2.375 5.609375 -1.828125 5.390625 -1.359375 C 5.171875 -0.898438 4.859375 -0.539062 4.453125 -0.28125 C 4.046875 -0.03125 3.578125 0.09375 3.046875 0.09375 C 2.523438 0.09375 2.0625 -0.03125 1.65625 -0.28125 C 1.25 -0.53125 0.929688 -0.890625 0.703125 -1.359375 C 0.484375 -1.828125 0.375 -2.363281 0.375 -2.96875 L 0.375 -3.265625 C 0.375 -3.890625 0.484375 -4.4375 0.703125 -4.90625 C 0.921875 -5.375 1.234375 -5.734375 1.640625 -5.984375 C 2.054688 -6.234375 2.523438 -6.359375 3.046875 -6.359375 C 3.566406 -6.359375 4.03125 -6.234375 4.4375 -5.984375 C 4.84375 -5.734375 5.15625 -5.375 5.375 -4.90625 C 5.601562 -4.4375 5.71875 -3.894531 5.71875 -3.28125 Z M 4.40625 -3.28125 C 4.40625 -3.9375 4.285156 -4.4375 4.046875 -4.78125 C 3.816406 -5.125 3.484375 -5.296875 3.046875 -5.296875 C 2.609375 -5.296875 2.269531 -5.125 2.03125 -4.78125 C 1.800781 -4.445312 1.6875 -3.953125 1.6875 -3.296875 L 1.6875 -3 C 1.6875 -2.351562 1.800781 -1.851562 2.03125 -1.5 C 2.269531 -1.144531 2.609375 -0.96875 3.046875 -0.96875 C 3.484375 -0.96875 3.816406 -1.140625 4.046875 -1.484375 C 4.285156 -1.828125 4.40625 -2.320312 4.40625 -2.96875 Z M 3.296875 -7.96875 L 4.65625 -7.96875 L 3.46875 -6.625 L 2.453125 -6.625 Z M 3.296875 -7.96875 "/></g></g></g><g fill="#004aad" fill-opacity="1"><g transform="translate(98.218603, 216.784693)"><g><path d="M 5.671875 0 L 4.375 0 L 1.859375 -4.125 L 1.859375 0 L 0.5625 0 L 0.5625 -6.28125 L 1.859375 -6.28125 L 4.375 -2.140625 L 4.375 -6.28125 L 5.671875 -6.28125 Z M 5.671875 0 "/></g></g></g><g fill="#004aad" fill-opacity="1"><g transform="translate(39.145406, 331.17063)"><g><path d="M 6.453125 -2.453125 C 6.398438 -1.660156 6.109375 -1.035156 5.578125 -0.578125 C 5.046875 -0.128906 4.347656 0.09375 3.484375 0.09375 C 2.535156 0.09375 1.789062 -0.222656 1.25 -0.859375 C 0.707031 -1.492188 0.4375 -2.367188 0.4375 -3.484375 L 0.4375 -3.9375 C 0.4375 -4.644531 0.5625 -5.269531 0.8125 -5.8125 C 1.0625 -6.351562 1.414062 -6.765625 1.875 -7.046875 C 2.34375 -7.335938 2.882812 -7.484375 3.5 -7.484375 C 4.351562 -7.484375 5.039062 -7.253906 5.5625 -6.796875 C 6.082031 -6.347656 6.382812 -5.707031 6.46875 -4.875 L 4.953125 -4.875 C 4.910156 -5.351562 4.773438 -5.695312 4.546875 -5.90625 C 4.316406 -6.125 3.96875 -6.234375 3.5 -6.234375 C 3 -6.234375 2.617188 -6.050781 2.359375 -5.6875 C 2.109375 -5.332031 1.984375 -4.769531 1.984375 -4 L 1.984375 -3.4375 C 1.984375 -2.644531 2.101562 -2.0625 2.34375 -1.6875 C 2.582031 -1.320312 2.960938 -1.140625 3.484375 -1.140625 C 3.953125 -1.140625 4.300781 -1.242188 4.53125 -1.453125 C 4.769531 -1.671875 4.90625 -2.003906 4.9375 -2.453125 Z M 6.453125 -2.453125 "/></g></g></g><g fill="#004aad" fill-opacity="1"><g transform="translate(45.943428, 331.17063)"><g><path d="M 6.734375 -3.53125 C 6.734375 -2.800781 6.601562 -2.160156 6.34375 -1.609375 C 6.082031 -1.066406 5.710938 -0.644531 5.234375 -0.34375 C 4.753906 -0.0507812 4.207031 0.09375 3.59375 0.09375 C 2.976562 0.09375 2.429688 -0.0507812 1.953125 -0.34375 C 1.472656 -0.632812 1.097656 -1.050781 0.828125 -1.59375 C 0.566406 -2.144531 0.4375 -2.773438 0.4375 -3.484375 L 0.4375 -3.84375 C 0.4375 -4.570312 0.566406 -5.210938 0.828125 -5.765625 C 1.085938 -6.316406 1.457031 -6.738281 1.9375 -7.03125 C 2.414062 -7.332031 2.960938 -7.484375 3.578125 -7.484375 C 4.191406 -7.484375 4.738281 -7.332031 5.21875 -7.03125 C 5.695312 -6.738281 6.066406 -6.316406 6.328125 -5.765625 C 6.597656 -5.210938 6.734375 -4.578125 6.734375 -3.859375 Z M 5.1875 -3.859375 C 5.1875 -4.628906 5.046875 -5.21875 4.765625 -5.625 C 4.492188 -6.03125 4.097656 -6.234375 3.578125 -6.234375 C 3.066406 -6.234375 2.671875 -6.03125 2.390625 -5.625 C 2.117188 -5.226562 1.984375 -4.648438 1.984375 -3.890625 L 1.984375 -3.53125 C 1.984375 -2.769531 2.117188 -2.179688 2.390625 -1.765625 C 2.671875 -1.347656 3.070312 -1.140625 3.59375 -1.140625 C 4.101562 -1.140625 4.492188 -1.335938 4.765625 -1.734375 C 5.046875 -2.140625 5.1875 -2.726562 5.1875 -3.5 Z M 5.1875 -3.859375 "/></g></g></g><g fill="#004aad" fill-opacity="1"><g transform="translate(53.116863, 331.17063)"><g><path d="M 6.671875 0 L 5.140625 0 L 2.1875 -4.859375 L 2.1875 0 L 0.65625 0 L 0.65625 -7.390625 L 2.1875 -7.390625 L 5.15625 -2.515625 L 5.15625 -7.390625 L 6.671875 -7.390625 Z M 6.671875 0 "/></g></g></g><g fill="#004aad" fill-opacity="1"><g transform="translate(60.452639, 331.17063)"><g><path d="M 6.734375 -3.53125 C 6.734375 -2.800781 6.601562 -2.160156 6.34375 -1.609375 C 6.082031 -1.066406 5.710938 -0.644531 5.234375 -0.34375 C 4.753906 -0.0507812 4.207031 0.09375 3.59375 0.09375 C 2.976562 0.09375 2.429688 -0.0507812 1.953125 -0.34375 C 1.472656 -0.632812 1.097656 -1.050781 0.828125 -1.59375 C 0.566406 -2.144531 0.4375 -2.773438 0.4375 -3.484375 L 0.4375 -3.84375 C 0.4375 -4.570312 0.566406 -5.210938 0.828125 -5.765625 C 1.085938 -6.316406 1.457031 -6.738281 1.9375 -7.03125 C 2.414062 -7.332031 2.960938 -7.484375 3.578125 -7.484375 C 4.191406 -7.484375 4.738281 -7.332031 5.21875 -7.03125 C 5.695312 -6.738281 6.066406 -6.316406 6.328125 -5.765625 C 6.597656 -5.210938 6.734375 -4.578125 6.734375 -3.859375 Z M 5.1875 -3.859375 C 5.1875 -4.628906 5.046875 -5.21875 4.765625 -5.625 C 4.492188 -6.03125 4.097656 -6.234375 3.578125 -6.234375 C 3.066406 -6.234375 2.671875 -6.03125 2.390625 -5.625 C 2.117188 -5.226562 1.984375 -4.648438 1.984375 -3.890625 L 1.984375 -3.53125 C 1.984375 -2.769531 2.117188 -2.179688 2.390625 -1.765625 C 2.671875 -1.347656 3.070312 -1.140625 3.59375 -1.140625 C 4.101562 -1.140625 4.492188 -1.335938 4.765625 -1.734375 C 5.046875 -2.140625 5.1875 -2.726562 5.1875 -3.5 Z M 5.1875 -3.859375 "/></g></g></g><g fill="#004aad" fill-opacity="1"><g transform="translate(67.626074, 331.17063)"><g><path d="M 6.453125 -2.453125 C 6.398438 -1.660156 6.109375 -1.035156 5.578125 -0.578125 C 5.046875 -0.128906 4.347656 0.09375 3.484375 0.09375 C 2.535156 0.09375 1.789062 -0.222656 1.25 -0.859375 C 0.707031 -1.492188 0.4375 -2.367188 0.4375 -3.484375 L 0.4375 -3.9375 C 0.4375 -4.644531 0.5625 -5.269531 0.8125 -5.8125 C 1.0625 -6.351562 1.414062 -6.765625 1.875 -7.046875 C 2.34375 -7.335938 2.882812 -7.484375 3.5 -7.484375 C 4.351562 -7.484375 5.039062 -7.253906 5.5625 -6.796875 C 6.082031 -6.347656 6.382812 -5.707031 6.46875 -4.875 L 4.953125 -4.875 C 4.910156 -5.351562 4.773438 -5.695312 4.546875 -5.90625 C 4.316406 -6.125 3.96875 -6.234375 3.5 -6.234375 C 3 -6.234375 2.617188 -6.050781 2.359375 -5.6875 C 2.109375 -5.332031 1.984375 -4.769531 1.984375 -4 L 1.984375 -3.4375 C 1.984375 -2.644531 2.101562 -2.0625 2.34375 -1.6875 C 2.582031 -1.320312 2.960938 -1.140625 3.484375 -1.140625 C 3.953125 -1.140625 4.300781 -1.242188 4.53125 -1.453125 C 4.769531 -1.671875 4.90625 -2.003906 4.9375 -2.453125 Z M 6.453125 -2.453125 "/></g></g></g><g fill="#004aad" fill-opacity="1"><g transform="translate(74.424096, 331.17063)"><g><path d="M 2.28125 0 L 0.75 0 L 0.75 -7.390625 L 2.28125 -7.390625 Z M 2.28125 0 "/></g></g></g><g fill="#004aad" fill-opacity="1"><g transform="translate(77.452767, 331.17063)"><g><path d="M 2.640625 -7.390625 L 4.546875 -2.03125 L 6.4375 -7.390625 L 8.4375 -7.390625 L 8.4375 0 L 6.90625 0 L 6.90625 -2.015625 L 7.0625 -5.5 L 5.0625 0 L 4.015625 0 L 2.03125 -5.5 L 2.1875 -2.015625 L 2.1875 0 L 0.65625 0 L 0.65625 -7.390625 Z M 2.640625 -7.390625 "/></g></g></g><g fill="#004aad" fill-opacity="1"><g transform="translate(86.554, 331.17063)"><g><path d="M 2.28125 0 L 0.75 0 L 0.75 -7.390625 L 2.28125 -7.390625 Z M 2.28125 0 "/></g></g></g><g fill="#004aad" fill-opacity="1"><g transform="translate(89.582671, 331.17063)"><g><path d="M 5.109375 -3.203125 L 2.1875 -3.203125 L 2.1875 -1.21875 L 5.609375 -1.21875 L 5.609375 0 L 0.65625 0 L 0.65625 -7.390625 L 5.59375 -7.390625 L 5.59375 -6.15625 L 2.1875 -6.15625 L 2.1875 -4.390625 L 5.109375 -4.390625 Z M 5.109375 -3.203125 "/></g></g></g><g fill="#004aad" fill-opacity="1"><g transform="translate(95.42694, 331.17063)"><g><path d="M 6.671875 0 L 5.140625 0 L 2.1875 -4.859375 L 2.1875 0 L 0.65625 0 L 0.65625 -7.390625 L 2.1875 -7.390625 L 5.15625 -2.515625 L 5.15625 -7.390625 L 6.671875 -7.390625 Z M 6.671875 0 "/></g></g></g><g fill="#004aad" fill-opacity="1"><g transform="translate(102.762716, 331.17063)"><g><path d="M 6.21875 -6.15625 L 3.953125 -6.15625 L 3.953125 0 L 2.4375 0 L 2.4375 -6.15625 L 0.203125 -6.15625 L 0.203125 -7.390625 L 6.21875 -7.390625 Z M 6.21875 -6.15625 "/></g></g></g><g fill="#004aad" fill-opacity="1"><g transform="translate(109.190398, 331.17063)"><g><path d="M 6.734375 -3.53125 C 6.734375 -2.800781 6.601562 -2.160156 6.34375 -1.609375 C 6.082031 -1.066406 5.710938 -0.644531 5.234375 -0.34375 C 4.753906 -0.0507812 4.207031 0.09375 3.59375 0.09375 C 2.976562 0.09375 2.429688 -0.0507812 1.953125 -0.34375 C 1.472656 -0.632812 1.097656 -1.050781 0.828125 -1.59375 C 0.566406 -2.144531 0.4375 -2.773438 0.4375 -3.484375 L 0.4375 -3.84375 C 0.4375 -4.570312 0.566406 -5.210938 0.828125 -5.765625 C 1.085938 -6.316406 1.457031 -6.738281 1.9375 -7.03125 C 2.414062 -7.332031 2.960938 -7.484375 3.578125 -7.484375 C 4.191406 -7.484375 4.738281 -7.332031 5.21875 -7.03125 C 5.695312 -6.738281 6.066406 -6.316406 6.328125 -5.765625 C 6.597656 -5.210938 6.734375 -4.578125 6.734375 -3.859375 Z M 5.1875 -3.859375 C 5.1875 -4.628906 5.046875 -5.21875 4.765625 -5.625 C 4.492188 -6.03125 4.097656 -6.234375 3.578125 -6.234375 C 3.066406 -6.234375 2.671875 -6.03125 2.390625 -5.625 C 2.117188 -5.226562 1.984375 -4.648438 1.984375 -3.890625 L 1.984375 -3.53125 C 1.984375 -2.769531 2.117188 -2.179688 2.390625 -1.765625 C 2.671875 -1.347656 3.070312 -1.140625 3.59375 -1.140625 C 4.101562 -1.140625 4.492188 -1.335938 4.765625 -1.734375 C 5.046875 -2.140625 5.1875 -2.726562 5.1875 -3.5 Z M 5.1875 -3.859375 "/></g></g></g></svg>